<?xml version="1.0" encoding="UTF-8"?>
<svg id="_레이어_2" data-name="레이어 2" xmlns="http://www.w3.org/2000/svg" viewBox="0 0 531.16 542.59">
  <defs>
    <style>
      .cls-1, .cls-2, .cls-3 {
        opacity: .2;
      }

      .cls-1, .cls-2, .cls-3, .cls-4, .cls-5, .cls-6, .cls-7, .cls-8, .cls-9, .cls-10, .cls-11, .cls-12, .cls-13, .cls-14 {
        stroke-width: 0px;
      }

      .cls-1, .cls-6 {
        fill: #398e43;
      }

      .cls-2 {
        fill: #086e38;
      }

      .cls-3, .cls-7 {
        fill: #21150b;
      }

      .cls-4 {
        fill: #422c18;
        opacity: .1;
      }

      .cls-6, .cls-7 {
        opacity: .3;
      }

      .cls-15 {
        fill: none;
        stroke: #231815;
        stroke-miterlimit: 10;
        stroke-width: 7px;
      }

      .cls-8 {
        fill: #f9e0d2;
      }

      .cls-9 {
        fill: #f9e9d4;
      }

      .cls-10 {
        fill: #455e2a;
      }

      .cls-11 {
        fill: #0c5b0a;
      }

      .cls-12 {
        fill: #221816;
      }

      .cls-13 {
        fill: #a06c2d;
      }

      .cls-14 {
        fill: #ff9f99;
      }
    </style>
  </defs>
  <g id="_레이어_1-2" data-name="레이어 1">
    <ellipse class="cls-9" cx="139.22" cy="427.81" rx="117" ry="114.78"/>
    <g>
      <path class="cls-8" d="m35.42,449.23c-.29.19-.58.36-.86.52-10.55,6.22-16.59.14-19.82-6.08-2.34-4.53-3.19-9.14-3.19-9.14,0,0-1.72-17.47,0-17.2,1.73.28,13.88-14.08,13.88-14.08,0,0,28.93,33.9,9.99,45.98Z"/>
      <path class="cls-8" d="m261.53,433.12s-4.92,26.79-23.86,14.7c-18.95-12.08,9.98-45.99,9.98-45.99,0,0,12.16,14.35,13.88,14.08,1.72-.27,0,17.2,0,17.2Z"/>
      <path class="cls-9" d="m246.76,392.09c-3.37,79.61-42.12,136.47-108.66,136.47h0c-66.55,0-105.3-56.86-108.66-136.47"/>
    </g>
    <path class="cls-11" d="m275.36,398.9c-1.36-2.98-4.18-5.01-7.79-5.97-.88-1.1-1.81-2.14-2.79-3.13-2.5-2.52-3.93-5.92-4.04-9.46-1.49-47.84-31.16-91.14-82.54-106.84-13.04-3.98-26.59-5.82-40.1-5.51-13.51-.31-27.06,1.52-40.1,5.51-51.38,15.7-81.05,59-82.54,106.84-.11,3.55-1.54,6.94-4.04,9.46-.98.99-1.91,2.03-2.79,3.13-3.61.96-6.43,2.98-7.79,5.97-3.16,6.94,2.77,16.45,13.25,21.23,10.49,4.78,21.55,3.03,24.72-3.91,1.01-2.22,1.09-4.69.4-7.19,2.69-6.6,9.95-10.21,16.89-8.28,27.33,7.59,54.66,11.24,82,10.95,27.33.29,54.66-3.37,82-10.95,6.94-1.93,14.2,1.68,16.89,8.28-.7,2.5-.61,4.98.4,7.19,3.16,6.94,14.23,8.69,24.72,3.91,10.49-4.78,16.42-14.28,13.25-21.23Z"/>
    <g>
      <g>
        <path class="cls-13" d="m13.19,329.52c-.89.47-1.68.92-2.4,1.35"/>
        <path class="cls-13" d="m500.06,79.57c.89.47,1.68.92,2.4,1.35"/>
      </g>
      <path class="cls-10" d="m530.28.09c.04.21.09.41.13.62.25-.24.5-.47.76-.71-.29.03-.59.06-.89.09Z"/>
      <path class="cls-7" d="m102.08,331.7c0,4.07-3.14,7.36-7.01,7.36h-25.44c-3.87,0-7.01-3.3-7.01-7.36h0c0-4.07,3.14-7.36,7.01-7.36h25.44c3.87,0,7.01,3.3,7.01,7.36h0Z"/>
      <path class="cls-3" d="m155.55,365.81c0,4.07-3.14,7.36-7.01,7.36h-25.44c-3.87,0-7.01-3.3-7.01-7.36h0c0-4.07,3.14-7.36,7.01-7.36h25.44c3.87,0,7.01,3.3,7.01,7.36h0Z"/>
      <path class="cls-2" d="m75.91,353.21c0,3.96-3.68,7.17-8.22,7.17h-21.33c-4.54,0-8.22-3.21-8.22-7.17h0c0-3.96,3.68-7.17,8.22-7.17h21.33c4.54,0,8.22,3.21,8.22,7.17h0Z"/>
      <path class="cls-1" d="m182.99,344.66c0,3.96-4.2,7.17-9.38,7.17h-24.35c-5.18,0-9.38-3.21-9.38-7.17h0c0-3.96,4.2-7.17,9.38-7.17h24.35c5.18,0,9.38,3.21,9.38,7.17h0Z"/>
      <path class="cls-6" d="m138.22,320.95c0,5.94-4.58,10.75-10.23,10.75h-1.66c-5.65,0-10.23-4.81-10.23-10.75h0c0-5.94,4.58-10.75,10.23-10.75h1.66c5.65,0,10.23,4.81,10.23,10.75h0Z"/>
      <path class="cls-2" d="m108.9,358.94c0,6.89-5.34,12.48-11.94,12.48h-1.94c-6.59,0-11.94-5.59-11.94-12.48h0c0-6.89,5.34-12.48,11.94-12.48h1.94c6.59,0,11.94,5.59,11.94,12.48h0Z"/>
      <path class="cls-4" d="m69.13,373.51c0,2.14-1.65,3.87-3.69,3.87h-20.47c-2.04,0-3.69-1.73-3.69-3.87h0c0-2.14,1.65-3.87,3.69-3.87h20.47c2.04,0,3.69,1.74,3.69,3.87h0Z"/>
    </g>
    <g>
      <g>
        <path class="cls-14" d="m88.06,461.48s.05-8.57,9.88-8.97,10.68,6.96,10.68,6.96c0,0,.65,7.76-9.98,9.14-10.64,1.38-10.57-6.85-10.57-6.85"/>
        <path class="cls-14" d="m185.54,450.09s-2.18-7.64-12.87-3.7c-10.7,3.94-4.39,12.41-4.39,12.41,0,0,4.38,5.94,11.84,2.63s5.43-11.35,5.43-11.35Z"/>
        <ellipse class="cls-5" cx="176.02" cy="435.03" rx="5.31" ry="8.43" transform="translate(-289.07 497.72) rotate(-75.65)"/>
        <ellipse class="cls-5" cx="101.36" cy="438.09" rx="8.45" ry="5.3" transform="translate(-138.84 57.96) rotate(-19.26)"/>
        <g>
          <ellipse class="cls-15" cx="129.8" cy="469.84" rx="7.59" ry="9.83" transform="translate(-14.21 4.16) rotate(-1.74)"/>
          <ellipse class="cls-15" cx="145.42" cy="469.2" rx="7.59" ry="9.83" transform="translate(-14.18 4.63) rotate(-1.74)"/>
        </g>
        <polygon class="cls-9" points="161.55 469.33 113.28 471.3 112.72 455.94 160.98 453.97 161.55 469.33"/>
        <ellipse class="cls-12" cx="137.65" cy="470.76" rx="4.21" ry="2.65" transform="translate(-21.84 6.94) rotate(-2.68)"/>
        <ellipse class="cls-12" cx="122.28" cy="470.57" rx="3.82" ry="2.03" transform="translate(-20.56 5.83) rotate(-2.52)"/>
        <ellipse class="cls-12" cx="152.98" cy="469.68" rx="3.8" ry="2.06" transform="translate(-20.42 7.15) rotate(-2.51)"/>
      </g>
      <path class="cls-10" d="m52.77,524.97c.04.21.09.41.13.62.25-.24.5-.47.76-.71-.29.03-.59.06-.89.09Z"/>
    </g>
  </g>
</svg>