<?xml version="1.0" standalone="no"?>
<!DOCTYPE svg PUBLIC "-//W3C//DTD SVG 20010904//EN"
 "http://www.w3.org/TR/2001/REC-SVG-20010904/DTD/svg10.dtd">
<svg version="1.0" xmlns="http://www.w3.org/2000/svg"
 width="512.000000pt" height="512.000000pt" viewBox="0 0 512.000000 512.000000"
 preserveAspectRatio="xMidYMid meet">

<g transform="translate(0.000000,512.000000) scale(0.100000,-0.100000)"
fill="#000000" stroke="none">
<path d="M425 4455 l-25 -24 0 -806 0 -805 -105 -210 c-58 -116 -112 -236
-120 -267 -13 -48 -15 -183 -15 -856 l0 -798 25 -24 24 -25 751 0 751 0 24 25
c24 23 25 29 25 156 l0 132 58 -7 c112 -13 301 -57 637 -147 489 -131 631
-158 812 -159 261 0 763 115 1373 315 294 97 312 118 318 360 6 247 -29 438
-113 611 -82 170 -198 289 -352 360 -150 71 -299 82 -592 45 -195 -25 -270
-26 -382 -6 -109 19 -212 54 -324 111 -219 112 -360 233 -479 412 -218 327
-362 858 -392 1447 -6 127 -9 141 -30 162 l-23 23 -911 0 -911 0 -24 -25z"/>
</g>
</svg>
