<svg width="36" height="12" viewBox="0 0 36 12" fill="none" xmlns="http://www.w3.org/2000/svg">
    <path
        d="M5.83225 2.664C5.68292 2.664 5.53892 2.62667 5.40025 2.552C5.26158 2.47733 5.16558 2.36533 5.11225 2.216C5.00558 1.928 4.88825 1.72533 4.76025 1.608C4.64292 1.48 4.49892 1.416 4.32825 1.416C4.22158 1.416 4.12025 1.496 4.02425 1.656C3.93892 1.816 3.87492 2.06667 3.83225 2.408C3.75758 3.112 3.72025 3.65067 3.72025 4.024C3.88025 4.056 4.10425 4.072 4.39225 4.072C4.54158 4.072 4.73358 4.06133 4.96825 4.04L5.40025 4.024C5.59225 4.024 5.74158 4.06133 5.84825 4.136C5.95492 4.21067 6.00825 4.33333 6.00825 4.504C6.00825 4.74933 5.93358 4.952 5.78425 5.112C5.63492 5.272 5.45892 5.352 5.25625 5.352C4.48825 5.352 3.97092 5.38933 3.70425 5.464C3.70425 6.104 3.73625 7.02133 3.80025 8.216C3.80025 8.39733 3.81092 8.65867 3.83225 9L3.89625 10.232C3.91758 10.5413 3.88558 10.76 3.80025 10.888C3.72558 11.0053 3.56025 11.064 3.30425 11.064C2.83492 11.064 2.53092 10.7813 2.39225 10.216C2.30692 9.81067 2.23758 9.23467 2.18425 8.488C2.14158 7.73067 2.12025 7.064 2.12025 6.488C2.12025 6.18933 2.13625 5.84267 2.16825 5.448C2.14692 5.43733 2.08825 5.432 1.99225 5.432C1.89625 5.432 1.82692 5.43733 1.78425 5.448C1.46425 5.46933 1.22958 5.48 1.08025 5.48C0.984249 5.48 0.888249 5.41067 0.792249 5.272C0.696249 5.13333 0.648249 4.97333 0.648249 4.792C0.648249 4.68533 0.685583 4.58933 0.760249 4.504C0.834916 4.408 0.925583 4.33867 1.03225 4.296C1.19225 4.21067 1.42158 4.168 1.72025 4.168H2.20025C2.20025 2.67467 2.36558 1.63467 2.69625 1.048C3.01625 0.493333 3.54425 0.216 4.28025 0.216C4.62158 0.216 4.94692 0.285333 5.25625 0.424C5.57625 0.562667 5.83225 0.754667 6.02425 1C6.22692 1.24533 6.32825 1.52267 6.32825 1.832C6.32825 2.16267 6.28558 2.38667 6.20025 2.504C6.11492 2.61067 5.99225 2.664 5.83225 2.664ZM6.95075 5.384C6.67342 5.192 6.53475 4.98933 6.53475 4.776C6.53475 4.62667 6.59875 4.488 6.72675 4.36C6.85475 4.232 7.04675 4.168 7.30275 4.168C7.60142 4.168 7.86808 4.248 8.10275 4.408C8.34808 4.55733 8.51875 4.776 8.61475 5.064C8.86008 4.776 9.13742 4.54667 9.44675 4.376C9.76675 4.20533 10.0921 4.12 10.4227 4.12C10.8174 4.12 11.1747 4.22667 11.4947 4.44C11.8147 4.65333 11.9747 4.94133 11.9747 5.304C11.9747 5.50667 11.8841 5.71467 11.7027 5.928C11.5321 6.14133 11.3561 6.248 11.1747 6.248C11.0787 6.248 10.9934 6.22667 10.9187 6.184C10.8547 6.13067 10.7747 6.056 10.6787 5.96C10.5721 5.85333 10.4814 5.77867 10.4067 5.736C10.3321 5.68267 10.2467 5.656 10.1507 5.656C9.98008 5.656 9.82008 5.68267 9.67075 5.736C9.52142 5.78933 9.42008 5.85333 9.36675 5.928C9.19608 6.19467 9.06808 6.43467 8.98275 6.648C8.90808 6.86133 8.87075 7.09067 8.87075 7.336C8.87075 7.51733 8.86542 7.66133 8.85475 7.768L8.83875 8.68C8.83875 8.81867 8.84408 8.97333 8.85475 9.144C8.86542 9.31467 8.87608 9.44267 8.88675 9.528C8.91875 9.816 8.93475 10.0933 8.93475 10.36C8.93475 10.5413 8.86542 10.7013 8.72675 10.84C8.58808 10.9787 8.41742 11.048 8.21475 11.048C7.89475 11.048 7.66008 10.9893 7.51075 10.872C7.36142 10.744 7.28675 10.5147 7.28675 10.184L7.27075 9.16C7.26008 8.95733 7.25475 8.66933 7.25475 8.296L7.27075 7.24C7.29208 6.728 7.30275 6.312 7.30275 5.992C7.30275 5.87467 7.27608 5.768 7.22275 5.672C7.18008 5.576 7.08942 5.48 6.95075 5.384ZM18.934 5.864C19.0193 6.01333 19.0887 6.232 19.142 6.52C19.1953 6.79733 19.222 7.048 19.222 7.272C19.222 7.688 19.1313 8.28 18.95 9.048C18.214 10.392 17.126 11.064 15.686 11.064C15.1527 11.064 14.6087 10.888 14.054 10.536C13.4993 10.184 13.1153 9.77867 12.902 9.32C12.614 8.40267 12.47 7.82133 12.47 7.576C12.47 7.14933 12.5607 6.696 12.742 6.216C12.934 5.736 13.174 5.32 13.462 4.968C13.6433 4.72267 13.9687 4.51467 14.438 4.344C14.9073 4.16267 15.334 4.072 15.718 4.072C16.4647 4.072 17.0993 4.216 17.622 4.504C18.1447 4.78133 18.582 5.23467 18.934 5.864ZM17.542 8.44C17.5953 8.30133 17.622 7.944 17.622 7.368C17.622 7.05867 17.5633 6.75467 17.446 6.456C17.3393 6.15733 17.1793 5.90133 16.966 5.688C16.9447 5.66667 16.886 5.63467 16.79 5.592C16.694 5.53867 16.5607 5.49067 16.39 5.448C16.23 5.39467 16.0433 5.368 15.83 5.368C15.2327 5.368 14.7953 5.608 14.518 6.088C14.2407 6.568 14.102 7.112 14.102 7.72C14.102 7.82667 14.1287 8.02933 14.182 8.328C14.246 8.62667 14.2993 8.81333 14.342 8.888C14.374 8.96267 14.454 9.06933 14.582 9.208C14.7207 9.336 14.886 9.45333 15.078 9.56C15.2807 9.656 15.4887 9.704 15.702 9.704C16.182 9.704 16.566 9.592 16.854 9.368C17.142 9.13333 17.3713 8.824 17.542 8.44ZM30.1455 8.184L30.2095 6.952C30.2095 6.504 30.1562 6.17333 30.0495 5.96C29.9535 5.74667 29.7295 5.64 29.3775 5.64C28.7055 5.64 28.1988 6.01867 27.8575 6.776C27.5162 7.52267 27.3455 8.616 27.3455 10.056C27.3455 10.12 27.3455 10.2533 27.3455 10.456C27.3562 10.648 27.3242 10.7973 27.2495 10.904C27.1855 11.0107 27.0682 11.064 26.8975 11.064C26.4708 11.064 26.1828 10.9467 26.0335 10.712C25.8842 10.4773 25.8095 10.1307 25.8095 9.672C25.8095 9.43733 25.8415 8.95733 25.9055 8.232C25.9588 7.72 25.9855 7.36267 25.9855 7.16C25.9855 6.62667 25.9055 6.23733 25.7455 5.992C25.5855 5.74667 25.3082 5.624 24.9135 5.624C24.4548 5.624 24.0762 5.85333 23.7775 6.312C23.4788 6.77067 23.2602 7.34133 23.1215 8.024C22.9828 8.696 22.9135 9.36267 22.9135 10.024C22.9135 10.3333 22.8602 10.584 22.7535 10.776C22.6575 10.968 22.4708 11.064 22.1935 11.064C21.9908 11.064 21.7882 11.0107 21.5855 10.904C21.3828 10.7867 21.2815 10.632 21.2815 10.44C21.2815 10.2373 21.3028 10.0347 21.3455 9.832C21.3988 9.50133 21.4415 9.016 21.4735 8.376C21.5055 7.736 21.5215 7.13333 21.5215 6.568C21.5215 6.312 21.4575 6.06667 21.3295 5.832C21.2122 5.58667 21.0682 5.464 20.8975 5.464C20.8548 5.464 20.7748 5.48533 20.6575 5.528C20.5508 5.57067 20.4708 5.592 20.4175 5.592C20.2788 5.592 20.1508 5.528 20.0335 5.4C19.9268 5.272 19.8735 5.16533 19.8735 5.08C19.8735 4.81333 20.0015 4.58933 20.2575 4.408C20.5242 4.216 20.8015 4.12 21.0895 4.12C21.4842 4.12 21.8255 4.25333 22.1135 4.52C22.4122 4.78667 22.6362 5.144 22.7855 5.592C23.0415 5.13333 23.3402 4.776 23.6815 4.52C24.0335 4.25333 24.4602 4.12 24.9615 4.12C25.8788 4.12 26.5455 4.53067 26.9615 5.352C27.2068 4.95733 27.5855 4.65333 28.0975 4.44C28.6202 4.22667 29.1322 4.12 29.6335 4.12C29.9962 4.12 30.3428 4.232 30.6735 4.456C31.0042 4.66933 31.2655 4.95733 31.4575 5.32C31.6602 5.672 31.7615 6.04 31.7615 6.424C31.7615 6.66933 31.7348 7.208 31.6815 8.04C31.6708 8.17867 31.6602 8.33333 31.6495 8.504C31.6388 8.664 31.6335 8.83467 31.6335 9.016C31.6335 9.24 31.6868 9.42133 31.7935 9.56C31.9108 9.69867 32.0602 9.784 32.2415 9.816C32.6042 9.90133 32.7855 10.0507 32.7855 10.264C32.7855 10.5093 32.6735 10.7067 32.4495 10.856C32.2255 10.9947 31.9748 11.064 31.6975 11.064C31.1748 11.064 30.7748 10.9147 30.4975 10.616C30.2308 10.3067 30.0975 9.864 30.0975 9.288L30.1455 8.184ZM35.8383 10.12C35.8383 10.3867 35.7316 10.6373 35.5183 10.872C35.3049 11.096 35.0703 11.208 34.8143 11.208C34.5156 11.208 34.2436 11.128 33.9983 10.968C33.7529 10.7973 33.6303 10.584 33.6303 10.328C33.6303 9.92267 33.7049 9.624 33.8543 9.432C34.0143 9.24 34.2489 9.144 34.5583 9.144C34.9209 9.144 35.2249 9.23467 35.4703 9.416C35.7156 9.58667 35.8383 9.82133 35.8383 10.12Z"
        fill="#4A544A" />
</svg>
    