<svg width="27" height="24" viewBox="0 0 27 24" fill="none" xmlns="http://www.w3.org/2000/svg">
    <path
        d="M12.0924 14.8187C8.17118 15.8924 7.58928 16.7647 6.86585 22.6077C6.14241 16.7647 5.56052 15.8924 1.63928 14.8187C5.56052 13.7451 6.14241 12.8728 6.86585 7.02979C7.58928 12.8728 8.17118 13.7451 12.0924 14.8187Z"
        fill="#678544" />
    <path
        d="M6.86575 23.8981C6.20522 23.8981 5.6443 23.4129 5.56566 22.7625C4.85795 17.0383 4.38091 16.9092 1.28795 16.0627C0.721785 15.9078 0.328613 15.3968 0.328613 14.8187C0.328613 14.2406 0.721785 13.7296 1.28795 13.5748C4.38091 12.7231 4.85795 12.5941 5.56566 6.87494C5.6443 6.22974 6.20522 5.73938 6.86575 5.73938C7.52628 5.73938 8.0872 6.22458 8.16584 6.87494C8.87355 12.5992 9.3506 12.7283 12.4436 13.5748C13.0097 13.7296 13.4029 14.2406 13.4029 14.8187C13.4029 15.3968 13.0097 15.9078 12.4436 16.0627C9.3506 16.9092 8.87355 17.0434 8.16584 22.7625C8.0872 23.4077 7.52628 23.8981 6.86575 23.8981ZM5.08337 14.8187C5.8802 15.3246 6.44113 15.944 6.86575 16.7698C7.29038 15.9491 7.8513 15.3246 8.64813 14.8187C7.8513 14.3129 7.29038 13.6935 6.86575 12.8676C6.44113 13.6883 5.8802 14.3129 5.08337 14.8187Z"
        fill="#678544" />
    <path
        d="M26.1609 5.52689C23.7739 6.18044 23.4197 6.71145 22.9793 10.2683C22.5389 6.71145 22.1847 6.18044 19.7977 5.52689C22.1847 4.87335 22.5389 4.34234 22.9793 0.785522C23.4197 4.34234 23.7739 4.87335 26.1609 5.52689Z"
        fill="#A7C87E" />
    <path
        d="M22.9794 11.0538C22.5773 11.0538 22.2358 10.7584 22.188 10.3625C21.7571 6.87797 21.4668 6.79942 19.584 6.28412C19.2393 6.18986 19 5.8788 19 5.52689C19 5.17498 19.2393 4.86391 19.584 4.76965C21.4668 4.25121 21.7571 4.17266 22.188 0.691254C22.2358 0.298496 22.5773 0 22.9794 0C23.3814 0 23.7229 0.295354 23.7708 0.691254C24.2016 4.1758 24.492 4.25435 26.3747 4.76965C26.7194 4.86391 26.9587 5.17498 26.9587 5.52689C26.9587 5.8788 26.7194 6.18986 26.3747 6.28412C24.492 6.79942 24.2016 6.88112 23.7708 10.3625C23.7229 10.7553 23.3814 11.0538 22.9794 11.0538ZM21.8944 5.52689C22.3794 5.83481 22.7209 6.21186 22.9794 6.71459C23.2378 6.215 23.5793 5.83481 24.0643 5.52689C23.5793 5.21896 23.2378 4.84192 22.9794 4.33919C22.7209 4.83877 22.3794 5.21896 21.8944 5.52689Z"
        fill="#A7C87E" />
</svg>
    