<?xml version="1.0" encoding="UTF-8"?>
<svg id="_레이어_2" data-name="레이어 2" xmlns="http://www.w3.org/2000/svg" viewBox="0 0 520.85 120.96">
  <defs>
    <style>
      .cls-1 {
        fill: #fff;
        stroke-width: 0px;
      }
    </style>
  </defs>
  <g id="_레이어_1-2" data-name="레이어 1">
    <g>
      <path class="cls-1" d="m485.89,112.88H35.86c-1.83,0-11.59-.18-19.47-8.06-4.98-4.98-8.06-11.87-8.06-19.47v-49.69c0-15.21,12.33-27.53,27.53-27.53h450.04c15.21,0,27.53,12.33,27.53,27.53v49.69c0,15.21-12.33,27.53-27.53,27.53Z"/>
      <g>
        <path class="cls-1" d="m8.14,23.79c-.24,1.12-.35,2.22-.64,3.32-.64,2.31,0,6.92-2.2,4.24-.31-.4-.52-.21-.67.26-.08.24-.15.54-.19.87-.02.33-.03.69-.04,1.04l.57,1.98c.21.61.44,1.16.66,1.75l2.51.08c.36-.22.71-1.62.99.51.71,5.44,1.71,9.86,4.6,10.51,1.29.29-.51,1.53-.3,2.71.48-.22,1.17.78,1.35-1.29.11-1.32-.17-2.29-.59-2.89-.54-.75-1.12-1.71-1.7-1.8-1.16-.18-1.72-1.32-1.69-4.21.56-.4,1.08,2.11,1.67.23.39-1.24.3-2.34.1-3.41-.21-1.08-.54-2.19-.53-3.15.37.23.58.47.79.46.88-.06,1.65-.82,2.35-1.86.39-.51.67-1.11.97-1.76.36-.62.55-1.34.83-2.05,1.78-5.38,5.97-10.05,11.29-12.17.33-.11.65-.3.98-.5.32-.21.65-.43,1.02-.55.71-.26,1.46-.45,2.22.15.26.21,1.57-.07,1.69-.74.09-.57-.42-1.56,1.49-1.32,1.11.15.86.46.38.79-.43.34-.77.74-.26,1.01,3.81.17,8.17-.1,10.03-1.32,1.67-1.08,3.76-1.49,6-1.73,1.23-.14,2.03-.24,2.4-.66,1.14-1.27,1.08-1.28,3.64-.52,2.29.69,2.95.61,4.69-.58.86-.59,1.48.09,2.26.07,1.39-.04,1.79,1.12,2.08.83,1.83-1.83,8.16-.24,9.78-2.42.46-.61.71-1.98,3.81-2.09,1.05.32-.6,1.34,1.35,1.33,1.46,0,2.91-.52,4.37-.8.54.73,1.26,1.44,1.59,2.18.43.99,2.81-.29,3.36.64-1.52.24-3.01.49-4.5.73l-4.7,1.06c.02.08.05.16.05.24-.03.94,4.5.79,2.92,1.84-.6.4-3.46.22-5.3.31l.17-.08c.05.23,0,.66.18.68,5.55.59,11.17.42,16.75.1,1.08-.06,1.55-.66,1.26-1.19-4.49-.71-3.88-1.96-2.19-3.39,1.56-1.32,3.09-.58,4.68-.05,3.98-.44-.84-1.99,1.83-2.61,1.66.34,2.51.94,3.75,1.61-.42-1.5,5.15-2.31,2.13-4.12-2.54-1.53-7.12-1-11.46-1.98,7.19,0,3.67-1.98,4.61-3.05.3-.34-1.56-.47-2.28-.26-4.38,1.28-9.9,2.13-10.89,4.86-.5-.92-.19-1.74-.63-2.49-.19-.33-1.89-.5-2.91-.75.25.84-2.83.06-2.61.95.26,1.02,1.54.18,2.31.24,1.04.09,2.07.44,1.84.71-.34.41-1.47.71-2.26,1.05-1.51-1.17-6.93-.32-6.81-1.79.2-2.47-3.55-1.11-6.02-1.52.96.77,3.95.53,3.3,1.28-.45.52-2.57.77-4.4.73-1.66-.04-3.07-.04-2.95-.99.31-2.48-4.74-2.42-8.12-2.45-2.06-.02-5.58-1.01-6.63.26-1.45,1.74-3.86,2.55-7.94,2.99-.88.09-1.51.56-2.22.03-.91-.68.38-.72,1.58-.84,2.39-.24,4.88-.5,5.08-1.75-3.53-.84-8.09,2.87-11.06-.51-.05-.06-.84-.1-1.06-.03-.6.2-1.68.41-2.7.59-.51.09-1.03.18-1.56.27-.51.14-1.03.27-1.53.41-2,.49-3.68,1.42-4.32,2.41-.28.42-.74.98-1.32,1.51-.56.55-1.26,1.02-1.89,1.62-.64.56-1.3,1.09-1.88,1.52-.55.49-1.04.89-1.39,1.13-2.35,1.65-4.71,3.44-6.71,5.69-1.99,2.21-3.78,4.75-4.73,7.61-.05.13-.4.28-.61.44,0,0,.13-.16.13-.16Zm2.4,4.47c-.31,1.62-.95,1.15-1.43,1.62-.44.44-.57-.71-.4-1.1.21-.47.38-.94.52-1.41.19-.46.34-.93.48-1.41.15-.47.24-.97.4-1.44l.47-1.42c.62-1.9,1.61-3.72,3.29-4.89.19.79.12,1.57-.13,2.33-.21.79-.55,1.61-1,2.42-.38.85-.84,1.72-1.27,2.6-.34.92-.76,1.81-.93,2.71Z"/>
        <path class="cls-1" d="m293.94,4.57c1.79.09,3.77-.52,4.83.88,1.01,1.33,3.42-.8,5.8.15-2.76.23-3.9,2.25-7.66.63-.68-.3-1.56.27-1.72.78-.13.4-1.21.74-1.87,1.1-1.28-1.41-4.89.4-6.32-.79-1.5.22-4.95-.05-3.56.99.81.6-1.61,2.48,2.46,1.88,5.39-.8,3.42.63,2.84,1.44-.46.64-1.15,1.37-.1,1.79,1.31.51,2.68-.27,3.96-.49,1.14-.19,2.64-.3,3.26-1-1.24-.26-2.53-.54-3.83-.81-2.48-.52-.55-1.68-.27-1.75,1.69-.41,2.13-.22,2.19.73.02.44,4.82-.31,5.03,1.42.07.59.24,1.64,3.54,1.71,3.33.06,2.41-1.19,4-1.57.35-1.32,4.35-1.12,4.79-1.06,3.09.45,4.24-.67,6.07-1.12,2.69,1.08-1.88,1.77-.62,2.77.21.17-.64.37-1.02.12-2.85-1.95-4.55,0-6.73.33-2.36,1.79,3.05.38,2.87,1.33,0,.67-3.73.31-2.58,1.39.36.34,1.18.66,2.31.54,4.51-.47,8.98.22,13.49.07,3.1-.1,8.29.41,8.98-.13,2.91-2.32,5.14-.61,7.94-.05.56-.74-.16-2.63,3.66-1.21,4.9,1.83,5.26.8,5.22-1.14-.01-.59.42-1.56,2.92-1.21,1.08.15-2.22,1,.48,1.12,1.63.07,3.35-.24,4.99-.2,1.86.05.47.57.26.82-.19.22.38,1.11-.92.6-1.64-.65-2.24.27-3.32.1-.31,1.13-2.63-1.34-2.59.25.01.64,1.13,1.11,2.57,1.03,7.75-.42,15.48.27,23.21.01,1.46-.05,3.48-.19,1.79-1.12-.93-.51-.99-.96.42-.99,1.03-.02,3.43-.03,2.74.99-.28.41-1.69.88.28,1.05,1.22.1,1.95-.4,2.23-.89.84-1.44,1.87-2.78,6.4-2.66-.52-.87-2.53-.52-3.72-.83-1.81-.47-1.43-1.23-1.45-1.94-.03-.95,1.44-.36,2.3-.39l.04-.45c1.71-.64-1.72-1.16-.18-1.9.7-.33-.05-1.04-1.24-1.16-1.51-.16-2.65.51-2.8.92-.42,1.19-1.63,2.34-.65,3.82-3.29-1.04-5.79-3.22-8.53-.29,0,0-.18.05-.45.1-.27.05-.63.1-1,.12-.74.03-1.5-.09-1.63-.67-.43-1.92-5.57-3.15-10.28-2.51-.83.11-2,.18-2.65.02-.83-.21-.91-.8-.16-1.05,3.24-1.07,2.25-2.96,4.83-4.16.68-.31,1-1.13-.25-1.06-1.93.11-1.64-1.06-3.55-.76-2.43.38.77.91-.33,1.27-1.25.41.71,1.56-1.8,1.55-2.6-.01-1.53-.8-1.13-1.39.42-.63-.58-.88-1.75-.89-.92,0-1.69.29-1.64.74.13,1.23-2.39,2.83-4.77,2.95-.43.02-1.11-.12-1.34-.27-1.26-.83-1.17-.81-2.51-.4-1.3.4-2.19,1.62-4.28.67-.58-.26.67-1.18.86-1.8.16-.53,1.63-.43,1.92-.76.64-.73.85-1.19-1.84-1.56-2.99-.41-3.77.32-5.28.89-.63.24-2.4,1.27-2.09.29.52-1.69-1.92-.59-2.76-.85-3.17-1-7.21,1.86-10.02-.42-.05-.04-1.45.08-1.49.18-.81,2.01-2.39.43-3.61.13-3.51-.85-7.65-.35-8.16,1-5.12-2.4-11.09-1.97-13.97,1.02-.75.78-2.16.42-3.36.46l2.3,1.55Zm19.83,3.59c-3.07.04-5.56-.04-8.17.63.49-1.28.49-2.42-.17-3.49,5.15-.22,4.53,2.09,8.34,2.86Zm18.16,5.48c-.14.03-1.05-.79-1.67-.81-2.53-.07-3.45-.86-4.7-1.54,2.26-.57,4.14.2,5.93.46,2.32.33,4.22,1.17,6.45,1.84-2.27,1.17-4.08-.39-6.01.05Z"/>
        <path class="cls-1" d="m137.46,117.38c-.52-.26-1.84-.41-.93-.92.81-.45,1.6-.46,2.9-.18,1.78.38,3.83.71,3.15,1.67-.71,1-.9,2.42-4.95,2.22.55.2,1.04.45,1.68.59,4.47.92,8.87-1.55,13.61-.03,1.01.32,1.47-.6,1.1-1.01-.47-.51-.68-.88.53-1.13,3.48.05,1.07,2.63,4.57,2.07,3.06-.49,5.7.9,8.31-.08-.25-.32-.26-.73-.75-.9-2.67-.95-7.09-1.63-2.43-3.46-2.2-.28,1.34-1.46-1.36-1.59-2.22-.11-1.75.6-1.57,1.14.08.25,1.09.62-.33.64-.54,0-1.65-.4-1.58-.53.43-.77,1.16-1.51-.76-2.12.96-.4-.6-1.51,2.75-1.33,2.68.15,4.28,1.07,6.82,1.17l-.22.06c-1.74-1.92-5.29-2.47-11.11-2.23,3.9-.82,4.01-2.87,8.72-2.63,1.04-1.07-1.43-1.61-2.11-2.42-2.65-.17-7.07.66-7.55-.48-.5-1.19-1.6-.86-2.93-.91-2.44-.09-4.62.97-7.32.31-.23-.06-1.9.6-.72,1.06.64.25,2.65-.11,1.95.69-.09.1-1.91.23-2.58.63.09-.81-2.58-.28-2.97-1.23-.67-1.6-1.19-1.57-3.2-.96-.38.11-.08.8-1.02.37-4.28-1.96-8.2-.74-12.15.17-1.15.26-2.42.6-1.32,1.3,1.21.76,2.43.33,3.89.1,1.51-.24,1.07-.75,1.5-1.14.46-.43,1.23-.96,2.47-.67.59.14.67.78.67,1.19.01,2.19-4.02,1.33-6.72,1.57-3.54.32-3.42-.73-4.01-1.61-.32-.48-.19-1.19-1.87-1.23-1.26-.03-1.95.45-2.22.93-.86,1.52-4.34,1.7-6.85,1.87-2.41.17-8.76,1.6-5.97-1.81.69-.84-.27-1.47-3.52-1.36-3.16.11-6.49.22-9.64.12-5.94-.19-11.81-.47-17.68.15-1.4.73.97,1.82-1.32,2.47-.04.81,1.91,1.46,1.08,2.33l2.22.02c1.46-.89,1.58-.98,3.7-.5,1.31.3.9-.19,1.32-.28,2.25-.51,1.92-1.54,2.84-2.38.85,2.35,1.9,4.65.53,6.97,1.2-.52,4.59-.1,3.49-1.67-.76-1.08,2.48-.65,3.74-1,1.5-.42,2.66.15,2.8.93-1.5-.03-2.91-.06-4.32-.08,1.38.85.57,2.03,2.41,2.81l1.08-.02c.71-.31,2.03-.63,2.01-.94-.06-1.48,2.42-1.95,5.03-2.13,2.28-.16-1.54,1.37,1.66,1.36.41,0,.23.87-1.02.72-3.03-.37-4.63-.34-3.24,1.24.16.18-.68.51-1.05.78l-.14-.08c2.16-.04,5.63,1.57,5.92-.83.04-.32.75-.3.96-.07.43.46,2.2.48,1.57,1.41-.5.75-4.61,1.31-1.33,2.39,2.05-.46,3.21-.26,3.16.77-.02.4-2.98.65-.65,1.1,1.82.35,1.48-.6,2.17-.98,1.1-.6,3.02-1.21,4.86-.75,3.09.78,3.07-.07,3.1-.88.02-.57-.43-1.19,1.7-1.14,1.77.04,2.59.47,2.81,1.23.48,1.65,6,3.11,9.5,2.52,1-.17,2.75-.53,1.28-1.07-.61-.22-2.77.03-1.72-.69.71-.49,2.35-.52,3.71.13,1.05.5,2.77.76,4.2,1.12,2.31-.99,1.51-1.92-.31-2.84Zm3.53-7.1c1.97.68,3.37.83,5.1-.19,1.32-.78,3.54-.99,5.74-.55,1.47.29,3.32.42,3.51,1.35.19.94-2.04,1.12-2.95,1.14-1.61.05-1.35,1.31-3.45.78-.08-.02-1.21.43-1.17.64.05.23.73.47,1.7.41,5.95-.33,4.34,1.71,5.43,3.03-3.76-3.14-11-1.47-16.42-2.06-2.74-.3-4.47-.8-6.1-1.49-1.81-.77-.02-1.45,1.26-1.93,2.43-.91,2.35-1.59-.34-2.37-1.44-.42-.94-1.24-.11-1.09,2.89.52,3.74-.41,5.13-1.25-1.1,1.64.06,2.67,2.65,3.56Zm-44.54-3c.35.25.52.36.68.48-2.7.2,1.93,2.77-3.01,1.81-1.21-.23-3.98-.77-5.16-1.58,2.3-1.18,5.2-.28,7.49-.71Z"/>
        <path class="cls-1" d="m5.46,78.28c-.52-3.97.67-8.14-.24-12.07l-.48-2.54.89.08h.58c.52.11.91-.1.9-1.7,0-1.62-.4-1.77-.92-1.63l-.08-.19.06-1.16c.51-.69,1.17-.79,1.5-2.18,2.9-.36.71-5.66,1.38-8.19.65.59,1.04,2,1.76,2.6,1.84,1.52-.99,1.44-.23,2.65.49.79,1.09,1.24,1.65,1.71.19.15.55-.37.31-.84-.88-1.73.02-2.51.27-3.64.09.72.12,1.98.28,2.07,2.58,1.46,1.4,7.34.98,8.73-1.19,3.91.43,2.59.82,3.44-.34,1.51-1.76.4-1.41,1.63.57,2.02.3,3.24.11,4.97-.04.38.34,1.46.04,1.88-3.04,4.24.07,6.74.59,9.66.12.66.11,1.5.11,2,0,.48-.02.87.09.97,1.31,1.43,1.67,2.55,1.31,4.9-.09.74.47.7.95.8.51.1.9.31.73,1.63,1.84,1.77,2.52,2.68,2.54,3.64.03.93-.59,1.78-1.13,2.68.5.19.93.41,1.08.33.62-.34,1.13-1.12,1.76-1.21.31-.03.67.05,1.08.47.2.21.43.49.71.83.27.36.58.82.98,1.34.14.21.99.87,2.15,1.4,1.15.54,2.59.96,3.68.91.58,0,1.34.27,2.03.34,1.15.11,2.23.24,3.11.46.35.11,1.08.24,1.63.42.57.18,1.09.41,1.54.7,1.38.86.15,1.76-1.14,2.39-.53.26-1.13.5-1.69.7-.51.2-1.08.34-1.7.4-1.25.13-2.72-.05-4.3-.71-3.04-1.3-4.58-2.35-5.75-2.58-1.13-.29-1.88.19-2.69,1.27,2.45,1.18,1.97-1.55,4.48.09.82.49.75.92.54,1.38-.21.46-.57.94-.2,1.52.16.25-.6.45.16.89,2.57,1.45,3.64,2.37,3.95,3.38.32.99-.11,1.93-.2,2.9-.58.41-1.17.81-1.79,1.2-4.92-.94-9.52-3.39-13.33-6.64-3.83-3.26-6.88-7.18-9.51-11.53-.43.86,1.88,3.25,1.23,3.4-.62.16-1.51-1.23-2.29-3.17-1.33-3.24-2.98-6.67-3.29-10.52-.1-1.42-.08-2.68.1-3.82.09-.55.21-1.16.37-1.57.16-.41.35-.8.58-1.18.35-.58.33-2.42.51-3.29.53-2.66,1.13-7.11,2.87-2.48,1.59,2.04.11,4.03-.05,6.09.78.23,1.53.58,2.31-.21-1.86-2,.55-6.46-1.07-8.56-.35.8-.78,1.78-1.2,2.75Z"/>
        <path class="cls-1" d="m186.33,107.34c.93,2.27-2.73,2.03-6.11,1.95-.57-.01-1.15,0-1.72,0-1.15.01-2.48-.01-2.33.69.13.59.07,1.41,2.52.65.28-.09,2.37.43,2.53.76.43.87-2.47.64-3.18,1.36-.34.34-1.15-.49-1.45-.55-2.56-.6-1.73-2.74-6.21-2.38-2.35,1.11-1.47,2.57-2.41,3.83l.22-.06c-3.78.94-2.35,2.47-2.34,3.81,0,.67,2.01.58,2.94.93,2.06-1.23,8.52.77,8.48-2.01-.01-.95,1.33-.43,2.17-.31,4.03.6,1.48,2.56,4.1,3.49,1.08.38-1.82.91-.17,1.24.98.2,2.14.04,3.32-.48,1.47-.64,3.89-2.02,5.97-1.18,2.56,1.02,3.69,0,4.82-.26,3.12-.69,3.01-.82,5.75.55.87.43,1.87.55,3.03.4.35-.04.5-.35.74-.54-4.4-.83-.58-1.77-.12-2.64.63-1.2,3.16.54,4.42-.45.46-.36,1.97.18,1.52.54-.7.55.6,1.77-1.43,1.63-4.04-.27-3.02.75-3.02,1.58,0,1.41,2.55.78,4.17.88.57.03.73-.08.45-.31-.85-.09-1.74-.18-3.04-.31,1.65-.35,3.02-.89,4.32-.85,1.77.04,1.56,1.39,3.84,1.47.95-1.33,2.86-2.45,2.59-3.91-.17-.95.93-1.69,3.7-.91.48-2.87,3.16-3.78,9.63-3.25.35.03.63.19.97.22,1.47.12,4.2-.46,4.13-.1-.19.98-1.25,2.06-4.4,2.19.22.44.91,1.18.6,1.26-2.12.56-.76,1.22.05,1.48,1.61.5,2.35-.59,2.65-.6,2.68-.13,5.53-.56,8.14.19.72.21-1.59,1.81,2.24.69,3.68-1.08-1.94-1.03-.67-1.64,4.12.67,5.21,1.64,4.71,4.39,1.3-.5,2.99-.85,3.4-1.37,1.4-1.78,3.19-1.91,6.02-.52,1.38.68,1.56-.27,2.24-.32,3.05-.19.7-1.65,1.62-1.82,4.56-.46.62,1.77,2.95.99,3.1-1.04,7.22-.67,9.9-1.8,1.28-.64,3.5-1.28-.14-1.86-5.19,1.09-9.97-.27-14.96-.43l.21-.06c-.31.76-2.32.3-3.25.83,1.59.78,5.79-.4,5.7,1.51-2.09.16-4.85-.62-7.36.46-1.21.52-.45-.86-1.69-1.07,2.92-1.39.59-3.87,6.22-4.8,2.86-.47-1.33-.72-.97-1.25l.16.07c-2.57-.55-4.65,1.17-7.24.27,2.78-.42,1.51-.38,1.4-1.01-.34-1.83-5.18-1.36-6.06-2.23-2-1.98-4.16-.81-6.59-.46.76.91,3.24.15,4.19.81-.96.52-1.81.98-3.05,1.66-.59-.96-2.73-1.3-3.26-1.95-1.57-1.91-4.45-.93-6.06-.38-3.88,1.33-4.73,4.19-12.11,3.75-2.55-.15.59.98-.85,1.42-1.04.32,2.69.78.09,1.31-1.62.33-2.59-.24-3.57-.46-2.54-.58-3.63-.62-5.52-.17-1.15.27-.85,1.28-3.67.86-3.58-.54-.35.78-.63.77-2.94-.13-5.51,1.41-6.93,1.07-1.95-.47-3.28-1.83-1.6-3.09.42-.32.24-.77.35-1.16.33-1.14-1.61-1.03-3.32-1.05-4.82.31-7.31-1.84-11.76-1.92Zm3.25,6.66c1.67-1.32,3.3-2.68,6.04-3.7.34-.13,2.11-.27,1.73.42-.35.63,2.7,1.1,1.42,1.13-6.5.13-4.96,2.35-6.59,3.94-.79-.68-3.76-.86-2.59-1.79Z"/>
        <path class="cls-1" d="m508.94,57.52c.66.16.42,1.8.29,2.79-.11.82-.23,1.46.25,1.47.22,0,.65.53.61-.9-.06-2.39.8-.78,1.15-1.43-.15-1.16,1.12-1.44.5-1.87-1.47-1.04-.45-3.18-.22-3.36,1.64-1.35,1.03-4.66,1.23-7.25-.26-.8-.26-1.6,0-2.4-.01-4.33-1.33-.31-1.95-1.85.37-2.3.63-4.13,1.93-5.32,1.47-1.35.6,3.29,1.69,2.16.03-2.03-.12-3.82-.62-5.46-.11-.4-.24-.79-.37-1.15-.15-.37-.34-.71-.52-1.04-.38-.66-.73-1.26-1.18-1.78-.64-.72-1.99-.31-1.63-2.05.09-.83-.36-1.68-.71-2.31-.41-.61-.72-1.01-.25-1.13.32-.07.58-.55.99-.66.21-.05.45,0,.77.24.32.24.72.69,1.11,1.49.38.75,1,1.19,1.61,1.6.6.41,1.28.77,1.86,1.3-.1-.64-.2-1.27-.29-1.92-.13-.64-.31-1.28-.48-1.95.38.28.65.94.91,1.55.22.62.41,1.19.77,1.29.35.06.7.28,1.05.67.36.39.72.97.99,1.75l.2,1.05c.56.48.9.21,1.1-.44.17-.65.31-1.7.2-2.65-.15-1.98-1.03-2.02-1.49-2.35-1.18-.75-1.4-3.37-2.31-4.2-.43-.43-.7-1.25-1.1-1.91-.4-.66-.85-1.21-1.43-1.13-.96.13-1.45-.54-1.91-1.39-.45-.86-.74-2.01-1.26-2.67-.39-.55.71-.4-.64-2.11-1.69-1.88-2.58-2.8-2.61-3.09,0-.15.22-.17.67-.07.43.12,1.09.36,1.97.71-3.55-3.13-7.73-5.55-12.22-7.03-1.11-.41-2.26-.68-3.42-.94-1.14-.3-2.32-.43-3.49-.58-1.17-.19-2.34-.19-3.52-.22l-.88-.02h-.43s-.35,0-.35,0l-1.4.04c.35.52.7,1.04,1.04,1.55.28.02.57.04.85.06.34.03.67.06,1,.1.66.07,1.31.15,1.88.28,2.13.62,2.03,1.67,1.79,2.11-.15.29-.84.23-1.69.1-.85-.07-1.88-.21-2.65-.22-1.27.61-2.1,1.53-4.75.94l-2.2.95c1.41.11,3.34.52,4.15.28.83-.25,1.52-.42,2.08-.53.57-.11,1.06-.12,1.43-.11.74.03,1.07.23,1.2.51.25.56-.24,1.44.19,1.9.41.21.8.49,1.19.72,1.22.76,1.22,1.19.39,1.99-.42.41-.95.74-1.53,1.04-.58.31-1.23.69-1.89,1.02-.58.32-1.49.72-2.35,1.15-.86.42-1.73.89-2.55,1.42,2.14-.42,4.42-.46,5.48-.42.66-.04,1.27.04,1.87,0,.3-.02.61-.05.91-.12.3-.03.6-.08.91-.17.12-.04.52-.08,1.09-.09.56,0,1.26.16,2.01.35.73.23,1.45.66,2.05,1.14.55.57.96,1.24,1.06,2,.04.4.27.83.64,1.21.18.19.41.36.63.54.21.19.45.38.71.54.25.16.52.31.79.43.25.14.5.27.75.36.5.18.99.24,1.37.11.45-.16.62-.03.91.36.71.93.27.87-.22.94-1.17.2-.81,1.2.22,2.23.2.19.41.38.56.59.15.22.28.44.41.66.24.45.5.89.61,1.38l.38,1.44c.07.5.14.99.24,1.48.38,2.16-.2,4.2,1.21,7.04.16.27.2,1.77.07,2.04-.78,1.59-1.29,2.88-.44,5.45.45,1.35-.64,2.82-.45,4.82.13,1.38.46,2.38.64,3.61.48-.81,1.07-1.43,1.41-2.49.37-1.14.63-2.15,1.34-1.91.25.08.53.11.43.65-.27,1.46-.37,3.79-1.23,3.58-1.22-.31-.81,6.1-2.48,3.18.04,1.35-.41,3.28.65,3.46.55.1,1.12-.04,1.67-.07.01-1.71.28-3.27,1.05-3.08Zm-2.94-43c-.08.26-.72-.1-.91-.6-.11-.27-.44-.6-.73-.89-.29-.28-.51-.57-.34-.85.55-.89.51-2.21.67-3.85,2.39,2.23,2.67,3.53,2.48,4.3-.21.78-.95,1.17-1.17,1.89Z"/>
        <path class="cls-1" d="m224.73,9.77c.91,1.03,3.6.11,4.85.77-4.25.58-5.24,1.44-3.12,2.72.57.34,1.03.47-.57.66-1.77.21-1.63.41-1.09,1.71.05.11.04.23.06.35-1.49-.04-3.83.16-4.33-.15-1.51-.96-2.83-.72-4.4-.2-1.61.53-2.26.57-3.04-.41-.57-.71-1.35-1.83-4.36-1.61l1.76-.78c-6.27-1.74,1.55-2.81,1.94-2.85,6.28-.64-2.6-1.01-.13-1.7.99-.27-1.42-.64-1.81-.62-1.93.14-1.53.8-1.72,1.43-.5,1.71-1.45,3.39-7.14,3.08l.2.07c-1.95-.6,2.64-1.1-.24-2.05-6.98-2.29-4.58.89-6.35,1.78-.24-.39-.25-.74-.63-.99-.75-.5-1.86-.82-3.38-.63-1.25.15-.95.62-.98.99-.05.76.53.9,2.45.69,1.21-.13,1.55.71,2.07,1.17l.17-.07c-2.89.02-5.52.71-8.64-.5-2.06-.8-2.64.95-3.84,1.59-2.74,1.45,1.37,1.1,2.33,1.58-1.67.69-3.47.03-5.16,0-2.19-.02-2.45-.58-1.23-1.47.26-.19.27-.46.2-.69-.07-.22-.36-.46-1.05-.21-4.12,1.53-10.3.91-14.42,2.37.3-.91-5.94-1.95.19-2.83-.52-.31-1.49-.64-1.46-.94.05-.46-4.49-1.64,1.29-1.47,1.71.05.82-1.43.69-2.23l-.18.05c1.99.1,4.45-.07,5.85.36,2.19.67,3.45-.28,4.01-.24,6.63.47-1.12-1.51,1.63-1.56,1.26-.65.82-1.32.17-1.99,4.91.53,8.65-.3,11.93-1.75,1.44-.64,3.27-.97,5.44-1.1,3.32-.21,6.8-.29,9.5-1.33.36-.14,1.13-.69,1.63-.19,2.68,2.7,3.07-.33,4.64-.32,1.2.98,1.91,2.26,4.95.47,1.66-.98,4.48-.77,6.85-.11-1.13.76-2.94,1.14-4.78,1.51-2.5,1.21-3.13,2.31-1.3,2.58,4.64.69,5.28,2.7,8.05,3.98.85.39.56,1.22,2.68,1.12l-.17-.06Z"/>
        <path class="cls-1" d="m280.94,116.96c-1.28,1.04-2.26,2.13-3.47,3.3,2.52.04,3.81-.55,4.13-1.06,1.49-2.35,8.97-3.41,7.81-6.31-.06-.15.56-.42,1.01-.53,1.16-.29,11.7,1.54,12.2,2.08q2.07,2.28,8.25,2.71c-.51-.87-2.63-1.76-.12-2.53.56-.17,1.83-.66,2.43-.18.95.76,1.86,1.63-.22,2.41-.27.1-1.02.39-.04.51,1.14.15,2.1.13,2.62-.51.86-1.06,2.33-1.5,4.46-.41l1,.52c.61-.35.32-1.42,1.07-1.09,2.55,1.12,4.8-.15,7.06.13l.2-1.44c-2.13-1.48-1.79-1.76,2.33-1.88.21-.52,1.02-.84,2.15-.97,4.22-.48,3-1.33-.19-2.72,5.06,1.18,5.93-.05,7.02-1.14-1.77-.56-4.04-1.25-5.91-.87-4.37.89-7.27-.09-10.08-1.08-1.28-.45-2.54-.6-3.98-.73,1.07,1.11-2.61,1.14-2.63,2,0,.28,1.79.16.85.58-.46.21-1.46.21-2-.1-.65-.37-1.2-.77-1.89-1.22-2.06.85-3.43,2.36-6.46,1.88-2.17-.34-2.84-1.48-1.47-2.71.85-.77-1.66-.6-2.79-.59-5.19.03-10.37,1.37-15.61.02-.32-.08-1.48-.15-1.44.38.15,2.08-4.16,1.02-4.71.75-4.22-2.06-3.95.26-4.49.86-.84.94-4.51,1.75-6.58,1.33-1.14-.23.79-1.15-1.27-.85-1.36.2-.85.79-.38,1.21.35.31,1.13.58-.01.89-3.03-2.02-4.92-2.08-7.26-.27l-.16-.07c3.48.08,6.58.35,6.48,2.24,2.11-.89,4.18-1.93,7.19-2.15,2.82-.21,5.83.01,8.44-1.72-.59,2.35-3.24,3.22-6.72,3.55-2.87.27-5.92.21-8.9.3-1.88.43-4.29.24-5.95,1.02-1.44.68-2.76,1.14.81,1.09l-.21.06c2.44-.58,5.26-.78,7.73-1.22,4.71-.85,6.62-.28,7.23,1.65,3.63.57,1.42,1.22.14,1.86,1,.25,4.04-.35,2.33,1.03Zm37.05-8.03c.2-.2,2.85-.28,3.72-.03,2.95.85-.87,1.96.8,2.92-2.89-.72-6.08-1.31-4.53-2.9Z"/>
        <path class="cls-1" d="m175.31,4.95c.66.67,1.1,1.35-.17,1.99-.98-.33-3.58.93-3.34-.6.09-.57-.42-.9-1.93-.84-1.68.06-1.53.58-1.49,1.03.03.42.23.84.31,1.12-1.46.83-4.74-1.39-5.03.73l.18-.05c-1.91-.31-1.6-1.31-3.13-1.74-4.25.73,5.42,3.44-3.25,3.56,1.5-1.66-.03-2.77-3.98-3.24-2.27-.27-2.84-1.12-3.29-1.78-.48-.69-.98-1.12-2.58-1.31-.7-.08-1.29.2-.95.3,2.1.58-.97,2.15,1.49,2.1,2.51-.06,2.12.7,2.9,1.02,1.4.57,2.84,1.29,2.1,2.27-1.81-.25-3.62-.49-5.43-.74,1.54-1.41,0-2.18-3.15-2.61-.85.89-2.33,1.61-4.9,2.64,3.65-.6,5.8.96,8.23-.11-.07,1.16-4.45,1.27-3.74,2.62-1.49-.04-2.46-.26-2.31-1,.16-.79-.33-.99-2.06-.43-1.03.33-3.83.25-2.35,1.07,1.09.61,2.25,1.92,5.44,1.27,1.76.69,1.74.68-.39,1.23-.32.08-.66.36-.56.49,1.06,1.47.15,2.28-3.89,2.09-3.58-.17-7.17-.45-6.46-2.45.42-1.18-1.83-1.4-3.16-1.99,2.18-.3,4-2.7,6.35.18,1.65-1.45,1.5-2.35-1.6-2.97-3.58-.72-2.25,1.37-4.6,1.3-.26-1.52-1.33-3.15,1.91-4.46.65-.26.74-.51.01-.78-1.18-.45-1.55.09-2.17.3-1.57.54-2.72.73-5.1.69-1.5-.03-1.12.62-2.01.83-.88.21-1.34.75-.12.9,6.34.81.58,1.55-.05,2.29-.24.28-.88.5-1.56.87-.26-.84-.55-1.53-.66-2.23-.12-.78-2-.91-2.81-.88-2.16.09-1.11.77-.68,1.24,1.15,1.26.4,2.02-3.65,2.11,3.53-1.59-.3-3.2.71-4.79.4-.63.2-.65-7.55-2.88,5.85.38,10.91.18,15.71,1.09-.24-.45-.47-.88-.7-1.31.53-.52-.27-.77-1.16-1,.63-.6-.94-1.54,1.43-1.84,1.91-.24,1.97.42,2.33.98.31.48,1.67.51,2.4.33,5.71-1.36,10.11-.26,14.78,1.79-.38-.78-.39-1.02-.6-1.21-.75-.67-1.43-1.46.39-1.86,1.99-.44,3.55.07,4.31.94,1.66,1.92,3.88,1.16,4.77-.03.73-.97,1.94-1.24,3.53-.94,2.05.38,3.61.66,6.04.28,1.82-.28.28.98,1.64,1.24,1.15-1.57.95-1.44,4.31-.56,1.44.37,4.04-.53,5.83.32,2.39-1.35,5.02-1.01,8.49-.66,1.85.19,3.62.07,4.83.83-2.55.43.72,2.94-4.87,2.34-1.41-.15-3.24-.14-2.99.88Z"/>
        <path class="cls-1" d="m406.56,114.55c1.34-.66,2.63-1.35,4.07-1.98.45-.19,1.46-.37,1.96-.29,1.07.18.8.65.6,1.03-.53,1.01-.71,1.94,2.41,2.28l3.64-1.51c.98-1.95.11-4.2,5.44-5.43.37,2.37,4.88,1.5,8.21,1.66-1.84-1.55,2.77-3.62-2.31-4.9-7.97-.89-16-.16-23.99-.25-2.01-.02-.38,1.28-2.4.69-3.23-.95-3.56-.97-4.58.47-.88,1.23-2.07.75-4.18.73-2.3-.02,2.04,1.46-.89,1.95-.9.15-.55-.34-.93-.37-3.4-.33-4.95-1.03-3.45-2.55.56-.56.19-1.15-1.82-1.07-.85.03-2.71.14-2.28.32,2.42,1.01.03,1.86-.12,2.76-.05.3,2.95.19.44.81-1.81.44-1.61-.15-2.24-.45-2.29-1.09-1.36-2.19.92-3.83-3.8,1.19-6.19.24-8.73.37-5.87.29,1.54,1.67-1.11,2.23-.66.14-1.28.59-1.76.55-1.57-.12-2.8-.52-4.14-.92-2.22-.67-.58-1.18.26-2.27-3.1,1.11-5.82,1.32-8.13.94-4.26-.71-9.92.6-11.68.1-6.75-1.94-6.26.39-7.76,1.72,2.47.59,5.69.2,7.95,1.06,3.18-.53,5.09-.07,5.81,1.31,3.54.38,6.97.78,9.16,2.19,2.17,1.4,6.17.32,8.93,1.01,2.34-3.12,3.4-.05,5.16.2,1.13-.58,2.28-1.18,3.44-1.77-1.04-.26-2.13-.63-.44-.98,1.33-.27,2,.04,2.71.71,1.61,1.52,4.92,1.79,8.77,1.64,3.51-.14,7.45-.25,8.22,1.86,1.62.32,3.23.32,4.85,0Zm-3.13-2.25c-3.32-.32-4.97-1.78-5.77-2.97-.43-.64,3.16-.94,4.82-.92,3.73.04,2.57,1.4,2.84,2.36-.8.49,1.54,1.86-1.89,1.53Z"/>
        <path class="cls-1" d="m389.5,9.24l.04-.45c2.21-.26,2.83,1.21,4.52.91,4.52-.79,7.42-2.37,9.14-4.22.55-.59.81-1,2.4-1.03,1.12.25,2.06.71,3.56.53-.65,1.66,3.33.86,4.69,1.51,1,.48.94-.16.91-.35-.04-.3-.57-.86-.52-.86,3.25-.48.31-2.25,3.65-2.67,1.5.6-1.06,1.09-.76,1.72.34.72,1.15,1.19,2.99,1.14,1.83-.05,2.35-.37,2.02-1.24-.5-1.28.12-2.7-4.39-2.7-.04-1.06,2.31-.31,2.73-.78.57-.64,1.8-.64,2.75-.44,1.22.25,1,.81.37,1.23-1.09.73-.98,1.36.76,1.85,1.05.3,2.15.22,3.17-.09,2.2-.66.12-1.27-.2-1.87-.19-.35-1.46-.73-.48-1.01.81-.23,2.69-.32,3.19-.11,1.75.75,2.91,1.47,4.98.07.78-.53,2.46.2,3.49.37,2.96.51,5.35.78,7.37.46.12.88,1.27,1.54,2.68,2.15-6.39,1.08,1.56,1.36.69,2.14.1.35,1.45.55.65,1.03-.73.44,1.76.3.78.9-5.83-1.2-8.95.99-13.14,1.94-1.15.26-2.62.31-3.86.05-1.37-.28-2.66-.06-3.44.48-.59.41-.21.6.89.86,5.72,1.33,10.29,1.28,12.06-.9,2.21-2.71,3.27,1.14,4.55-.06,1.13.59,2.19,1.15.49,1.92-2.42,1.09-2.38,1.12-.37,3.11.39.38.06.58-.47.82-.96.44-2.01.49-2.86,0-.54-.31-2.81-.5-.52-1.14,1.23-.34,1.44-1.05-.26-1.29-2.9-.41-.68.59-1.18.83-.46.22-1.68.51-1.88.43-3.46-1.23-9.04.21-10.08-.24-4.67-1.98-7.54-.17-11.05.36-2.44-.98-1.24-3.1-6-3.36-1.64-.22-1.95-.89-2.69-1.41-1.5-1.05-3.71-.17-5.55-.32-1.03-.09-.58.35-.54.63.11.93,1.28,1.13,3.35,1.11,3.56-.03,1.47.8,1.01,1.36l-1.32.55c-2.5-2.04-6.06-2.42-10.41-.99,1.47.46,3.13.25,4.97.2-.94.96-1.97,1.73-4.04,1.63-2.04-.1-1.96-1.06-2.21-1.73-.32-.85-.05-1.52-3.36-1.13-3.7.44-.76-1.66-3.26-1.92Z"/>
        <path class="cls-1" d="m513.25,72.29l-.03.57c2.01-.42,2.3,4.63,3.59,6.44.31.43.93,4.09,1.27-.19.08-1.07.58-.29.66.28.24,1.9.56,3.86-.29,5.56-.21.41-.55.57-.84.92-.28.34-.5.88-.49,2.16-.34-.45-.99-1.12-.97-1.23.3-1.85,0-2.74-.33-3.27-.34-.5-.78-.5-.98-.12-.47.89-.25,1.49.04,2.11.28.63.65,1.28.53,2.16-.28.96-.75.76-1.14.76-.4,0-.77.18-1.02,1.78-.12,1.03-.15,1.71.05,2.17.17.45.46.65.65.61.34-.07.82.04,1.26-.33.22-.18.43-.49.61-.99.16-.51.21-1.23.2-2.21-.01-.16.76-.98,1.07-1.54.36.24.83.02,1.23.1.39.08.77.47.67,2.01-.03.63-.08,1.32-.16,2.02-.12.69-.3,1.38-.5,2.02-.36,1.3-1.05,2.31-1.81,2.65-.72.3-.94,1.05-1.23,1.79-.26.74-.45,1.53-.85,1.9-.31.33-1.79,2.44-1.04.73.24-.52.39-.96.46-1.33.08-.36.11-.62.09-.81-.04-.37-.3-.42-.79-.27-.13.41-.28.77-.44,1.09-.18.3-.39.56-.59.78-.41.45-.85.78-1.28,1.09-.41.33-.91.58-1.33.97-.45.37-.83.89-1.27,1.57-.56.84-.81,1.56.49.48,1.33-1.24,1.15-.43.96.43-.24.81-.48,1.67,1,.34-.34.5-.74.96-1.11,1.44-1.04-.29-3.9,3.15-4.84,2.29-.23-.22-.36-.34.84-.96,1.61-.85,1.79-1.57.65-1.41-.31.04-.91.37-1.34.7-1.15.84-.61-.26-.35-1.05.13-.39.2-.71,0-.68-.1.01-.26.11-.52.33-.26.22-.6.57-1.13.99-2.22,1.9-.33,2.4-1.02,3.84-.83-.72-2.14-1.13-1.31-2.81.39-.77-.56-1.52,2.1-2.23.77-.27,1.41-2.36,1.28-2.33-1.13.09-2.2.29-3.77,1.62-.6.23-1.24.37-1.81.43-.57.06-1.08.03-1.49-.16.29-.44,1.09-.75,1.71-1.1.59-.4.95-.85.4-1.41l-.81.61-.87.52-.87.53c-.3.16-.61.29-.92.44h.16c.11-.93-.33-1.01-.86-.81-.27.1-.55.3-.83.47-.29.15-.56.32-.75.44-1.27.82-1.35.39-1.4-.11,0-.1,1.02-.75,2.04-1.32.49-.34.98-.65,1.36-.87.37-.24.62-.42.68-.39.51.27,1.1.32,1.74.23.61-.15,1.28-.44,1.98-.8.63-.44,1.37-.86,2.03-1.39.65-.53,1.39-.99,2.05-1.49-.72.22-1.12.18-1.35,0-.21-.17-.23-.47-.18-.84.11-.73.61-1.66.58-2.32.07-1.29.68-2.17,1.94-2.45.27-.05.38-.45.43-.95.02-.51.03-1.09-.21-1.61-.15-.38-.11-.94.02-1.43.11-.5.22-.96.37-1.08.87-.74,1.18-1.77,1.34-2.89.11-1.39-.02-3.04-.18-4.66-.15-1.51,1.35-2.02.43-4.01.47-.28,1.2-1.44,1.3.43.18,3.38,1.23,2.61,2.04,3.12-.02,1,.08,2.04.09,3.05,0,1-.05,2.04-.45,2.76-.65,1.28-.49,1.67.25,1.94.6.18,1.64,1.77,1.67.48-.1-3.25,1.19-6.19.47-9.38.54-.97,1.07-1.94,1.65-3-.66-.89-2.02-.56-1.28-3.93h.59Z"/>
        <path class="cls-1" d="m28.25,119c.62-.4,1.21-.79,1.79-1.2,1.63-.2,2.25-.78,2.7-1.37.45-.61.74-1.24,1.62-1.78.61-.38,1-.84,2.07-.95,1.36-.14,1.09.44,1.53.74.9.61,6.68.07,8.02-.65,1.43-.76,3.04-1.46,4.58-2.18,3.72.74,7.36,1.57,11.2,2.17,2.34.37,2.97,3.7,7.42.83.14-.09,1.46-.03,1.57.08.83.81,3.82,1.15,2.9,2.32-2.64-.03-5.02,1.4-7.8,0-1.33,2.71,5.29.73,5.83,2.26-5.46,2.37-12.8,1.46-19.53,1.46-3.62,0,.18-1.47-1.7-2.09-.27-.13-.78-.12-1.18.09-2.52,1.31-5.52,1.82-8.73,2-.8.04-1.62.06-2.44.07-.41,0-.82,0-1.24,0l-1.33-.02c-2.25-.06-4.36-.36-6.42-.8-.38-.08-.59-.64-.86-.98Z"/>
        <path class="cls-1" d="m432.89,110.3c-1.84-1.55,2.77-3.62-2.31-4.9,2.49-.4,4.34-1.12,6.31.73.93.87,2.62,3.5,8.62,2.42-.23-.77-3.79-1.74-2-1.97,2.62-.34,3.6-2.04,7.82-1.3,2.57.45,6.3-.66,9.7-.14-.35.9-1.48.41-2.44.36-2.54-.14-4.99-.29-3.3,1.43,1.36,1.39-2.32,1.33-3.82,1.65.31,1.47,4.55-.72,4.1,1.09,3.84.13,2.87.8,1.02,1.58-.1.04-.14.17-.07.21.43.27.86.14,1.26-.03v-.02c-.99,1.85-4.68,3.12-5.96,4.97-.55.81-3.39,1.65-6.35,1.35-3.27-.33-3.58.72-4.39,1.52-.64.64-1.13,1.19-3.16.61-2.17-.61-.39-1.22.37-1.43,2.33-.66,3.82-1.27,1.53-2.38-.22-1.2-2.61-1.27-4.61-1.54q1.36-2.19-1.05-3.36l-1.25-.85Z"/>
        <path class="cls-1" d="m349.95,108.38c3.18-.53,5.09-.07,5.81,1.31-2.43,1.42-1.93,3.57.9,4.58,3.9,1.4-1.02,1.23-1.9,1.78,2.56,1.94,6.18-.44,9.02.38-.09.93-1.86,1.2-3.46,1.54-3.96-1.1-7.03.75-10.7.56,3.28-1.48-1.69-1.35-2.72-1.9.98-.43,1.48-.41,2.32-.28,1.12.17,2.81.43,3.02-.47.28-1.23-1.9-.15-2.49-.42-3.88-1.8-5.21,1.13-8.58.72,4.46.66,4.14,2.01,2.79,3.7,2.6-.5,2.91-1.98,5.82-1.42,2.98.64.29.92-.48,1.32-2.9,1.49-6.89,1.42-8.41-.29-.76-.85-2.85-.32-3.41-.97-.44-.52,2.04-.92-.6-1.73-.75,2.72-7.57,2.06-10.76,3.6-1.44-2.19,1.18-3.47,5.57-4.37l.96-.45,2.33-1.41c4.74-.63,1.73,1.39,3.86,1.86,2.1-1.88,1.02-4.07,3.46-5.87,1.18-.87,3.09-1.45,5.22-1.43,1.28.02,1.26.35,2.4-.36Z"/>
        <path class="cls-1" d="m291.64,3.02l2.3,1.55c-1.87,1.01-5.71.97-7,2.29-2.67-.01-5.25.16-7.77.54-1.55.23-3.44.98-3.92-.55-.22-.7-2.77-.58-3.36-.33-4.49,1.9-7.56,1.96-8.96-1.35.11,1.64-1.24,2.08-4.16,1.61.25-.72,1.06-1.32,2.25-1.83-5.64-.94,2.11-1.97-.11-2.93-.12-.05-.24-.15-.21-.22.51-1.07,3.07-2.08,4.51-1.52,3.22,1.25,8.79-1.33,10.46,1.34.77,1.18,1.13,2.85,3.53,3.22,2.96.46-1.19-1.86,2.56-1.87.23,0,.45-.21.68-.33,1.03.49,1.95,1.73,3.34.1.64-.74,1.75-1.01,3.56-.69l1.24.52,1.06.44Z"/>
        <path class="cls-1" d="m6.18,59.06l-.06,1.16-.97.16c-.35.04-.79-.31-.85,1.07h-.59c.04-.74.04-2.03-.24-1.86-.96.6-1.04-.73-1.15-2.35-.16-2.5.43-1.65,1.04-1.83.72-.22.32-2.19.38-3.39.11-2.04-.43-1.46-.85-1.01-.65.71-.39-2.63-1.23-1.41-.64.93-1.03-.52-1.22-1.77-.25-1.63.27-2.19.78-2.91.49-.69,1.42-.36.5-3.59-.96-3.35,1.41-2.19,2.02-3.91.66,2.49,1.25-.4,1.88-.16l2.51.08c.56,3.67.09,7.81.93,11.35-.67,2.53,1.52,7.82-1.38,8.19-.05-2.14-.33-4.1-.06-6.46.33-2.77-.46-4.39-1.75-4.23-.26.03-.59-.79-.64.44-.02.64-.29,1.87.49,1.66.53-.14,1.6,1.43,1.26,1.88-1.88,2.41-.43,6.07-.81,8.9Z"/>
        <path class="cls-1" d="m486.34,4.97c-1.27.61-2.1,1.53-4.75.94-2.14-.61,1.12-1.22.44-1.89-2.54.26-3.11,1.44-5.46,1.42-.48,0-2.64.38-1.42-.46.85-.59.79-.81-.74-.92-1.03-.07-1.67.08-2.01.57-.22.32,1.1,1.37-1.47.87-3.99-.79-7.55-.42-11.12.39-1.81-.32-1.7-1.71-4.6-1.43,1.32-1.19,5.58-1.23,6.41-3.05-3.02,1.01-6.28.52-8.89.85-3.48.44-3.1-.24-3.21-1.08.35-.17.91-.51,1.03-.48,3.87.8,8.1-.09,11.86.39,4.11.52,3.98.69,7.61-.35,2.83-.12-.67,1.8,3,1.56,2.15-.14,2.51-.73,3.54-1.27.47-.24,2.93-1.51,3.97.1.48.75,3.15.57,3.37,1.42-1.58.06-2.37.17-.96.89,1.04.54,3.75.45,3.41,1.53Z"/>
        <path class="cls-1" d="m73.49,116.94c2.43-1.2,5.57-2.35,1.43-3.97-.95-.37-2.14-.49-3.07-.15-2.72.99-2.66,1.01-5.59.09.53-.56,4.82.23,2.97-1.31-.16-.13,2.75-.9,4.23-1.37l2.22.02c3.02.4,3.6,1.22,3.77,2.53.14,1.1-.55,2.69,3.28,3.28l.25,1.38c-.28.75-2.07,1.61,1.01,2.09.66.1,1.18.36,1.76.54-.79.21-1.56.57-2.37.59-2.96.07-5.94.03-9.56.03,2.83-1.33,3.47-2.64-.33-3.75Z"/>
        <path class="cls-1" d="m360.32,117.98c1.6-.34,3.37-.61,3.46-1.54-1.72-2.08,3-.96,4.44-1.48,1.55-.56,2.12-.02,1.71.66-.18.3-.57.69.49.76.58.04,1.43-.16,1.88-.36.62-.28.9-.68,1.45-.99,1.11-.62,2.7-.51,4.19-.37.3.03.73.47.61.52-.9.39-1,1.15-3.42.8-1.18-.17-1.23.71-.32,1.19v-.02c1.45.91-1.78,2.18,1.37,3.02.56.15-.16.58-1.05.6-6.29.16-12.43-.53-18.77-.29,1.93-.91,4.2-.46,6.54-.73-.75-.64-3.1-.9-2.59-1.77Z"/>
        <path class="cls-1" d="m413.56,11.26c4.76.26,3.56,2.38,6,3.36.05.75,2.92.15,2.64.87-.2.51-1.65.54-2.85.55-4.83.03-9.65-.47-14.5-.03-1.06.1-2.08-.27-2.15-.61-.06-.28,1.06-.57,1.44-.9.78-.67,4.44.06,3.67-1.32l1.32-.55c2.51.12,3.5-.61,4.43-1.37Z"/>
        <path class="cls-1" d="m232.54,7.54c5.18.55,9.03.43,7.97-2.52-.15-.41.56-1.22,2.17-1.23,1.18,0,1.59.53,1.72,1.05.44,1.7,2.57,3.15,5.29,4.74-6.43-.52-11.26.62-16.85.86,1.07-1,2.92-2.06-.12-2.97,0,0-.17.08-.17.08Z"/>
        <path class="cls-1" d="m480.02,114.55c-5.31-1.77-7.79-4.74-14.5-5.93-.27-.05-.44-.51-.21-.66,1.11-.77.93.3,1.55.21,3.33-.46,5.05-.16,5.59,1.47.11.34,4.04-.07,6.03-.38,2.72-.41,4.55.01,6.38.78,1.86.77.86,1.42-.23,2.1-2.52-.19-4.71-.94-7.49-.79.12,1.21,6.56,1.41,2.88,3.19Z"/>
        <path class="cls-1" d="m215.46,2.14c1.84-.37,3.65-.75,4.78-1.51.9-.14,1.11.97,2.99.04,1.73-.86,5.05-.44,6.28.94-1.58.68-2.95,1.41-3.57,2.34-1.14.77-3.12,2-4.67,1.35-2.15-.89-7.35-1.07-5.81-3.17Z"/>
        <path class="cls-1" d="m401.71,114.55c1.62.32,3.23.32,4.85,0,2.09.07,5.22,0,1.87,1.3-2.37.92-2.1,1.93-1.81,3.03-.06.8-1.14,1.01-2.93.97-2-.04-2.01-.61-1.82-1.13.42-1.11-.86-1.91-2.45-2.68h.02c-1.68-.02-3.47.01-4.3-.77-.32-.3-.03-.58.92-.67,1.88-.19,3.7-1.14,5.65-.05Z"/>
        <path class="cls-1" d="m385.83,117.91c1.78-.5,1.03-1.06.18-1.61,1.11-.29-.14-1.19,1.89-1.24-2.17,1.37,5.9-.35,2.61,1.49-.24.13.27,1.42,3.15,1.27,1.66-.08,2.93.78,2.94,1.44,0,.38-1.57,1-2.9.16-.33-.21-.78-.3-1.02.09-1.5,2.36-4.13,1.21-7.26.56-2.53-.53,1.14-1.28-.91-1.6l1.32-.55Z"/>
        <path class="cls-1" d="m3.94,33.55c-.97,3.34-2.16,1.82-3.94,3.13.18-.3.33-.61.47-.92.14-.34.28-.77.4-1.16.24-.79.41-1.58.54-2.37.18-.79.34-1.58.47-2.37l.18-1.19.25-1.17c.54-3.14,1.59-6.16,3.38-8.12-.09.94.92,1.59,1.64,1.53.95-.07,1.01,1.25.69,3.03,0,0,.13-.16.13-.16-.55.43-1.07.9-1.6,1.43-.53.53-1.05,1.14-1.43,1.9-.84,1.49-1.44,3.58-1.16,6.44Z"/>
        <path class="cls-1" d="m86.63,11.67l-4.7,1.06c-3.38.35-4.29,1.12-2.33,2.38l.17-.08c-1.57-.12-3.06,1.54-3.63.49-.38-.71-1.4-1.06-1.82-1.6-.17-.22-2.57-1.6,1.44-.97-.61-.95,2.15-1.47,1.8-2.41-.07-.18.13-.46.44-.55,1.67-.48,8.06.78,8.62,1.68Z"/>
        <path class="cls-1" d="m415.61,115.58l3.64-1.51q1.28,1.98,5.51,1.43l1.32.55c.29.39,1.38.86-.13,1.15-3.2.62-1.17,1.16.02,1.73-.82.41-1.64.82-2.7,1.35.44-2.44-1.4-2.89-10.92-2.87-.82-1.2,3.22-.91,3.27-1.85Z"/>
        <path class="cls-1" d="m198.09,109.27c-4.82.31-7.31-1.84-11.76-1.92-.78-.37-.09-1.32-2.48-1.08-.79.08-1.96.5-2.23-.27,1.45-.08.27-1.27,2.52-1.03,3.82.41,10.3-1.33,10.32,2.31,0,.33.93,1.8,3.62,1.99Z"/>
        <path class="cls-1" d="m517,46.98c.39-3.62-.9-6.37-.88-9.82.02-2.69.56-.46.85-.57.55,2.29,1.35,3.1,2.47,3.1.37,0,1.45-.63,1.41,1.96-.04,2.94-.79.1-1.15.77-.86,1.6-1.1,3.27-.19,5.14.48,1,1.46.92,1.18,4-1.17-2.13-2.65-2.16-3.68-4.58Z"/>
        <path class="cls-1" d="m478.26,10.32c-2.54-.84-3.77-2.06-5.33-3.19,2.53-.86,3.53,2.83,6.46.32,1.82-.14,3.15.31,4.5.74.67.21,1.36.41,2.1.55.73.16,1.52.24,2.45.18.41.21.8.49,1.19.72-.11.54-.83.92-1.58,1.32-.75.4-1.51.67-1.79.72-3.34.68-3.06-1.21-4.97-1.73-1.06-.28,1.03-1.23-1.53-1.09-2.58.14-1.23.94-1.51,1.47Z"/>
        <path class="cls-1" d="m88.6,117.98c2.94-.61,6.41-1.1,3.6-2.94l1.08-.02c2.18-.26,1.9.89,3.39,1.02l-.14-.08c-1.98,1.6-.57,2.51,3.4,2.9-2.26-.45-4.52.56-4.8.78-1.31,1.06-2.58,1.53-5.34.93-3.08-.67-.94-1.72-1.18-2.6Z"/>
        <path class="cls-1" d="m512.76,44.56c.87-.57,1.42,5.92,2.6.67.12-.53.89,2.34,1.7,1.6-.39,4.58,2.39,4.33,2.25,10.31-1.13-6.53-3.44-3.72-4.96-6.27-.6,1.76.52,5.96-1.38,5.54.25-3.03,1.39-6.4-.22-9.44-.26-.8-.26-1.6,0-2.4Z"/>
        <path class="cls-1" d="m3.7,61.44h.59c.48.36.4,1.37.44,2.22l.48,2.54c.01,3.13-.95,4.79-1.94,4.8-1.23.01-.95-4.66-2.23-5.03.36-2.21.95.75,1.16-.68.23-1.59-.43-2.41-.85-3.02-.41-.6-1.4.04-.83-2.15.16-.63,1.33-1.31,1.62.58.42,2.75.94,1.76,1.56.73Z"/>
        <path class="cls-1" d="m72.38,107.9c-6.14.85-6.74.69-5.94-1.7-2.97-.05-1.18,1.5-3.28,1.69-.8-.45.14-1.14-1.26-1.51-2.02-.54.13-1.24.37-1.19,3.77.77,7.82-1.01,11.43.24-1.4.73.97,1.82-1.32,2.47Z"/>
        <path class="cls-1" d="m488.43,111.3c.48-.06,1-.14,1.54-.17.54-.05,1.12-.01,1.68-.1,1.14-.11,2.35-.11,3.43-.23.55-.04,1.09-.05,1.59-.06.48-.04.94-.06,1.34-.05.8.02,1.4.15,1.61.43.05.06.28.48.08.88-.2.38-.88.81-2.52.69-.37-.07-1.55.49-3.03.94-.75.2-1.56.41-2.35.57-.8.09-1.58.13-2.25.09.33-.48,1.03-.64,1.8-.76.77-.13,1.6-.33,2.14-.67-.53-.6-2.82-.41-2.47-1.47-.54.52-1.39.98-2.06,1.45-.67.46-1.17.86-.95,1.47-3.39-1.19-2.38-2.15.44-3.03h-.04Z"/>
        <path class="cls-1" d="m271.97,14.07c-1.49-.42-2.97-.84-4.44-1.25,2.06-2.05,7.8-.95,10.7-2.25.57.86,3.2.39,3.98,1.07.22.19.24.53-.03.69-1.11.63-2.85.41-4.19.29-1.34-.11-2.52-.57-3.78-.87-1.56,1.11,4.86,2.54-.99,3.38l-1.26-1.06Z"/>
        <path class="cls-1" d="m435.19,114.52c2,.27,4.39.35,4.61,1.54-1.9-.16-2.2.28-2.3.94-.13.78-.48,1.72-2.68,1.83-6.4.32-1.52,1.1-.37,1.82-2.91.39-5.57.02-8.56-.35,4.43-.11,5.92-1.39,7.1-2.8,1.62-.05,3.47-.31,3.12-1.02-.31-.62-2-.99-3.91-.54-.68.16-1.42-.08-1.64-.44,1.8-.12,2.53-1.12,4.64-.98Z"/>
        <path class="cls-1" d="m512.66,72.29c-.14-3.9.58-8.16-.85-11.51.85-.76,1.49,1.39,2.32.99l1.03.07c.34.74,1.17,1.82,1,2.02-.89,1.04-.62,4.04-1.47,4.72-.73.58-.32-1.85-.81-2.25-.63,1.74.3,4.46-.64,5.97h-.59Z"/>
        <path class="cls-1" d="m392.85,1.77c.4,1.04-3.88,1.64-2.41,3.01-.53.06-1.06.19-1.58.18-.67,0-1.56-.02-.9-.51,1.41-1.04-1.55-1.52-1.7-2.26-.13-.62-3.02-.34-1.64-1.13,1.06-.61,2.55-1.15,4.27-.82,1.48.29,4.57-.06,3.96,1.51Z"/>
        <path class="cls-1" d="m63.3,107.81c-2.16,1.06,1.09,1.4,1.67,2.16-2.47.82-5.8.51-8.62,1.09-1.86.38-1.18-1.49-3.37-1.8.5-.81.97-.92,2.59-.63,3.09.56,5.03-.74,7.73-.82Z"/>
        <path class="cls-1" d="m385.83,117.91l-1.32.55c.19.88-4.67-.76-2.86,1.01.56.55-1.26.48-1.84.58-1.59.26-2.34-.45-2.91-.84-.9-.62.11-1.61-2.07-2.05h0c4.24-1.22,8.06-1.37,11.01.75Z"/>
        <path class="cls-1" d="m506.89,64.24c0,1.45.3,2.45.77,3.28.23.41.87-.48.69,1-.05.41-.67.42-1.13.66.59,1.46,1.72-.08,1.91,2.82-1.32.05-2.5.72-2.15,4.96-3.15-3.88-.26-9.8-1.17-15.49.59,1.51.84,2.14,1.08,2.77Z"/>
        <path class="cls-1" d="m233.99.45h21.23c0,.42-.77.69-1.64.66-5.64-.19-11.12.53-16.85.42-3.1-.06-.55-1.62-2.75-1.08Z"/>
        <path class="cls-1" d="m284.29,16.06c-1.46-.23-4.2.51-4.16-.91.04-1.21,1.73-2.14,4.5-1.89,1.62.15,3.66,1.17,3.9,1.89.41,1.22-2.52.76-4.25.9Z"/>
        <path class="cls-1" d="m230.46,5.45c1.8.5,3.77.97,2.09,2.08,0,0,.15-.07.16-.07-3.43.31-5.43,1.47-7.98,2.3l.17.06c-2.95-1.32.38-2.18,1.39-3.21,2.95.64,2.54-1,4.36-1.12l-.18-.05Z"/>
        <path class="cls-1" d="m225.94,3.96c.62-.93,1.99-1.66,3.57-2.34,1.44.07,4.12-.02,3.69.62-.72,1.07,1.3,2.65-2.75,3.22l.18.05c-.15-1.26-2.73-1.24-4.7-1.55Z"/>
        <path class="cls-1" d="m201.64,12.15c.56.68,2.44.59,3.43,1.02.38.75-.34,1.55,1.03,2.26-4.31.12-6.96-1.61-11.01-1.16l-.15-1.16-.17.07c2.31-.38,6.06,1.07,7.06-.97l-.2-.07Z"/>
        <path class="cls-1" d="m467.21,119.24c-2.47-.19-3.37.82-5.23,1.06-1.42.19-2.9.99-4.52.22-.63-.3-.53-.97.31-1.01,2.33-.13,1-2.23,4.44-1.45,1.59.36,3.94.09,4.99,1.17Z"/>
        <path class="cls-1" d="m471.41,10.3c2.21-.47,4.59,2.28,6.71-.06,4.38.42-.61,2.07,2.06,2.71-2.82.62-3.08-.21-3.48-1.03-.03-.06-1.11-.14-1.44-.05-2.86.79-3.22.64-3.85-1.58Z"/>
        <path class="cls-1" d="m320.01,116.44l1,.52c.5,1.97-.74,3.39-6.28,3.5-.64.01-1.36.4-1.47-.16-.06-.3-.62-.75,1.21-.68,2.24.08,3.03-.4,2.23-1.41-.89-1.12,2.71-1,3.31-1.76Z"/>
        <path class="cls-1" d="m493.24,108.43c-.68-.59-1.01-1.22-.69-1.71.15-.28.46-.54.97-.79.25-.13.56-.24.93-.36.35-.16.75-.32,1.23-.48h-.16c-.97,1.6-.42,1.98.72,1.95,1.16.04,2.72-.56,3.58-.42-.64.68-1.24,1.37-1.87,1.82-.63.45-1.22.78-1.72.95-1.05.27-1.72-.15-1.88-1.48,0-.02-.29,0-.39.06-.26.13-.49.3-.73.45v.02Z"/>
        <path class="cls-1" d="m409,5.03c0-1.29.18-2.58-.1-3.86-.16-.73-1.38.09-2.07-.07.03-.39-.06-.96,1.24-.84,3.58.33,3.71,1.74,4.36,2.85.6,1.03.44,2.13-3.43,1.92Z"/>
        <path class="cls-1" d="m515.16,61.84l-1.03-.07c-.88-4.35,1.37-4.85,1.66-7.76l.57.42c-1.41,2.62,1.57,1,.62,3.84-.54,1.62-1.29,2.17-1.82,3.56Z"/>
        <path class="cls-1" d="m118.71,2.1c.89.23,1.69.48,1.16,1-2.18-.08-4.39-.09-6.54-.25-1.33-.1-3.96.34-3.48-.82.37-.9,2.58-1.32,4.57-1.59,1.29-.18.87.37.87.58.02,1.22-.02,1.22,3.42,1.08Z"/>
        <path class="cls-1" d="m493.23,108.41c-1.07.42-1.83.95-2.56,1.46-.73.46-1.4.99-2.24,1.44h.04c-.33-.43-1.32-.77-1.83-1.16-.52-.39-.55-.85.81-1.48.69-.29,1.25-.52,1.76-.65.51-.12.98-.1,1.43-.06.87.02,1.7.35,2.6.48v-.02Z"/>
        <path class="cls-1" d="m115.42,13.7c1.5-.18,2.76.14,3.12.64.86,1.2,2.27.53,3.62.29-.46.37,1.85,1.23-1.74,1.1-2.85-.11-6.57.19-8.14-.61-1.93-.98,3.39-.38,3.15-1.42Z"/>
        <path class="cls-1" d="m249.68,15.77c-3.11.64-5.77-.59-8.56.17-.89.24-1.76-.37-.91-.71,1.45-.58,1.73-1.76,4.2-1.75,2.15.01.39,1.05,1.49,1.39,1.05.32,2.26.54,3.78.9Z"/>
        <path class="cls-1" d="m455.03,11.61c-1.64-.56-2.95,1.49-4.34.03-.38-.4-.83-1.24,1.22-1.3,1.81-.06,3.86-.46,4.68.96.61,1.05-1.53,1.33-1.67,2.05-.91-.08-2.85.17-1.58-.68.54-.36,1.76-.55,1.7-1.05Z"/>
        <path class="cls-1" d="m409.47,119.08c1.51-.11,2.58-.06,3.21-.26,3.64-1.14,4.96.32,6.93,1.03.61.22.3.81.18.77-1.94-.59-5.22.14-6.24-.76-1.06-.92-2.71.09-4.08-.79Z"/>
        <path class="cls-1" d="m271.97,14.07l1.26,1.06c1.38,1.7-2.02.75-3.09.86-1.52.16-3.76.29-4.41-.55-.5-.64,1.55-.68,2.49-.99,1.18-.39,2.49-.27,3.75-.38Z"/>
        <path class="cls-1" d="m457.75,111.43c2.74-.87,5.29,1.36,8.06.09.1.06.26.11.3.17.2.3.46.76-.36.83-2.16.19-1.58,1.88-4.38,1.44-1.38-.22.56-1.4-1.83-1.72-.74-.1-1.2-.55-1.79-.84v.02Z"/>
        <path class="cls-1" d="m467.5,15.99c.46-.95-3.61-1.56-1.08-2.58,2.25,1.07,2.23-1.25,3.69-.5,2.58,1.33-.67,2.13-2.62,3.08Z"/>
        <path class="cls-1" d="m228.05,115.98c.05-1.44.07-1.48,3.45-1.17,1.43.13.76-.37,1.22-.52.81-.27,1.42-.95,2.63-.47.43.17-.25.82-.43,1.25-1.73,1.03-4.34.92-6.86.91Z"/>
        <path class="cls-1" d="m267.73,119.56c3.17-.04,3.19-1.7,5.74-1.91.9-.07,2.05.92,1.58.99-2.64.36-1.38,2.01-4.02,2.09-1.26.04-1.39-1.11-3.3-1.17Z"/>
        <path class="cls-1" d="m171.61,105.91c-.46-.44-2.14-.56-2.23-.42-.99,1.56-3.93.78-6.05.95,1.81-1.21,9.01-2.1,11.08-1.32.42.16.25.59.35.89l-3.15-.11Z"/>
        <path class="cls-1" d="m205.1,110.45c-.46-1.1-.52-2.46-4.62-1.93-2.04.27-1.83-.61-1.82-.75.02-.7,1.11-.12,1.69-.18,2.31-.25,4.09-.05,5.69.73,1.79.87,1.93,1.54-.93,2.14Z"/>
        <path class="cls-1" d="m290.57,2.58l-1.24-.52,1.24.52Z"/>
        <path class="cls-1" d="m5.63,63.74c.22-1.43-.27-2.28-.48-3.36l.97-.16.08.19c.29,1.1.25,2.22.01,3.33h-.58Z"/>
        <path class="cls-1" d="m518.42,30c-.35.04-.68-.17-1-.59-.31-.42-.7-1.03-1.04-1.83.35.06.7.28,1.05.67.36.39.72.97.99,1.75Z"/>
        <path class="cls-1" d="m329.17,114.59c1.3-.56,3.24-.98,2.33-1.99,1.69.32,1.53,1.36,3.51,1.56l-2.33,1.41-3.51-.99Z"/>
        <path class="cls-1" d="m399.46,116.05h-.02s.02,0,.02,0Z"/>
        <path class="cls-1" d="m431.73,112.7c.56,1-4.14,1.69-1,2.85l-4.66.51-1.32-.55c-.19-.51,4.53-1.11-.21-1.65-.44-.05.74-1.7,3.59-1.64,1.22.03,2.4.32,3.6.49Z"/>
        <path class="cls-1" d="m329.48,113.36c.13-.05.27-.14.39-.13.12,0,.23.1.35.15l-.39.14-.35-.16Z"/>
      </g>
    </g>
  </g>
</svg>