<?xml version="1.0" encoding="UTF-8"?>
<svg id="_레이어_2" data-name="레이어 2" xmlns="http://www.w3.org/2000/svg" viewBox="0 0 532.72 313.47">
  <defs>
    <style>
      .cls-1 {
        fill: #fff;
        stroke-width: 0px;
      }
    </style>
  </defs>
  <g id="_레이어_1-2" data-name="레이어 1">
    <g>
      <rect class="cls-1" x="17.8" y="16.36" width="505.1" height="280.45" rx="33.59" ry="33.59"/>
      <g>
        <path class="cls-1" d="m489.3,289.48c-.81.94-.25,3.12,1.59,2.58.38-1.23.71-2.46.98-3.68l-2.57,1.1Z"/>
        <path class="cls-1" d="m503.35,293.06c.38-.68.73-1.42.97-2.19.21-.82.31-1.66.27-2.45-.08-1.6-.8-3.05-2.22-4.15.1,1.98-.22,2.81-.56,3.59-.17.41-.34.84-.5,1.48-.17.64-.31,1.5-.53,2.67-.88.54-1.82.59-2.51.28-.71-.35-1.17-.99-1.2-1.67-.19.53-.96.52-1.71.69-.76.14-1.53.35-1.89,1.58,2.91,2.56,6.88,1.52,8.98-2.07,1.02.4.79,1.57.9,2.26Z"/>
        <path class="cls-1" d="m528,86.58l-.43,1.38c.24-.38.37-.85.43-1.38Z"/>
        <path class="cls-1" d="m445.71,9.26c1.01-.09,1.44-.45,1.49-.78-.94.24-1.71.46-1.49.78Z"/>
        <path class="cls-1" d="m423.01,5.24c.49.12.9.17,1.34.25-.51-.34-1.02-.52-1.34-.25Z"/>
        <path class="cls-1" d="m528,86.58l1.14-3.55c-1.19-.25-.88,1.82-1.14,3.55Z"/>
        <path class="cls-1" d="m512.75,269.2c.03.56.27,1.1.56,1.63,0-.48-.06-.95-.03-1.41-.19-.07-.34-.13-.53-.22Z"/>
        <path class="cls-1" d="m530.95,145.19v1.08c.42.32.92.62,1.48.9l-1.48-1.98Z"/>
        <path class="cls-1" d="m531.51,190.18c.13-1.02-2.96-1.37-4.31-1.76,1.27.57,1.88,1.33,2.12,2.22.59.02,1.29-.12,2.19-.46Z"/>
        <path class="cls-1" d="m526.06,261.51l.43,1.27c-.13-.33-.26-.88-.43-1.27Z"/>
        <path class="cls-1" d="m531.62,113c.46-.08.86-.24,1.1-.41-.39,0-.75.16-1.1.41Z"/>
        <path class="cls-1" d="m437.16,282.29c-.04.22.01.36,0,.55.26-.31.34-.53,0-.55Z"/>
        <path class="cls-1" d="m489.3,297.6l-.72.17c-.08.59-.16,1.16-.16,1.73l.88-1.9Z"/>
        <path class="cls-1" d="m381.46,1.28c.08.04.11.04.18.06,1.09-.35.47-.29-.18-.06Z"/>
        <path class="cls-1" d="m5.08,48.03c1.54-2.87,2.28-.36,3.13,1.52.2.52.45.79.69,1.08.24.27.5.46.77.5s.57-.07.89-.39c.16-.16.33-.37.5-.65.17-.27.38-.71.6-1.17-.62.35-1.75-1.45-2.95-2.69-1.2-1.21-2.53-1.86-3.63,1.8Z"/>
        <path class="cls-1" d="m513.36,268.47c.1-.43.08-.9.2-1.34-.2.59-.2,1.01-.2,1.34Z"/>
        <path class="cls-1" d="m11.67,48.92h.02s.33-.78.33-.78c-.15.32-.23.5-.35.78Z"/>
        <path class="cls-1" d="m285.72,3.14c.2.54.58.96.98,1.35-.03-.32-.25-.7-.98-1.35Z"/>
        <path class="cls-1" d="m357.04,7.54l-1.76-.41c.7.28,1.27.38,1.76.41Z"/>
        <path class="cls-1" d="m248.69,7.51c-.96-.24-1.29-.66-2.6-.25.12.16.24.27.4.38.47-.42,1.1-.62,2.2-.13Z"/>
        <path class="cls-1" d="m210.15,7.53c.2.24.47.41.71.62.38-.05.83-.11,1.22-.17l-1.93-.46Z"/>
        <path class="cls-1" d="m320.02,283.77c.84.87,1.37,1.83,1.78,2.78-.59-2.2,5.07-2.98-1.78-2.78Z"/>
        <path class="cls-1" d="m514.44,269.61c-.71-.36-1.03-.69-1.08-1.14-.05.32-.07.64-.08.95.42.19.84.33,1.16.19Z"/>
        <path class="cls-1" d="m247.13,31.9l-6.12-.46c1.71.3,3.94.46,6.12.46Z"/>
        <path class="cls-1" d="m46.5,283.61c.31-.06.61-.05.92-.16-.32-.1-.62-.14-.92.16Z"/>
        <path class="cls-1" d="m222.83,31.9c-1.09-1.09-2.25-1.72-3.45-2.14-.25.24-.54.44-.71.8l4.16,1.34Z"/>
        <path class="cls-1" d="m321.82,286.58s-.01-.03-.01-.03c0,0,0,.02.01.03Z"/>
        <path class="cls-1" d="m362.15,279.24c-5.84-.09-2.74,3.98-3.98,6.31-6.96,1.16-3.22-2.99-5.59-5.07-4.35,1.08-7.68,4.81-10.93,4.65-.24-.67-.87-.91-.13-1.75-4.6,3.23-13.65.16-19,4.22-.4-.36-.6-.7-.7-1.01.87,2.04,1,4.11.82,5.58-2.62.07-4.85,2.57-5.84-.09,1.6.08,1.74-.99,2.49-1.82l-2.74,1.15c-2.47-3.82,3.74-1.32,3.74-4.15-5.34,1.24-11.57,4.4-15.67,3.32-.86-3.74,9.58-1.26,4.11-4.58l6.34,1.43c-4.84-5.89,3.85.41-.6-5.89-8.34-1.08-9.33,1.9-17.65.81-1.87,2.08.62,3.07-1.25,5.15-11.82,3.73-9.31-9.39-18-4.42-2.25,2.49-3.12,7.22-9.31,4.72l2.11-4.22c-8.07-.42-4.61,6.07-13.06,3.23,1.5-1.66,6.35-1.4,5.12-1.9-5.48-3.34-3.88,2.4-8.09,2.4l-.87-3.74c-8.6.59-18.06,3.29-27.59,3.97.53-1.11,2.16-2.28-.07-3.43-12.01,1.87-25.63-.46-37.21-2.68l-4.42,3.23c-1.03-.04-1.91-1.46-.8-2.08-4.51-1.22-.23,2.05-2.4,3.32-2.57.23-3.39-1.86-1.76-2.82-7.97,2.74-22.69,5.9-31.08,2.44l1.64-.96c-6.54-1.31-7.37,6.62-13.44,3.61l1.16-.57c-14.18-1.4-29.86,1.56-40.68-3.32-2.06,4.65-14.04-2.07-14.95,4.41-8.1-3.21-5.78-4.37-17.19-6.53-3.05-.3-4.54,4.05-8.31,4.73l-.09-3.39-2.56,1.78-1.28.89-.64.44c-.21.15-.45.3-.58.43-.64-1.4-1.16-2.78-1.59-4.14-.72.25-1.45.36-2.22.57.79.3,1.64,1.79,1.41,2.74-.49.11-1.01.14-1.53.1-.26-.03-.53-.04-.78-.12-.25-.09-.5-.18-.75-.29-.49-.23-.97-.46-1.39-.79-.41-.36-.79-.74-1.12-1.12-.16-.19-.32-.38-.45-.58-.13-.22-.24-.43-.35-.64-.21-.42-.36-.82-.46-1.19-.22-.72-.17-1.4.02-1.79-2.61-.38-5.33-1.38-7.84-3.02,1.14-.65,2.45.01,3.72.13-1.29-.12-1.85-.45-1.99-.75-.13-.32.2-.69.52-1.03.32-.35.66-.69.64-.99-.01-.15-.11-.29-.36-.42-.26-.13-.66-.25-1.2-.43-.4.84-1.84.86-2.48,1.12.65-2.81-.91-6.35-1.86-9.59.79.15,1.55.28,2.36.38.04-.67.07-1.28.01-2.02.01-1.24,0-2.5-.05-3.77-.08-2.54-.23-5.13-.41-7.75-.35-5.25-.77-10.65-.75-16.08-1.09,3.9-5.14,3-5.53-.18l3.58-1.27c-2.21-2.06-1.35,3.33-4.06-.9.41-4.06,4.07-2.73,5.24-.4l-1.24-4.93c1.07-.29,1.63.87,3,1.17-2.23-2.02,3.6-8.52-.27-11.44l1.07-.28c.03-10.86-1.2-15.79-1.38-24.64-3.09-.17-2.41-3.63-4.91-6.27.99-6.5,3.42-13.72,3.16-21.56-1.54-5.51-2.62-1.61-4.46-4.08,2.81-.41,2.55-8.23,4.58-4.17-.46-9.4-.56-12.01-2.85-23.9-1.15,1.29-1.66,2.74-2.62,1.99-.46-2.16,1.18-4.91,2.54-4.6l.29.57c-4.23-13.35,8.21-30.81,2.34-41.44l.29.6-3.06-11.02c.49-5.07,2.12,3.04,3.86-.71-2.35-5.95-2.18-10.64-1.82-15.08.18-2.22.42-4.37.41-6.58,0-1.1-.07-2.22-.23-3.37-.08-.57-.19-1.16-.32-1.75-.07-.3-.14-.59-.22-.89l-.13-.45-.12-.3c1.1-.6,1.85-1.25,2.49-1.93.35-.33.63-.68.87-1.04.12-.18.21-.36.32-.55.13-.18.24-.36.35-.55.73-1.52,1.3-3.23,2.05-5.04.34-.92.86-1.78,1.36-2.65.3-.4.6-.8.9-1.19.31-.39.7-.68,1.04-1.02,1.47-1.21,3.26-1.88,5.04-1.2-.38-.54-.76-1.08-1.16-1.62.27-1.16.81-1.21,1.42-.77.6.4,1.22,1.11,1.76,1.13-.57-1.39-2.11-1.1-1.57-2.42,1.47-.93,3.18-1.38,4.92-1.72l1.34-.1.67-.05c.25-.02.68,0,1.02,0,1.43,0,2.86.03,4.3.08,5.74.19,11.54.67,17.36,1.29,11.63,1.23,23.33,2.98,34.81,3.86,8.4.52,4.77-10.13,15.36-5.45l-3.01,3.63c16.95-4.36,34.66.15,51.26-3.55-.99.84-1.02,1.93-2.64,1.92,3.5,2.64,12.96.13,13.02-2.03,2.58.24.6,1.95,2.19,3.04,3.52,1.56,8.82-3.37,10.69-.74.32.43-.99.86-1.63,1.06,2.29-1.28,10.67.33,8.48-2.72,6.23,1.45,11.91-1.35,16.88.45,3.24-3.41,10.66,1.64,11.69-3.18-.45,4.98,10.92,4.01,14.86,1.67-1.32,1.5,3.42,1.56,1.88,3.64,4.49-.07,8.61-.99,7.83-3.55,8.28,5.95,16.64-4.79,21.3,2.84,13.35-2.67,25.7-4.48,37.71-5.65-.43,4.96-13.27.49-12.76,5.7,11.39-2.04,17.96-6.3,29.26-5.11,2.93.68-1.66,2.15-2.65,3,11.38-2.04,22.01.45,32.13-2.25-.03.46-1.12.97-2.15,1.35,2-.16,4.64.72,4.42-1.53l-1.95.61c-3.19-3.27,7.93-6.84,8.28-8.57-3.39,6.46,10,1.62,4.62,9.79,1.31-.43,2.96-1.49,2.66-3,1.95.44,2.57,1.32.59,3.03,7.15-1.23,4.61-3.63,11.09-3.57-.02,1.09-1.33,1.51-2,2.8,3.28-2.13,6.57-4.26,12.05-3.34-.33.66.31,1.51-1.33,1.5,9.4-.33,16.02-5.67,26.34-3.61-3.04,4.74,3.51,1.56,4.05,5.67l5.55-1.22-2.23-1.99c4.86.07,9.15-2.92,13.33-1.58l-3.61,1.69,9.1-.78-5.15-1.56c4.92-2.12-.53-5.2,5.94-4.05-1.31.41,4.86.05,7.39,2.47,0,0-.02,0-.02.01,2.4-1.31,4.88-2.68,8.47-1.67.93,1.31-.75,4.54-.14,5.42,2.37-3.43,11.38-.95,14.38-4.61-1,.86-1.05,3.02-.72,3.46l1.99-2.79c2.25.89,2.58,1.32,2.21,3.04,6.75.52-2.1-5.23,5.83-2.95-.54.19-.29.63-1.59,1.05.49.06.98.12,1.47.19.41.07.82.12,1.23.16.41.04.82.06,1.22.07.41.02.8.1,1.21.13,1.62.09,3.21.31,4.81.55,3.17.54,6.31,1.83,8.41,4.27-.55,2.18-1.74,1.57-2.81,1.03-1.16-.48-2.16-1.01-2.25.99.43.21.87.4,1.33.59l1.31.67c.94.39,1.77.96,2.71,1.45.48.23.87.58,1.33.86.43.31.93.57,1.34.92.81.7,1.75,1.34,2.48,2.17.38.4.79.79,1.17,1.21l1.01,1.34.51.68c.15.24.28.48.42.73.27.5.53.99.8,1.48.25.5.4,1.04.59,1.56.16.53.38,1.05.47,1.59.09.54.17,1.09.23,1.63l.08.81c0,.27-.02.55-.04.82l.19-.82.1-.83c1.49.11,2.16.64,2.21,1.43.04.39-.04.84-.19,1.32-.16.49-.36.96-.65,1.59-1.11,2.4-2.6,5.28-1.22,7.89-.43-1.28-3.24-1.68-2.59-1.33-.94,7.08,1.43,14.48,3.27,25.22l-1.5-1.33c-1.34,4.17-.77,10.99-1.45,15.5,1.5,1.34,1.25,3.92,3.43,2.35-8.53,13.9,4.58,26.52-2.53,38.86-.02-1.47-1.31-3.52-1.31-2.34l1.38,10.51c2.54-.83,1.54-1.38,3.52-3.59,1.51,1.33,2.68,4.3,2.68,6.9-1.68-4.73-4.08.04-5.5,2.08.78-.34,1.64.36,2.43.18-4.52,5.49,5.11.92,2.07,8.41l-1.33-.4c.68,2.8,2.45,5.39,2.06,8.41-2.94,1.25-1.37-2.99-3.79-3.18.17,4.25,5.57,8.38,2.64,12.23-.82-1.8-.83-4.4-1.65-6.2-3.45,4.19-2.58,4.67-3.12,7.78l.08-.31-1.56,7.19.93-1.83c7.67,5.32,1.4,10.83,6.42,17.99-4.75-6.96-2.75-1.15-6.08-1.68-.92,1.83-1.96,4.61-2.9,3.82,2.69,3.38-2.12,5.65,1.81,10.43-1.07.21-.1,3.62-2.8,2.86.84,4.4,1.87-1.04,3.21-.67,3.66,6.78-4.44,15.95.58,25.7,2.07,8.41,5.69,9.97,7.49,17.78-1.72,2.64-3.91-2.16-3.91-2.16-.8,2.11-1.1,4.02-1.1,5.79-.03.79.03,1.58.17,2.41.13.83.19,1.68.38,2.62-.83-.88-1.68-.23-3.06.48-.19,1.28.64,1.96,1.21,2.74.55.75.75,1.63-.63,3.09-.86-1.07-2.4-2.51-3.13-3.94-.02.74.03,1.51.1,2.34.04.81.01,1.62.03,2.49v.65s-.07.63-.07.63c-.05.43-.1.86-.17,1.3-.1.9-.37,1.72-.69,2.55-1.01-.21-1.26-1.06-1.35-1.99-.04-.91-.08-2.04-.32-2.78-.13.41-.27.85-.41,1.31-.17.45-.39.89-.59,1.37-.36.98-.88,1.9-1.29,2.87-.86,1.88-1.58,3.74-1.2,5.25.44-.12.9-.21,1.33-.36l1.3-.47c-1,1.11-2.19-1.44-1.85-2.48.09-.48.22-.85.37-1.17.13-.34.29-.6.48-.8.37-.41.86-.59,1.37-.65,1.01-.13,2.1.19,2.59.45-.16.4-.3.82-.49,1.2l-.59,1.16c.8.29,1.52.36,2.16.25.64-.1,1.14-.44,1.61-.87.45-.45.87-.99,1.16-1.65.28-.67.49-1.42.67-2.19.21-.75.23-1.62.3-2.43.06-.82.13-1.61.11-2.42,0-.79.03-1.54.13-2.23.02-.71.11-1.37.31-1.96,1.3,1.02,2.61,2.16,3.84,3.39-.34-1.14-.73-2.23-1.11-3.27-.37-1.04-.94-2.06-1.41-3,.67-.47,1.69-.86,2.54-.8.89.07,1.61.63,1.74,2.12,1.49-1.93,1.04-2.99.73-3.85-.17-.44-.32-.85-.27-1.38.04-.52.26-1.13.89-2,.39-.38.61-.21.79.14l-1.36-3.94c.96.77,3.23-.66,2.57,1.76,2.64-7.07-3.43-11.4.04-14.06l.28.59c-1.55-9.81-3.36-.95-7.3-8.31l8.29-4.95-3.36-.96c.12-1.01.37-3.01,1.72-2.64-2.3-3.77-1.46.64-3.63-1.54,3.06-4.87-1.43-13.43,3.92-14.53-2.55-1.75-1.97,4.66-3.74-.54,5.76-1.48-.99-6.01,1.65-10.46,2.97,1.37,1.4,5.58,4.05,1.13-5.02-2.68,1.1-8.67.14-12.42-4-.18-1.67-8.16-3-14.46,1.34.4,2.2-11.85,3.64-17.71l.67.17c-4.04-1.13-3.28-7.18-4.11-11.58,2.42.17,3.37.96,4.45,3.35l-.02-4.14c-1.29-.98-1.98-2.27-2.44-4.95l3.02,1.04c-.17-5.51-3.56-11.09-1.54-18.17-2.82-.4-7.84,5.63-9.72-1.86,1.52-.28,4.13-.55,4.75,1.41-.2-.64-1.27-2.29-.61-3.58l2.56,2.99c1.13-3.23-2.14-1.69-1.9-4.27,2.17.05,1.55-1.91,3.27-1.54.21.66-.9,2.25-.05,3.24.39-2.91,1.68-6.42,3.32-7.59-1.24.25-2.92,0-3.21-2.13-.16-5.51,2.61-1.88,3.73-5.1-1.51-1.33.06-4.85-3.19-4.94.02-1.61,1.53-1.91,2.41-2.53-1.43-2.85-.41-13.31-3.86-10.1l-.23.73c-.07-.14-.07-.3-.14-.47v.02-.02c-3.23-9.34,1.84-19.4.45-28.67h1.09c-.62-2.75-.8-5.83-1.12-8.71-.04-.36-.09-.72-.13-1.07-.07-.39-.13-.78-.2-1.17-.14-.77-.31-1.51-.49-2.21-.41-1.4-1.08-2.61-1.79-3.56-.13-.87.04-1.98.5-2.88.45-.9,1.11-1.57,1.84-1.36-.5-1.15-1.13-1.95-1.59-2.69-.47-.72-.89-1.35-1.35-2.04-.43-.69-.82-1.47-1.2-2.53-.48-1-.9-2.32-1.54-4.04,2.17,1.55,2.27,1.03,2.29.75,0-.13-.01-.17.18.21.1.19.25.48.48.93.22.45.57,1.01.9,1.84-.24-.82-.54-1.51-.79-2.18-.25-.67-.47-1.29-.68-1.87-.44-1.16-.95-2.11-1.52-3.04-.55-.94-1.34-1.73-2.38-2.52-.53-.39-1.09-.8-1.8-1.14-.71-.34-1.52-.67-2.42-.99.91-.12,1.29-.54,1.27-1.15-.02-.6-.4-1.46-1.12-2.22-.7-.79-1.61-1.62-2.58-2.28-1-.62-2.03-1.11-2.85-1.36,1.08,1.43,2.12,2.78,2.96,4.3-1.52-.96-3.03-1.7-4.39-2.6-.69-.43-1.41-.78-2.1-1.19-.7-.38-1.38-.82-2.11-1.15,1.01-.94,2.03-1.76,3.11-2.61-.37-.33-.74-.64-1.12-.94-.39-.27-.8-.52-1.2-.75-.82-.47-1.65-.88-2.5-1.24-1.72-.62-3.49-1.01-5.23-1.17-.88-.05-1.75-.05-2.6-.03-.86.02-1.7.06-2.53.22-.83.13-1.64.28-2.44.44-.39.08-.8.16-1.17.24l-.89.29c-4.73,1.52-9.13,2.66-13.41-1.06-2.97,2.56,6.11,1.8,3.45,4.8-5.17-.49-10.56-5.75-12.18-5.76-7.08-2.03-6.61,5.35-14.02,3.96.95,1.3,1.84,4.79-3.7,6.02-5.18-.48-6.36-5.48-3.09-6.52,1.24-.11,1.84.3,1.79.75,1.67-.47,3.87-1.03,1.82-2.45l-.67,1.31c-2.57-1.33-9.69-1.19-8.02-3.33-3.91,1.24-1.67,2.14,1.22,2.82-6.64-1.89-10.37-.06-17.2-1.33,1.09.72,2.09,2.25,1.01,2.24-10.02-1.62-4.41,2.48-11.2,3.05-3.86-1.99,1.38-4.75-5.45-3.08-4.17-1.35-.88-3.46.78-4.53-6.23,2.52-11.64-1.65-15.2-2.12l3.28-1.05c-1.96.63-3.57.61-5.2.6l1.87,2.61c-1.93-.45-3.56-.46-3.52-1.55-1.99,1.71,1.52,4.34-2.42,6.68-2.57-1.33-7.82,1.42-8.71-2.04,8.08,1.18-.89-3.48,5.94-4.04-1.32.41-2.93.4-4.86-.06-.29-.39.27-.72.8-.92-7.73-3.1-3.55,3.92-11.56,3.84,1.02-1.95-1.86-3.7-3.16-3.29,3.23.04,1.54,3.26-1.42,4.75-5.14-1.52-5.58,1.13-8.27.95l3.07.72c-1.04,1.95-3.61,1.7-7.19,2.31-.31-1.52,3.25-1.05,1.97-1.72-3.98,3.43-8.98-3.55-14.53-1.24-2.57-1.32-.25-3.67-2.5-4.56-6.21,2.53-6.73-2.68-13.26-.58,1.88,2.62,2.21,1.98-2.39,4.54l10.73-1.85-6.89,3.82c3.24.04,6.84-1.65,8.78-1.2-3.28,2.14-2.94,1.49-1.39,3.67-4.43-3.94-8.79,2.29-13.91-.37l.16-6.5c-7.7-2.9-13.69,3.33-23.69,1.7l3.21,1.13c-1.34,2.58-6.18.36-9.42,1.41.3-2.17-1.72-2.96-3.11-4.31.17,1.61-7.32-.15-8.23,4.19l-4.47-2.86c-8.08-1.17-9.22,6.19-16.98,5.45,2.34-2.36-1.19-3.9,4.01-5.59-2.59-.02-4.92-.42-4.96,1.09-1.51-1.36-7.19,2.92-9.57.86-1.09.95-1.45,3.23-4.36,3.05-.32-.44.01-1.07.01-1.07-.01,1.07-4.56,1.46-2.01,3.86-7.99-6.78-22.32.49-29.27-5.33-5.66.73-12.47,1.43-17.61,1.59.33-.65.02-1.08.99-.86-7.08-2.02-4.36,6.24-12.42,3.98-4.12-3.51,4.28-1.9,1.71-3.23-1.12-7.15-9.73.97-15.16-3.2l1.31-.42c-4.15-2.43-10.12,2.71-16.89,2.2,0,0,.33-.63.04-1.08-4.63,3.64-13.41,4.85-19.92,5.86,2.03-2.8,2.96-1.48,1.72-4.32-2.92.4.86,4.56-4.98,5.36-1.9-1.53-6.1-2.87-6.66-5.9l5.5-.16c-2.82-3.92-7.12.13-10.02-.55l.37-1.71c-8.43.56-8.55,4.88-17.61,4.57l.94,1.3c-4.95,4.28-4.15-2.41-9.09.77l-1.49-4.34c-3.27,1.05-11.45,4.2-17.31,5.01,3.32-3.22,10.18-4.87,14.42-6.78-3.24-.03-11.01.32-12.69,2.46,1.31-.42,2.95-1.48,4.24-.81-3.97,3.41-9.2,5.09-15.66,5.02.57-4.21-3.63-4.74-8.57-5.03-1.23-.07-2.51-.13-3.77-.23-.32-.03-.64-.05-.96-.08-.39-.02-.78-.03-1.17-.05-.78-.04-1.54-.09-2.29-.16-2.98-.18-5.67-.54-7.61-1.68-3.6,1.63-6.94,3.43-10.3,5.2-1.61,1.01-3.33,1.87-4.9,2.99-.8.54-1.63,1.06-2.42,1.63-.78.6-1.55,1.2-2.34,1.81-3.06,2.5-6.05,5.39-8.46,8.93-1.29,1.71-2.27,3.67-3.29,5.65-.84,2.06-1.71,4.16-2.15,6.44,1.99-1.16,2.9-1.31,3.27-1.03.37.29.19,1.05,0,1.97-.48,1.83-.7,4.32,2.69,4.33-.03.92-.07,1.69-.12,2.33,0,.65-.01,1.17-.05,1.59-.07.84-.23,1.26-.45,1.42l-.55,1.33-.5,1.17-1,2.35-2.01,4.69c-1.96,2.23-1.48-2.95-2.99-2.66-.52,6.78-2.85,2.85-4.64,7.33,2.41-.92,3.45,2.36,2.53,6.23l3.1-5.45c3.58,9.48-5.65,8.19-2.1,17.75l-2.12-3.02c1.25,4.9-.04,18.09,5.36,22.9-.78.87-2.62,2.01-3.1-.14-.81,11.72,5.75,26.09,2.42,35.19l-1.64-.89c.48,2.19,3.09,3.81,1.43,6.54-.68-.14-1.64-.88-1.74.13.57,1.16,2.88,5.81,1.92,8.7l-1.85-2.48c-2.15,11.43,4.51,17.54,5.63,27.13-4.84-.02-6.42,8.97-7.2,13.46l-.69-.16c-.6,13.31,4.01,22.61,5.91,34.93-5.26,7.65-2.2,25.92-5.15,38.21.44-.94,1.38-.86,2.28-.28.45.29.88.71,1.23,1.19.36.57.68,1.34.83,2.04-.18.96-.09,2.1.28,3.22.36,1.12.85,2.23,1.21,3.2.81,1.92,1.22,3.34-1.01,3.65l-.27-1.37c-.88.97-1.33,2.22-1.45,3.65-.04,1.41.24,2.99.73,4.62.59,1.58,1.34,3.24,2.23,4.8.48.76.95,1.53,1.42,2.28.47.75.93,1.48,1.44,2.15,1.8-.82,3.57-1.68,5.32-2.58.26,2.22,1.17,4.3,2.38,6.34,1.31,1.93,2.93,3.82,4.92,5.34,3.91,3.14,8.88,5.16,13.69,6.2,4.86,1.02,9.48,1.03,13.38,1.22,2.98.12,5.43.81,7.09,2.7,2.92-1.45,6.54-1.44,9.44-2.89l-.16,3.12c8.1.8,12.14,1.18,22.15.44l-2.04,2.23c5.65.21,7.13-8.98,12.34-9.16l1.57,4.65c9.85-.07,19.82,4.01,29.55-.21-.16.68-.45,2.03-2.04,2.21,4.64.12,17.94,3.15,16.25-3.23.12,4.15,10.16.41,15.48-1.43l-.83,3.06c4.49-3.92,4.63-4.99,10.9-6.07,1.49.4,1.3,2.45-.67,1.67,4.95,1.61,3.86-2.9,9.86-1.27l-2.24,1.96c5.09.24,4.69-.81,7.49-3.1,3.2-1.23,9.66.77,10.42,3.55.69-1.69,3.48-3.95,6.48-3.15.4,1.05-.69,1.7-1.24,2.01,8.52,2.09,12.67-3.56,18.53-.55.12,1.02.5,1.52.99,1.83-6.77-.08-12.22-.24-11.71-.47,0,2.83,5.47,3.32,1.12,7.22,4.39-2.13,11.89-6.76,17.22-5.43.26.27.51.54.7.98l-.55.32c1.23.28,2.33.02,3.37-.46,1.7.46,2.78.81,4.41.85.63,2.34,6.27,1.26,8.99,1.38-.23-3.09,3.34-2.6,0-5.15.43.22-.52.37-2.33.5-.41.09-.89.14-1.16.32.05-.09.12-.18.19-.27-1.79.09-4.12.16-6.78.21,2.15-1.57,4.4-2.89,7.42-1.18,1.4-1.99,2.94-4.03,3.81-4.99,3.73,4.31,10.92,6.64,11.92,9.3,8.32-1.73,19.61-1.14,24.84-6.95,2.37-.75,2.72,1.67,3.6,2.58-1.37.58-2.99.49-3.73,1.33,4.73-1.49,14.02-.58,15.15-4.64,5.96,1.83-3.35,3.74,4.84,3.07l-1.11,1.24c16.12,6.49,26.21-10.36,44.08-2.03-1.24-.51-1.86-.75-2.11-1.43,20.38,3.67,41.99-3.45,62.09,2.38,5.72,1.17,6.33-1.42,9.82-3.39l1.24,3.32,5.96-3.83c8.46-2.81,14.64,8.15,25.35,2.84l-1.38-2.24c3.85.42,12.18-1.32,11.54,1.25.39-.41,1.26-2.33,2.76-1.16l.12,1.74,9.45-2.98c7.32,1.26-1.15,6.9,9.54,7.24,3.97-.67,11.31-5.06,9.82-6.22-1.6-.09-4.1-1.08-4.22-2.82l3.63-.91c.66-5.12,3.45-10.37-5.46-13.94l-6.21,3.13-2-2.48,5.23-.16c-2.97-2.34-4.85-.27-6.95,1.15-.5-1.32-1.37-2.25-2.6-2.74l-6.1,4.89c-.74-2,2.74-3.97-1.36-5.08-2.86,2.27,2.74,4.49-1.99,5.98-2.97-2.33-2.11-4.22-5.59-2.23-.49-1.32.25-2.16,1.63-2.74-3.11,1.58-8.22.67-9.82,3.39-3.1-2.87-10.49.75-10.18-4.1-.98,1.16-5.47,3.81-8.32,4.01,5.21-5.8-10.68-.34-9.3-6.56-3.86,5.22-13.93,2.32-20.76,5.21.38-.41,1.13-1.25,1.73-.99-3.85-.43-4.96-2.01-7.43-2.99-.49,4.31-6.48,5.3-9.71,7.95-4.71-4.16,2.86-5.06,1.38-9.06.24,3.49-8.19,3.49-6.59,6.4-3.6-2.57-3.11-1.25-4.96-4.82-.63,5.39-3.36.91-6.35,4.23-5.22-2.66-1.34-5.05-7.07-3.41-2.73-1.65,2.37-3.56,2.37-3.56Zm-136.28,9.32v-.06c1.17-.07,2.17-.14,2.81-.17-.59.05-1.4.12-2.81.24Zm-11.45.05c1.39.12,3.13.14,4.97.12.4,1.07-.03,2.17-1.19,2.11.63-.71-2.07-1.33-3.78-2.23Zm24.23,21.43c-1.81.44-2.42-.17-2.67-.8.86-.05,1.86-.16,3.17-.37.05-.12.16-.25.21-.38-.17.59-.37,1.14-.72,1.55Z"/>
        <path class="cls-1" d="m241.9,305.98c.26-.07.41-.2.75-.23-.37-.27-.72-.5-1.08-.7-.22.33-.45.65-.64.97.33-.02.67-.03.98-.05Z"/>
        <path class="cls-1" d="m527.49,88.2l.07-.24c-.12.2-.24.39-.44.51.15-.16.25-.16.37-.27Z"/>
        <polygon class="cls-1" points="56.27 282.69 56.28 283.47 57.28 282.79 56.27 282.69"/>
        <path class="cls-1" d="m516.88,151.28c-.27.12-.55.36-.79.83.2-.04.48-.39.79-.83Z"/>
        <path class="cls-1" d="m516.19,178.53l-1.1,3.85c.63-1.67.92-2.88,1.1-3.85Z"/>
        <path class="cls-1" d="m514.65,199.48c.54.27.95.34,1.32.41,0-.02,0-.03.02-.04l-1.35-.37Z"/>
        <path class="cls-1" d="m358.49,28.23c-.28.02-.56.06-.81.14-1.9.6-.61.36.81-.14Z"/>
        <path class="cls-1" d="m457.61,21.01c-1.05.56-2.09,1.11-3.19,1.46,1.76.24,3.14.3,3.19-1.46Z"/>
        <path class="cls-1" d="m247.8,31.95s0-.03.01-.05c-.24.01-.45,0-.68,0l.67.05Z"/>
        <path class="cls-1" d="m449.82,22.41c1.76.62,3.24.48,4.61.05-1.45-.21-3.15-.52-4.61-.05Z"/>
        <path class="cls-1" d="m505.87,280.47l-.62.39c.15.14.23.3.27.43l.35-.82Z"/>
        <path class="cls-1" d="m505.51,281.29l-.36.83c.28-.26.5-.5.36-.83Z"/>
        <path class="cls-1" d="m504.23,283.8c.32-.58.65-1.1.92-1.68-.46.39-1.13.71-.92,1.68Z"/>
        <path class="cls-1" d="m514.68,262.54l-1.12-.32c.23.17.59.28,1.12.32Z"/>
        <path class="cls-1" d="m514.36,254.11c-.26,2.01-2.39,5.04-1.69,7.85l.89.26c-1.67-1.32,2.69-6.2.8-8.11Z"/>
        <path class="cls-1" d="m528.22,218.94l-.9,7.06c1.19-1.23,2.8-2.86,3.09.35,3.56-8.9-2.67,1.84-2.19-7.42Z"/>
        <path class="cls-1" d="m529.95,197.04c.56,3.79,1.73-.04,2.41.16-1.09-2.41-1.36-2.99-2.41-.16Z"/>
        <path class="cls-1" d="m527.71,36.7l2.83-.45c-1.67-3.41-1.03.34-2.83.45Z"/>
        <path class="cls-1" d="m497.95,25.34c.49.83.97,1.53,1.33,2.4.65-.64,1.32-1.27,2.04-1.88l-1.68-.35-1.69-.17Z"/>
        <polygon class="cls-1" points="482.78 3.79 484.06 3.39 479.18 4.41 482.78 3.79"/>
        <path class="cls-1" d="m217.01,4.79l.88,3.47c1.98-.62,2.39-4.52-.88-3.47Z"/>
        <path class="cls-1" d="m102.27,8.32c-1.25-1.73-4.48-2.85-6.47-1.14,2.58.24,5.15,1.59,6.47,1.14Z"/>
        <path class="cls-1" d="m18.81,297.43c-1.08-.43-2.08-.98-3.12-1.54,1.6,1.37,3.39,2.49,5.12,3.61l-2-2.07Z"/>
      </g>
    </g>
  </g>
</svg>