<?xml version="1.0" encoding="UTF-8"?>
<svg id="_레이어_2" data-name="레이어 2" xmlns="http://www.w3.org/2000/svg" viewBox="0 0 487.14 676.75">
  <defs>
    <style>
      .cls-1 {
        fill: none;
        stroke: #fff;
        stroke-linecap: round;
        stroke-linejoin: round;
        stroke-width: 4px;
      }

      .cls-2 {
        fill: #fff;
        stroke-width: 0px;
      }
    </style>
  </defs>
  <g id="_레이어_1-2" data-name="레이어 1">
    <g>
      <rect class="cls-2" x="9.89" y="9.77" width="467.36" height="657.15" rx="33.59" ry="33.59"/>
      <g>
        <path class="cls-1" d="m460.8,663.74c.69-1.62,1.34-3.15,1.86-5.4,3.29-1.26,6.12-2.89,8.44-4.8,1.24-.9,2.24-1.95,3.31-2.96.55-.5.96-1.08,1.45-1.62.46-.56.96-1.11,1.4-1.69-.38,1.14-.82,2.25-1.25,3.39l-.73-.39"/>
        <path class="cls-1" d="m138.45,12.75c-10.4-.48-8.01,2.2-14.79,2.92-.66-.47-1.38-.97-2.09-1.48"/>
        <path class="cls-1" d="m2.55,222.75c.32,3.31.65,6.62.93,9.49,1.51.21,2.97-4.3,3.87,3.17"/>
        <path class="cls-1" d="m474.27,306.91c.89-1.27,1.78-2.54,2.37-3.37.56-6.31,1.03-11.49,1.53-17.1-2.43-6.98-4.37,11.8-6.71,2.85-2.16,4.58-1.45,13.2-1.5,20.79"/>
        <path class="cls-1" d="m12.87,451.73c-.69,1.32-1.39,2.64-2.1,3.99.86,7.81-.22,13.66-1.5,19.22"/>
        <path class="cls-1" d="m229.2,8.91h8.96c-5.73-2.6,8.58-3.37,8.46-5.87-.99-.2-3.03-.62-5.07-1.04l-1.97.23,1.23,1.64"/>
        <path class="cls-1" d="m340.96,661.54l-3.49-.27.03-.43c3.56-.21,7.11-.42,10.63-.63,4.55.64,8.71,1.22,12.29,1.73,4.37-.25,8.27-.48,11.8-.68,1.21-.39,2.39-.77,3.56-1.15"/>
        <path class="cls-1" d="m471.63,139.13l.24-5.05-.45-1.39-2.11,7.68.65.15c.38,4.94.76,9.88,1.16,15.13-.84,1.25-1.25,1.85-1.66,2.46"/>
        <path class="cls-1" d="m370.5,673.78c5.42.82,11.02.99,16.91.25.12-.02.75.14,1,.23.15.06.03.16.03.24"/>
        <path class="cls-1" d="m286.18,2.19c-.73.62-1.46,1.25-2.5,2.14-1.89.29-5.22.8-9.42,1.44-2.19-.09-5.72-.23-8.95-.36-1.67-1.17,8.94-3.29-5.54-3.23-.91,1.76-10.56,2.95-6.31,5.05"/>
        <path class="cls-1" d="m472.11,335.4c.67-3.39,1.34-6.79,2.19-11.03-.68-1.49-1.19-2.62-1.71-3.74"/>
        <path class="cls-1" d="m14.31,435.9c-.52-1.5-1.04-3-1.76-5.06.53-3.88.96-6.98,1.11-8.13h4.02c-.13.7-.32,1.67-.5,2.64"/>
        <path class="cls-1" d="m484.83,208.78c-.33-.51-.67-1.02-1.38-2.1.68-1.57,1.03-2.37,1.51-3.48-.72-2.47-1.38-4.77-2.05-7.08"/>
        <path class="cls-1" d="m481.47,283.69c1.13-.45,2.25-.9,3.66-1.46-1.04-5.11-1.92-9.03-2.67-13.41-.26-1.51-.19-4.13-.27-6.24"/>
        <path class="cls-1" d="m254.43,662.02c3.14-.4,6.27-.79,9.83-1.24,2.15,1.48,3.55,2.44,5.15,3.54,2.13-.3,4.12-.58,6.12-.86"/>
        <path class="cls-1" d="m479.87,651.29c.76-1.04,1.76-2,2.17-3.25.43-1.22.93-2.42,1.2-3.69l.46-1.88c.07-.31.15-.63.22-.94l.14-.96.26-1.92c.09-.64.17-1.28.18-1.92l.07-1.93.03-.96v-.48s0-.4,0-.4"/>
        <path class="cls-1" d="m473.15,18.58c-3.38-2.58-7.12-4.46-11.07-5.71.61.5,1.16.89,1.62,1.32.45.44.87.84,1.29,1.24"/>
        <path class="cls-1" d="m6.63,604.73h.77c-.11,4.93-2.16,9.24-.81,13.14,1.91.64,3.27,1.1,4.64,1.56l-.04,1.88,2.17-1.81"/>
        <path class="cls-1" d="m474.51,534.83c.48-1.69.95-3.37,1.9-6.7-1.24-.91-1.81-1.32-2.38-1.74"/>
        <path class="cls-1" d="m258.65,673.78c2.37.28,4.75.56,8.31.97,2.66-1.11,5.09-2.12,7.52-3.13"/>
        <path class="cls-1" d="m473.31,359.67c.45,1.45.9,2.9,1.43,4.59-.79,2.74-1.37,4.75-1.95,6.76l.53.39v14.64"/>
        <path class="cls-1" d="m53.94,668.98c-3.45.25-6.89.48-9.5.91-.33.06-.64.12-.94.17-.33.05-.64.11-.94.15-.6.11-1.13.24-1.59.4-.91.31-1.53.72-1.7,1.24-.1.33-1.59.45-3.51.48-.96-.02-2-.15-3.04-.23-1.04-.07-2.04-.25-2.88-.39,1.34.83,2.55,1.24,3.61,1.53,1.06.3,1.96.44,2.8.4,1.67-.04,2.98-.24,4.62-.47"/>
        <polyline class="cls-1" points="431.79 5.07 430.08 3.93 432.97 4.01 430.93 5.63 429.11 5.58 434.96 10.11"/>
        <path class="cls-1" d="m22.3,25.84c.25.61.52,1.22.85,1.92-.64.64-1.21,1.13-1.68,1.75-.49.61-1.11,1.23-1.72,2.22.19-1.07.54-1.97.82-2.86.25-.91.68-1.67,1.02-2.49"/>
        <path class="cls-1" d="m477.87,122.25c.49-1.31.99-2.61,1.42-3.75-.24-3.97-.45-7.52-.67-11.23.87-6.68,2.51-12.49,1.82-21.05.74-2.41,1.49-4.82,2.23-7.23"/>
        <path class="cls-1" d="m12.15,536.14l-.72-1.06,1.02-3.12c.75-5.11-.36-13.25,1.38-18.01.58-1.6,1.12-3.49,1.68-5.25"/>
        <path class="cls-1" d="m4.71,596.29c-.71-1.55-1.41-3.11-2.54-5.59.21,3,.3,4.3.39,5.57,0,.11.17.14.23-.01.09-.24.16-.67.24-1.03"/>
        <path class="cls-1" d="m16.71,486.55c1.73-5.55.94-11.76.24-17.94"/>
        <path class="cls-1" d="m3.27,357.82c.54-5.42,1.58-10.57.48-16.88"/>
        <path class="cls-1" d="m355.82,15.87c-3.89-.22-7.77-.44-12.33-.7-.1.29-.22.62-.34.94"/>
        <path class="cls-1" d="m181.71,5.55c2.46.24,4.84.56,7.4.71,7.34.43,14.76,1.79,22.14.01"/>
        <path class="cls-1" d="m251.26,668.26c-.72,1.32.21,2.49,5.23,3.37,2.14.38,3.82.89,7.01,1.65,1.98-1.12,3.86-2.18,5.74-3.24l-2.02-.29-6.46,1.63"/>
        <path class="cls-1" d="m481.47,626.63c-.64,8.28-2.4,4.44-3.62,6.05-1.12,1.49-2.38.66-3.14-4.89-.11-.78-.76-.11-1.16-.11"/>
        <path class="cls-1" d="m206.95,665.38c1.41-.4,4.28-1.08,4-1.16-3.53-.95-7.52-1.8-11.39-2.68"/>
        <path class="cls-1" d="m471.87,453.58h-1.71c.12,4.13.21,7.2.3,10.27l-.74.28v-6.33"/>
        <path class="cls-1" d="m477.87,154.96c-.89,2.42-1.77,4.84-2.99,8.18,1.06,3.98,2,7.52,2.94,11.04.17,2.65.36,5.43.54,8.22"/>
        <line class="cls-1" x1="16.71" y1="517.15" x2="13.59" y2="529.81"/>
        <path class="cls-1" d="m480.27,432.48c-.54-5.12-1.07-10.24-1.68-16.07-.05-1.3-.15-3.71-.25-6.08-.02-.41-.15-.99-.23-.99s-.16.63-.24.98"/>
        <path class="cls-1" d="m14.07,484.44l1.25,2.2.19-2.2c-2.21-3.26-2.38-6.09-1.2-21.1"/>
        <path class="cls-1" d="m472.83,238.32c1.11-3.52,2.21-7.02,3.35-10.63.03-.08-.15-1.33-.27-2.44-.83.17-1.71.34-2.75.55.22,2.49.43,4.87.63,7.24"/>
        <path class="cls-1" d="m473.55,534.83c-.94,3.62-1.88,7.24-3.04,11.7-.39-2.43-.72-4.43-1.04-6.43"/>
        <path class="cls-1" d="m235.44,665.38c4.57,1.87,9.15.52,13.72,0"/>
        <path class="cls-1" d="m98.35,13.47c2.14.55,4.29,1.11,6.52,1.68-1.53.33-2.97.65-4.41.96"/>
        <path class="cls-1" d="m15.51,229.08v9.39c2.37-9.87,2.39-11.17.72-13.61"/>
        <path class="cls-1" d="m174.33,5.07c-4.58-.21-9.16-.42-13.56-.62-1,.33-2.16.71-3.32,1.1"/>
        <line class="cls-1" x1="275.53" y1="661.06" x2="300.86" y2="659.62"/>
        <line class="cls-1" x1="199.56" y1="664.66" x2="185.84" y2="662.98"/>
        <path class="cls-1" d="m474.46,655.21c2.74-2.41,5.36-5.25,7.38-8.6"/>
        <path class="cls-1" d="m483.15,550.66c.19-2.84.37-5.68.66-10.12-.87-3.13-1.97-7.05-3.06-10.98"/>
        <path class="cls-1" d="m14.33,36.85c.24.8.68,1.62,1.06,2.46-.17,1.13-.07,2.39-.09,3.67,0,.3.01.69.04,1.08.02.39.04.78.06,1.17.04.78.08,1.58.12,2.37"/>
        <path class="cls-1" d="m162.72,11.55c2.46.24,4.92.48,7.96.78-2.46.78-4.86,1.53-7.79,2.46,2.03.24,3.57.43,8.71,1.04-3.12.24-4.94.39-6.77.53"/>
        <path class="cls-1" d="m470.67,626.63c.16-4.22.47-8.46.45-12.66-.04-8.51-.26-17-.45-27.64.11-.67.55-3.38,1-6.15-2.9-7.31-.68-20.21-1.72-29.52"/>
        <path class="cls-1" d="m475.21,20.07l1.54-1.14c-.47-.69-.91-1.41-1.42-2.07l-1.59-1.95c-4.43-2.45-9.1-3.92-13.62-4.48"/>
        <path class="cls-1" d="m49.82,5.07c.7,1.52,1.49,3.04,2.07,4.56.24.64.04,1.28.04,1.92"/>
        <line class="cls-1" x1="176.35" y1="673.78" x2="191.12" y2="674.02"/>
        <path class="cls-1" d="m443.4,7.23c-1.38-.1-2.76-.2-4.75-.34v1.76c1.75-.33,2.72-.52,3.69-.7"/>
        <path class="cls-1" d="m7.35,335.66c1.15-.5,3.02,7.22,3.12-5.28"/>
        <path class="cls-1" d="m482.91,578.09c-2.23.89.35,8.12-.98,11.14-.84-1.73-1.85-3.8-2.86-5.86"/>
        <path class="cls-1" d="m18.69,659.57c-.65-.82-1.12-1.76-1.65-2.65-.26-.45-.55-.88-.81-1.35-.25-.48-.51-.96-.79-1.45-.28-.49-.6-.97-.91-1.49-.29-.53-.61-1.08-.96-1.64-.77-1.1-1.43-2.4-2.42-3.79"/>
        <path class="cls-1" d="m360.04,12.51c-.95.26-1.9.53-3.02.84.75.1,1.83.25,3.52.48,1.3-.8,2.51-1.54,3.72-2.28"/>
        <path class="cls-1" d="m426.52,16.35c-1.96-1.93-6.26-1.2-10.55-.48"/>
        <path class="cls-1" d="m145.75,664.9h10.32c-3.03-.77-4.7-1.2-6.38-1.62l1.14-.43c4.45.53,8.9,1.06,15.03,1.8.62-.14,2.45-.53,4.12-.94.98-.25,1.72-.54,2.53-.81,2.42.33,4.18.57,5.93.81"/>
        <path class="cls-1" d="m4.95,248.08c.62-6.34.65-7.71.24-10.55"/>
        <path class="cls-1" d="m479.07,204.55c.32-.12.65-.23,1.08-.39-.97-5.3-2.23-6.15-3.24-2.78"/>
        <path class="cls-1" d="m472.59,290.03c-.08-2.11-.16-4.22-.27-7.08-.5-.73-1.08-1.58-1.65-2.42"/>
        <path class="cls-1" d="m25.59,13.11c-4.56,2.06-8.64,5.5-10.35,9.74"/>
        <path class="cls-1" d="m482.91,297.41c-1.11-.94-2.22-1.87-3.09-2.61-.49,2.92-.84,4.95-.89,5.26.41,6.89.76,12.67,1.1,18.46.08.35.22,1.05.23,1,.42-1.29.83-2.65,1.29-4.17.2,1.3.42,2.76.64,4.22"/>
        <path class="cls-1" d="m4.95,474.94q.9,4.09,2.82-.42c.72,3.54,1.47,7.26,2.22,10.97"/>
        <path class="cls-1" d="m16.14,14.25c-2.17,3.17-3.9,6.52-4.97,10"/>
        <path class="cls-1" d="m464.76,661.72c1.47-1.12,2.79-2.48,4.02-3.8.7-.88,1.41-1.73,2.04-2.63.59-.93,1.2-1.84,1.74-2.78"/>
        <path class="cls-1" d="m482.67,520.06c.21-1.82.42-3.64.66-5.64.43,2.27.79,4.17,1.19,6.33.86-8.37-.46-9.53-1.61-11.28-.02-.04-.03-.74,0-1,.06-.42.15-.72.23-1.07"/>
        <path class="cls-1" d="m15.03,90.85c.4-.66.81-1.32,1.83-2.98-1.49-3.16-2.56-5.4-3.62-7.65l-.33,1.56c-.75-7.12-1.5-14.25-2.33-22.1-.29,2.05-.55,3.95-.82,5.85"/>
        <path class="cls-1" d="m2.55,425.35c-1.15-11.47,1.95-1.56,1.92-7.39q-.46-6.35,2.22-14.25H2.55l-.1,2.21.82,2.54"/>
        <path class="cls-1" d="m471.87,115.92c-.4,2.81-.84,5.54-1.19,8.47-.37,3.06-.65,6.31-.97,9.47"/>
        <path class="cls-1" d="m470.43,631.91c-.08.44-.18.88-.28,1.32-.11.39-.24.7-.35,1.05-.24.68-.36,1.35-.47,2.03-.3,2.64-.96,5.12-1.69,7.5-.22.58-.43,1.16-.62,1.74-.18.59-.48,1.11-.7,1.68-.41,1.15-1.02,2.15-1.49,3.23"/>
        <path class="cls-1" d="m3.99,440.12l-1.8,6.77.27,1.9c.38-.85.77-1.7,1.41-3.14,1.2,1.39,1.48,6.34,1.32,12.41"/>
        <path class="cls-1" d="m159.56,9.15c-1.04,1.56,3.24,3.44-5.28,4.56"/>
        <line class="cls-1" x1="354.67" y1="659.86" x2="367.34" y2="659.38"/>
        <line class="cls-1" x1="270.26" y1="666.58" x2="281.86" y2="665.86"/>
        <path class="cls-1" d="m2.55,279.73c-.41,4.38-.49,7.97.69,10.8.36.86.35,4.68.51,7.14"/>
        <path class="cls-1" d="m11.91,513.98c.43-6.66.86-13.31,1.36-21.1h-1.36"/>
        <path class="cls-1" d="m470.67,45.22c-1.3,2.12-1.09,6.23-.72,10.55"/>
        <path class="cls-1" d="m454.83,3.76c-1.37-.29-2.72-.69-4.12-.81-1.39-.16-2.77-.4-4.16-.38-2.99-.12-5.04.04-7.37.1"/>
        <path class="cls-1" d="m206.95,672.58c1.43-.03,2.85-.05,4.7-.09-1.42-.8-2.53-1.44-3.65-2.07"/>
        <line class="cls-1" x1="479.79" y1="166.57" x2="477.39" y2="159.18"/>
        <path class="cls-1" d="m22.11,25.69c4.1-4.93,9.92-8.35,16.19-9.56l-.04.38,2.1-.45c.71-.14,1.43-.17,2.15-.26.37-.04.7-.09,1.1-.12l1.31-.06,2.62-.13c3.49-.17,6.97-.34,10.43-.51.34-.32.84-.79,1.34-1.27"/>
        <path class="cls-1" d="m481.71,121.19c.34-6.25.69-12.49,1.08-19.63.35-.25,1.08-.76,1.81-1.28.43,6.95.45,13.41-1.47,16.59.17,1.52.34,2.92.5,4.32"/>
        <path class="cls-1" d="m5.19,602.62c1.35-3.9,2.69-2.03,2.86,4.23.1,3.82.02,7.73.02,11.6"/>
        <path class="cls-1" d="m474.03,207.72c.61,2.28,1.21,4.57,1.87,7.04.55-2.01.99-3.63,1.52-5.55-.43-2.44-.93-5.21-1.5-8.42-1.12,1.98-2.23,3.93-3.33,5.87"/>
        <path class="cls-1" d="m12.15,187.93l4.91-5.21.14,2.08c.17-1.39.33-2.79.55-4.62-.47-1.45-.93-2.86-1.56-4.82.65-1.42,1.06-2.34,1.48-3.25"/>
        <path class="cls-1" d="m475.23,382.88c-.33,2.45-.65,4.9-1.05,7.91.32,1.89.66,3.93,1.09,6.44-.96,1.87-1.94,3.78-2.92,5.7"/>
        <path class="cls-1" d="m4.47,524.54c.54,5.47,1.08,10.95,1.68,17.05,2.51,1.71,2.8,3.06,2.86,11.91-.74,4.51-1.2,7.3-1.66,10.08"/>
        <path class="cls-1" d="m482.91,234.1c.59-4.01,1.17-8.03,1.75-11.98-.15-.33-.47-1.03-.79-1.74"/>
        <line class="cls-1" x1="152.17" y1="13.71" x2="142.67" y2="15.39"/>
        <path class="cls-1" d="m11.91,198.48v-22.38c-1.38.61-2.5,1.11-4.28,1.89,1,5.13,1.68,8.59,2.36,12.04"/>
        <line class="cls-1" x1="484.83" y1="358.61" x2="483.15" y2="369.16"/>
        <path class="cls-1" d="m69.77,667.78c-5.64-.06-11.28-.12-17.27-.18,1.25.57,2.93,1.34,4.61,2.1"/>
        <polyline class="cls-1" points="366.28 672.82 362.98 674.1 364.41 674.35 377.66 672.56 378.94 673.06 387.38 671.62"/>
        <path class="cls-1" d="m361.1,14.91c3.87.26,7.74.78,11.61,0"/>
        <path class="cls-1" d="m6.63,153.11c.44,1.14.87,2.29,1.46,3.84-.55,1.61-.89,2.58-1.22,3.55"/>
        <path class="cls-1" d="m5.91,486.02c1.04.96,2.07,1.92,3.22,2.98,1.02-2.75,2.09-5.61,3.37-9.03.17,2.93.27,4.76.37,6.58"/>
        <path class="cls-1" d="m477.15,138.08c-.09-2.1-.18-4.2-.26-6.22.43-.68.84-1.32,1.28-2.03-.19-4.09-.31-8.02-.55-11.79-.56-8.13-1.11-16.19-1.67-24.28"/>
        <path class="cls-1" d="m3.27,550.92q-.96-.51-.96,7.39"/>
        <path class="cls-1" d="m152.08,671.62c.67.91,1.34,1.82,2.09,2.84,6.62-.46,8.18-2.31,14.79-1.4"/>
        <path class="cls-1" d="m90.88,672.58c-3.4-.9-11.49-1.47-4.21-3.18,1.83.52,3.55,1.01,5.27,1.5"/>
        <path class="cls-1" d="m377.98,10.35c1.4.4,2.8.8,4.53,1.3,1.99-.27,4-.55,6.02-.82"/>
        <path class="cls-1" d="m474.85,35.1l.54,1.46c.18.49.27,1,.41,1.5l.3-1.35c-.61-1.57-1.13-3.14-1.94-4.58"/>
        <path class="cls-1" d="m155.24,660.58c-.11-.4-.23-.8-.39-1.36,2.29.26,3.98.45,5.67.64"/>
        <path class="cls-1" d="m476.19,247.82c-.57,1.34-1.13,2.68-1.63,3.86.56,5.2,1.1,10.17,1.63,15.13"/>
        <line class="cls-1" x1="15.03" y1="596.29" x2="16.47" y2="605.26"/>
        <line class="cls-1" x1="8.07" y1="154.16" x2="10.71" y2="153.11"/>
        <path class="cls-1" d="m186.99,15.15c7.06-.46,14.13-.92,21.93-1.43,4.4,1.21,9.17,2.52,13.95,3.83"/>
        <path class="cls-1" d="m304.12,6.27c-.7.24-1.19.62-2.15.7-6.09.48-12.27.89-19.71,1.41,2.46,1.21,4.1,2.03,5.74,2.84l1.49-.14c-.65.96-1.29,1.93-2.03,3.04,1.71.22,3.9.51,6.1.8"/>
        <path class="cls-1" d="m12.63,138.34h-1.39c-.26-5.62-.48-10.21-.68-14.47.38-5.49.74-10.81,1.11-16.13"/>
        <polyline class="cls-1" points="2.79 330.38 2.31 337.77 3.27 337.77"/>
        <polyline class="cls-1" points="2.31 630.06 3.63 632.69 5.06 635.62"/>
        <path class="cls-1" d="m266.04,661.3c5.16-.31,4.96-2.89,13.72-1.68"/>
        <path class="cls-1" d="m476.67,544.33c-.8-.74-1.6-1.47-2.61-2.41-.08-2.07-.17-4.58-.27-7.09"/>
        <polyline class="cls-1" points="9.99 85.58 9.99 98.24 10.46 98.66 11.19 90.85"/>
        <path class="cls-1" d="m4.23,81.36c.84,2.93,1.68,5.86,2.56,8.93.47-.41,1.11-.98,1.76-1.55"/>
        <path class="cls-1" d="m8.01,654.17c2.68,3.92,5.98,7.35,9.75,10.06"/>
        <path class="cls-1" d="m6.87,515.04v11.04c1.34-1.81,2.21-2.99,3.36-4.54v7.22"/>
        <line class="cls-1" x1="475.71" y1="602.36" x2="471.15" y2="600.25"/>
        <path class="cls-1" d="m484.35,305.85c-1.79-2.56-2.97,3.04-4.32,6.33"/>
        <line class="cls-1" x1="475.47" y1="167.62" x2="474.27" y2="183.45"/>
        <line class="cls-1" x1="475.23" y1="195.06" x2="474.75" y2="186.62"/>
        <path class="cls-1" d="m15.78,24.54c-.08.84-.13,1.71-.2,3.23,1.59-1.41,4.93-3.8,8.45-5.13"/>
        <polyline class="cls-1" points="13.83 102.46 13.98 114.09 13.77 113.63 13.11 122.51"/>
        <path class="cls-1" d="m62.39,666.1c8.41.54,10.35-1.18,13.39-2.21,1.52-.51-.08-1.56-.84-2.34-.49-.51-2-.97-3.06-1.45"/>
        <line class="cls-1" x1="484.83" y1="489.46" x2="481.47" y2="484.18"/>
        <path class="cls-1" d="m8.79,393.69c.62-3.29-.34-14.41,2.16-8.44"/>
        <path class="cls-1" d="m302.97,669.46c10.64-.41,21.07-.47,30.6.96"/>
        <path class="cls-1" d="m367.34,671.14c3.18-.81,3.67-1.45-2.11-1.68"/>
        <line class="cls-1" x1="478.11" y1="398.71" x2="474.99" y2="408.21"/>
        <path class="cls-1" d="m381.05,669.94l4.94-1.87,1.39.19c0-.08.11-.22-.02-.23-1.03-.08-2.09-.17-3.15-.25"/>
        <path class="cls-1" d="m171.07,668.02v-1.92c-1.28-.17-4.33-.56-7.39-.96"/>
        <path class="cls-1" d="m349.4,670.66c1.23-.57,2.47-1.15,3.96-1.84-.85-.3-2.09-.75-3.77-1.35,5.63-.71,10.73-1.36,16.02-2.03,8.1,1.24,8.93,1.24,12.28-.06"/>
        <path class="cls-1" d="m476.43,306.91c1.09,9.18,1.05,11.57-.24,13.72"/>
        <path class="cls-1" d="m176.44,7.47l-1.06-.96c-1.16.09-2.32.18-4,.32,4.21,1.05,7.52,1.88,10.83,2.7l3.72-.86-6.33-.72"/>
        <path class="cls-1" d="m3.75,387.36l2.39,5.26.49-2.1v13.72h.96v10.55"/>
        <path class="cls-1" d="m159.56,4.59c-1.38-.17-2.76-.34-4.96-.62-.52.59-.95,1.08-1.38,1.58"/>
        <path class="cls-1" d="m11.91,220.64c-.33-.51-.67-1.02-1.34-2.04.14,2.33.26,4.29.38,6.26"/>
        <line class="cls-1" x1="3.51" y1="545.64" x2="5.43" y2="535.09"/>
        <polyline class="cls-1" points="14.31 501.32 14.55 505.55 15.46 502.11 14.31 494.99"/>
        <path class="cls-1" d="m3.03,455.95c2.48-.66,4.96-1.31,7.36-1.95-.61-3.18-1.22-6.42-1.84-9.66"/>
        <polyline class="cls-1" points="16.23 194.26 17.61 193 17.79 194.91 16.23 200.59"/>
        <path class="cls-1" d="m11.67,373.64c-.88-.52-1.75-1.04-2.65-1.58.35,4.01.66,7.54.97,11.07"/>
        <path class="cls-1" d="m471.7,647.23c1.32-2.67,2.21-5.56,2.71-9.05-.86,1.3-1.49,1.96-2.78,3.39.36-.8.68-1.51.96-2.13.25-.64.41-1.22.59-1.75.17-.53.35-1,.46-1.46.1-.46.19-.89.29-1.33"/>
        <path class="cls-1" d="m453.16,16.32c-.2.27-.39.55-.66.91.5.32,1.03.66,1.58,1.01.54.38,1.07.84,1.63,1.28.58.41,1.1.97,1.65,1.51.27.27.55.54.84.82.26.31.52.62.78.94.36-.27.63-.48.9-.68"/>
        <path class="cls-1" d="m470.91,77.93c-.39-.43-.79-.87-1.2-1.32-.09,2.02-.16,3.78-.24,5.54"/>
        <path class="cls-1" d="m470.91,179.23c-.32.12-.65.23-1.3.46.31,4.96.57,9.11.82,13.25"/>
        <path class="cls-1" d="m472.83,224.6c-1.26-4.26-2.62-15.79-2.89-24.26-.02-.73-.16-1.38-.36-2.93.69-1.51,1.37-2.99,2.05-4.46"/>
        <path class="cls-1" d="m482.91,96.93c2.37-6.46.38-15.54.85-23.43-.61,4.04-2.4-5.13-2.29,4.44"/>
        <polyline class="cls-1" points="470.67 476.79 469.3 502.76 470 504.34 473.31 488.4"/>
        <path class="cls-1" d="m410.6,665.86c-.69-2.08-2.91-2.31-13.72-1.44"/>
        <path class="cls-1" d="m473.07,596.03c.26-1.71.52-3.41.88-5.84-.43-.98-.77-1.79-1.12-2.6"/>
        <line class="cls-1" x1="16.71" y1="285.01" x2="17.43" y2="301.89"/>
        <path class="cls-1" d="m97.21,671.14c7.2-.79,6.58-2.17,5.28-3.6"/>
        <polyline class="cls-1" points="478.83 353.34 478.38 343.6 478.11 343.84 479.07 328.01"/>
        <path class="cls-1" d="m84.54,673.06c-.11,1.08.82,1.8,6.33.96"/>
        <line class="cls-1" x1="59.31" y1="5.31" x2="64.59" y2="11.55"/>
        <path class="cls-1" d="m3.27,524.54c.56-2.46,1.08-5.17,1.69-7.31.57-1.97,1.25-3.33,2.01-3.77.71-3.56,1.41-7.13,2.11-10.65-.11-1-.32-2.83-.53-4.65"/>
        <path class="cls-1" d="m476.67,540.11c1.52-6.33,1.43-14.93-.24-22.16"/>
        <path class="cls-1" d="m301.91,672.82c-1.3-.58-2.59-1.16-3.9-1.75.74-.17,1.79-.41,2.85-.65"/>
        <path class="cls-1" d="m420.09,665.38c-2.46,1.28-4.93,2.56-7.25,3.77-2.58-.06-5.05-.11-8.02-.18.93-.43,1.77-.81,2.77-1.26-2.15-.29-4.32-.59-6.49-.89"/>
        <path class="cls-1" d="m6.63,366.26c1.17-4.04,2.34-8.08,3.87-13.37.35,4.48.61,7.74.89,11.29,1.66.08,1.22-5.88,1.25-10.58"/>
        <path class="cls-1" d="m10.71,177.38v8.52c-1.26,9.19-2.31,16.89-3.57,26.05-.42-1.23-1.07-3.13-1.71-5.02"/>
        <path class="cls-1" d="m476.19,329.07c.37-10.91-.86-16.83-4.32-18.02v-8.36"/>
        <polyline class="cls-1" points="482.91 414.54 480.89 417.38 480.55 420.74 480.03 415.59"/>
        <line class="cls-1" x1="4.47" y1="217.48" x2="7.83" y2="221.7"/>
        <path class="cls-1" d="m11.19,155.22h1.36c.24-3.16.4-5.27.56-7.39"/>
        <path class="cls-1" d="m483.63,426.14c.3,2.9.6,5.8.96,9.38-.48,10.67-.62,23.98-4.08,27.55"/>
        <line class="cls-1" x1="320.91" y1="672.1" x2="325.13" y2="669.7"/>
        <path class="cls-1" d="m481.47,514.78c-.56-4.57-1.17-9.05-1.65-13.78-.13-1.34.13-3.45.21-5.21"/>
        <path class="cls-1" d="m303.06,3.87c-2.36,2.28,9.05,2.53,11.61,4.08"/>
        <path class="cls-1" d="m477.39,454.63c-.24-6.68-.48-13.37-.77-21.56,1.35,4.45,2.5,8.26,3.65,12.06"/>
        <line class="cls-1" x1="251.36" y1="6.51" x2="234.47" y2="10.35"/>
        <path class="cls-1" d="m138.45,5.07c2.18.2,4.36.39,7.98.72-3.42,1-6.23,1.82-9.03,2.64"/>
        <path class="cls-1" d="m3.03,429.57c-.91,4.85-.5,7.76.72,9.5"/>
        <line class="cls-1" x1="199.65" y1="11.31" x2="184.88" y2="13.23"/>
        <path class="cls-1" d="m58.16,663.94l-10.8.72c-3.69.26-7,.49-10.44.04.13.17.27.3.4.45-4.32-.88-8.47-2.63-12.06-5.18"/>
        <path class="cls-1" d="m111.98,663.94c-.51-.33-1.02-.67-2-1.32,4.16-.23,8.81-.49,12.73-.71.97-.66,1.98-1.36,2.99-2.06"/>
        <polyline class="cls-1" points="74.08 11.79 58.26 12.03 50.34 12.15 46.39 12.21 44.41 12.24 43.42 12.25 42.51 12.32"/>
        <path class="cls-1" d="m474.51,434.59c-2.1-6.66-2.41-6.29-3.6,4.22"/>
        <path class="cls-1" d="m55.09,4.59l-8.97.36-2.24.09c-.74.03-1.67.13-2.49.19-1.7.08-3.37.45-5.03.77"/>
        <polyline class="cls-1" points="478.83 52.61 479.81 63.68 480.55 62.43 479.55 51.55"/>
        <path class="cls-1" d="m3.51,289.23c.53-5.07,1.54-2.75,2.4-3.29.66-.42,1.28-1.98,1.92-3.04"/>
        <path class="cls-1" d="m172.22,16.11c-4.47,1.92-11.85,1.47-18.99,1.2"/>
        <polyline class="cls-1" points="432.76 669.22 433.81 669.94 428.54 670.18"/>
        <path class="cls-1" d="m356.88,4.35c-5.28,0-10.56-.05-15.82.02-2.14.03-4.23.3-6.34.46"/>
        <path class="cls-1" d="m210.2,10.11c1.44-.23,2.88-.46,5.55-.89-2.56-.14-4.06-.23-5.55-.31"/>
        <path class="cls-1" d="m156.39,14.19c1.77.84,2.44,1.56-3.17,1.68"/>
        <path class="cls-1" d="m299.8,674.02c5.62-1,8.96-2.82,17.94-2.64"/>
        <path class="cls-1" d="m480.51,96.93c.51-1.14,1.02-2.28,1.76-3.92.12,1.81.29,4.26.45,6.72l-.44,2.32-2.01-4.06"/>
        <path class="cls-1" d="m434.87,664.9c-5.28-.48-10.62-.93-15.76-1.47-.83-.09-.77-.61-1.12-.93"/>
        <path class="cls-1" d="m479.31,314.29c-1.87,1.36-1.05,6.29-.89,11.67,1.01.74,1.91,1.39,2.81,2.04"/>
        <path class="cls-1" d="m384.31,13.23c2.92-.44,5.84-.89,9.54-1.45,5.66.43,12.31.94,18.95,1.45"/>
        <path class="cls-1" d="m14.79,219.59c-.75-7.74-.62-8.41,2.33-10.68-.14-2.45-.27-4.85-.41-7.26"/>
        <path class="cls-1" d="m484.83,250.98c-.4-.33-.8-.66-1.53-1.26.65-1.78,1.08-2.96,1.61-4.4-.22-1.94-.46-4.05-.91-8.01-.64,3.88-1.1,6.66-1.57,9.44"/>
        <path class="cls-1" d="m354.77,13.95c1.02.48,2.04.97,3.49,1.66-1.3.56-2.93,1.25-4.55,1.94"/>
        <path class="cls-1" d="m479.31,310.07c-.4-3.52-.79-7.01-1.2-10.56-.19-1.71-.32-3.51-.48-5.27"/>
        <path class="cls-1" d="m480.03,371.27c.1,1.38.2,2.76.28,3.93-.84-.26-1.64-.51-2.44-.76"/>
        <polyline class="cls-1" points="19.07 13.86 16.91 16.8 15.09 19.87"/>
        <path class="cls-1" d="m17.67,72.91c-.32.12-.65.23-1.15.41.29,2.55.48,4.23.67,5.92"/>
        <path class="cls-1" d="m413.76,672.1c.35-.24,1.27-.63.96-.69-1.55-.3-3.42-.51-5.18-.75"/>
        <path class="cls-1" d="m471.63,524.28c-.39,2.23-.03,8.41-1.44,5.28"/>
        <path class="cls-1" d="m153.22,16.59c-6.22,1.47-14.12.4-21.1.72"/>
        <path class="cls-1" d="m18.41,11.05c1.08-.76,2.13-1.58,4.53-2.88-.67.51-1.31,1.01-1.92,1.48-.6.48-1.13.99-1.67,1.43-.53.45-1.04.87-1.53,1.28-.46.43-.91.84-1.34,1.22-1.79,1.46-3.17,2.72-4.72,3.55"/>
        <line class="cls-1" x1="309.39" y1="16.11" x2="324.16" y2="17.55"/>
        <path class="cls-1" d="m472.52,28.38c-.78.02-1.56.07-2.36.16"/>
        <path class="cls-1" d="m2.31,263.9l.82-3.04.45,2.68c-.42.82-.85,1.64-1.58,3.06.67,5.84,1.33,11.6,1.99,17.36"/>
        <path class="cls-1" d="m3.03,312.44c.96-1.41,1.92-2.81,3.12-4.57v9.87l.43.41.77-6.75"/>
        <line class="cls-1" x1="2.31" y1="359.93" x2="4.23" y2="366.26"/>
        <path class="cls-1" d="m14.71,658.54c.9.53,1.74,1.11,2.74,1.59,1.01.47,2.04,1.02,3.28,1.5.57.41,1.18.95,1.84,1.56.65.64,1.47,1.18,2.31,1.81.83.64,1.81,1.16,2.85,1.6.52.22,1.05.44,1.61.59.57.13,1.15.23,1.73.29"/>
        <path class="cls-1" d="m2.79,324.05c.08-2.46.16-4.92.31-9.51.97,2.08,1.81,3.87,2.87,6.15-.76,4.23-1.39,7.7-2.01,11.17l-.79-1.14.58,10.2"/>
        <path class="cls-1" d="m481.23,372.33c-.57-7.16-.93-14.88-2.72-20.83-.2,3.48-.3,5.3-.4,7.12"/>
        <path class="cls-1" d="m478.83,90.59c-.73-.22-1.45-.43-2.62-.78,2.2-6.45,2.28-6.41,2.62-.28"/>
        <path class="cls-1" d="m445.78,4.93c1.96-.26,3.93-.16,5.94-.13l1.18.69c-1.75.48-3.44,1.3-4.99,2.01"/>
        <path class="cls-1" d="m483.87,490.51c-.3,3.06-.6,6.11-1.09,11.05-.83-3.66-1.31-5.77-1.79-7.88"/>
        <line class="cls-1" x1="306.13" y1="674.5" x2="320.91" y2="674.5"/>
        <line class="cls-1" x1="472.83" y1="559.1" x2="470.67" y2="560.15"/>
        <line class="cls-1" x1="473.31" y1="565.43" x2="470.43" y2="567.54"/>
        <path class="cls-1" d="m11.91,70.8c1.42,1.04,2.22-8.87,3.84-4.22"/>
        <line class="cls-1" x1="15.75" y1="256.52" x2="17.19" y2="250.19"/>
        <line class="cls-1" x1="133.08" y1="659.14" x2="149.97" y2="659.38"/>
        <path class="cls-1" d="m482.43,491.57l-1.53-6.55.36-2.58c-.72-.72-1.44-1.44-2.7-2.71.44,3.89.67,5.86,1.11,9.75.19-3.36.27-4.85.36-6.35"/>
        <line class="cls-1" x1="482.43" y1="364.94" x2="480.99" y2="356.5"/>
        <path class="cls-1" d="m16.71,556.19c-.75,1.84-1.51,3.69-2.42,5.91.62,3.35.43,10.54,1.93,4.64"/>
        <line class="cls-1" x1="329.35" y1="673.06" x2="334.62" y2="671.14"/>
        <path class="cls-1" d="m279.85,12.27c1.76.48,3.52.96,5.67,1.55,2.26-.27,4.62-.55,6.99-.83"/>
        <line class="cls-1" x1="16.71" y1="499.21" x2="17.43" y2="516.1"/>
        <path class="cls-1" d="m209.06,666.82c-5.9-1.62-9.29-3.49-11.76-5.51-1.39-1.14-2.08-1.1,3.32-2.17"/>
        <path class="cls-1" d="m96.24,4.35c.35-.32.7-.64,1.32-1.2h-6.6l-3.17,2.64"/>
        <path class="cls-1" d="m17.19,347.26c-.4-2.46-1.19-5.14-1.13-7.35.21-7.49.81-14.75,1.1-22.22.17-4.45.03-9.12.03-13.69"/>
        <path class="cls-1" d="m478.11,440.92c-1.1,7.2-2.45-2.8-3.6,1.06"/>
        <path class="cls-1" d="m481.47,321.68c-.16-.7-.32-1.41-.74-3.24-.28,5.93-.52,11.01-.81,17.08-1.03-.44-1.9-.81-2.78-1.18"/>
        <line class="cls-1" x1="165.79" y1="662.26" x2="158.41" y2="660.82"/>
        <line class="cls-1" x1="8.79" y1="130.95" x2="10.95" y2="149.94"/>
        <path class="cls-1" d="m44.45,661.3c-.38.05-.77.1-1.15.14l-.99.1c-.66.06-1.33.18-2.01.2-1.34-.01-2.75.05-4.18-.25-2.91-.48-6.06-1.57-9.66-3.81-.19-.3-.49-.77-.83-1.3-.16-.26-.34-.54-.52-.83-.15-.31-.3-.63-.45-.94-.02-.05.49.22.78.41.18.12.46.34.7.52"/>
        <line class="cls-1" x1="12.15" y1="454.89" x2="13.83" y2="460.17"/>
        <path class="cls-1" d="m9.27,256.52c1.35,2.2,2.7,4.4,4.26,6.93.52,3.26.72,6.9-.42,9.95"/>
        <path class="cls-1" d="m315.63,674.02c-2.9-.95-.29-1.35,3.17-1.68"/>
        <polyline class="cls-1" points="474.75 578.09 474.18 585.34 474.68 586.57 474.99 583.37"/>
        <path class="cls-1" d="m3.75,57.09c-.27-5.66.21-8.44.91-10.39.71-1.96,1.57-3.02,2.32-5.62.32.79.64,1.55.97,2.29l1.08,2.11"/>
        <path class="cls-1" d="m405.32,663.7c.73-1.18-2.45-1.28-6.33-1.2"/>
        <path class="cls-1" d="m427.57,8.67c-2.39.49-4.78.98-8.09,1.66-1.74-.27-4.74-.72-7.74-1.18"/>
        <path class="cls-1" d="m476.91,113.81c-1.12,1.76-2.24,3.52-3.66,5.74.22-3.16.38-5.51.54-7.86"/>
        <line class="cls-1" x1="472.59" y1="158.13" x2="470.91" y2="151.79"/>
        <path class="cls-1" d="m5.03,33.5c-.3.6-.55,1.17-.77,1.73-.18.56-.31,1.1-.41,1.62-.19,1.03-.34,1.97-.3,2.86.04.89.15,1.71.27,2.51l.19,1.18c.07.34.15.68.23,1.03"/>
        <path class="cls-1" d="m200.71,8.67c7.07,1.27,7.18,2.63,1.06,4.08"/>
        <line class="cls-1" x1="473.79" y1="552.77" x2="471.63" y2="551.71"/>
        <path class="cls-1" d="m296.64,662.5l-19.08.62c6.2.7,12.08,1.79,20.14.4v-2.07c3.98-.72,6.47-1.17,8.96-1.62l-3.69-.93-4.22,1.68"/>
        <line class="cls-1" x1="104.69" y1="10.35" x2="108.91" y2="13.71"/>
        <path class="cls-1" d="m207.04,3.15c6.31,1.31,5.42,3.12,6.33,4.8"/>
        <path class="cls-1" d="m103.54,668.98h12.06c.43.24,1.29.72,2.69,1.51,1.49-.48,2.34-.76,3.18-1.03"/>
        <path class="cls-1" d="m314.67,4.35c.86.29,1.73.59,3.08,1.05-2.75-.04-4.5-.07-6.25-.09"/>
        <line class="cls-1" x1="122.53" y1="674.5" x2="125.7" y2="672.34"/>
        <path class="cls-1" d="m207.04,7.23c-1.06.4-1.71,1-3.25,1.16-3.76.4-7.92.59-11.57.84,1.38,1.1,2.3,1.83,3.21,2.56"/>
        <path class="cls-1" d="m124.64,669.22c-6.38-1.57-9.14-3.39-7.39-5.52"/>
        <path class="cls-1" d="m11.67,57.09c-.08-3.5-.11-6.92.04-10.15.04-.81.09-1.6.15-2.38.03-.39.07-.78.1-1.16.06-.36.12-.71.18-1.07.13-.7.27-1.38.42-2.03.2-.65.46-1.26.71-1.85.11-.25.21-.61.31-1.02.09-.42.27-.88.4-1.38.13-.5.28-1.02.41-1.53.15-.51.37-.99.54-1.43"/>
        <path class="cls-1" d="m479.07,553.82c-.54.42-1.09.85-1.86,1.45-.14,4.12-.34,9.78-.54,15.43"/>
        <line class="cls-1" x1="472.35" y1="347.01" x2="469.95" y2="348.06"/>
        <polyline class="cls-1" points="8.55 214.31 8 220.3 8.62 220.84 8.79 215.37"/>
        <polyline class="cls-1" points="469.95 71.6 471.01 69.27 470.93 67.73 469.95 67.38"/>
        <path class="cls-1" d="m255.58,10.59c-.7.24-1.41.48-2.19.75-2.07-.17-4.16-.34-6.25-.51"/>
        <polyline class="cls-1" points="484.35 590.75 484.92 576.31 484.35 575.98 483.39 582.31"/>
        <path class="cls-1" d="m147.95,12.03c1.41-.32,2.81-.64,5.28-1.2,0,1.51,1.41,2.91-.37,4.05-2.09,1.34,2.48,1.39,4.59,1.95"/>
        <path class="cls-1" d="m14.07,155.22c-.61,4.46-1.22,8.92-1.52,11.14.72,6.7,1.24,11.5,1.76,16.29"/>
        <path class="cls-1" d="m482.19,336.45c.61-2.21,1.22-4.42,1.98-7.19-.51-3.05-.88-5.32-1.26-7.58"/>
        <path class="cls-1" d="m104.59,662.26l5.49-.63c-1.07-.31-1.86-.53-3.86-1.11,6.19.22,10.72.37,15.26.53"/>
        <path class="cls-1" d="m220.66,664.18v1.44c-.98-1.69-.3-1.79,9.5-1.68"/>
        <path class="cls-1" d="m470.85,647.9c-.59.41-1.22.79-1.81,1.16-.59.37-1.16.72-1.81.99-.12.06-.14-.08-.39-.26.35-.49.59-1.05.83-1.59.24-.54.49-1.07.71-1.62.18-.56.36-1.11.54-1.68l.28-.83c.07-.29.14-.58.21-.87.15-.58.32-1.15.5-1.73.12-.6.27-1.21.45-1.82.08-.31.21-.61.28-.94.07-.32.15-.65.24-.98.09-.33.19-.67.3-1.01.13-.34.23-.7.31-1.06"/>
        <path class="cls-1" d="m475.23,148.63v-15.51c-1.13,6.61-1.88,11.06-2.64,15.51"/>
        <path class="cls-1" d="m5.19,505.54c.56-1.76,1.09-3.71,1.69-5.22.52-1.33,1.11-2.17,1.67-3.22"/>
        <path class="cls-1" d="m483.39,66.32c-.35-1.94-.7-3.88-1.12-6.22-.95,2.97-2.45,3.13-1.52,10.45"/>
        <line class="cls-1" x1="6.63" y1="431.68" x2="7.83" y2="425.35"/>
        <path class="cls-1" d="m195.34,671.86c-2.17.3-4.34.59-7.28,1-1.46-.49-3.14-1.07-5.31-1.8,3.3-.25,5.83-.44,8.37-.64"/>
        <path class="cls-1" d="m8.05,651.25c.05-1.42.02-2.75.25-4.12"/>
        <path class="cls-1" d="m6.39,71.86c.46-4.92.81-9.85,0-14.77"/>
        <polyline class="cls-1" points="180.57 663.46 184.03 662.23 187.98 662.98 181.62 663.7"/>
        <line class="cls-1" x1="12.15" y1="289.23" x2="13.59" y2="295.56"/>
        <line class="cls-1" x1="483.15" y1="283.69" x2="481.47" y2="285.8"/>
        <line class="cls-1" x1="302.01" y1="15.15" x2="296.73" y2="17.07"/>
        <path class="cls-1" d="m235.53,3.15c.39-1.05-1.45-1.27-5.28-.72"/>
        <path class="cls-1" d="m475.95,149.68c-.84,1.16-1.69,2.33-2.94,4.06.96,2.15,1.37,3.08,1.62,3.63-.89,4.44-1.75,8.74-2.61,13.04l.32,1.96h-2.86l-.15-2.55,1.83-5.37"/>
        <path class="cls-1" d="m479.3,637.43c.34-.09.68-.18,1.12-.29-.02-2.35-.02-3.91-.15-5.23"/>
        <path class="cls-1" d="m324.16,3.15c0-.24.41-.57-.12-.69s-1.99-.03-3.05-.03l2.11.72"/>
        <path class="cls-1" d="m200.62,667.3l-12.38-.44-.58.54c.81.13,1.58.27,2.45.37.14.02.67-.15,1.02-.23"/>
        <path class="cls-1" d="m119.46,7.71c1.54-1.03,3.07-2.06,4.93-3.3-3.44-.11-6.29-.2-9.15-.3"/>
        <polyline class="cls-1" points="10.47 617.39 11.2 606.49 11.9 604.77 12.39 610.01"/>
        <line class="cls-1" x1="6.87" y1="271.29" x2="7.83" y2="280.79"/>
        <path class="cls-1" d="m5.91,203.76c1.27.63,1.23-10.31,2.88-6.33"/>
        <path class="cls-1" d="m11.91,340.93c.96-5.94,2.01-11.84.47-18.97-.04-.18-.17-.15-.23,0-.09.24-.16.67-.24,1.03"/>
        <path class="cls-1" d="m103.54,665.14c-9.87.83-18.13-.18-26.38-1.2"/>
        <path class="cls-1" d="m476.43,417.7c-1.39-7.63-1.57,2.61-2.4,3.17"/>
        <line class="cls-1" x1="213.28" y1="674.26" x2="200.62" y2="671.14"/>
        <line class="cls-1" x1="308.24" y1="665.38" x2="309.3" y2="663.46"/>
        <path class="cls-1" d="m7.35,320.88c1.38-3.37,1.91.76,2.29,4.29.76.37,1.39.68,2.03.98"/>
        <line class="cls-1" x1="92.02" y1="10.83" x2="105.74" y2="11.55"/>
        <line class="cls-1" x1="12.87" y1="313.5" x2="16.95" y2="314.55"/>
        <path class="cls-1" d="m475.95,102.2c-1.13.55-1.3-2.39-1.2-6.33"/>
        <line class="cls-1" x1="10.71" y1="569.91" x2="9.99" y2="578.35"/>
        <path class="cls-1" d="m15.03,461.23l.51-5.15.4,2.03c-.53-5.7-1.05-11.4-1.63-17.64-.3,2.71-.54,4.83-.94,8.48,1.36-.95,2.47-1.72,3.57-2.49"/>
        <line class="cls-1" x1="8.55" y1="413.74" x2="11.67" y2="409.52"/>
        <line class="cls-1" x1="11.19" y1="517.15" x2="12.63" y2="521.37"/>
        <path class="cls-1" d="m9.03,587.85c-.63.9-1.26,1.8-2.04,2.91.92,3.43,1.48,5.54,2.04,7.64"/>
        <path class="cls-1" d="m230.25,4.59c-1.93-.37-3.86-.74-6.44-1.23-1.86.67-3.23,1.15-4.68,1.67q6.55.42,15.42-.57c1.47.33,3.23.73,5.27,1.2-3.24.37-5.35.61-7.46.85"/>
        <line class="cls-1" x1="2.31" y1="195.32" x2="3.51" y2="190.04"/>
        <path class="cls-1" d="m6.63,537.2c.08,1.05.16,2.11.27,3.54,1.41-3.73.99-8.97.69-14.1"/>
        <path class="cls-1" d="m349.49,5.31c-6.31-.04-12.62-.09-20.05-.14v.62"/>
        <path class="cls-1" d="m2.31,62.36c.72-1.41,1.44-2.82,2.24-4.39.12,1.51.23,2.99.38,4.96.29-1.07.51-1.87.73-2.68"/>
        <polyline class="cls-1" points="477.87 507.39 477.39 501.06 477.18 502.23 474.51 492.62"/>
        <path class="cls-1" d="m242.92,6.03c5.57.98,11.15,1.95,18.16,3.18-.64.71-1.49,1.64-2.33,2.58"/>
        <path class="cls-1" d="m195.43,2.19c-2.11.48-4.22.96-6.74,1.53,4.17.3,8.1.58,12.02.87"/>
        <path class="cls-1" d="m7.35,622.67c-.63,2.5-1.26,5-2.13,8.43.06,1.01.06,2,.2,3.43.12,1.36.21,2.82.56,4.33.47,3.05,1.63,6.24,2.98,9.28"/>
        <path class="cls-1" d="m10.23,559.36c-.32-.71-.64-1.42-.84-1.88.2-3.3.4-6.51.6-9.73"/>
        <path class="cls-1" d="m478.38,644.19c-.92-.29-1.84-.58-2.98-.93.25-.97.5-1.92.74-2.86.22-.94.31-1.9.47-2.83.19-.93.16-1.87.23-2.79.06-.92.09-1.83.07-2.75v-10.68"/>
        <line class="cls-1" x1="281.86" y1="667.78" x2="286.09" y2="669.46"/>
        <line class="cls-1" x1="469.71" y1="114.86" x2="469.71" y2="123.3"/>
        <path class="cls-1" d="m398.03,17.55c-2.47-.04-4.95-.09-8.68-.15.68-.93,1.26-1.72,2.02-2.76-3.37.17-6.79.34-9.9.5-.46-.4-.92-.79-1.37-1.18"/>
        <line class="cls-1" x1="252.41" y1="17.07" x2="259.8" y2="17.31"/>
        <path class="cls-1" d="m27.63,653.65l1.26,1.03c.43.33.9.6,1.35.9.88.66,1.88,1.08,2.83,1.62"/>
        <path class="cls-1" d="m426.52,17.31c.92-.31,1.42-.48,1.68-.57,4.02.11,7.72.2,11.26.3.88.02,1.76.05,2.62.07.43.01.86.02,1.29.03.23,0,.41.02.57.03l.5.05c.66.06,1.32.11,1.98.17l1.93.37"/>
        <path class="cls-1" d="m7.83,211.14h3.2c-.25-3.33-.4-5.29-.63-8.32.72-1.26,1.45-2.54,2.61-4.59.39,5.1.72,9.53,1.06,13.96"/>
        <line class="cls-1" x1="17.67" y1="142.56" x2="17.67" y2="151"/>
        <path class="cls-1" d="m269.29,13.23c-2.81.48-6.03.88-8.26,1.47-1.04.28-.18.93-.18,1.41"/>
        <polyline class="cls-1" points="469.71 328.01 469.99 331.54 470.25 331.13 469.71 319.57"/>
        <path class="cls-1" d="m479.55,45.22c-.05-.71-.07-1.39-.13-2.13l-.23-2.23-.12-1.11-.22-1.1-.46-2.18"/>
        <path class="cls-1" d="m177.49,10.59c-7-.72-9.74-2.28-13.72-3.6"/>
        <line class="cls-1" x1="77.25" y1="16.11" x2="84.64" y2="17.31"/>
        <path class="cls-1" d="m469.95,285.8c.29-3.21.58-6.41.96-10.55-.24-.8-.6-1.98-1.2-3.96v6.07"/>
        <path class="cls-1" d="m208,662.26c2.53-.46,5.06-.92,8.26-1.5,1.37.47,2.89.99,4.4,1.5"/>
        <path class="cls-1" d="m120.51,15.87c-.27.51-8.37-.05-3.17,1.2"/>
        <path class="cls-1" d="m15.27,221.7c.54-2.2,1.08-4.4,1.67-6.82-.06-1.28-.15-3.04-.23-4.79"/>
        <path class="cls-1" d="m20.47,644.96c.01.3,0,.6.04.9l.12.88.26,1.83"/>
        <path class="cls-1" d="m131.06,7.71c-4.19.12-8.39.23-12.91.36-.8.36-1.86.84-2.92,1.32"/>
        <polyline class="cls-1" points="15.99 397.91 16.71 402.13 17.19 400.02"/>
        <path class="cls-1" d="m165.89,2.67c1.13.13,2.27.26,3.07.35-1.17.32-2.12.59-3.07.85"/>
        <path class="cls-1" d="m376.92,9.39c-2.81-.32-6.06-.53-8.35-.98-4.57-.91-9-.84-13.81-.22"/>
        <path class="cls-1" d="m481.95,145.46c2.63-1.34,2.73-2.01,1.83-13.87-.25,3.89-.44,6.77-.63,9.65"/>
        <path class="cls-1" d="m377.89,661.54c1.76.47,3.53.94,5.25,1.39,3.87-.76,6.7-1.32,9.52-1.87"/>
        <path class="cls-1" d="m13.11,142.56c1.14,7.1,2.28,14.19,3.74,23.29-1.59-.99-2.55-1.59-3.5-2.19"/>
        <path class="cls-1" d="m14.07,203.76c.33-2.43.65-4.86.98-7.29-.34-2.92-.66-5.73-.98-8.54"/>
        <path class="cls-1" d="m484.11,528.5c-.61-1.92-1.23-3.83-2.02-6.3-.08-1.06-.23-3.18-.38-5.31"/>
        <line class="cls-1" x1="13.59" y1="407.41" x2="15.51" y2="410.58"/>
        <path class="cls-1" d="m17.67,461.23c-.57,1.3-1.14,2.6-1.8,4.1-.65-1.68-1.39-3.61-2.58-6.7.91-2.2,1.45-3.49,1.98-4.79"/>
        <path class="cls-1" d="m353.71,5.31c-.35.96-.65,1.92-1.07,2.88-.25.56-.68,1.12-1.04,1.68"/>
        <line class="cls-1" x1="3.03" y1="274.46" x2="4.95" y2="271.29"/>
        <path class="cls-1" d="m480.99,444.08c.46-8.12-1.46-7.66-2.16-11.61"/>
        <line class="cls-1" x1="8.55" y1="558.3" x2="9.27" y2="566.74"/>
        <path class="cls-1" d="m7.83,439.07c-.53-1.63-1.05-3.26-1.76-5.46.29-3.17.66-7.29,1.04-11.42"/>
        <polyline class="cls-1" points="266.13 13.71 262.24 13.12 260.69 13.41 262.96 14.19"/>
        <path class="cls-1" d="m66.7,12.27c-.42.96-.84,1.92-1.37,3.11,1.99.06,4.85.16,7.7.25"/>
        <line class="cls-1" x1="6.15" y1="175.27" x2="8.07" y2="178.43"/>
        <path class="cls-1" d="m230.16,665.38c.63-.72,1.27-1.45,2.22-2.53,5.75.24,11.33.48,16.7.71.37.79.68,1.43.91,1.92,3.16.31,5.91.58,8.66.86"/>
        <path class="cls-1" d="m473.55,460.97c.31-1.8.61-3.61,1-5.86-.61-1.38-1.25-2.8-1.82-4.08-1.11,3.57-.56,5.74.1,7.83"/>
        <path class="cls-1" d="m474.75,263.65c.08,1.76.35,3.91.2,5.2-.37,3.39-.92,6.41-1.4,9.57"/>
        <path class="cls-1" d="m236.49,671.14c-1.24.95-2.48,1.9-3.87,2.95,5.29.5,9.64.89,11.25-.79"/>
        <path class="cls-1" d="m7.83,375.75c-1.48,2.54-1.34,8.38-1.44,13.72"/>
        <polyline class="cls-1" points="49.72 673.78 52.99 673.89 52.42 674.3 46.85 673.8 44.07 673.55 43.35 673.48 42.52 673.38 40.87 673.17"/>
        <line class="cls-1" x1="11.91" y1="267.07" x2="12.87" y2="272.35"/>
        <line class="cls-1" x1="2.31" y1="578.35" x2="2.55" y2="570.97"/>
        <path class="cls-1" d="m479.07,581.26c.25-7.96-.95-7.66-2.16-7.43-.08.01-.2-.6-.23-1.02-.04-.66-.01-1.4-.01-2.1"/>
        <path class="cls-1" d="m2.31,454.89c.42,2.97.84,5.95,1.25,8.85,1.23-2.12,2.27-3.9,3.31-5.68"/>
        <path class="cls-1" d="m4.95,394.75c-.8,1.06-1.61,1.96-2.38,3.33-.11.2-.02,2.65-.02,4.05"/>
        <path class="cls-1" d="m11.19,209.03c.24-.36.48-.71.89-1.33.16,1.02.36,2.23.55,3.44"/>
        <path class="cls-1" d="m5.91,484.44c-.16-3.87-.32-7.74-.52-12.62.62.37,1.17.69,1.72,1.02"/>
        <path class="cls-1" d="m44.54,3.39c-.39-.11-.75-.23-1.19-.33-.48-.09-.99-.19-1.53-.29-1.1-.19-2.39-.5-4.05-.58-.9,1.04-1.64,1.94-2.3,2.83-.65.94-1.22,1.82-1.76,2.72.68-.1,1.52-.27,2.61-.4,1.1-.05,2.44-.21,4.08-.18-2.56.69-4.17,1.22-5.94,2.05.59-.07,1.18-.14,1.76-.21.58-.05,1.17-.04,1.74-.05.57,0,1.14-.02,1.7-.03.56-.01,1.13.08,1.68.11"/>
        <path class="cls-1" d="m109.96,10.59c-.64.25-1.28.5-3.33,1.29,4.88-.14,8.37-.19,11.76-.35,3.92-.18,7.75-.47,11.62-.71"/>
        <line class="cls-1" x1="274.57" y1="14.19" x2="267.18" y2="16.59"/>
        <path class="cls-1" d="m22.49,655.56c-1.43-2.46-2.9-4.98-5.23-8.97"/>
        <path class="cls-1" d="m144.69,661.54c-2.81-.16-5.63-.32-10.55-.6v2.28"/>
        <line class="cls-1" x1="484.83" y1="459.91" x2="483.87" y2="452.52"/>
        <line class="cls-1" x1="484.83" y1="483.12" x2="482.43" y2="477.85"/>
        <line class="cls-1" x1="474.75" y1="519" x2="474.03" y2="510.56"/>
        <polyline class="cls-1" points="473.31 608.69 474.7 607.38 474.67 609.12 469.71 620.3"/>
        <path class="cls-1" d="m329.44,6.27c.48.55.97,1.11,1.97,2.26-4.3-.93-6.84-1.47-10.13-2.18-1.19.39-2.32.75-3.44,1.12"/>
        <line class="cls-1" x1="314.67" y1="14.91" x2="313.61" y2="16.59"/>
        <line class="cls-1" x1="15.03" y1="117.23" x2="16.71" y2="117.23"/>
        <line class="cls-1" x1="11.43" y1="631.11" x2="13.11" y2="627.95"/>
        <line class="cls-1" x1="295.67" y1="5.55" x2="293.56" y2="6.99"/>
        <path class="cls-1" d="m477.39,62.1c.12-3.09.23-6.17.41-10.76-.91,1.67-1.38,2.52-1.85,3.37"/>
        <path class="cls-1" d="m479.33,27.6c.48.84.79,1.77,1.19,2.65l.56,1.35c.16.46.3.93.45,1.39l-.33,1.45c-.47-1.3-.91-2.61-1.55-3.83l-.89-1.84c-.32-.6-.69-1.17-1.04-1.75l-.94-1.52c-.34-.49-.71-.96-1.06-1.43l-1.07-1.41c-.37-.45-.79-.88-1.18-1.31"/>
        <line class="cls-1" x1="92.02" y1="14.67" x2="88.86" y2="15.87"/>
        <path class="cls-1" d="m14.79,124.62c1.01,2.99.98-.15.96-3.17"/>
        <line class="cls-1" x1="13.35" y1="327.22" x2="16.47" y2="325.11"/>
        <path class="cls-1" d="m178.46,662.26c-.61-.64-1.22-1.29-1.55-1.64-3.14-.11-5.55-.2-7.95-.28"/>
        <path class="cls-1" d="m111.02,6.27l-10.97-1.18,1.47-.5c2.44.93,1.85.96,3.37,2.39,1.01.94,4.01,1.77,6.12,2.65"/>
        <path class="cls-1" d="m478.25,38.73l-.19-2.15c-.08-.72-.25-1.41-.38-2.13-.22-1.44-.67-2.81-1.08-4.21l-.47-.64-.53-.6c.06.86-.04,1.76-.09,2.61"/>
        <path class="cls-1" d="m477.39,80.04l-1.06-2.33.06-1.37h1.31c-.36-9.22-1.11-3.88-1.94-.92-.19-2.17-.36-4.06-.53-5.94"/>
        <polyline class="cls-1" points="474.67 634.94 474.32 633.48 473.91 631.91 473.07 628.74 471.39 622.41"/>
        <path class="cls-1" d="m324.16,6.51c2.89-.28,5.77-.56,8.69-.85,3.96.84,8.34,1.77,12.83,2.72-.74,1.07-1.64,2.36-2.53,3.64"/>
        <line class="cls-1" x1="479.55" y1="215.11" x2="476.43" y2="222.49"/>
        <line class="cls-1" x1="3.75" y1="606.84" x2="5.19" y2="613.17"/>
        <polyline class="cls-1" points="476.19 493.68 472.94 485.17 473.05 483.12 474.27 483.12"/>
        <path class="cls-1" d="m115.14,660.82c-1.41,2.24,6.62,2.87,13.24,3.99-1.16.4-2.45.84-3.74,1.29"/>
        <path class="cls-1" d="m298.75,662.26c4.95-.38,9.91-.75,15.83-1.2,1.28.26,3.16.64,4.88.99,5.31-.43,4.72-1.15,2.5-1.95"/>
        <line class="cls-1" x1="87.8" y1="9.87" x2="96.24" y2="13.23"/>
        <path class="cls-1" d="m5.67,251.24c-1.33-6.42-.63,5.03-1.75,1.09-.2-1.34-.72-4.75-1.44-9.53h2.24"/>
        <path class="cls-1" d="m376.92,3.63c1.76.4,3.27.9,5.35,1.17,2.15.28,4.85.35,7.32.51"/>
        <path class="cls-1" d="m303.06,5.31c-1.73.1-3.46.21-5.71.34,1.07-.85,1.98-1.58,2.92-2.32,4.19.38,7.71.7,11.23,1.02"/>
        <path class="cls-1" d="m12.15,99.29c-.36,1.19-.72,2.37-1.08,3.54.36,2.08.6,3.49.84,4.9l.53-.41-.53-13.31"/>
        <line class="cls-1" x1="152.08" y1="669.46" x2="156.3" y2="668.5"/>
        <path class="cls-1" d="m5.91,461.23c.15,1.35.24,2.11.28,2.46.84,1.73,1.36,2.8,1.88,3.88"/>
        <path class="cls-1" d="m30.09,670.19c.53.04,1.06.1,1.6.18.54.07,1.1.09,1.66.16,1.13.11,2.25.38,3.46.48.6.07,1.21.16,1.83.27.31.05.62.11.94.17.32.03.64.07.96.1.65.07,1.31.16,1.98.26.63.09,1.27.19,1.93.29"/>
        <line class="cls-1" x1="8.79" y1="247.02" x2="11.43" y2="245.97"/>
        <polyline class="cls-1" points="373.76 12.51 373.76 11.31 376.83 11.37 372.7 16.11"/>
        <path class="cls-1" d="m34.63,8.86l-1.73.08c-.58.06-1.15.15-1.73.23-.59.09-1.18.18-1.78.26-.6.11-1.18.28-1.8.42-1.73,1.35-1.96,2.09-1.42,2.28.53.16,1.94,0,3.64-.39"/>
        <path class="cls-1" d="m10.23,160.5c-.25.64-.5,1.28-.76,1.95-.13-.87-.29-1.94-.55-3.69.63-.68,1.19-1.3,1.9-2.08.12-3.23.03-8.55,1.56-6.74"/>
        <line class="cls-1" x1="9.51" y1="118.29" x2="7.35" y2="139.39"/>
        <path class="cls-1" d="m229.2,7.71c-1.76.16-3.52.32-4.87.44-1.22,1.25-2.4,2.44-3.57,3.64"/>
        <path class="cls-1" d="m480.75,585.48c-1-7.56-2.24-.56-3.36-1.06"/>
        <path class="cls-1" d="m4.47,204.81c-.27,2.39-.54,4.78-.84,7.39h-1.32"/>
        <path class="cls-1" d="m9.99,61.31c-.25.24-.49.48-.73.71.13,5.2.25,10.11.43,17.04-.89-1.27-1.5-2.13-2.1-2.98"/>
        <line class="cls-1" x1="8.31" y1="103.52" x2="9.27" y2="97.18"/>
        <path class="cls-1" d="m9.03,160.5c-.18.97-.37,1.94-.67,3.53.36,1.11.63,1.95.91,2.8"/>
        <path class="cls-1" d="m165.79,672.34c1.77-.56,3.53-1.12,5.79-1.83,1.21.6,2.27,1.11,3.32,1.63l1.44-.04c0-.4.5-1.1-.08-1.15-5.36-.46-5.24-1.44-5.2-2.45"/>
        <path class="cls-1" d="m21.52,16.82c2.2-.17,4.25-.24,6.27.01"/>
        <line class="cls-1" x1="7.83" y1="620.56" x2="9.75" y2="631.11"/>
        <path class="cls-1" d="m484.11,440.92c-1.61-.56-1.27-4.33-.39-8.98l-.43-2.03-2.53,2.56"/>
        <path class="cls-1" d="m475.71,200.33c-.09-5.42-3.11-6.22-.83-15.35l-.5-1.41-1.55,1.99"/>
        <path class="cls-1" d="m264.02,4.35c-1.58.27-3.17.54-4.64.79,1.92,1.15,3.54,2.13,5.67,3.41,2.95-1,5.18-1.76,7.41-2.52"/>
        <line class="cls-1" x1="366.37" y1="13.23" x2="372.7" y2="13.71"/>
        <line class="cls-1" x1="473.55" y1="282.64" x2="472.11" y2="279.47"/>
        <line class="cls-1" x1="476.67" y1="345.95" x2="474.03" y2="353.34"/>
        <path class="cls-1" d="m478.35,185.56c-.25,1.37-.5,2.74-.76,4.17-.94-3.73-.67-13.48-2.84-11.55"/>
        <path class="cls-1" d="m474.75,411.37c-1.47-5.93-1.75-5.93-2.16,0"/>
        <polyline class="cls-1" points="3.75 68.69 3.2 71.6 3.54 73.6 5.43 67.64"/>
        <path class="cls-1" d="m3.27,165.77c.7-2.1.07-8.55,1.44-8.44"/>
        <line class="cls-1" x1="9.51" y1="503.43" x2="10.23" y2="509.76"/>
        <line class="cls-1" x1="9.51" y1="439.07" x2="10.47" y2="431.68"/>
        <path class="cls-1" d="m9.27,570.97c.42-2.74.83-5.47,1.42-9.36.4,1.68.81,3.41,1.22,5.14"/>
        <line class="cls-1" x1="9.51" y1="168.94" x2="10.71" y2="175.27"/>
        <path class="cls-1" d="m481.23,53.66v-5.15c-.67,3.37-1.69-8.13-2.16,1.99"/>
        <path class="cls-1" d="m9.27,276.57c-.67-8.22,1.11-10.29,1.92-14.77"/>
        <line class="cls-1" x1="478.35" y1="575.98" x2="477.15" y2="582.31"/>
        <line class="cls-1" x1="343.16" y1="17.07" x2="349.49" y2="17.55"/>
        <line class="cls-1" x1="17.43" y1="403.19" x2="17.43" y2="410.58"/>
        <path class="cls-1" d="m3.27,530.87c1,5.86.74-2.11,1.2-2.11"/>
        <line class="cls-1" x1="473.31" y1="245.71" x2="473.31" y2="253.09"/>
        <path class="cls-1" d="m243.97,15.39v2.27c-5.73-1.02-14.94.37-15.83-2.03"/>
        <line class="cls-1" x1="345.18" y1="671.38" x2="337.79" y2="670.42"/>
        <path class="cls-1" d="m11.91,541.42c2.61,5.07,2.94,4.34,2.88-6.33"/>
        <line class="cls-1" x1="5.67" y1="332.49" x2="4.95" y2="338.82"/>
        <path class="cls-1" d="m5.19,256.52c-1.3,4.92.17,9.77.05,14.8-.1,4.1.27,8.42.43,12.64"/>
        <line class="cls-1" x1="473.55" y1="303.74" x2="470.67" y2="300.58"/>
        <path class="cls-1" d="m312.56,8.43l-5.11.44,2.02.79c2.44-.65,4.88-1.3,8.52-2.27,2.58.88,4.91,1.68,7.24,2.48"/>
        <path class="cls-1" d="m481.47,182.4c-.23,2.94-.47,5.89-.71,8.87-1.14-1-2.02-1.77-2.89-2.54"/>
        <path class="cls-1" d="m479.31,555.93c-.39,3.52-.79,7.03-1.19,10.58-.02.15.14.76.23,1,.06.15.16.03.24.03"/>
        <path class="cls-1" d="m292.51,2.67c-1.76.32-3.52.64-3.67.67-.76.82-1.18,1.28-1.61,1.73"/>
        <path class="cls-1" d="m262.87,669.94c-1.9-.52-3.81-1.04-7.81-2.14-1.23.64-1.99,1.03-2.74,1.42"/>
        <path class="cls-1" d="m189.01,659.14c-.63.58-1.26,1.17-2.03,1.88-3.17-.7-5.32-1.17-7.46-1.64"/>
        <path class="cls-1" d="m13.59,45.48c-.58,12.77-.63,16.57-.24,21.1"/>
        <path class="cls-1" d="m461.73,18.09c-.62-.57-1.31-1-1.84-1.41-.53-.4-.93-.75-1.09-.98-.32-.46.27-.53,2.78.32,1.42,2.99,2.39,5.92,2.72,8.87"/>
        <path class="cls-1" d="m471.8,31.97c-1.35-2.09-2.72-4.15-5.35-6.51.37.57.73,1.12,1.07,1.65.31.55.57,1.1.84,1.61.59,1.01.91,2.06,1.32,3.01.22.47.34.96.48,1.44.14.48.27.94.41,1.41.25.93.36,1.88.56,2.82-.6-.43-1-.69-1.39-.95"/>
        <path class="cls-1" d="m94.13,15.63c-2.59.35-5.19.7-8.5,1.15-.36-.12-1.2-.39-2.05-.67"/>
        <path class="cls-1" d="m471.15,433.53c-.49-1.69-.99-3.37-1.14-3.89-.13-4.64-.21-7.76-.3-10.88"/>
        <line class="cls-1" x1="288.2" y1="662.5" x2="287.14" y2="660.82"/>
        <path class="cls-1" d="m5.43,137.28c.71,2.03,1.43,4.06,2.21,6.31-.94,6.79-1.69,11.59-3.56,8.92-.37,2.26-.83,5.12-1.3,7.98"/>
        <line class="cls-1" x1="9.27" y1="608.95" x2="9.03" y2="616.34"/>
        <path class="cls-1" d="m8.07,575.19c1.25,3.75,3.12,3.1,3.84,10.55l.72-2.11"/>
        <line class="cls-1" x1="17.62" y1="642.55" x2="19.2" y2="641.99"/>
        <path class="cls-1" d="m14.07,301.89c.95,1.98.96,2.22.22,7.49-.24-1.83-.47-3.61-.7-5.38"/>
        <line class="cls-1" x1="483.63" y1="130.69" x2="483.39" y2="123.3"/>
        <path class="cls-1" d="m469.47,405.04c.59-2.39,2.15.85,1.92-6.33"/>
        <line class="cls-1" x1="484.35" y1="44.17" x2="483.15" y2="47.33"/>
        <line class="cls-1" x1="3.99" y1="278.68" x2="7.83" y2="280.79"/>
        <path class="cls-1" d="m14.07,57.09c.84,4.03,1.28,2.32,1.43-2.12.08-2.41.01-4.91.01-7.38"/>
        <line class="cls-1" x1="113.03" y1="668.5" x2="109.87" y2="666.82"/>
        <polyline class="cls-1" points="472.83 89.54 472.36 83.96 472.82 82.94 473.07 88.48"/>
        <line class="cls-1" x1="123.59" y1="667.78" x2="121.48" y2="666.58"/>
        <path class="cls-1" d="m478.35,607.64c-.4-1.08-.79-2.16-1.32-3.59-.7,9.7-2.71,12.81-4.44,17.3"/>
        <path class="cls-1" d="m12.39,467.56c.56,1.41,1.14,2.68,1.67,4.29.22.67.33,2.05.49,3.1"/>
        <path class="cls-1" d="m6.63,169.99c.86-1.16,1.92,2.5,2.64-2.11"/>
        <path class="cls-1" d="m13.45,28.06c.34.77.69,1.52,1.05,2.24.18.36.37.71.56,1.05.21.35.43.69.65,1.01.41.59.93.47,1.6-.22.75-.65,1.52-1.95,2.78-3.62"/>
        <path class="cls-1" d="m9.03,310.33c.82-3.53,1.58-8.09,2.88-3.17"/>
        <line class="cls-1" x1="476.19" y1="356.5" x2="474.99" y2="352.28"/>
        <line class="cls-1" x1="376.92" y1="13.23" x2="388.53" y2="13.71"/>
        <polyline class="cls-1" points="480.03 544.33 478.68 545.81 478.55 543.59 479.79 542.22"/>
        <path class="cls-1" d="m25.67,659.38l-1.84-.64-.94-.33c-.3-.13-.6-.27-.9-.41-.55-.68-1.15-1.31-1.65-2.02.73.29,1.52.49,2.26.72.74.22,1.46.43,2.23.54"/>
        <polyline class="cls-1" points="153.13 668.74 151.02 669.7 148.38 669.7 148.91 668.02"/>
        <path class="cls-1" d="m9.51,70.8c-.32.35-.92.73-.92,1.05.02,4.81-.56,10.86,1.16,12.67"/>
        <line class="cls-1" x1="335.68" y1="674.5" x2="342.01" y2="674.02"/>
        <path class="cls-1" d="m344.12,665.14c1.42-1.74-6.14-1.95-9.5-2.88"/>
        <path class="cls-1" d="m477.87,434.59c.18-.97.37-1.94.56-2.98q-1.08-2.41-1.52,1.92"/>
        <path class="cls-1" d="m340.96,671.38c-1.41-.24-4.1-.51-4.02-.72.69-1.69,1.91-3.36,2.96-5.04"/>
        <line class="cls-1" x1="15.03" y1="329.33" x2="16.47" y2="330.38"/>
        <path class="cls-1" d="m422.21,673.54q1.44-.68-5.28-1.2"/>
        <path class="cls-1" d="m14.07,217.48l-.53,7.77.56.91c.39-1.13.78-2.26,1.17-3.4.48,3.16.96,6.33,1.44,9.49"/>
        <path class="cls-1" d="m7.59,379.98c.16.7.48,1.55.46,2.09-.59,13.06,1.42,17.35,3.62,21.2.29.51.49,2.04.73,3.09"/>
        <path class="cls-1" d="m39.35,665.32c.65.21,1.32.32,2.03.43.71.12,1.45.24,2.26.38.28-.51.55-.99.81-1.48"/>
        <path class="cls-1" d="m484.35,322.74c.54-2.85.95-5.62-.24-7.39"/>
        <line class="cls-1" x1="370.5" y1="665.86" x2="376.83" y2="662.74"/>
        <path class="cls-1" d="m472.35,628.74c-.67-.16-.85.54-.84,1.59,0,.52.07,1.14.14,1.77.07.63.17,1.33.18,1.8"/>
        <line class="cls-1" x1="100.37" y1="668.5" x2="98.26" y2="666.82"/>
        <path class="cls-1" d="m241.77,673.3c-.6-.72-1.21-1.45-1.85-2.21-4.16.64-4.91-1.99-9.76-.43"/>
        <path class="cls-1" d="m450.82,10.16c.05.35.09.69.06.51,5.35,1.24,9.48,3.37,13.09,6.1"/>
        <line class="cls-1" x1="340.96" y1="662.98" x2="344.12" y2="660.58"/>
        <line class="cls-1" x1="8.31" y1="604.73" x2="10.95" y2="607.9"/>
        <path class="cls-1" d="m7.59,245.97c-1.24,3.84-1.21,8.55-.48,13.72"/>
        <line class="cls-1" x1="480.99" y1="110.64" x2="481.23" y2="104.31"/>
        <path class="cls-1" d="m474.03,582.31c-1.96,1.99-1.3,10.93-2.16,15.83"/>
        <path class="cls-1" d="m13.11,130.95c-.09-2.02-.19-4.04-.36-7.68.79,1.38,1.16,2.03,1.78,3.12.08-4.12.15-7.61.22-11.11l-.47-.3c.41-1.36.82-2.72,1.08-3.61.31-5.47.58-10.35.86-15.24"/>
        <path class="cls-1" d="m10.71,297.67c-.4-1.02-.81-2.05-1.09-2.75.13-2.43.25-4.59.37-6.74"/>
        <line class="cls-1" x1="299.8" y1="666.34" x2="297.69" y2="664.9"/>
        <path class="cls-1" d="m237.55,668.5c.28-.22.55-.44,1.38-1.1-2.6.49-3.57.68-4.54.86"/>
        <path class="cls-1" d="m472.83,483.12c-.48-.7-1.08-.85-1.41-2.23-.58-2.37-.99-5.5-1.47-8.32"/>
        <path class="cls-1" d="m176.35,668.02c1.81.13,3.61.26,6.68.48-2.47.42-4.05.69-4.6.78-2.82-.3-5.09-.54-7.36-.78"/>
        <path class="cls-1" d="m2.79,202.7c1.11-3.56,2.23-7.12,3.45-11.02-1.18-8.73-1.52-18.16-.57-28.02"/>
        <line class="cls-1" x1="2.79" y1="427.46" x2="4.71" y2="430.62"/>
        <path class="cls-1" d="m422.3,10.59c2.81-.08,5.66-.26,8.43-.22,3.52.05,8.61-.55,9.5.94"/>
        <path class="cls-1" d="m86.65,668.5c-7.01-.61-10.15-2.03-13.72-3.36"/>
        <path class="cls-1" d="m85.69,8.67c-3.88.7-7.75,1.39-11.55,2.08,2.16,1.22,3.69,2.09,5.22,2.96"/>
        <line class="cls-1" x1="481.23" y1="412.43" x2="480.03" y2="400.82"/>
        <path class="cls-1" d="m482.19,141.24c-2.76-.3-3.3,2.08-2.64,11.61"/>
        <line class="cls-1" x1="7.35" y1="554.08" x2="7.59" y2="543.53"/>
        <line class="cls-1" x1="130.97" y1="664.42" x2="133.08" y2="662.98"/>
        <path class="cls-1" d="m474.99,347.01c-.16-1.76-.32-3.52-.48-5.28-.48.35-.96.71-1.44,1.06"/>
        <line class="cls-1" x1="474.75" y1="133.86" x2="474.75" y2="119.08"/>
        <path class="cls-1" d="m14.31,94.02c-.08-1.06-.18-2.09-.23-3.18-.01-.28.15-.69.23-1.04l.24,3.17"/>
        <path class="cls-1" d="m17.67,433.79h-.93c.31,6.42.62,12.71.93,18.99"/>
        <path class="cls-1" d="m475.16,39.14c-.28,1.05-.77,2.07-1.19,3.04"/>
        <line class="cls-1" x1="307.28" y1="11.79" x2="317.83" y2="12.27"/>
        <path class="cls-1" d="m476.43,407.15c.3,2.66.61,5.33.83,7.31-.42,6.3-2.8,6.55-1.79,14.85"/>
        <path class="cls-1" d="m11.91,229.08c.44,1.54.88,3.07,1.62,5.64-.76,1.32-1.19,2.06-1.62,2.8"/>
        <path class="cls-1" d="m5.19,351.49c.09,2.78,1.47,7.17-.48,7.39"/>
        <path class="cls-1" d="m15.03,387.36c-.91-1.44-1.82-2.89-2.82-4.47.83-3.23,1.47-5.71,2.1-8.19"/>
        <path class="cls-1" d="m483.15,157.07c-.48.12-.96.25-1.96.5.97-2.93,1.54-4.65,2.11-6.37-.08-.79-.24-2.21-.39-3.63"/>
        <path class="cls-1" d="m7.83,573.08c-.15-2.47-.31-4.94-.49-7.86-.41,1.73-.78,3.3-1.42,6.03.55-.13.87-.21,1.19-.29"/>
        <path class="cls-1" d="m132.12,6.99c3.17.8,6.49,1.57,9.43,2.41,1.74.5,2.88,1.11,4.28,1.67"/>
        <line class="cls-1" x1="382.11" y1="660.1" x2="388.44" y2="660.1"/>
        <line class="cls-1" x1="471.39" y1="250.98" x2="469.47" y2="250.98"/>
        <line class="cls-1" x1="3.27" y1="83.47" x2="4.23" y2="73.97"/>
        <polyline class="cls-1" points="480.99 147.57 479.03 159.08 479.86 160.43 480.03 154.96"/>
        <path class="cls-1" d="m480.27,351.23c-.55-7,.35-10.14,1.73-12.21-.19-5.7-.38-11.42-.57-17.29,1.15-1.26,2.03-2.24,2.92-3.21"/>
        <path class="cls-1" d="m21.06,666.11c1.08.62,2.2,1.18,3.3,1.75l.34-.25c-1.42-.92-2.92-1.73-4.22-2.82"/>
        <line class="cls-1" x1="288.29" y1="14.67" x2="284.07" y2="17.55"/>
        <path class="cls-1" d="m481.23,610.8c-.56,0-1.23.89-1.66-.17-1.11-2.78-1.96-2.83-2.66,2.28"/>
        <path class="cls-1" d="m479.55,274.2c-.24,1.41-.48,2.82-.82,4.81-.39-1.57-.77-3.09-1.14-4.57.29-1.95.55-3.66.94-6.26-.66-.13-1.15-.22-1.63-.32"/>
        <path class="cls-1" d="m476.43,70.55c.27-1.58.54-3.17,1.06-6.23-1.59-.48-3.12-.95-4.73-1.44.19,3.84.37,7.34.55,10.84"/>
        <path class="cls-1" d="m474.99,545.38c0,1.76-.03,3.53,0,5.27.03,1.43.15,2.82.23,4.23"/>
        <path class="cls-1" d="m482.91,606.58c-.88,6.09-1.76,1.9-2.64,0"/>
        <line class="cls-1" x1="134.14" y1="667.78" x2="133.08" y2="664.9"/>
        <path class="cls-1" d="m104.59,671.86c.81.28,1.62.56,2.9,1,1.79-1.07,3.14-1.87,4.49-2.68"/>
        <line class="cls-1" x1="52.89" y1="671.62" x2="46.56" y2="671.14"/>
        <line class="cls-1" x1="16.71" y1="413.74" x2="16.47" y2="421.13"/>
        <line class="cls-1" x1="17.19" y1="575.19" x2="15.75" y2="581.52"/>
        <path class="cls-1" d="m143.63,666.34h9.5v-1.44"/>
        <path class="cls-1" d="m8.31,233.3c-2.11,7.19-.24,13.46.24,20.05"/>
        <line class="cls-1" x1="4.23" y1="550.92" x2="5.67" y2="549.86"/>
        <path class="cls-1" d="m13.15,646.34c-.06.42-.13.84-.2,1.33,2.02,3.32,4.56,6.23,7.47,8.59"/>
        <line class="cls-1" x1="10.23" y1="340.93" x2="11.91" y2="343.04"/>
        <path class="cls-1" d="m38.92,661.61c-.46-.36-.95-.67-1.27-1.04-.33-.36-.53-.68-.46-.91.07-.23.39-.35,1.1-.38.36-.04.82-.06,1.4-.04.29,0,.6.02.95.05.35.03.73-.02,1.15-.02"/>
        <path class="cls-1" d="m373.76,5.07c4.77,2.78-6.81.6-8.44,1.44"/>
        <path class="cls-1" d="m3.09,42.1c-.26,1.12-.51,2.24-.85,3.68,1.11,2.87,2.98,2.36,2.71,11.3"/>
        <line class="cls-1" x1="7.11" y1="59.2" x2="8.55" y2="59.2"/>
        <path class="cls-1" d="m482.43,68.43h2.18c-.33-4.24-.53-6.87-.74-9.5"/>
        <path class="cls-1" d="m466.27,652.83c-.8.77-1.55,1.59-2.54,2.32-.49.37-.95.81-1.52,1.19-.57.37-1.17.77-1.83,1.2-.52.77-1.36,1.81-2.25,2.9.71-.19,1.39-.45,2.11-.68.67-.62,1.24-1.36,1.81-2.07l.85-1.05.74-1.13"/>
        <path class="cls-1" d="m15.51,298.73c-.1-2.08-.2-4.15-.35-7.06.65-.5,1.22-.94,1.79-1.39"/>
        <line class="cls-1" x1="412.8" y1="2.19" x2="439.18" y2="2.67"/>
        <path class="cls-1" d="m78.21,662.26c1.05-.91,10.45-1.13,3.17-2.9v1.7"/>
        <path class="cls-1" d="m191.21,16.11c1.08.15,14.9.74,16.88.72"/>
        <path class="cls-1" d="m141.62,8.19c3.49.33,6.99.67,13.02,1.24-.7-1.44-1.24-2.55-2.01-4.13,3.99.48,7.47.89,10.95,1.31l-1.06.53-6.14-.39,2.11-.72"/>
        <line class="cls-1" x1="2.31" y1="504.49" x2="2.79" y2="499.21"/>
        <path class="cls-1" d="m472.59,228.82c-1.72,6.44-1.78,7.82-.48,11.61"/>
        <line class="cls-1" x1="15.27" y1="271.29" x2="16.23" y2="275.51"/>
        <path class="cls-1" d="m380.09,15.39c.45.41.91.83,1.53,1.39-.61.11-1.98.36-3.47.63-.51-.34-.87-.58-1.22-.82"/>
        <line class="cls-1" x1="4.23" y1="619.5" x2="6.15" y2="618.45"/>
        <polyline class="cls-1" points="403.3 2.43 406.47 2.91 403.3 3.39"/>
        <line class="cls-1" x1="292.51" y1="16.11" x2="279.85" y2="15.87"/>
        <path class="cls-1" d="m471.39,218.27c.4-3.52,1.27-7.72,1.07-10.36-.2-2.64-1.47-3.71-2.27-5.47"/>
        <line class="cls-1" x1="62.39" y1="660.34" x2="80.32" y2="659.62"/>
        <line class="cls-1" x1="149" y1="4.11" x2="150.06" y2="5.31"/>
        <path class="cls-1" d="m15.75,48.65c.42-1.1.71-2.42.92-3.9.04-.37.09-.75.14-1.13.03-.41.11-.65.15-.99.1-.63.18-1.28.24-1.95.46-2.63,1.19-5.4,2.37-7.65"/>
        <line class="cls-1" x1="247.14" y1="4.35" x2="258.74" y2="5.31"/>
        <line class="cls-1" x1="329.44" y1="16.83" x2="336.83" y2="17.07"/>
        <path class="cls-1" d="m6.15,561.47c.09,1.75.17,3.51.37,7.54-1.15-1.27-2.08-2.29-3.01-3.32"/>
        <path class="cls-1" d="m40.08,659.61c.69.11,1.39.05,2.08.05.7,0,1.32.01,2.28-.04"/>
        <line class="cls-1" x1="2.79" y1="182.65" x2="3.03" y2="173.16"/>
        <line class="cls-1" x1="16.95" y1="297.67" x2="17.19" y2="304"/>
        <line class="cls-1" x1="65.55" y1="661.06" x2="50.78" y2="659.14"/>
        <line class="cls-1" x1="357.93" y1="2.19" x2="349.49" y2="4.11"/>
        <path class="cls-1" d="m14.07,356.76c.56-2.45,1.12-4.9,1.79-7.78.39,2.79.78,5.52,1.16,8.26l.55-.57-.61-19.96"/>
        <path class="cls-1" d="m4.23,118.29l1.92-16.81-.5-1.4c.56-1.04,1.12-2.07,1.69-3.11-.14-1.2-.3-2.6-.46-4.01"/>
        <line class="cls-1" x1="294.53" y1="671.86" x2="286.09" y2="670.42"/>
        <path class="cls-1" d="m484.83,345.95c-.37,5.78-.44,12.69-2.4,12.66"/>
        <path class="cls-1" d="m155.24,672.34c-1.76-.32-3.62-.92-5.25-.89-2.22.04-4.25.57-6.36.89"/>
        <path class="cls-1" d="m477.03,21.82c.2.98.39,1.95.56,2.89.14.97.2,1.94.28,2.88.03.47.08.93.09,1.4l-.02,1.41c-.04.94-.01,1.83-.13,2.74"/>
        <path class="cls-1" d="m292.42,674.26c-2.07-.57-4.15-1.13-6.54-1.79-3.09.36-6.19.71-9.29,1.07"/>
        <line class="cls-1" x1="400.05" y1="668.98" x2="401.1" y2="666.82"/>
        <path class="cls-1" d="m480.99,381.83c.08,2.81.12,5.67.25,8.43.2,4.26.47,8.45.71,12.67"/>
        <path class="cls-1" d="m480.03,169.73c-.56,4.92-1.12,9.85-1.64,14.42,1.17.7,2.37,1.42,3.97,2.37-.5-3.03-.87-5.29-1.39-8.38-.45,4.47-.82,8.05-1.18,11.64"/>
        <path class="cls-1" d="m477.87,615.02c.41.59.82,1.18,1.85,2.66-1.01,3.42-1.67,5.65-2.33,7.89"/>
        <line class="cls-1" x1="348.34" y1="674.02" x2="352.56" y2="673.06"/>
        <line class="cls-1" x1="382.11" y1="671.86" x2="377.89" y2="671.62"/>
        <line class="cls-1" x1="2.79" y1="117.23" x2="4.47" y2="121.45"/>
        <polyline class="cls-1" points="6.15 336.71 7.39 338.07 7.26 341.23 3.99 338.82"/>
        <path class="cls-1" d="m4.71,577.3c.66.74,1.32,1.49,2.21,2.48-.52,3.38-.88,5.73-1.25,8.07"/>
        <path class="cls-1" d="m478.35,242.54c-.96-4.42-2.08-5.33-3.36-3.17"/>
        <path class="cls-1" d="m473.31,475.74c.88.48,1.75.95,2.81,1.52.47-2.78.95-5.6,1.42-8.38h1.4c-.46-5.75-.8-9.94-.98-12.13h-2.73"/>
        <line class="cls-1" x1="112.07" y1="2.91" x2="105.74" y2="3.63"/>
        <path class="cls-1" d="m10.47,120.4c-.5-1.65-1-3.29-1.48-4.89.19-3.91.36-7.42.52-10.93"/>
        <path class="cls-1" d="m151.11,6.27c-.81.22-1.61.44-2.94.8,1.58.25,2.79.44,4,.64"/>
        <line class="cls-1" x1="80.42" y1="4.11" x2="73.03" y2="5.79"/>
        <path class="cls-1" d="m484.83,191.89c-.24.7-.46,1.62-.72,2.07-.87,1.51-1.76,2.85-2.64,4.26"/>
        <line class="cls-1" x1="375.78" y1="667.78" x2="371.56" y2="666.34"/>
        <path class="cls-1" d="m8.31,48.65c-.08-2.83-.22-5.59-.12-7.4.22-.62.38-1.21.64-1.77.25-.55.49-1.07.73-1.59.24-.51.46-1,.7-1.47.27-.46.54-.91.82-1.37"/>
        <path class="cls-1" d="m482.43,369.16c2.07,5.21,2.15,6.55.72,11.61"/>
        <path class="cls-1" d="m483.39,406.1c.32.7.64,1.41.83,1.81-.52,4.33-1.03,8.64-1.55,12.96"/>
        <line class="cls-1" x1="428.54" y1="667.54" x2="428.54" y2="666.34"/>
        <polyline class="cls-1" points="477.87 616.08 476.32 618.07 476.19 614.61 477.63 615.02"/>
        <path class="cls-1" d="m323.02,667.3c.7.24,1.64.71,2.07.68,3.45-.19,6.81-.47,10.59-.75v-1.14"/>
        <path class="cls-1" d="m10.71,624.78l-.36,6.33c-.14,2.12-.2,4.2-.09,6.31"/>
        <polyline class="cls-1" points="218.55 673.54 214.93 672.96 216.01 672.53 220.66 673.06"/>
        <line class="cls-1" x1="3.51" y1="470.72" x2="3.51" y2="484.44"/>
        <line class="cls-1" x1="131.06" y1="8.91" x2="121.57" y2="10.83"/>
        <path class="cls-1" d="m48.67,667.3c1.05-.08,2.11-.16,3.42-.26l-4.48-2.38"/>
        <path class="cls-1" d="m23.12,17.11c-2.55,1.81-4.95,3.93-6.9,6.45"/>
        <line class="cls-1" x1="75.14" y1="3.15" x2="57.2" y2="4.83"/>
        <path class="cls-1" d="m476.19,341.73c1.35-5.27,1.29-6.77-.22-11.7-.35-1.12-.5-3.42-.74-5.18"/>
        <path class="cls-1" d="m81.38,665.14l-2.14.96c3.19.32,6.36.64,9.52.96"/>
        <path class="cls-1" d="m53.94,666.58c2.11-.48,4.22-.96,6.89-1.57-1.87-.96-3.85-1.98-5.83-2.99"/>
        <line class="cls-1" x1="343.16" y1="10.35" x2="337.88" y2="10.11"/>
        <path class="cls-1" d="m476.91,109.59c-.85-.29-2.15,2.57-1.92-5.28"/>
        <line class="cls-1" x1="476.91" y1="154.96" x2="476.43" y2="148.63"/>
        <line class="cls-1" x1="442.35" y1="5.07" x2="444.52" y2="7.03"/>
        <path class="cls-1" d="m33.73,13.34c-4.27-.41-10.1,3.12-13.94,7.78"/>
        <path class="cls-1" d="m481.95,172.9c-.3-3.06-.6-6.11-1.06-10.78-.57,2.52-.81,3.58-1.49,6.56h1.83"/>
        <line class="cls-1" x1="10.71" y1="377.86" x2="11.91" y2="376.81"/>
        <line class="cls-1" x1="481.71" y1="389.21" x2="482.91" y2="381.83"/>
        <polyline class="cls-1" points="477.15 597.09 476.95 590.57 476.37 590.53 476.19 598.14"/>
        <line class="cls-1" x1="86.75" y1="10.11" x2="80.42" y2="12.03"/>
        <line class="cls-1" x1="236.58" y1="11.07" x2="234.47" y2="13.23"/>
        <line class="cls-1" x1="11.91" y1="573.08" x2="11.91" y2="578.35"/>
        <path class="cls-1" d="m480.75,526.39q-1.17,4.12-2.83-2.88c1.17.35,1.88.55,2.59.76"/>
        <line class="cls-1" x1="4.71" y1="545.64" x2="6.39" y2="542.47"/>
        <line class="cls-1" x1="10.71" y1="242.8" x2="11.91" y2="252.3"/>
        <path class="cls-1" d="m483.87,181.34c.08,1.05.16,2.11.37,4.77-.73-.65-1.27-1.13-1.81-1.61"/>
        <line class="cls-1" x1="483.87" y1="217.22" x2="482.43" y2="223.55"/>
        <line class="cls-1" x1="475.71" y1="475.74" x2="474.03" y2="467.3"/>
        <path class="cls-1" d="m319.85,665.14c1.51-.52,3.02-1.04,4.14-1.42,4.87-.12,2.38,2.61,9.58.94"/>
        <path class="cls-1" d="m96.15,665.14c-.12-.48-.25-.96-.37-1.44h6.7"/>
        <line class="cls-1" x1="475.95" y1="303.74" x2="474.99" y2="290.03"/>
        <line class="cls-1" x1="263.93" y1="664.66" x2="261.82" y2="663.46"/>
        <line class="cls-1" x1="104.59" y1="666.34" x2="103.54" y2="662.5"/>
        <path class="cls-1" d="m11.19,388.42c-.33.98-.66,1.95-1.14,3.36.8,1.13,1.44,2.04,2.05,2.9.18-3.48.35-6.98.53-10.48"/>
        <line class="cls-1" x1="12.15" y1="202.7" x2="13.35" y2="202.7"/>
        <line class="cls-1" x1="481.71" y1="340.67" x2="481.95" y2="354.39"/>
        <line class="cls-1" x1="79.36" y1="12.75" x2="90.97" y2="12.27"/>
        <path class="cls-1" d="m481.71,452.52c-1.13,1.94-2.13,1.78-2.91-3.06-.07-.43-.61.6-.93.95"/>
        <line class="cls-1" x1="481.71" y1="463.08" x2="480.99" y2="469.41"/>
        <line class="cls-1" x1="482.91" y1="168.68" x2="483.15" y2="161.29"/>
        <line class="cls-1" x1="474.75" y1="230.93" x2="474.51" y2="219.33"/>
        <path class="cls-1" d="m474.51,236.21c1.16,6.96-.92,2.53-.96,5.28"/>
        <path class="cls-1" d="m359.95,665.14c.7-.24,1.41-.48,2.62-.89-5.22-.38-10.2-.73-15.22-1.09-4,.44-7.83.85-11.67,1.27"/>
        <line class="cls-1" x1="212.22" y1="671.38" x2="221.72" y2="670.66"/>
        <path class="cls-1" d="m40.29,9.55c-1.02.54-1.91,1.18-2.82,1.75-.91.57-1.8,1.34-2.85,2-1.12.78-3.37,1.84-4.92,3.02"/>
        <line class="cls-1" x1="474.51" y1="76.88" x2="473.31" y2="80.04"/>
        <line class="cls-1" x1="53.94" y1="663.7" x2="45.5" y2="661.54"/>
        <path class="cls-1" d="m13.11,406.36v7.07c-.67-1.01-1.08-1.62-1.9-2.86.78-1.99,1.22-3.1,1.66-4.21"/>
        <path class="cls-1" d="m473.79,531.66c.09-3.51.18-7.02.27-10.6-.42-1.06-.82-2.09-1.23-3.12"/>
        <path class="cls-1" d="m13.83,621.61c.15,3.84-1.48,8.39.24,11.61"/>
        <line class="cls-1" x1="474.27" y1="311.13" x2="473.31" y2="297.41"/>
        <path class="cls-1" d="m482.67,342.78c.89,3.78.76,6.28-.48,7.39"/>
        <path class="cls-1" d="m473.55,526.39c-1.46-.59-2.22-4.32-2.4-10.55"/>
        <line class="cls-1" x1="229.11" y1="663.22" x2="220.66" y2="662.26"/>
        <path class="cls-1" d="m423.35,6.03c-.7-.16-1.41-.32-2.49-.57-.61.2-1.17.38-1.73.57"/>
        <path class="cls-1" d="m484.35,122.25c-1.27,3.23-2.9-2.41-4.08,3.17"/>
        <line class="cls-1" x1="13.83" y1="239.64" x2="15.51" y2="238.58"/>
        <path class="cls-1" d="m298.84,17.55c-1.95-.77-3.9-1.55-6.92-2.75,5.82-.07,10.08-.12,14.35-.17l-.78-.71-6.65.5"/>
        <path class="cls-1" d="m472.11,131.75c.17-2.95.33-5.9.51-9.1,1.09,3.48.85,5.47-.03,6.99"/>
        <path class="cls-1" d="m474.51,539.05c-.31-2.68-.61-5.36-.99-8.66-1.05,3.49-1.82,6.07-2.61,8.69-.04.13-.03.75,0,1.01.06.41.15.72.23,1.07"/>
        <path class="cls-1" d="m116.29,12.27c-2.48.96,1.98,2.84-7.39,2.88"/>
        <path class="cls-1" d="m13.11,405.3c.92-5.88.69-14.36,2.17-18.93.25-.78.63-.76.95-1.12"/>
        <path class="cls-1" d="m481.71,591.81c-.39.46-.79.91-1.2,1.39v-5.61"/>
        <line class="cls-1" x1="472.11" y1="181.34" x2="472.83" y2="191.89"/>
        <line class="cls-1" x1="479.55" y1="134.91" x2="479.79" y2="120.14"/>
        <line class="cls-1" x1="474.27" y1="504.23" x2="471.87" y2="519"/>
        <path class="cls-1" d="m82.53,3.15c-.03,1.07-.68,2.19,5.28,2.64"/>
        <line class="cls-1" x1="69.86" y1="14.43" x2="81.47" y2="13.95"/>
        <line class="cls-1" x1="167.9" y1="670.9" x2="160.52" y2="669.7"/>
        <path class="cls-1" d="m14.31,427.46c1.42,2.08.2,5.62.22,8.44.01,1.39-.14,2.81-.22,4.22"/>
        <path class="cls-1" d="m13.59,277.62c1.16,2.02,1.98,11.44,3.84,1.91v5.47"/>
        <path class="cls-1" d="m483.15,54.72c-.44,2.48-1.79-.61-1.68,5.28"/>
        <line class="cls-1" x1="172.22" y1="14.67" x2="182.77" y2="15.15"/>
        <line class="cls-1" x1="482.43" y1="183.45" x2="482.67" y2="178.17"/>
        <line class="cls-1" x1="483.15" y1="218.27" x2="481.95" y2="215.11"/>
        <polyline class="cls-1" points="103.54 662.02 102.18 660.78 99.88 660.98 102.48 662.26"/>
        <line class="cls-1" x1="15.03" y1="585.74" x2="16.23" y2="594.18"/>
        <path class="cls-1" d="m139.51,13.95c-1.06.24-2.11.48-4.22.96,4.57.35,8.62.65,12.66.96"/>
        <polyline class="cls-1" points="15.51 512.93 15.97 521.95 16.68 523.35 17.19 518.21"/>
        <line class="cls-1" x1="121.48" y1="660.34" x2="111.98" y2="659.14"/>
        <polyline class="cls-1" points="4.23 508.71 2.59 505.22 2.23 506.89 3.75 511.87"/>
        <line class="cls-1" x1="2.31" y1="302.95" x2="3.03" y2="315.61"/>
        <path class="cls-1" d="m15.58,650.91c-.25-1.07-.57-2.06-.68-3.14"/>
        <path class="cls-1" d="m483.39,630.85c.11-3.84.22-7.68.35-12.23.26.51.55,1.1,1.01,2.01.03-1.69.06-3.12.08-4.54"/>
        <path class="cls-1" d="m13.37,639.96c.74,3.15,2.08,6.12,3.75,8.85"/>
        <line class="cls-1" x1="67.66" y1="674.5" x2="69.77" y2="673.54"/>
        <line class="cls-1" x1="85.6" y1="664.18" x2="85.6" y2="661.3"/>
        <path class="cls-1" d="m9.51,441.18c.24,1.06.49,2.06.72,3.18.39,2.07.8,4.21,1.2,6.32"/>
        <path class="cls-1" d="m474.48,28.57l-1.02-1.28c-.37-.4-.76-.79-1.13-1.18"/>
        <line class="cls-1" x1="470.91" y1="375.5" x2="470.19" y2="380.77"/>
        <path class="cls-1" d="m143.73,10.59c-.38.16-.76.31-1.78.73,1.94-.13,2.91-.19,3.89-.25"/>
        <path class="cls-1" d="m276.68,6.03c8,1.78-2.33,1.18-4.22,1.68"/>
        <line class="cls-1" x1="476.67" y1="485.24" x2="477.39" y2="482.07"/>
        <line class="cls-1" x1="279.75" y1="664.66" x2="278.7" y2="663.7"/>
        <path class="cls-1" d="m26.65,21.66c3.16-.64,5.36-1.71,7.53-4.14"/>
        <line class="cls-1" x1="479.31" y1="276.31" x2="481.71" y2="271.03"/>
        <line class="cls-1" x1="481.71" y1="298.47" x2="480.99" y2="301.63"/>
        <path class="cls-1" d="m217.59,2.91c-1.38-.17-2.76-.34-3.99-.5-.83.35-1.59.66-2.34.98"/>
        <line class="cls-1" x1="14.31" y1="243.86" x2="15.27" y2="244.91"/>
        <line class="cls-1" x1="481.71" y1="501.06" x2="480.75" y2="503.17"/>
        <line class="cls-1" x1="484.59" y1="498.95" x2="483.63" y2="498.95"/>
        <line class="cls-1" x1="143.63" y1="674.5" x2="142.58" y2="672.82"/>
        <path class="cls-1" d="m101.43,674.02c2.66-.32,5.31-.64,8.79-1.05.07.02.91.3,1.76.57"/>
        <line class="cls-1" x1="17.43" y1="368.37" x2="17.19" y2="376.81"/>
        <line class="cls-1" x1="469.47" y1="94.81" x2="469.95" y2="90.59"/>
        <polyline class="cls-1" points="239.66 659.38 235.44 659.38 235.36 659.62 240.71 659.62"/>
        <line class="cls-1" x1="476.19" y1="394.49" x2="475.47" y2="387.1"/>
        <line class="cls-1" x1="484.35" y1="295.3" x2="483.87" y2="303.74"/>
        <line class="cls-1" x1="469.95" y1="288.97" x2="469.71" y2="293.19"/>
        <line class="cls-1" x1="221.81" y1="5.79" x2="219.7" y2="6.75"/>
        <line class="cls-1" x1="471.55" y1="34.07" x2="470.64" y2="34.37"/>
        <path class="cls-1" d="m384.31,10.11c-1.09-.59-2.18-1.18-3.32-1.8-4.37.56-.75,2.41-8.29,2.04"/>
        <polyline class="cls-1" points="308.24 667.3 304.06 667.3 304 666.58 310.35 666.58"/>
        <path class="cls-1" d="m3.27,217.48c.08-1.41.16-2.81.27-4.67.26.94.47,1.75.69,2.56"/>
        <line class="cls-1" x1="6.15" y1="600.51" x2="6.39" y2="608.95"/>
        <path class="cls-1" d="m285.03,666.82c2.51-.08,5.03-.16,7.52-.24-.49-.88-.84-1.52-1.19-2.16"/>
        <path class="cls-1" d="m14.07,73.97c.31.75.63,1.51,1.09,2.62.2-1.26.39-2.47.59-3.68"/>
        <line class="cls-1" x1="411.75" y1="5.79" x2="409.64" y2="6.51"/>
        <line class="cls-1" x1="481.1" y1="40.73" x2="480.26" y2="43.09"/>
        <line class="cls-1" x1="481.23" y1="154.96" x2="480.27" y2="153.91"/>
        <path class="cls-1" d="m478.83,144.41c-.57-1.67-1.15-3.33-2.12-6.15-.11,3.13-.19,5.7-.28,8.26"/>
        <line class="cls-1" x1="333.57" y1="664.18" x2="323.02" y2="662.98"/>
        <path class="cls-1" d="m3.99,556.19c.24,1.41.48,2.81.54,3.17h2.82"/>
        <line class="cls-1" x1="5.43" y1="114.07" x2="8.07" y2="122.51"/>
        <path class="cls-1" d="m3.27,376.81c.86-1.23,2.57,5,2.4-5.28"/>
        <line class="cls-1" x1="474.75" y1="559.1" x2="473.79" y2="561.21"/>
        <path class="cls-1" d="m277.74,3.15c-.35.16-.7.32-1.1.5-.69-.09-1.38-.17-2.07-.26"/>
        <path class="cls-1" d="m11.67,333.55c-.04-3.83-.32-8.45,1.2-7.39"/>
        <path class="cls-1" d="m482.91,600.25c-.56-.7-1.12-1.41-1.71-2.14-.55,3.86-1.1,7.75-1.65,11.64"/>
        <line class="cls-1" x1="343.07" y1="670.42" x2="344.12" y2="669.46"/>
        <line class="cls-1" x1="281.86" y1="670.9" x2="291.36" y2="669.94"/>
        <path class="cls-1" d="m474.27,262.59c-.32-1.41-.64-2.81-.96-4.22-.32.7-.64,1.41-.96,2.11"/>
        <polyline class="cls-1" points="57.11 672.1 60.28 673.06 65.55 673.06"/>
        <line class="cls-1" x1="11.19" y1="213.26" x2="11.91" y2="216.42"/>
        <line class="cls-1" x1="8.31" y1="279.73" x2="9.27" y2="280.79"/>
        <line class="cls-1" x1="3.75" y1="436.96" x2="5.91" y2="433.79"/>
        <line class="cls-1" x1="5.43" y1="304" x2="8.55" y2="311.39"/>
        <line class="cls-1" x1="421.24" y1="11.07" x2="412.8" y2="12.27"/>
        <line class="cls-1" x1="67.75" y1="3.87" x2="63.53" y2="3.87"/>
        <path class="cls-1" d="m361.1,3.63h-4.22l-.52.29,4.74.43c2.09-1.26,5.72-.94,9.5-.48"/>
        <path class="cls-1" d="m477.07,27.33c-.8-1.39-1.95-3.22-3.02-4.72-1.19-1.41-2.23-2.51-2.93-2.33"/>
        <line class="cls-1" x1="474.51" y1="472.57" x2="474.03" y2="487.35"/>
        <path class="cls-1" d="m407.53,12.99c-1.44.23-2.88.46-5.27.84,2.69.15,4.51.26,6.32.36"/>
        <path class="cls-1" d="m6.87,502.38c.32.71.64,1.42.9,2,.27-1.75.52-3.46.78-5.17"/>
        <line class="cls-1" x1="6.15" y1="180.54" x2="7.83" y2="183.71"/>
        <line class="cls-1" x1="424.41" y1="12.03" x2="422.3" y2="12.99"/>
        <path class="cls-1" d="m483.3,635.39l-.82,1.8c-.3.58-.65,1.15-.97,1.72"/>
        <line class="cls-1" x1="233.33" y1="672.58" x2="229.11" y2="672.34"/>
        <path class="cls-1" d="m13.99,659.18c.73.72,1.41,1.49,2.19,2.16l2.35,1.97"/>
        <line class="cls-1" x1="4.23" y1="375.75" x2="4.23" y2="367.31"/>
        <path class="cls-1" d="m3.99,199.54c.35,2.25.71,4.5.96,6.07,1.27,1.36.01-9.54,1.68-5.01"/>
        <line class="cls-1" x1="4.23" y1="151" x2="4.71" y2="145.72"/>
        <line class="cls-1" x1="4.71" y1="96.13" x2="4.47" y2="100.35"/>
        <path class="cls-1" d="m475.95,336.45c-.16.38-.31.76-.47,1.14-.09-.79-.17-1.49-.25-2.2"/>
        <path class="cls-1" d="m476.19,371.27c-.33,3.16-.65,6.31-1.13,10.92.76-.59,1.31-1,1.85-1.42"/>
        <path class="cls-1" d="m34.73,663.14c-.47-.14-.9-.37-1.43-.61-.52-.25-1.14-.52-1.9-.89,1.77.29,3.15.57,4.58.58"/>
        <line class="cls-1" x1="134.14" y1="669.46" x2="132.03" y2="668.5"/>
        <line class="cls-1" x1="482.67" y1="266.81" x2="482.43" y2="259.42"/>
        <line class="cls-1" x1="380" y1="663.94" x2="383.16" y2="663.22"/>
        <line class="cls-1" x1="220.66" y1="672.34" x2="231.22" y2="671.86"/>
        <path class="cls-1" d="m290.4,11.79c1.01.33,2.02.65,3.79,1.23,1.05-.61,1.8-1.04,2.54-1.47"/>
        <line class="cls-1" x1="243.88" y1="662.98" x2="242.82" y2="661.06"/>
        <line class="cls-1" x1="472.83" y1="578.09" x2="473.31" y2="573.87"/>
        <path class="cls-1" d="m105.74,9.15c-.71.32-1.42.64-2.32,1.04-1.02-.19-1.99-.38-2.96-.56"/>
        <path class="cls-1" d="m363.21,8.19c-1.22.54-2.45,1.08-3.85,1.7-2.48.06-5.64.14-8.81.22"/>
        <line class="cls-1" x1="9.99" y1="384.2" x2="10.23" y2="388.42"/>
        <line class="cls-1" x1="477.63" y1="388.16" x2="478.11" y2="383.94"/>
        <path class="cls-1" d="m304.12,13.71c.35-1.04.79-2.08.87-3.12,0-.04-.65-.08-1.49-.12-.83-.04-1.84-.09-2.55-.12"/>
        <line class="cls-1" x1="473.31" y1="172.9" x2="472.83" y2="168.68"/>
        <line class="cls-1" x1="478.59" y1="390.27" x2="478.11" y2="394.49"/>
        <line class="cls-1" x1="9.51" y1="109.85" x2="11.19" y2="109.85"/>
        <polyline class="cls-1" points="476.67 283.69 476.08 268.14 476.49 267.63 477.39 272.09"/>
        <path class="cls-1" d="m482.91,468.35c-.75,1.09-1.49,2.18-2.16,3.15,0,1.43-.03,1.92,0,2.09.04.18.18-.11.23.06.17.64.33,1.38.49,2.08"/>
        <path class="cls-1" d="m14.07,279.73c-.24,1.06-.48,2.11-.89,3.92-.25-1.01-.5-2.01-.68-2.73.38-3.3.61-5.41.85-7.52"/>
        <line class="cls-1" x1="473.55" y1="93.76" x2="472.59" y2="97.98"/>
        <path class="cls-1" d="m315.63,665.62l1.06.72c.7-.16,2.1-.35,1.98-.47-.33-.34-1.28-.65-1.98-.97"/>
        <line class="cls-1" x1="10.71" y1="86.63" x2="12.87" y2="94.02"/>
        <path class="cls-1" d="m354.67,666.58c-3.41-1.49,0-2.57,4.22-3.6"/>
        <line class="cls-1" x1="438.13" y1="14.91" x2="433.9" y2="15.15"/>
        <line class="cls-1" x1="472.35" y1="164.46" x2="470.67" y2="159.18"/>
        <polyline class="cls-1" points="398.99 666.58 395.82 664.42 393.37 664.55 395.83 665.86"/>
        <line class="cls-1" x1="386.33" y1="665.86" x2="383.16" y2="664.9"/>
        <path class="cls-1" d="m280.81,661.78l-1.06-1.92c2.11-.24,4.22-.48,7.55-.86-.52.57-.87.96-1.22,1.34"/>
        <polyline class="cls-1" points="116.29 10.11 111.1 10.42 110.84 9.87 117.35 9.87"/>
        <path class="cls-1" d="m16.49,642.95c.34-.02.68-.04,1.25-.07.14,1.57.44,2.34.59,3.16"/>
        <path class="cls-1" d="m13.23,25.48c-.96,1.15-1.65,2.46-2.47,3.73"/>
        <path class="cls-1" d="m472.11,47.33c-.17-1.39-.31-2.85-.49-4.18"/>
        <line class="cls-1" x1="472.35" y1="388.16" x2="470.43" y2="388.16"/>
        <line class="cls-1" x1="7.11" y1="419.02" x2="9.03" y2="429.57"/>
        <path class="cls-1" d="m57.11,660.1v1.62c-3.85-.07-6.67-.13-9.5-.18"/>
        <polyline class="cls-1" points="174.24 663.7 165.66 663.44 165.48 662.99 170.01 662.74"/>
        <line class="cls-1" x1="392.75" y1="14.67" x2="400.14" y2="15.63"/>
        <path class="cls-1" d="m471.87,56.83c-.19-1.21-.39-2.42-1-6.29-.41,3.25-.66,5.3-.92,7.35"/>
        <line class="cls-1" x1="269.2" y1="668.5" x2="267.09" y2="667.54"/>
        <path class="cls-1" d="m473.55,306.91c-.47,4.95-.93,9.9-1.39,14.74-.45-.37-.85-.7-1.25-1.03"/>
        <path class="cls-1" d="m146.8,671.62c-5.54-2.24-5.57-2.27-3.17-3.36"/>
        <polyline class="cls-1" points="250.21 666.58 264.4 667.24 265.85 668.22 269.2 666.82"/>
        <path class="cls-1" d="m409.64,4.35l-5.28,2.16c-.35-.08-.9-.15-1.01-.24-.17-.15-.05-.32-.05-.48"/>
        <path class="cls-1" d="m481.95,245.71c-.4-.11-.8-.23-1.22-.35-.05-.71-.14-1.76-.22-2.82"/>
        <line class="cls-1" x1="471.63" y1="228.82" x2="471.15" y2="224.6"/>
        <line class="cls-1" x1="13.35" y1="539.31" x2="13.83" y2="543.53"/>
        <line class="cls-1" x1="12.39" y1="256.52" x2="12.63" y2="260.74"/>
        <polyline class="cls-1" points="8.55 204.81 9.51 204.81 9.27 201.65"/>
        <path class="cls-1" d="m6.42,33.86l1.26-1.5c.44-.48.92-.93,1.38-1.38"/>
        <line class="cls-1" x1="186.99" y1="16.11" x2="178.55" y2="16.59"/>
        <path class="cls-1" d="m136.25,671.14l4.22-.96-.34-.42c-4.11.17-8.23.34-12.4.52-.79.62-1.41,1.1-2.31,1.8,3.29.37,6.66.74,10.86,1.21-.56-.86-.82-1.26-1.09-1.66"/>
        <line class="cls-1" x1="113.03" y1="671.38" x2="110.92" y2="669.22"/>
        <line class="cls-1" x1="369.54" y1="8.91" x2="367.43" y2="10.59"/>
        <line class="cls-1" x1="178.55" y1="9.63" x2="178.55" y2="11.79"/>
        <path class="cls-1" d="m8.31,415.85c-1.34,1.61-2.61,2.61-2.64-6.33"/>
        <path class="cls-1" d="m16.19,664.1c.4.31.76.58,1.08.83.33.23.65.41.92.57.55.31.96.52,1.25.63.59.23.74.11.65-.18-.17-.6-1.25-1.88-1.57-2.64"/>
        <line class="cls-1" x1="2.31" y1="347.26" x2="2.79" y2="349.38"/>
        <line class="cls-1" x1="9.27" y1="314.55" x2="10.95" y2="315.61"/>
        <line class="cls-1" x1="484.59" y1="85.32" x2="484.59" y2="82.15"/>
        <line class="cls-1" x1="13.11" y1="633.22" x2="12.78" y2="636.14"/>
        <line class="cls-1" x1="484.83" y1="291.08" x2="484.35" y2="288.97"/>
        <path class="cls-1" d="m480.27,468.35c-.56,2.48-1.11,4.96-1.78,7.96-.15-1.85-.26-3.32-.38-4.79"/>
        <line class="cls-1" x1="2.31" y1="355.71" x2="3.03" y2="354.65"/>
        <line class="cls-1" x1="372.7" y1="2.19" x2="373.76" y2="2.91"/>
        <line class="cls-1" x1="484.83" y1="468.35" x2="484.35" y2="470.46"/>
        <line class="cls-1" x1="484.83" y1="569.65" x2="484.11" y2="568.6"/>
        <path class="cls-1" d="m89.82,664.18c.35-.16.75-.32,1.04-.48.12-.07.02-.16.02-.24"/>
        <path class="cls-1" d="m14.31,101.41c.22-.81.44-1.61.68-2.48-.13-1.73-.28-3.85-.44-5.97"/>
        <line class="cls-1" x1="14.55" y1="466.5" x2="15.51" y2="466.5"/>
        <path class="cls-1" d="m479.31,589.7c-.16,0-.33.12-.48-.05-.09-.11-.16-.66-.24-1.01"/>
        <line class="cls-1" x1="104.69" y1="2.19" x2="104.69" y2="3.63"/>
        <polyline class="cls-1" points="294.53 668.5 293.47 667.78 292.42 668.5"/>
        <line class="cls-1" x1="187.95" y1="668.74" x2="186.9" y2="668.02"/>
        <line class="cls-1" x1="484.35" y1="170.79" x2="483.63" y2="169.73"/>
        <line class="cls-1" x1="3.27" y1="329.33" x2="3.75" y2="326.16"/>
        <line class="cls-1" x1="476.67" y1="364.94" x2="476.19" y2="367.05"/>
        <line class="cls-1" x1="220.66" y1="667.06" x2="223.83" y2="667.3"/>
        <polyline class="cls-1" points="400.14 4.11 400.14 2.91 397.8 2.76 394.86 4.11"/>
        <polyline class="cls-1" points="14.08 636.95 14.14 636.36 14.26 635.77 14.5 634.6 14.74 633.46 15.03 632.17"/>
        <line class="cls-1" x1="483.87" y1="597.09" x2="483.15" y2="598.14"/>
        <path class="cls-1" d="m6.87,267.07c.24,0,.53-.37.71.07.51,1.2.97,2.74,1.45,4.15"/>
        <line class="cls-1" x1="238.6" y1="662.74" x2="237.55" y2="660.1"/>
        <line class="cls-1" x1="483.39" y1="312.18" x2="483.63" y2="309.02"/>
        <path class="cls-1" d="m107.85,3.87c0,.16.12.33-.05.48-.11.09-.66.16-1.01.24"/>
        <path class="cls-1" d="m10.95,593.12c.22.81.44,1.61.64,2.33.41-.91.72-1.62,1.04-2.33"/>
        <line class="cls-1" x1="232.36" y1="13.95" x2="235.53" y2="13.95"/>
        <line class="cls-1" x1="4.47" y1="404.24" x2="4.47" y2="407.41"/>
        <path class="cls-1" d="m15.44,22.99c-.03.63-.11,1.21-.08,1.84l-1.28,1.71c.08-.95.17-1.94.3-2.94"/>
        <line class="cls-1" x1="321.96" y1="663.7" x2="320.91" y2="662.02"/>
        <line class="cls-1" x1="291.45" y1="10.83" x2="303.06" y2="11.31"/>
        <line class="cls-1" x1="473.55" y1="351.23" x2="473.07" y2="348.06"/>
        <line class="cls-1" x1="9.03" y1="302.95" x2="9.27" y2="306.11"/>
        <line class="cls-1" x1="475.23" y1="597.09" x2="474.75" y2="594.98"/>
        <line class="cls-1" x1="482.67" y1="539.05" x2="481.95" y2="542.22"/>
        <line class="cls-1" x1="269.2" y1="671.86" x2="272.37" y2="671.86"/>
        <line class="cls-1" x1="168.96" y1="671.86" x2="172.12" y2="671.86"/>
        <line class="cls-1" x1="475.95" y1="525.33" x2="476.43" y2="522.17"/>
        <path class="cls-1" d="m482.67,49.44c-.16.35-.31.82-.48.99-.06.06-.16-.64-.24-.99"/>
        <line class="cls-1" x1="482.67" y1="454.63" x2="481.95" y2="446.19"/>
        <path class="cls-1" d="m297.79,12.51c1.41,0,2.81,0,4.23,0-.35-.24-.71-.48-1.06-.72"/>
        <line class="cls-1" x1="278.7" y1="668.26" x2="288.2" y2="664.42"/>
        <line class="cls-1" x1="4.95" y1="315.61" x2="4.95" y2="312.44"/>
        <line class="cls-1" x1="4.95" y1="147.83" x2="5.19" y2="151"/>
        <polyline class="cls-1" points="316.78 11.07 323.13 10.35 321.04 9.82 327.33 10.11"/>
        <path class="cls-1" d="m141.52,662.74c.7.16,1.41.32,3.16.72.82-.84,1.47-1.5,2.12-2.16"/>
        <line class="cls-1" x1="482.43" y1="613.97" x2="481.23" y2="613.97"/>
        <line class="cls-1" x1="224.88" y1="671.62" x2="222.77" y2="669.7"/>
        <line class="cls-1" x1="260.76" y1="668.5" x2="262.87" y2="667.78"/>
        <path class="cls-1" d="m481.95,382.88c-.61-2.62-2.08-3.98-.36-10.95.48,3.56.9,6.73,1.32,9.9"/>
        <line class="cls-1" x1="396.88" y1="671.62" x2="394.77" y2="671.14"/>
        <line class="cls-1" x1="240.71" y1="664.9" x2="238.6" y2="664.42"/>
        <line class="cls-1" x1="5.43" y1="264.96" x2="7.11" y2="259.68"/>
        <path class="cls-1" d="m12.63,297.67c.23-.47.46-.93,1.18-2.42-.7,3.78-1.06,5.74-1.42,7.7"/>
        <line class="cls-1" x1="480.88" y1="641.22" x2="479.89" y2="642.21"/>
        <line class="cls-1" x1="59.22" y1="671.14" x2="61.33" y2="670.66"/>
        <line class="cls-1" x1="473.55" y1="332.23" x2="473.31" y2="336.45"/>
        <path class="cls-1" d="m45.5,666.58c.7.24,1.41.48,2.81.96-2.8,0-4.9.04-7.07-.11"/>
        <path class="cls-1" d="m9.51,259.68c.16.35.31.82.48.99.06.06.16-.64.24-.99"/>
        <line class="cls-1" x1="290.31" y1="670.9" x2="292.42" y2="670.18"/>
        <path class="cls-1" d="m358.99,8.91c-5.59-.79-2.23.45-3.17.72"/>
        <line class="cls-1" x1="5.91" y1="109.85" x2="6.15" y2="113.01"/>
        <line class="cls-1" x1="292.42" y1="667.54" x2="290.31" y2="666.82"/>
        <line class="cls-1" x1="6.63" y1="413.74" x2="7.11" y2="410.58"/>
        <path class="cls-1" d="m234.38,669.22c.43.41.86.83,1.29,1.25,1.8-.24,2.89-.38,3.98-.53"/>
        <path class="cls-1" d="m7.83,71.86c-.35,1.32-.69,2.64-1.25,4.75-.03,1.23-.11,4.04-.19,6.86"/>
        <line class="cls-1" x1="190.16" y1="10.11" x2="186.99" y2="10.35"/>
        <path class="cls-1" d="m9.75,310.33c.16.35.31.82.48.99.06.06.16-.64.24-.99"/>
        <line class="cls-1" x1="13.11" y1="352.54" x2="13.83" y2="350.43"/>
        <path class="cls-1" d="m11.91,547.75c.15,1.09.29,2.19.48,3.57.43-2.05.82-3.86,1.2-5.68"/>
        <line class="cls-1" x1="130.01" y1="6.75" x2="126.84" y2="6.27"/>
        <path class="cls-1" d="m476.67,604.47c-.22-.81-.44-1.61-.82-3.01.51-1.11,1.03-2.21,1.54-3.32"/>
        <line class="cls-1" x1="9.03" y1="465.45" x2="9.51" y2="467.56"/>
        <path class="cls-1" d="m22.31,660.46c-.5-.54-.92-1.14-1.34-1.75"/>
        <line class="cls-1" x1="12.87" y1="419.02" x2="13.11" y2="422.18"/>
        <line class="cls-1" x1="474.75" y1="256.26" x2="474.03" y2="258.37"/>
        <line class="cls-1" x1="7.83" y1="61.31" x2="8.55" y2="59.2"/>
        <line class="cls-1" x1="477.39" y1="602.36" x2="477.39" y2="598.14"/>
        <line class="cls-1" x1="276.68" y1="14.91" x2="273.52" y2="14.91"/>
        <line class="cls-1" x1="7.83" y1="99.29" x2="8.07" y2="102.46"/>
        <path class="cls-1" d="m470.67,260.48c.41,1.33.83,2.67,1.31,4.23.11-1.56.24-3.26.53-7.28-.68,2.48-.9,3.29-1.12,4.1"/>
        <line class="cls-1" x1="472.35" y1="360.72" x2="471.39" y2="368.11"/>
        <line class="cls-1" x1="472.11" y1="457.8" x2="472.11" y2="460.97"/>
        <path class="cls-1" d="m457.48,10.75c.15.6.28,1.2.4,1.79"/>
        <polyline class="cls-1" points="42.31 6.08 43.48 6.39 44.54 6.75"/>
        <line class="cls-1" x1="475.71" y1="82.15" x2="475.23" y2="80.04"/>
        <line class="cls-1" x1="470.67" y1="553.82" x2="471.63" y2="547.49"/>
        <path class="cls-1" d="m29.07,657.54c1.14.39,2.38.53,3.52.76"/>
        <line class="cls-1" x1="395.92" y1="15.39" x2="390.64" y2="16.83"/>
        <line class="cls-1" x1="471.87" y1="356.5" x2="471.39" y2="354.39"/>
        <path class="cls-1" d="m475.23,87.43c.24,1.76.48,3.52.79,5.81-.36.55-.7,1.06-1.03,1.57"/>
        <path class="cls-1" d="m24.3,653.64c-.52-.73-.87-1.6-1.29-2.37"/>
        <line class="cls-1" x1="6.87" y1="584.68" x2="7.59" y2="586.79"/>
        <line class="cls-1" x1="6.87" y1="578.35" x2="7.59" y2="576.24"/>
        <line class="cls-1" x1="11.43" y1="440.12" x2="11.91" y2="442.23"/>
        <line class="cls-1" x1="471.63" y1="427.2" x2="469.95" y2="426.14"/>
        <path class="cls-1" d="m480.75,273.14c-.16-.35-.31-.82-.48-.99-.06-.06-.16.64-.24.99"/>
        <line class="cls-1" x1="12.87" y1="317.72" x2="13.59" y2="320.88"/>
        <line class="cls-1" x1="481.23" y1="195.06" x2="480.51" y2="192.95"/>
        <polyline class="cls-1" points="157.44 17.31 159.32 16.32 161.62 15.88 163.78 17.07"/>
        <path class="cls-1" d="m456.16,666.94l-1.66.35c-.55.11-1.13.14-1.68.21"/>
        <line class="cls-1" x1="470.91" y1="333.29" x2="470.67" y2="336.45"/>
        <line class="cls-1" x1="16.71" y1="163.66" x2="17.67" y2="157.33"/>
        <line class="cls-1" x1="63.44" y1="669.7" x2="61.33" y2="669.22"/>
        <path class="cls-1" d="m271.41,17.55c.81-.22,1.61-.44,2.45-.67-1.39-.21-2.45-.37-3.51-.53"/>
        <path class="cls-1" d="m66.61,663.94c.35-.16.82-.31.99-.48.06-.06-.64-.16-.99-.24"/>
        <path class="cls-1" d="m308.34,16.83c-.35.16-.75.32-1.04.48-.12.07-.02.16-.02.24"/>
        <path class="cls-1" d="m474.27,397.65c-.16-.35-.31-.82-.48-.99-.06-.06-.16.64-.24.99"/>
        <line class="cls-1" x1="469.71" y1="379.72" x2="469.71" y2="382.88"/>
        <line class="cls-1" x1="17.43" y1="308.22" x2="17.43" y2="311.39"/>
        <path class="cls-1" d="m10.95,509.76c-.33.64-.65,1.29-1.26,2.49.62,1.6,1.06,2.72,1.5,3.85v-4.22"/>
        <path class="cls-1" d="m477.39,242.54c-.46.51-.92,1.01-1.78,1.96.44.64.63.93.82,1.21"/>
        <line class="cls-1" x1="476.67" y1="426.14" x2="472.35" y2="446.19"/>
        <path class="cls-1" d="m148.91,662.02c0-.24.06-.48-.09-.72,0,0-.09,0-.22-.01h-.53c-.41,0-.92,0-1.27,0"/>
        <path class="cls-1" d="m249.25,14.91c-2.81.06-5.62.12-8.27.18-1.06-.44-2.2-.91-3.34-1.38"/>
        <line class="cls-1" x1="484.83" y1="54.72" x2="484.11" y2="57.88"/>
        <polyline class="cls-1" points="484.11 55.77 483.45 54.94 483.32 56.59 484.11 57.88"/>
        <line class="cls-1" x1="3.27" y1="300.84" x2="4.23" y2="300.84"/>
        <path class="cls-1" d="m151.02,661.3c3.56-.38,7.12-.75,11.02-1.16,1.64.12,3.75.28,5.86.44"/>
        <line class="cls-1" x1="471.87" y1="371.27" x2="471.39" y2="368.11"/>
        <line class="cls-1" x1="15.75" y1="478.11" x2="16.95" y2="481.27"/>
        <path class="cls-1" d="m481.29,642.55c.06-.61.17-1.21.18-1.83l.04-1.83"/>
        <path class="cls-1" d="m481.95,601.31c.39.53.78,1.05,1.49,2.03-.39.57-.58.85-.77,1.14"/>
        <path class="cls-1" d="m35.25,669.72c-1.26-.64-2.52-1.15-3.67-1.93l-1.73-1.08c-.57-.34-1.09-.81-1.62-1.2"/>
        <line class="cls-1" x1="470.91" y1="381.83" x2="469.95" y2="384.99"/>
        <path class="cls-1" d="m217.59,16.35c-.7.24-1.41.48-2.08.71-2.8.42-3.81-1.97-7.42-.23"/>
        <line class="cls-1" x1="398.99" y1="669.7" x2="404.27" y2="669.22"/>
        <path class="cls-1" d="m462.44,24.29c.48.71.9,1.46,1.35,2.17"/>
        <line class="cls-1" x1="385.37" y1="6.99" x2="385.37" y2="7.95"/>
        <path class="cls-1" d="m473.55,435.64c-.25.17-.49.33-.88.59-.08-.24-.32-.94-.56-1.65"/>
        <path class="cls-1" d="m4.71,155.22c.14,1.44.28,2.88.53,5.41.19-2.46.31-3.93.43-5.41"/>
      </g>
    </g>
  </g>
</svg>