<svg width="234" height="89" viewBox="0 0 234 89" fill="none" xmlns="http://www.w3.org/2000/svg">
<g clip-path="url(#clip0_72_2070)">
<path d="M53.8421 33.3458C54.3531 33.8133 54.613 34.2028 54.613 34.5318C54.613 36.064 54.561 38.159 54.4657 40.8166C54.4398 41.4658 54.4138 42.2536 54.3878 43.1712C54.3618 44.0888 54.3531 45.1449 54.3531 46.3482C54.3531 50.1659 54.5783 52.9706 55.0288 54.7799C55.0028 55.3859 54.7689 55.8187 54.3098 56.0784C53.8594 56.3381 53.409 56.4766 52.9586 56.4766C51.9538 56.4766 51.2955 56.1217 50.9837 55.4205C50.6719 54.7193 50.5159 53.7151 50.5159 52.408C50.5159 47.5688 50.5679 43.1106 50.6632 39.0506C47.7788 42.2622 45.5267 44.9545 43.9243 47.1447L43.2486 47.5948C42.8242 47.967 42.4691 48.1575 42.1919 48.1575C41.5423 48.1575 40.9966 47.993 40.5721 47.6727C40.1477 47.3438 39.7319 46.8676 39.3335 46.2443L37.5232 43.682C36.2672 41.9246 35.349 40.6002 34.7773 39.6912C34.7773 42.0025 34.89 45.1363 35.1152 49.1011C35.2884 51.3865 35.375 53.1005 35.375 54.2605C35.375 54.8665 35.2278 55.3686 34.9246 55.7841C34.6214 56.1996 34.145 56.4074 33.4954 56.4074C32.8458 56.4074 32.3087 56.2862 31.893 56.0351C31.4772 55.7841 31.2606 55.4118 31.2347 54.9098C31.2606 54.4856 31.2693 53.7844 31.2693 52.8062C31.2693 50.8497 31.2087 48.4691 31.0787 45.6557L31.0008 43.6214L30.9228 40.9897C30.8968 40.2106 30.8709 39.3016 30.8449 38.2628C30.8189 37.224 30.8102 36.09 30.8102 34.8607C30.8102 33.3545 31.6244 32.6013 33.2615 32.6013C33.7639 32.6013 34.275 32.7312 34.786 32.9736C35.2971 33.2246 35.6868 33.5882 35.938 34.0643C36.1373 34.9386 36.8822 36.393 38.1555 38.4273C39.4374 40.4616 40.6934 42.3661 41.9234 44.1494C43.0234 42.747 43.9329 41.6909 44.6345 40.9897C45.8385 39.7604 46.8347 38.6178 47.6315 37.5616C48.4198 36.5055 49.286 35.2416 50.2128 33.7613C50.438 33.4583 50.7671 33.2073 51.1916 32.9909C51.616 32.7745 52.0664 32.6706 52.5428 32.6706C52.8979 32.6706 53.331 32.9043 53.8421 33.3631V33.3458Z" fill="#4A544A"/>
<path d="M66.3585 40.2885C66.3585 41.8208 66.4624 44.0629 66.6616 47.0235C66.6876 47.4736 66.7396 48.3826 66.8089 49.7504C66.8868 51.1181 66.9215 52.3647 66.9215 53.4901C67.1727 53.4641 67.4412 53.4295 67.727 53.3775C68.0129 53.3256 68.2381 53.2996 68.3853 53.2996C68.9397 53.2996 69.3728 53.4381 69.7019 53.7152C70.0311 53.9922 70.187 54.4163 70.187 54.9963C70.187 55.3686 70.0398 55.6629 69.7366 55.862C69.4334 56.0611 68.9137 56.2083 68.1775 56.2949C67.4325 56.3814 66.3671 56.4247 64.9552 56.4247C63.3961 56.4247 62.2354 56.3728 61.4559 56.2775C60.6763 56.1737 60.1393 55.9832 59.8361 55.6975C59.5329 55.4119 59.3857 54.979 59.3857 54.399C59.3857 53.9749 59.5243 53.6805 59.8014 53.5334C60.0786 53.3862 60.4684 53.3083 60.9708 53.3083L61.759 53.3429L62.9977 53.4208L62.8071 48.9799C62.6599 46.5733 62.5819 44.3659 62.5819 42.3575C62.5819 41.2754 62.6165 39.7951 62.6945 37.9166L62.7725 35.8476C61.9149 35.8996 61.2566 35.9255 60.7802 35.9255C60.2259 35.9255 59.8621 35.8217 59.6715 35.6226C59.481 35.4234 59.3857 35.0079 59.3857 34.3846C59.3857 33.6834 59.8707 33.2333 60.8322 33.0342C61.8023 32.8351 63.2748 32.7312 65.2584 32.7312C66.7916 32.7312 67.9349 32.7831 68.7058 32.8784C69.4681 32.9822 69.8579 33.2073 69.8579 33.5536C69.8579 34.4106 69.676 34.9646 69.3122 35.2243C68.9484 35.484 68.2554 35.6226 67.2247 35.6226L66.4711 35.6572C66.3931 37.2587 66.3585 38.8082 66.3585 40.2885Z" fill="#4A544A"/>
<path d="M77.6709 32.9129C78.0606 33.1639 78.2945 33.6054 78.3638 34.2287C78.667 36.2111 78.8575 38.1848 78.9441 40.1586C79.0308 42.1323 79.0741 44.3571 79.0741 46.8416C79.0741 47.8977 78.9875 49.8109 78.8142 52.5983C79.9143 52.7022 80.7718 52.7455 81.3781 52.7455C81.8026 52.7455 82.7727 52.6849 84.2798 52.555C85.1547 52.4252 85.9256 52.3646 86.5752 52.3646C87.1816 52.3646 87.7273 52.4165 88.2297 52.5377C88.732 52.6503 89.2431 52.8321 89.7715 53.0831C90.2998 53.3861 90.5597 53.8449 90.5597 54.4768C90.5597 54.9789 90.4038 55.4291 90.092 55.8273C89.7801 56.2255 89.4077 56.4333 88.9832 56.4333C88.6801 56.4333 88.2037 56.3813 87.554 56.2861C86.376 56.113 85.2413 56.0264 84.1672 56.0264C83.8121 56.0264 83.4223 56.0437 82.9806 56.0783C82.5388 56.113 82.2183 56.1389 82.0191 56.1389C81.4128 56.2168 80.8151 56.2515 80.2088 56.2515C78.9788 56.2515 77.8787 56.1909 76.8913 56.061C76.3889 56.0091 75.8865 55.8186 75.3841 55.481C74.8817 55.1434 74.6305 54.65 74.6305 53.9921C74.6305 53.6112 74.6825 52.6503 74.7778 51.0921C74.951 48.5123 75.0376 46.5386 75.0376 45.1882C75.0376 44.132 74.9857 43.0326 74.8904 41.8726C74.7865 40.7213 74.7258 39.9941 74.6998 39.6911C74.4746 37.5616 74.362 35.8042 74.362 34.4192C74.362 33.7699 74.5179 33.2938 74.8298 32.9908C75.1416 32.6878 75.6526 32.5406 76.3543 32.5406C76.8307 32.5406 77.2637 32.6705 77.6535 32.9129H77.6709Z" fill="#4A544A"/>
<path d="M94.0851 55.8706C93.7992 55.4205 93.652 54.7799 93.652 53.9488L93.6866 49.0578L93.652 48.3046C93.522 45.924 93.4614 43.9503 93.4614 42.4007L93.6087 37.9252L93.6433 35.6658C93.6433 34.9127 93.6693 34.3326 93.7213 33.9344C93.7732 33.5362 93.9378 33.2073 94.2063 32.9562C94.4835 32.7052 94.9253 32.584 95.5229 32.584C96.2765 32.584 96.8135 32.7658 97.1427 33.1294C97.4718 33.4929 97.6278 34.1162 97.6278 34.9906L97.5931 35.7783C97.4892 37.7867 97.4459 39.3016 97.4459 40.3318C97.4459 41.4571 97.4718 42.7816 97.5238 44.3052C97.5758 45.8202 97.6104 46.8936 97.6364 47.5255C97.7577 50.2091 97.827 52.5205 97.827 54.4509C97.827 55.2041 97.6711 55.7408 97.3592 56.0697C97.0474 56.3987 96.4757 56.5545 95.6442 56.5545C94.8906 56.5545 94.3709 56.3294 94.0851 55.8793V55.8706Z" fill="#4A544A"/>
<path d="M134.64 33.3458C135.151 33.8133 135.411 34.2028 135.411 34.5318C135.411 36.064 135.359 38.159 135.264 40.8166C135.238 41.4658 135.212 42.2536 135.186 43.1712C135.16 44.0888 135.151 45.145 135.151 46.3482C135.151 48.3566 135.186 50.0447 135.246 51.4124C135.307 52.7802 135.454 53.9056 135.679 54.7799C135.653 55.3859 135.419 55.8187 134.96 56.0784C134.51 56.3381 134.042 56.4766 133.566 56.4766C132.587 56.4766 131.963 56.139 131.704 55.4638C131.444 54.7886 131.305 53.7671 131.305 52.4166C131.305 46.8936 131.366 42.444 131.496 39.0593C130.915 39.6825 130.37 40.4011 129.841 41.2061C129.313 42.0112 128.663 43.0673 127.884 44.3658C126.879 46.0453 126.065 47.3265 125.432 48.2008C125.103 48.599 124.817 48.876 124.566 49.0318C124.315 49.179 123.942 49.2569 123.44 49.2569C122.808 49.2569 122.331 49.1097 121.994 48.8068C121.656 48.5038 121.257 48.019 120.807 47.3438C120.157 46.3656 119.126 44.6688 117.723 42.2623L115.731 38.99C115.731 43.102 115.809 46.4781 115.956 49.1097C116.078 50.7372 116.147 52.4599 116.147 54.2692C116.147 54.8751 115.991 55.3772 115.679 55.7927C115.367 56.2083 114.891 56.416 114.267 56.416C113.592 56.416 113.055 56.2948 112.665 56.0438C112.275 55.7927 112.067 55.4205 112.041 54.9184C112.067 54.4942 112.076 53.793 112.076 52.8148C112.076 49.5253 112.024 46.4694 111.928 43.63L111.851 40.9984C111.825 40.2193 111.799 39.3103 111.773 38.2715C111.747 37.2327 111.738 36.0987 111.738 34.8694C111.738 33.3631 112.552 32.61 114.189 32.61C114.692 32.61 115.203 32.7398 115.714 32.9822C116.225 33.2333 116.615 33.5969 116.866 34.073C117.29 34.9733 118.295 36.7046 119.88 39.2497C121.465 41.7948 122.643 43.6473 123.423 44.7987C123.951 44.1235 124.436 43.4223 124.869 42.6951C125.311 41.9679 125.675 41.3446 125.978 40.8166C126.905 39.3103 127.91 37.8906 128.992 36.5661C129.824 35.5619 130.5 34.6357 131.028 33.7786C131.279 33.4757 131.608 33.2246 132.024 33.0082C132.44 32.7918 132.882 32.6879 133.358 32.6879C133.713 32.6879 134.146 32.9216 134.657 33.3804L134.64 33.3458Z" fill="#4A544A"/>
<path d="M157.49 54.6414C157.299 54.2518 157.065 53.7065 156.797 53.0053C156.346 51.8799 155.939 51.0488 155.593 50.5208C154.06 50.7459 152.734 50.8584 151.6 50.8584C151.045 50.8584 150.43 50.8497 149.737 50.8238C149.045 50.7978 148.516 50.7718 148.135 50.7459C146.827 50.642 145.788 50.5987 145.008 50.5987C144.679 50.9969 144.428 51.4211 144.237 51.8626C144.047 52.3041 143.839 52.8494 143.614 53.4987C143.241 54.6068 142.877 55.4465 142.522 56.0178C142.297 56.3901 141.855 56.5805 141.206 56.5805C140.651 56.5805 140.149 56.4593 139.681 56.2256C139.213 55.9918 138.988 55.6542 138.988 55.2301C139.187 54.2778 139.508 53.265 139.95 52.2002C140.391 51.1354 141.024 49.707 141.855 47.9324L143.362 44.2446C144.194 42.1411 144.947 40.3318 145.64 38.8255C146.333 37.3192 147.243 35.536 148.369 33.4843C148.516 33.1813 148.767 32.9303 149.122 32.7139C149.478 32.4974 149.859 32.3936 150.292 32.3936C150.768 32.3936 151.115 32.4282 151.331 32.4888C151.548 32.5494 151.712 32.6533 151.842 32.7918C151.964 32.9303 152.154 33.2159 152.405 33.6401C153.254 34.9733 153.99 36.341 154.605 37.7434C155.22 39.1458 156.009 41.0936 156.961 43.5781L157.75 45.5691C158.451 47.3784 159.058 48.8847 159.577 50.1053C160.088 51.3259 160.66 52.4339 161.292 53.4381C161.691 54.0874 161.899 54.5462 161.899 54.7886C161.899 55.3945 161.717 55.8447 161.353 56.165C160.989 56.4766 160.521 56.6324 159.941 56.6324C159.214 56.6324 158.659 56.3814 158.287 55.8793C157.958 55.4551 157.706 55.0483 157.516 54.6587L157.49 54.6414ZM153.107 43.6733C152.908 43.024 152.752 42.5739 152.657 42.3228C151.877 40.0634 151.097 38.2715 150.326 36.9383C149.85 38.1416 149.148 39.6999 148.222 41.6043C147.641 42.6864 146.853 44.6169 145.848 47.3957C147.451 47.5948 149.278 47.6987 151.305 47.6987C152.708 47.6987 153.774 47.6121 154.501 47.439C154.146 46.7118 153.687 45.4566 153.107 43.6733Z" fill="#4A544A"/>
<path d="M165.268 32.8783C165.944 32.8783 167.234 32.9043 169.149 32.9562C171.254 33.0601 172.847 33.1034 173.93 33.1034C174.805 33.1034 175.879 33.0514 177.126 32.9562C177.975 32.9043 178.521 32.8783 178.746 32.8783C180.123 32.9302 181.293 33.1813 182.245 33.6314C182.523 33.7613 182.748 33.9084 182.921 34.0816C183.094 34.2547 183.181 34.549 183.181 34.9473C183.181 35.5013 183.008 35.9688 182.653 36.3583C182.297 36.7479 181.873 36.9383 181.371 36.9383C180.816 36.9383 180.019 36.8604 178.963 36.7132C178.036 36.5401 177.222 36.4535 176.511 36.4535C175.801 36.4535 175.316 36.4708 174.969 36.4882C174.892 37.3192 174.857 39.3016 174.857 42.4353C174.857 46.1751 174.969 49.9581 175.195 53.8017L175.273 54.8924C175.273 55.9226 174.684 56.4333 173.506 56.4333C172.579 56.4333 171.946 56.2169 171.626 55.7754C171.297 55.3339 171.141 54.6673 171.141 53.7584C171.141 51.9751 171.089 49.7589 170.994 47.1013C170.89 44.8939 170.846 43.327 170.846 42.4007C170.846 41.7774 170.924 39.8556 171.072 36.644L166.663 36.6786C165.26 36.6786 164.281 36.5488 163.726 36.2804C163.172 36.0207 162.895 35.4234 162.895 34.4971C162.895 33.415 163.683 32.8783 165.268 32.8783Z" fill="#4A544A"/>
<path d="M202.826 51.8625C203.06 52.2261 203.181 52.6243 203.181 53.0485C203.181 53.5766 203.103 53.9488 202.939 54.1566C202.774 54.373 202.471 54.5894 202.02 54.8145C200.964 55.3166 199.664 55.7148 198.105 56.0178C196.546 56.3207 194.883 56.4679 193.099 56.4679C190.864 56.4679 189.227 56.0957 188.187 55.3425C187.148 54.5894 186.507 53.6804 186.265 52.6157C186.022 51.5509 185.909 50.1485 185.909 48.4171C185.909 46.5646 185.987 44.738 186.135 42.9461C186.282 41.1541 186.55 38.8601 186.923 36.0813C187.096 34.878 187.572 34.0037 188.352 33.4669C189.132 32.9302 189.98 32.6619 190.916 32.6619C191.696 32.6619 192.96 32.6359 194.718 32.5839L197.993 32.5493C199.344 32.5493 200.331 32.5839 200.929 32.6619C201.683 32.809 202.237 32.9822 202.601 33.1726C202.965 33.3631 203.146 33.6834 203.146 34.1335C203.146 34.6356 202.973 35.129 202.635 35.6051C202.298 36.0813 201.787 36.3237 201.111 36.3237C200.331 36.3237 199.214 36.2717 197.759 36.1765C196.304 36.0726 195.212 36.0293 194.485 36.0293C193.861 36.0293 193.246 36.064 192.64 36.1419C191.938 36.1938 191.436 36.2804 191.132 36.4016C190.829 36.5314 190.656 36.7392 190.604 37.0422C190.249 39.6219 190.076 41.535 190.076 42.7643C190.656 42.8422 191.219 42.8768 191.773 42.8768C192.475 42.8768 193.229 42.8422 194.034 42.7643C194.84 42.6864 195.351 42.6431 195.576 42.6171C196.91 42.4959 198.045 42.4267 199.006 42.4267C199.56 42.4267 199.976 42.5305 200.271 42.7297C200.557 42.9288 200.704 43.2058 200.704 43.5607C200.704 44.1147 200.557 44.5389 200.271 44.8419C199.985 45.1449 199.474 45.37 198.746 45.5171C197.871 45.6903 196.78 45.8288 195.489 45.9326C194.199 46.0365 192.934 46.0798 191.704 46.0798C191.28 46.0798 190.691 46.0538 189.937 46.0019C189.859 47.5341 189.825 48.9538 189.825 50.2524C189.825 52.0357 191.003 52.9273 193.367 52.9273C194.623 52.9273 195.663 52.8407 196.494 52.6676C197.326 52.4945 198.279 52.2434 199.353 51.9145C200.357 51.5422 201.163 51.3518 201.761 51.3518C202.237 51.3518 202.592 51.5336 202.835 51.8971L202.826 51.8625Z" fill="#4A544A"/>
<path d="M205.243 89H28.7487C8.99967 89 0 65.9298 0 44.4957C0 32.9995 2.47729 22.2565 6.97279 14.249C12.2132 4.92569 19.7404 0 28.7487 0H205.243C225 0 234 23.0702 234 44.4957C234 65.9211 225 88.9913 205.251 88.9913L205.243 89ZM28.7487 3.4627C11.3817 3.4627 3.46474 24.7323 3.46474 44.4957C3.46474 64.259 11.3817 85.5286 28.7487 85.5286H205.243C222.618 85.5286 230.527 64.259 230.527 44.4957C230.527 24.7323 222.61 3.4627 205.243 3.4627H28.7487Z" fill="#4A544A"/>
<path d="M222.488 16.7855C219.517 11.4962 214.112 5.19409 205.251 5.19409H28.7487C19.879 5.19409 14.4826 11.4962 11.5116 16.7855C7.50117 23.9273 5.19711 34.0297 5.19711 44.4957C5.19711 54.9617 7.50117 65.0642 11.5116 72.206C14.4826 77.4952 19.879 83.806 28.7487 83.806H205.251C214.112 83.806 219.517 77.4952 222.488 72.206C226.499 65.0642 228.803 54.9617 228.803 44.4957C228.803 34.0297 226.499 23.9273 222.488 16.7855ZM221.354 71.574C218.556 76.5603 213.489 82.4988 205.251 82.4988H28.7487C20.5113 82.4988 15.4441 76.5603 12.6463 71.574C8.73981 64.614 6.49639 54.7453 6.49639 44.4957C6.49639 34.2461 8.73981 24.3774 12.6463 17.4261C15.4441 12.4398 20.5113 6.4926 28.7487 6.4926H205.251C213.489 6.4926 218.556 12.4398 221.354 17.4261C225.26 24.3774 227.504 34.2461 227.504 44.4957C227.504 49.6205 226.941 54.6501 225.893 59.2641C224.844 63.8868 223.311 68.094 221.354 71.574Z" fill="#4A544A"/>
</g>
<defs>
<clipPath id="clip0_72_2070">
<rect width="234" height="89" fill="white"/>
</clipPath>
</defs>
</svg>
