<svg width="334" height="112" viewBox="0 0 334 112" fill="none" xmlns="http://www.w3.org/2000/svg">
    <path
        d="M298.729 112H82.2602C58.0381 112 47 83.7455 47 57.4947C47 43.4151 50.0384 30.258 55.5521 20.451C61.9795 9.03258 71.2115 3 82.2602 3H298.729C322.962 3 334 31.2546 334 57.4947C334 83.7349 322.962 111.989 298.74 111.989L298.729 112ZM82.2602 7.24083C60.9596 7.24083 51.2495 33.2901 51.2495 57.4947C51.2495 81.6993 60.9596 107.749 82.2602 107.749H298.729C320.04 107.749 329.74 81.6993 329.74 57.4947C329.74 33.2901 320.03 7.24083 298.729 7.24083H82.2602Z"
        fill="#A2A2A2" fill-opacity="0.39" />
    <circle cx="45" cy="70" r="5" fill="#A2A2A2" fill-opacity="0.38" />
    <circle cx="35" cy="75" r="5" fill="#A2A2A2" fill-opacity="0.38" />
    <circle cx="24" cy="80" r="5" fill="#A2A2A2" fill-opacity="0.38" />
    <circle cx="12" cy="80" r="5" fill="#A2A2A2" fill-opacity="0.38" />
    <circle cx="2" cy="74" r="5" fill="#A2A2A2" fill-opacity="0.38" />
    <circle cx="45" cy="68" r="5" fill="#B0B4AE" />
    <circle cx="35" cy="73" r="5" fill="#B0B4AE" />
    <circle cx="24" cy="78" r="5" fill="#B0B4AE" />
    <circle cx="12" cy="78" r="5" fill="#B0B4AE" />
    <circle cx="2" cy="72" r="5" fill="#B0B4AE" />
    <path
        d="M119.16 41.52C119.75 42.06 120.05 42.51 120.05 42.89C120.05 44.66 119.99 47.08 119.88 50.15C119.85 50.9 119.82 51.81 119.79 52.87C119.76 53.93 119.75 55.15 119.75 56.54C119.75 60.95 120.01 64.19 120.53 66.28C120.5 66.98 120.23 67.48 119.7 67.78C119.18 68.08 118.66 68.24 118.14 68.24C116.98 68.24 116.22 67.83 115.86 67.02C115.5 66.21 115.32 65.05 115.32 63.54C115.32 57.95 115.38 52.8 115.49 48.11C112.16 51.82 109.56 54.93 107.71 57.46L106.93 57.98C106.44 58.41 106.03 58.63 105.71 58.63C104.96 58.63 104.33 58.44 103.84 58.07C103.35 57.69 102.87 57.14 102.41 56.42L100.32 53.46C98.8701 51.43 97.8101 49.9 97.1501 48.85C97.1501 51.52 97.2801 55.14 97.5401 59.72C97.7401 62.36 97.8401 64.34 97.8401 65.68C97.8401 66.38 97.6701 66.96 97.3201 67.44C96.9701 67.92 96.4201 68.16 95.6701 68.16C94.9201 68.16 94.3001 68.02 93.8201 67.73C93.3401 67.44 93.0901 67.01 93.0601 66.43C93.0901 65.94 93.1001 65.13 93.1001 64C93.1001 61.74 93.0301 58.99 92.8801 55.74L92.7901 53.39L92.7001 50.35C92.6701 49.45 92.6401 48.4 92.6101 47.2C92.5801 46 92.5701 44.69 92.5701 43.27C92.5701 41.53 93.5101 40.66 95.4001 40.66C95.9801 40.66 96.5701 40.81 97.1601 41.09C97.7501 41.38 98.2001 41.8 98.4901 42.35C98.7201 43.36 99.5801 45.04 101.05 47.39C102.53 49.74 103.98 51.94 105.4 54C106.67 52.38 107.72 51.16 108.53 50.35C109.92 48.93 111.07 47.61 111.99 46.39C112.9 45.17 113.9 43.71 114.97 42C115.23 41.65 115.61 41.36 116.1 41.11C116.59 40.86 117.11 40.74 117.66 40.74C118.07 40.74 118.57 41.01 119.16 41.54V41.52Z"
        fill="#4A544A" />
    <path
        d="M133.61 49.5401C133.61 51.3101 133.73 53.9001 133.96 57.3201C133.99 57.8401 134.05 58.8901 134.13 60.4701C134.22 62.0501 134.26 63.4901 134.26 64.7901C134.55 64.7601 134.86 64.7201 135.19 64.6601C135.52 64.6001 135.78 64.5701 135.95 64.5701C136.59 64.5701 137.09 64.7301 137.47 65.0501C137.85 65.3701 138.03 65.8601 138.03 66.5301C138.03 66.9601 137.86 67.3001 137.51 67.5301C137.16 67.7601 136.56 67.9301 135.71 68.0301C134.85 68.1301 133.62 68.1801 131.99 68.1801C130.19 68.1801 128.85 68.1201 127.95 68.0101C127.05 67.8901 126.43 67.6701 126.08 67.3401C125.73 67.0101 125.56 66.5101 125.56 65.8401C125.56 65.3501 125.72 65.0101 126.04 64.8401C126.36 64.6701 126.81 64.5801 127.39 64.5801L128.3 64.6201L129.73 64.7101L129.51 59.5801C129.34 56.8001 129.25 54.2501 129.25 51.9301C129.25 50.6801 129.29 48.9701 129.38 46.8001L129.47 44.4101C128.48 44.4701 127.72 44.5001 127.17 44.5001C126.53 44.5001 126.11 44.3801 125.89 44.1501C125.67 43.9201 125.56 43.4401 125.56 42.7201C125.56 41.9101 126.12 41.3901 127.23 41.1601C128.35 40.9301 130.05 40.8101 132.34 40.8101C134.11 40.8101 135.43 40.8701 136.32 40.9801C137.2 41.1001 137.65 41.3601 137.65 41.7601C137.65 42.7501 137.44 43.3901 137.02 43.6901C136.6 43.9901 135.8 44.1501 134.61 44.1501L133.74 44.1901C133.65 46.0401 133.61 47.8301 133.61 49.5401Z"
        fill="#4A544A" />
    <path
        d="M174.05 49.5401C174.05 51.3101 174.17 53.9001 174.4 57.3201C174.43 57.8401 174.49 58.8901 174.57 60.4701C174.66 62.0501 174.7 63.4901 174.7 64.7901C174.99 64.7601 175.3 64.7201 175.63 64.6601C175.96 64.6001 176.22 64.5701 176.39 64.5701C177.03 64.5701 177.53 64.7301 177.91 65.0501C178.29 65.3701 178.47 65.8601 178.47 66.5301C178.47 66.9601 178.3 67.3001 177.95 67.5301C177.6 67.7601 177 67.9301 176.15 68.0301C175.29 68.1301 174.06 68.1801 172.43 68.1801C170.63 68.1801 169.29 68.1201 168.39 68.0101C167.49 67.8901 166.87 67.6701 166.52 67.3401C166.17 67.0101 166 66.5101 166 65.8401C166 65.3501 166.16 65.0101 166.48 64.8401C166.8 64.6701 167.25 64.5801 167.83 64.5801L168.74 64.6201L170.17 64.7101L169.95 59.5801C169.78 56.8001 169.69 54.2501 169.69 51.9301C169.69 50.6801 169.73 48.9701 169.82 46.8001L169.91 44.4101C168.92 44.4701 168.16 44.5001 167.61 44.5001C166.97 44.5001 166.55 44.3801 166.33 44.1501C166.11 43.9201 166 43.4401 166 42.7201C166 41.9101 166.56 41.3901 167.67 41.1601C168.79 40.9301 170.49 40.8101 172.78 40.8101C174.55 40.8101 175.87 40.8701 176.76 40.9801C177.64 41.1001 178.09 41.3601 178.09 41.7601C178.09 42.7501 177.88 43.3901 177.46 43.6901C177.04 43.9901 176.24 44.1501 175.05 44.1501L174.18 44.1901C174.09 46.0401 174.05 47.8301 174.05 49.5401Z"
        fill="#4A544A" />
    <path
        d="M146.67 41.02C147.12 41.31 147.39 41.82 147.47 42.54C147.82 44.83 148.04 47.11 148.14 49.39C148.24 51.67 148.29 54.24 148.29 57.11C148.29 58.33 148.19 60.54 147.99 63.76C149.26 63.88 150.25 63.93 150.95 63.93C151.44 63.93 152.56 63.86 154.3 63.71C155.31 63.56 156.2 63.49 156.95 63.49C157.65 63.49 158.28 63.55 158.86 63.69C159.44 63.82 160.03 64.03 160.64 64.32C161.25 64.67 161.55 65.2 161.55 65.93C161.55 66.51 161.37 67.03 161.01 67.49C160.65 67.95 160.22 68.19 159.73 68.19C159.38 68.19 158.83 68.13 158.08 68.02C156.72 67.82 155.41 67.72 154.17 67.72C153.76 67.72 153.31 67.74 152.8 67.78C152.29 67.82 151.92 67.85 151.69 67.85C150.99 67.94 150.3 67.98 149.6 67.98C148.18 67.98 146.91 67.91 145.77 67.76C145.19 67.7 144.61 67.48 144.03 67.09C143.45 66.7 143.16 66.13 143.16 65.37C143.16 64.93 143.22 63.82 143.33 62.02C143.53 59.04 143.63 56.76 143.63 55.2C143.63 53.98 143.57 52.71 143.46 51.37C143.34 50.04 143.27 49.2 143.24 48.85C142.98 46.39 142.85 44.36 142.85 42.76C142.85 42.01 143.03 41.46 143.39 41.11C143.75 40.76 144.34 40.59 145.15 40.59C145.7 40.59 146.2 40.74 146.65 41.02H146.67Z"
        fill="#4A544A" />
    <path
        d="M218.44 41.52C219.03 42.06 219.33 42.51 219.33 42.89C219.33 44.66 219.27 47.08 219.16 50.15C219.13 50.9 219.1 51.81 219.07 52.87C219.04 53.93 219.03 55.15 219.03 56.54C219.03 58.86 219.07 60.81 219.14 62.39C219.21 63.97 219.38 65.27 219.64 66.28C219.61 66.98 219.34 67.48 218.81 67.78C218.29 68.08 217.75 68.24 217.2 68.24C216.07 68.24 215.35 67.85 215.05 67.07C214.75 66.29 214.59 65.11 214.59 63.55C214.59 57.17 214.66 52.03 214.81 48.12C214.14 48.84 213.51 49.67 212.9 50.6C212.29 51.53 211.54 52.75 210.64 54.25C209.48 56.19 208.54 57.67 207.81 58.68C207.43 59.14 207.1 59.46 206.81 59.64C206.52 59.81 206.09 59.9 205.51 59.9C204.78 59.9 204.23 59.73 203.84 59.38C203.45 59.03 202.99 58.47 202.47 57.69C201.72 56.56 200.53 54.6 198.91 51.82L196.61 48.04C196.61 52.79 196.7 56.69 196.87 59.73C197.01 61.61 197.09 63.6 197.09 65.69C197.09 66.39 196.91 66.97 196.55 67.45C196.19 67.93 195.64 68.17 194.92 68.17C194.14 68.17 193.52 68.03 193.07 67.74C192.62 67.45 192.38 67.02 192.35 66.44C192.38 65.95 192.39 65.14 192.39 64.01C192.39 60.21 192.33 56.68 192.22 53.4L192.13 50.36C192.1 49.46 192.07 48.41 192.04 47.21C192.01 46.01 192 44.7 192 43.28C192 41.54 192.94 40.67 194.83 40.67C195.41 40.67 196 40.82 196.59 41.1C197.18 41.39 197.63 41.81 197.92 42.36C198.41 43.4 199.57 45.4 201.4 48.34C203.23 51.28 204.59 53.42 205.49 54.75C206.1 53.97 206.66 53.16 207.16 52.32C207.67 51.48 208.09 50.76 208.44 50.15C209.51 48.41 210.67 46.77 211.92 45.24C212.88 44.08 213.66 43.01 214.27 42.02C214.56 41.67 214.94 41.38 215.42 41.13C215.9 40.88 216.41 40.76 216.96 40.76C217.37 40.76 217.87 41.03 218.46 41.56L218.44 41.52Z"
        fill="#4A544A" />
    <path
        d="M244.82 66.12C244.6 65.67 244.33 65.04 244.02 64.23C243.5 62.93 243.03 61.97 242.63 61.36C240.86 61.62 239.33 61.75 238.02 61.75C237.38 61.75 236.67 61.74 235.87 61.71C235.07 61.68 234.46 61.65 234.02 61.62C232.51 61.5 231.31 61.45 230.41 61.45C230.03 61.91 229.74 62.4 229.52 62.91C229.3 63.42 229.06 64.05 228.8 64.8C228.37 66.08 227.95 67.05 227.54 67.71C227.28 68.14 226.77 68.36 226.02 68.36C225.38 68.36 224.8 68.22 224.26 67.95C223.72 67.68 223.46 67.29 223.46 66.8C223.69 65.7 224.06 64.53 224.57 63.3C225.08 62.07 225.81 60.42 226.77 58.37L228.51 54.11C229.47 51.68 230.34 49.59 231.14 47.85C231.94 46.11 232.99 44.05 234.29 41.68C234.46 41.33 234.75 41.04 235.16 40.79C235.57 40.54 236.01 40.42 236.51 40.42C237.06 40.42 237.46 40.46 237.71 40.53C237.96 40.6 238.15 40.72 238.3 40.88C238.44 41.04 238.66 41.37 238.95 41.86C239.93 43.4 240.78 44.98 241.49 46.6C242.2 48.22 243.11 50.47 244.21 53.34L245.12 55.64C245.93 57.73 246.63 59.47 247.23 60.88C247.82 62.29 248.48 63.57 249.21 64.73C249.67 65.48 249.91 66.01 249.91 66.29C249.91 66.99 249.7 67.51 249.28 67.88C248.86 68.24 248.32 68.42 247.65 68.42C246.81 68.42 246.17 68.13 245.74 67.55C245.36 67.06 245.07 66.59 244.85 66.14L244.82 66.12ZM239.76 53.45C239.53 52.7 239.35 52.18 239.24 51.89C238.34 49.28 237.44 47.21 236.55 45.67C236 47.06 235.19 48.86 234.12 51.06C233.45 52.31 232.54 54.54 231.38 57.75C233.23 57.98 235.34 58.1 237.68 58.1C239.3 58.1 240.53 58 241.37 57.8C240.96 56.96 240.43 55.51 239.76 53.45Z"
        fill="#4A544A" />
    <path
        d="M253.8 40.98C254.58 40.98 256.07 41.01 258.28 41.07C260.71 41.19 262.55 41.24 263.8 41.24C264.81 41.24 266.05 41.18 267.49 41.07C268.47 41.01 269.1 40.98 269.36 40.98C270.95 41.04 272.3 41.33 273.4 41.85C273.72 42 273.98 42.17 274.18 42.37C274.38 42.57 274.48 42.91 274.48 43.37C274.48 44.01 274.28 44.55 273.87 45C273.46 45.45 272.97 45.67 272.39 45.67C271.75 45.67 270.83 45.58 269.61 45.41C268.54 45.21 267.6 45.11 266.78 45.11C265.96 45.11 265.4 45.13 265 45.15C264.91 46.11 264.87 48.4 264.87 52.02C264.87 56.34 265 60.71 265.26 65.15L265.35 66.41C265.35 67.6 264.67 68.19 263.31 68.19C262.24 68.19 261.51 67.94 261.14 67.43C260.76 66.92 260.58 66.15 260.58 65.1C260.58 63.04 260.52 60.48 260.41 57.41C260.29 54.86 260.24 53.05 260.24 51.98C260.24 51.26 260.33 49.04 260.5 45.33L255.41 45.37C253.79 45.37 252.66 45.22 252.02 44.91C251.38 44.61 251.06 43.92 251.06 42.85C251.06 41.6 251.97 40.98 253.8 40.98Z"
        fill="#4A544A" />
    <path
        d="M297.16 62.91C297.43 63.33 297.57 63.79 297.57 64.28C297.57 64.89 297.48 65.32 297.29 65.56C297.1 65.81 296.75 66.06 296.23 66.32C295.01 66.9 293.51 67.36 291.71 67.71C289.91 68.06 287.99 68.23 285.93 68.23C283.35 68.23 281.46 67.8 280.26 66.93C279.06 66.06 278.32 65.01 278.04 63.78C277.76 62.55 277.63 60.93 277.63 58.93C277.63 56.79 277.72 54.68 277.89 52.61C278.06 50.54 278.37 47.89 278.8 44.68C279 43.29 279.55 42.28 280.45 41.66C281.35 41.04 282.33 40.73 283.41 40.73C284.31 40.73 285.77 40.7 287.8 40.64L291.58 40.6C293.14 40.6 294.28 40.64 294.97 40.73C295.84 40.9 296.48 41.1 296.9 41.32C297.32 41.54 297.53 41.91 297.53 42.43C297.53 43.01 297.33 43.58 296.94 44.13C296.55 44.68 295.96 44.96 295.18 44.96C294.28 44.96 292.99 44.9 291.31 44.79C289.63 44.67 288.37 44.62 287.53 44.62C286.81 44.62 286.1 44.66 285.4 44.75C284.59 44.81 284.01 44.91 283.66 45.05C283.31 45.2 283.11 45.44 283.05 45.79C282.64 48.77 282.44 50.98 282.44 52.4C283.11 52.49 283.76 52.53 284.4 52.53C285.21 52.53 286.08 52.49 287.01 52.4C287.94 52.31 288.53 52.26 288.79 52.23C290.33 52.09 291.64 52.01 292.75 52.01C293.39 52.01 293.87 52.13 294.21 52.36C294.54 52.59 294.71 52.91 294.71 53.32C294.71 53.96 294.54 54.45 294.21 54.8C293.88 55.15 293.29 55.41 292.45 55.58C291.44 55.78 290.18 55.94 288.69 56.06C287.2 56.18 285.74 56.23 284.32 56.23C283.83 56.23 283.15 56.2 282.28 56.14C282.19 57.91 282.15 59.55 282.15 61.05C282.15 63.11 283.51 64.14 286.24 64.14C287.69 64.14 288.89 64.04 289.85 63.84C290.81 63.64 291.91 63.35 293.15 62.97C294.31 62.54 295.24 62.32 295.93 62.32C296.48 62.32 296.89 62.53 297.17 62.95L297.16 62.91Z"
        fill="#4A544A" />
    <path
        d="M296.729 109H80.2602C56.0381 109 45 80.7455 45 54.4947C45 40.4151 48.0384 27.258 53.5521 17.451C59.9795 6.03258 69.2115 0 80.2602 0H296.729C320.962 0 332 28.2546 332 54.4947C332 80.7349 320.962 108.989 296.74 108.989L296.729 109ZM80.2602 4.24083C58.9596 4.24083 49.2495 30.2901 49.2495 54.4947C49.2495 78.6993 58.9596 104.749 80.2602 104.749H296.729C318.04 104.749 327.74 78.6993 327.74 54.4947C327.74 30.2901 318.03 4.24083 296.729 4.24083H80.2602Z"
        fill="#4A544A" />
    <path
        d="M318.234 20.3027C314.58 13.7762 307.933 6 297.035 6H79.9648C69.0564 6 62.4197 13.7762 58.7658 20.3027C53.8336 29.1151 51 41.5806 51 54.4947C51 67.4088 53.8336 79.8743 58.7658 88.6866C62.4197 95.2131 69.0564 103 79.9648 103H297.035C307.933 103 314.58 95.2131 318.234 88.6866C323.166 79.8743 326 67.4088 326 54.4947C326 41.5806 323.166 29.1151 318.234 20.3027ZM316.839 87.9068C313.398 94.0595 307.166 101.387 297.035 101.387H79.9648C69.834 101.387 63.6022 94.0595 60.1613 87.9068C55.357 79.3188 52.5979 67.1417 52.5979 54.4947C52.5979 41.8476 55.357 29.6705 60.1613 21.0932C63.6022 14.9405 69.834 7.60225 79.9648 7.60225H297.035C307.166 7.60225 313.398 14.9405 316.839 21.0932C321.643 29.6705 324.402 41.8476 324.402 54.4947C324.402 60.8182 323.71 67.0242 322.421 72.7175C321.132 78.4215 319.246 83.6128 316.839 87.9068Z"
        fill="#4A544A" />
    <circle cx="69" cy="54" r="5" fill="#4A544A" />
    <circle cx="12" cy="46" r="5" fill="#A2A2A2" fill-opacity="0.39" />
    <circle cx="2" cy="40" r="5" fill="#A2A2A2" fill-opacity="0.39" />
    <circle cx="5" cy="5" r="5" transform="matrix(1 0 0 -1 62 55)" fill="#A2A2A2"
        fill-opacity="0.39" />
    <circle cx="5" cy="5" r="5" transform="matrix(1 0 0 -1 52 50)" fill="#A2A2A2"
        fill-opacity="0.39" />
    <circle cx="5" cy="5" r="5" transform="matrix(1 0 0 -1 41 45)" fill="#A2A2A2"
        fill-opacity="0.39" />
    <circle cx="5" cy="5" r="5" transform="matrix(1 0 0 -1 29 45)" fill="#A2A2A2"
        fill-opacity="0.39" />
    <circle cx="5" cy="5" r="5" transform="matrix(1 0 0 -1 19 51)" fill="#A2A2A2"
        fill-opacity="0.39" />
    <circle cx="12" cy="44" r="5" fill="#B0B4AE" />
    <circle cx="2" cy="38" r="5" fill="#B0B4AE" />
    <circle cx="5" cy="5" r="5" transform="matrix(1 0 0 -1 62 53)" fill="#B0B4AE" />
    <circle cx="5" cy="5" r="5" transform="matrix(1 0 0 -1 52 48)" fill="#B0B4AE" />
    <circle cx="5" cy="5" r="5" transform="matrix(1 0 0 -1 41 43)" fill="#B0B4AE" />
    <circle cx="5" cy="5" r="5" transform="matrix(1 0 0 -1 29 43)" fill="#B0B4AE" />
    <circle cx="5" cy="5" r="5" transform="matrix(1 0 0 -1 19 49)" fill="#B0B4AE" />
</svg>
    