<svg width="289" height="112" viewBox="0 0 289 112" fill="none" xmlns="http://www.w3.org/2000/svg">
    <path
        d="M253.729 112H37.2602C13.0381 112 2 83.7455 2 57.4947C2 43.4151 5.03839 30.258 10.5521 20.451C16.9795 9.03258 26.2115 3 37.2602 3H253.729C277.962 3 289 31.2546 289 57.4947C289 83.7349 277.962 111.989 253.74 111.989L253.729 112ZM37.2602 7.24083C15.9596 7.24083 6.24949 33.2901 6.24949 57.4947C6.24949 81.6993 15.9596 107.749 37.2602 107.749H253.729C275.04 107.749 284.74 81.6993 284.74 57.4947C284.74 33.2901 275.03 7.24083 253.729 7.24083H37.2602Z"
        fill="#A2A2A2" fill-opacity="0.39" />
    <path
        d="M74.1601 41.52C74.7501 42.06 75.0501 42.51 75.0501 42.89C75.0501 44.66 74.9901 47.08 74.8801 50.15C74.8501 50.9 74.8201 51.81 74.7901 52.87C74.7601 53.93 74.7501 55.15 74.7501 56.54C74.7501 60.95 75.0101 64.19 75.5301 66.28C75.5001 66.98 75.2301 67.48 74.7001 67.78C74.1801 68.08 73.6601 68.24 73.1401 68.24C71.9801 68.24 71.2201 67.83 70.8601 67.02C70.5001 66.21 70.3201 65.05 70.3201 63.54C70.3201 57.95 70.3801 52.8 70.4901 48.11C67.1601 51.82 64.5601 54.93 62.7101 57.46L61.9301 57.98C61.4401 58.41 61.0301 58.63 60.7101 58.63C59.9601 58.63 59.3301 58.44 58.8401 58.07C58.3501 57.69 57.8701 57.14 57.4101 56.42L55.3201 53.46C53.8701 51.43 52.8101 49.9 52.1501 48.85C52.1501 51.52 52.2801 55.14 52.5401 59.72C52.7401 62.36 52.8401 64.34 52.8401 65.68C52.8401 66.38 52.6701 66.96 52.3201 67.44C51.9701 67.92 51.4201 68.16 50.6701 68.16C49.9201 68.16 49.3001 68.02 48.8201 67.73C48.3401 67.44 48.0901 67.01 48.0601 66.43C48.0901 65.94 48.1001 65.13 48.1001 64C48.1001 61.74 48.0301 58.99 47.8801 55.74L47.7901 53.39L47.7001 50.35C47.6701 49.45 47.6401 48.4 47.6101 47.2C47.5801 46 47.5701 44.69 47.5701 43.27C47.5701 41.53 48.5101 40.66 50.4001 40.66C50.9801 40.66 51.5701 40.81 52.1601 41.09C52.7501 41.38 53.2001 41.8 53.4901 42.35C53.7201 43.36 54.5801 45.04 56.0501 47.39C57.5301 49.74 58.9801 51.94 60.4001 54C61.6701 52.38 62.7201 51.16 63.5301 50.35C64.9201 48.93 66.0701 47.61 66.9901 46.39C67.9001 45.17 68.9001 43.71 69.9701 42C70.2301 41.65 70.6101 41.36 71.1001 41.11C71.5901 40.86 72.1101 40.74 72.6601 40.74C73.0701 40.74 73.5701 41.01 74.1601 41.54V41.52Z"
        fill="#4A544A" />
    <path
        d="M88.6101 49.5401C88.6101 51.3101 88.7301 53.9001 88.9601 57.3201C88.9901 57.8401 89.0501 58.8901 89.1301 60.4701C89.2201 62.0501 89.2601 63.4901 89.2601 64.7901C89.5501 64.7601 89.8601 64.7201 90.1901 64.6601C90.5201 64.6001 90.7801 64.5701 90.9501 64.5701C91.5901 64.5701 92.0901 64.7301 92.4701 65.0501C92.8501 65.3701 93.0301 65.8601 93.0301 66.5301C93.0301 66.9601 92.8601 67.3001 92.5101 67.5301C92.1601 67.7601 91.5601 67.9301 90.7101 68.0301C89.8501 68.1301 88.6201 68.1801 86.9901 68.1801C85.1901 68.1801 83.8501 68.1201 82.9501 68.0101C82.0501 67.8901 81.4301 67.6701 81.0801 67.3401C80.7301 67.0101 80.5601 66.5101 80.5601 65.8401C80.5601 65.3501 80.7201 65.0101 81.0401 64.8401C81.3601 64.6701 81.8101 64.5801 82.3901 64.5801L83.3001 64.6201L84.7301 64.7101L84.5101 59.5801C84.3401 56.8001 84.2501 54.2501 84.2501 51.9301C84.2501 50.6801 84.2901 48.9701 84.3801 46.8001L84.4701 44.4101C83.4801 44.4701 82.7201 44.5001 82.1701 44.5001C81.5301 44.5001 81.1101 44.3801 80.8901 44.1501C80.6701 43.9201 80.5601 43.4401 80.5601 42.7201C80.5601 41.9101 81.1201 41.3901 82.2301 41.1601C83.3501 40.9301 85.0501 40.8101 87.3401 40.8101C89.1101 40.8101 90.4301 40.8701 91.3201 40.9801C92.2001 41.1001 92.6501 41.3601 92.6501 41.7601C92.6501 42.7501 92.4401 43.3901 92.0201 43.6901C91.6001 43.9901 90.8001 44.1501 89.6101 44.1501L88.7401 44.1901C88.6501 46.0401 88.6101 47.8301 88.6101 49.5401Z"
        fill="#4A544A" />
    <path
        d="M129.05 49.5401C129.05 51.3101 129.17 53.9001 129.4 57.3201C129.43 57.8401 129.49 58.8901 129.57 60.4701C129.66 62.0501 129.7 63.4901 129.7 64.7901C129.99 64.7601 130.3 64.7201 130.63 64.6601C130.96 64.6001 131.22 64.5701 131.39 64.5701C132.03 64.5701 132.53 64.7301 132.91 65.0501C133.29 65.3701 133.47 65.8601 133.47 66.5301C133.47 66.9601 133.3 67.3001 132.95 67.5301C132.6 67.7601 132 67.9301 131.15 68.0301C130.29 68.1301 129.06 68.1801 127.43 68.1801C125.63 68.1801 124.29 68.1201 123.39 68.0101C122.49 67.8901 121.87 67.6701 121.52 67.3401C121.17 67.0101 121 66.5101 121 65.8401C121 65.3501 121.16 65.0101 121.48 64.8401C121.8 64.6701 122.25 64.5801 122.83 64.5801L123.74 64.6201L125.17 64.7101L124.95 59.5801C124.78 56.8001 124.69 54.2501 124.69 51.9301C124.69 50.6801 124.73 48.9701 124.82 46.8001L124.91 44.4101C123.92 44.4701 123.16 44.5001 122.61 44.5001C121.97 44.5001 121.55 44.3801 121.33 44.1501C121.11 43.9201 121 43.4401 121 42.7201C121 41.9101 121.56 41.3901 122.67 41.1601C123.79 40.9301 125.49 40.8101 127.78 40.8101C129.55 40.8101 130.87 40.8701 131.76 40.9801C132.64 41.1001 133.09 41.3601 133.09 41.7601C133.09 42.7501 132.88 43.3901 132.46 43.6901C132.04 43.9901 131.24 44.1501 130.05 44.1501L129.18 44.1901C129.09 46.0401 129.05 47.8301 129.05 49.5401Z"
        fill="#4A544A" />
    <path
        d="M101.67 41.02C102.12 41.31 102.39 41.82 102.47 42.54C102.82 44.83 103.04 47.11 103.14 49.39C103.24 51.67 103.29 54.24 103.29 57.11C103.29 58.33 103.19 60.54 102.99 63.76C104.26 63.88 105.25 63.93 105.95 63.93C106.44 63.93 107.56 63.86 109.3 63.71C110.31 63.56 111.2 63.49 111.95 63.49C112.65 63.49 113.28 63.55 113.86 63.69C114.44 63.82 115.03 64.03 115.64 64.32C116.25 64.67 116.55 65.2 116.55 65.93C116.55 66.51 116.37 67.03 116.01 67.49C115.65 67.95 115.22 68.19 114.73 68.19C114.38 68.19 113.83 68.13 113.08 68.02C111.72 67.82 110.41 67.72 109.17 67.72C108.76 67.72 108.31 67.74 107.8 67.78C107.29 67.82 106.92 67.85 106.69 67.85C105.99 67.94 105.3 67.98 104.6 67.98C103.18 67.98 101.91 67.91 100.77 67.76C100.19 67.7 99.6101 67.48 99.0301 67.09C98.4501 66.7 98.1601 66.13 98.1601 65.37C98.1601 64.93 98.2201 63.82 98.3301 62.02C98.5301 59.04 98.6301 56.76 98.6301 55.2C98.6301 53.98 98.5701 52.71 98.4601 51.37C98.3401 50.04 98.2701 49.2 98.2401 48.85C97.9801 46.39 97.8501 44.36 97.8501 42.76C97.8501 42.01 98.0301 41.46 98.3901 41.11C98.7501 40.76 99.3401 40.59 100.15 40.59C100.7 40.59 101.2 40.74 101.65 41.02H101.67Z"
        fill="#4A544A" />
    <path
        d="M173.44 41.52C174.03 42.06 174.33 42.51 174.33 42.89C174.33 44.66 174.27 47.08 174.16 50.15C174.13 50.9 174.1 51.81 174.07 52.87C174.04 53.93 174.03 55.15 174.03 56.54C174.03 58.86 174.07 60.81 174.14 62.39C174.21 63.97 174.38 65.27 174.64 66.28C174.61 66.98 174.34 67.48 173.81 67.78C173.29 68.08 172.75 68.24 172.2 68.24C171.07 68.24 170.35 67.85 170.05 67.07C169.75 66.29 169.59 65.11 169.59 63.55C169.59 57.17 169.66 52.03 169.81 48.12C169.14 48.84 168.51 49.67 167.9 50.6C167.29 51.53 166.54 52.75 165.64 54.25C164.48 56.19 163.54 57.67 162.81 58.68C162.43 59.14 162.1 59.46 161.81 59.64C161.52 59.81 161.09 59.9 160.51 59.9C159.78 59.9 159.23 59.73 158.84 59.38C158.45 59.03 157.99 58.47 157.47 57.69C156.72 56.56 155.53 54.6 153.91 51.82L151.61 48.04C151.61 52.79 151.7 56.69 151.87 59.73C152.01 61.61 152.09 63.6 152.09 65.69C152.09 66.39 151.91 66.97 151.55 67.45C151.19 67.93 150.64 68.17 149.92 68.17C149.14 68.17 148.52 68.03 148.07 67.74C147.62 67.45 147.38 67.02 147.35 66.44C147.38 65.95 147.39 65.14 147.39 64.01C147.39 60.21 147.33 56.68 147.22 53.4L147.13 50.36C147.1 49.46 147.07 48.41 147.04 47.21C147.01 46.01 147 44.7 147 43.28C147 41.54 147.94 40.67 149.83 40.67C150.41 40.67 151 40.82 151.59 41.1C152.18 41.39 152.63 41.81 152.92 42.36C153.41 43.4 154.57 45.4 156.4 48.34C158.23 51.28 159.59 53.42 160.49 54.75C161.1 53.97 161.66 53.16 162.16 52.32C162.67 51.48 163.09 50.76 163.44 50.15C164.51 48.41 165.67 46.77 166.92 45.24C167.88 44.08 168.66 43.01 169.27 42.02C169.56 41.67 169.94 41.38 170.42 41.13C170.9 40.88 171.41 40.76 171.96 40.76C172.37 40.76 172.87 41.03 173.46 41.56L173.44 41.52Z"
        fill="#4A544A" />
    <path
        d="M199.82 66.12C199.6 65.67 199.33 65.04 199.02 64.23C198.5 62.93 198.03 61.97 197.63 61.36C195.86 61.62 194.33 61.75 193.02 61.75C192.38 61.75 191.67 61.74 190.87 61.71C190.07 61.68 189.46 61.65 189.02 61.62C187.51 61.5 186.31 61.45 185.41 61.45C185.03 61.91 184.74 62.4 184.52 62.91C184.3 63.42 184.06 64.05 183.8 64.8C183.37 66.08 182.95 67.05 182.54 67.71C182.28 68.14 181.77 68.36 181.02 68.36C180.38 68.36 179.8 68.22 179.26 67.95C178.72 67.68 178.46 67.29 178.46 66.8C178.69 65.7 179.06 64.53 179.57 63.3C180.08 62.07 180.81 60.42 181.77 58.37L183.51 54.11C184.47 51.68 185.34 49.59 186.14 47.85C186.94 46.11 187.99 44.05 189.29 41.68C189.46 41.33 189.75 41.04 190.16 40.79C190.57 40.54 191.01 40.42 191.51 40.42C192.06 40.42 192.46 40.46 192.71 40.53C192.96 40.6 193.15 40.72 193.3 40.88C193.44 41.04 193.66 41.37 193.95 41.86C194.93 43.4 195.78 44.98 196.49 46.6C197.2 48.22 198.11 50.47 199.21 53.34L200.12 55.64C200.93 57.73 201.63 59.47 202.23 60.88C202.82 62.29 203.48 63.57 204.21 64.73C204.67 65.48 204.91 66.01 204.91 66.29C204.91 66.99 204.7 67.51 204.28 67.88C203.86 68.24 203.32 68.42 202.65 68.42C201.81 68.42 201.17 68.13 200.74 67.55C200.36 67.06 200.07 66.59 199.85 66.14L199.82 66.12ZM194.76 53.45C194.53 52.7 194.35 52.18 194.24 51.89C193.34 49.28 192.44 47.21 191.55 45.67C191 47.06 190.19 48.86 189.12 51.06C188.45 52.31 187.54 54.54 186.38 57.75C188.23 57.98 190.34 58.1 192.68 58.1C194.3 58.1 195.53 58 196.37 57.8C195.96 56.96 195.43 55.51 194.76 53.45Z"
        fill="#4A544A" />
    <path
        d="M208.8 40.98C209.58 40.98 211.07 41.01 213.28 41.07C215.71 41.19 217.55 41.24 218.8 41.24C219.81 41.24 221.05 41.18 222.49 41.07C223.47 41.01 224.1 40.98 224.36 40.98C225.95 41.04 227.3 41.33 228.4 41.85C228.72 42 228.98 42.17 229.18 42.37C229.38 42.57 229.48 42.91 229.48 43.37C229.48 44.01 229.28 44.55 228.87 45C228.46 45.45 227.97 45.67 227.39 45.67C226.75 45.67 225.83 45.58 224.61 45.41C223.54 45.21 222.6 45.11 221.78 45.11C220.96 45.11 220.4 45.13 220 45.15C219.91 46.11 219.87 48.4 219.87 52.02C219.87 56.34 220 60.71 220.26 65.15L220.35 66.41C220.35 67.6 219.67 68.19 218.31 68.19C217.24 68.19 216.51 67.94 216.14 67.43C215.76 66.92 215.58 66.15 215.58 65.1C215.58 63.04 215.52 60.48 215.41 57.41C215.29 54.86 215.24 53.05 215.24 51.98C215.24 51.26 215.33 49.04 215.5 45.33L210.41 45.37C208.79 45.37 207.66 45.22 207.02 44.91C206.38 44.61 206.06 43.92 206.06 42.85C206.06 41.6 206.97 40.98 208.8 40.98Z"
        fill="#4A544A" />
    <path
        d="M252.16 62.91C252.43 63.33 252.57 63.79 252.57 64.28C252.57 64.89 252.48 65.32 252.29 65.56C252.1 65.81 251.75 66.06 251.23 66.32C250.01 66.9 248.51 67.36 246.71 67.71C244.91 68.06 242.99 68.23 240.93 68.23C238.35 68.23 236.46 67.8 235.26 66.93C234.06 66.06 233.32 65.01 233.04 63.78C232.76 62.55 232.63 60.93 232.63 58.93C232.63 56.79 232.72 54.68 232.89 52.61C233.06 50.54 233.37 47.89 233.8 44.68C234 43.29 234.55 42.28 235.45 41.66C236.35 41.04 237.33 40.73 238.41 40.73C239.31 40.73 240.77 40.7 242.8 40.64L246.58 40.6C248.14 40.6 249.28 40.64 249.97 40.73C250.84 40.9 251.48 41.1 251.9 41.32C252.32 41.54 252.53 41.91 252.53 42.43C252.53 43.01 252.33 43.58 251.94 44.13C251.55 44.68 250.96 44.96 250.18 44.96C249.28 44.96 247.99 44.9 246.31 44.79C244.63 44.67 243.37 44.62 242.53 44.62C241.81 44.62 241.1 44.66 240.4 44.75C239.59 44.81 239.01 44.91 238.66 45.05C238.31 45.2 238.11 45.44 238.05 45.79C237.64 48.77 237.44 50.98 237.44 52.4C238.11 52.49 238.76 52.53 239.4 52.53C240.21 52.53 241.08 52.49 242.01 52.4C242.94 52.31 243.53 52.26 243.79 52.23C245.33 52.09 246.64 52.01 247.75 52.01C248.39 52.01 248.87 52.13 249.21 52.36C249.54 52.59 249.71 52.91 249.71 53.32C249.71 53.96 249.54 54.45 249.21 54.8C248.88 55.15 248.29 55.41 247.45 55.58C246.44 55.78 245.18 55.94 243.69 56.06C242.2 56.18 240.74 56.23 239.32 56.23C238.83 56.23 238.15 56.2 237.28 56.14C237.19 57.91 237.15 59.55 237.15 61.05C237.15 63.11 238.51 64.14 241.24 64.14C242.69 64.14 243.89 64.04 244.85 63.84C245.81 63.64 246.91 63.35 248.15 62.97C249.31 62.54 250.24 62.32 250.93 62.32C251.48 62.32 251.89 62.53 252.17 62.95L252.16 62.91Z"
        fill="#4A544A" />
    <path
        d="M251.729 109H35.2602C11.0381 109 0 80.7455 0 54.4947C0 40.4151 3.03839 27.258 8.5521 17.451C14.9795 6.03258 24.2115 0 35.2602 0H251.729C275.962 0 287 28.2546 287 54.4947C287 80.7349 275.962 108.989 251.74 108.989L251.729 109ZM35.2602 4.24083C13.9596 4.24083 4.24949 30.2901 4.24949 54.4947C4.24949 78.6993 13.9596 104.749 35.2602 104.749H251.729C273.04 104.749 282.74 78.6993 282.74 54.4947C282.74 30.2901 273.03 4.24083 251.729 4.24083H35.2602Z"
        fill="#4A544A" />
    <path
        d="M273.234 20.3027C269.58 13.7762 262.933 6 252.035 6H34.9648C24.0564 6 17.4197 13.7762 13.7658 20.3027C8.83362 29.1151 6 41.5806 6 54.4947C6 67.4088 8.83362 79.8743 13.7658 88.6866C17.4197 95.2131 24.0564 103 34.9648 103H252.035C262.933 103 269.58 95.2131 273.234 88.6866C278.166 79.8743 281 67.4088 281 54.4947C281 41.5806 278.166 29.1151 273.234 20.3027ZM271.839 87.9068C268.398 94.0595 262.166 101.387 252.035 101.387H34.9648C24.834 101.387 18.6022 94.0595 15.1613 87.9068C10.357 79.3188 7.59791 67.1417 7.59791 54.4947C7.59791 41.8476 10.357 29.6705 15.1613 21.0932C18.6022 14.9405 24.834 7.60225 34.9648 7.60225H252.035C262.166 7.60225 268.398 14.9405 271.839 21.0932C276.643 29.6705 279.402 41.8476 279.402 54.4947C279.402 60.8182 278.71 67.0242 277.421 72.7175C276.132 78.4215 274.246 83.6128 271.839 87.9068Z"
        fill="#4A544A" />
</svg>
    