<svg width="117" height="16" viewBox="0 0 117 16" fill="none" xmlns="http://www.w3.org/2000/svg">
<path d="M15.1758 0.628697C15.5125 0.937268 15.6837 1.19441 15.6837 1.41155C15.6837 2.42298 15.6495 3.80584 15.5867 5.56013C15.5696 5.9887 15.5525 6.5087 15.5353 7.11441C15.5182 7.72013 15.5125 8.41727 15.5125 9.21155C15.5125 11.7316 15.6609 13.583 15.9577 14.7773C15.9406 15.1773 15.7865 15.463 15.484 15.6344C15.1872 15.8058 14.8904 15.8973 14.5936 15.8973C13.9316 15.8973 13.4978 15.663 13.2924 15.2001C13.0869 14.7373 12.9842 14.0744 12.9842 13.2116C12.9842 10.0173 13.0184 7.07441 13.0812 4.39441C11.1807 6.51441 9.69675 8.29155 8.6409 9.73727L8.19572 10.0344C7.91607 10.2801 7.68206 10.4058 7.49943 10.4058C7.07138 10.4058 6.71182 10.2973 6.43216 10.0858C6.1525 9.8687 5.87855 9.55441 5.61601 9.14298L4.42318 7.45155C3.59562 6.29155 2.99064 5.41727 2.61396 4.81727C2.61396 6.34298 2.68815 8.41156 2.83654 11.0287C2.95069 12.5373 3.00776 13.6687 3.00776 14.4344C3.00776 14.8344 2.91074 15.1658 2.71098 15.4401C2.51122 15.7144 2.19732 15.8516 1.76927 15.8516C1.34122 15.8516 0.987368 15.7716 0.713416 15.6058C0.439464 15.4401 0.296782 15.1944 0.27966 14.863C0.296782 14.583 0.302488 14.1201 0.302488 13.4744C0.302488 12.183 0.262538 10.6116 0.176928 8.75441L0.125562 7.41155L0.0741959 5.67441C0.0570739 5.16012 0.0399518 4.56013 0.0228298 3.87441C0.00570785 3.1887 0 2.44013 0 1.6287C0 0.634411 0.53649 0.137268 1.61518 0.137268C1.9462 0.137268 2.28293 0.222983 2.61966 0.382983C2.9564 0.548697 3.21323 0.788696 3.37874 1.10298C3.51001 1.68012 4.00084 2.64013 4.83981 3.98298C5.6845 5.32584 6.51206 6.58298 7.3225 7.76013C8.04733 6.83441 8.6466 6.13727 9.1089 5.67441C9.90222 4.86298 10.5586 4.1087 11.0836 3.41155C11.603 2.71441 12.1737 1.88013 12.7844 0.902982C12.9328 0.702982 13.1497 0.537269 13.4293 0.394411C13.709 0.251554 14.0058 0.182983 14.3197 0.182983C14.5537 0.182983 14.8391 0.337269 15.1758 0.640126V0.628697Z" fill="#4A544A"/>
<path d="M23.4225 5.21147C23.4225 6.2229 23.491 7.7029 23.6223 9.65719C23.6394 9.95433 23.6736 10.5543 23.7193 11.4572C23.7707 12.36 23.7935 13.1829 23.7935 13.9258C23.959 13.9086 24.1359 13.8858 24.3243 13.8515C24.5126 13.8172 24.661 13.8 24.758 13.8C25.1233 13.8 25.4087 13.8915 25.6256 14.0743C25.8424 14.2572 25.9452 14.5372 25.9452 14.92C25.9452 15.1658 25.8481 15.36 25.6484 15.4915C25.4486 15.6229 25.1062 15.72 24.6211 15.7772C24.1302 15.8343 23.4282 15.8629 22.4979 15.8629C21.4706 15.8629 20.7058 15.8286 20.1922 15.7658C19.6785 15.6972 19.3247 15.5715 19.1249 15.3829C18.9252 15.1943 18.8281 14.9086 18.8281 14.5258C18.8281 14.2458 18.9194 14.0515 19.1021 13.9543C19.2847 13.8572 19.5415 13.8058 19.8726 13.8058L20.3919 13.8286L21.2081 13.88L21.0825 10.9486C20.9855 9.36004 20.9341 7.9029 20.9341 6.57719C20.9341 5.8629 20.957 4.88576 21.0083 3.64576L21.0597 2.28004C20.4947 2.31433 20.0609 2.33147 19.747 2.33147C19.3817 2.33147 19.142 2.2629 19.0165 2.13147C18.8909 2.00004 18.8281 1.72576 18.8281 1.31433C18.8281 0.851472 19.1477 0.554328 19.7813 0.4229C20.4205 0.291471 21.3907 0.2229 22.6977 0.2229C23.7079 0.2229 24.4613 0.257185 24.9692 0.320042C25.4715 0.388614 25.7283 0.537184 25.7283 0.765756C25.7283 1.33147 25.6084 1.69718 25.3687 1.86861C25.129 2.04004 24.6724 2.13147 23.9933 2.13147L23.4967 2.15433C23.4454 3.21147 23.4225 4.23433 23.4225 5.21147Z" fill="#4A544A"/>
<path d="M46.5033 5.21147C46.5033 6.2229 46.5718 7.7029 46.703 9.65719C46.7202 9.95433 46.7544 10.5543 46.8001 11.4572C46.8514 12.36 46.8743 13.1829 46.8743 13.9258C47.0398 13.9086 47.2167 13.8858 47.405 13.8515C47.5934 13.8172 47.7418 13.8 47.8388 13.8C48.2041 13.8 48.4894 13.8915 48.7063 14.0743C48.9232 14.2572 49.0259 14.5372 49.0259 14.92C49.0259 15.1658 48.9289 15.36 48.7291 15.4915C48.5294 15.6229 48.1869 15.72 47.7018 15.7772C47.211 15.8343 46.509 15.8629 45.5787 15.8629C44.5514 15.8629 43.7866 15.8286 43.2729 15.7658C42.7593 15.6972 42.4054 15.5715 42.2057 15.3829C42.0059 15.1943 41.9089 14.9086 41.9089 14.5258C41.9089 14.2458 42.0002 14.0515 42.1828 13.9543C42.3655 13.8572 42.6223 13.8058 42.9533 13.8058L43.4727 13.8286L44.2888 13.88L44.1633 10.9486C44.0662 9.36004 44.0149 7.9029 44.0149 6.57719C44.0149 5.8629 44.0377 4.88576 44.0891 3.64576L44.1404 2.28004C43.5754 2.31433 43.1417 2.33147 42.8278 2.33147C42.4625 2.33147 42.2228 2.2629 42.0972 2.13147C41.9717 2.00004 41.9089 1.72576 41.9089 1.31433C41.9089 0.851472 42.2285 0.554328 42.862 0.4229C43.5012 0.291471 44.4715 0.2229 45.7784 0.2229C46.7886 0.2229 47.542 0.257185 48.05 0.320042C48.5522 0.388614 48.809 0.537184 48.809 0.765756C48.809 1.33147 48.6892 1.69718 48.4495 1.86861C48.2098 2.04004 47.7532 2.13147 47.074 2.13147L46.5775 2.15433C46.5261 3.21147 46.5033 4.23433 46.5033 5.21147Z" fill="#4A544A"/>
<path d="M30.8767 0.34276C31.1335 0.508475 31.2876 0.799904 31.3333 1.21133C31.533 2.5199 31.6586 3.82276 31.7157 5.12562C31.7727 6.42847 31.8013 7.89705 31.8013 9.53705C31.8013 10.2342 31.7442 11.497 31.63 13.337C32.3549 13.4056 32.9199 13.4342 33.3194 13.4342C33.5991 13.4342 34.2383 13.3942 35.2314 13.3085C35.8078 13.2228 36.3158 13.1828 36.7438 13.1828C37.1433 13.1828 37.5029 13.217 37.8339 13.297C38.1649 13.3713 38.5017 13.4913 38.8498 13.657C39.198 13.857 39.3692 14.1599 39.3692 14.577C39.3692 14.9085 39.2664 15.2056 39.061 15.4685C38.8555 15.7313 38.6101 15.8685 38.3304 15.8685C38.1307 15.8685 37.8168 15.8342 37.3887 15.7713C36.6125 15.657 35.8649 15.5999 35.1572 15.5999C34.9232 15.5999 34.6663 15.6113 34.3753 15.6342C34.0842 15.657 33.873 15.6742 33.7418 15.6742C33.3422 15.7256 32.9484 15.7485 32.5489 15.7485C31.7385 15.7485 31.0136 15.7085 30.363 15.6228C30.032 15.5885 29.701 15.4628 29.3699 15.2399C29.0389 15.017 28.8734 14.6913 28.8734 14.257C28.8734 14.0056 28.9076 13.3713 28.9704 12.3428C29.0846 10.6399 29.1416 9.33705 29.1416 8.44562C29.1416 7.74848 29.1074 7.02276 29.0446 6.25705C28.9761 5.49705 28.9362 5.01705 28.9191 4.81705C28.7707 3.41133 28.6965 2.25133 28.6965 1.33704C28.6965 0.908473 28.7992 0.594189 29.0047 0.394189C29.2101 0.194189 29.5469 0.0970459 30.0092 0.0970459C30.3231 0.0970459 30.6084 0.18276 30.8653 0.34276H30.8767Z" fill="#4A544A"/>
<path d="M71.8379 0.628538C72.1747 0.937109 72.3459 1.19425 72.3459 1.41139C72.3459 2.42282 72.3116 3.80568 72.2488 5.55997C72.2317 5.98854 72.2146 6.50854 72.1975 7.11425C72.1804 7.71997 72.1747 8.41711 72.1747 9.2114C72.1747 10.5371 72.1975 11.6514 72.2374 12.5543C72.2774 13.4571 72.3744 14.2 72.5228 14.7771C72.5057 15.1771 72.3516 15.4628 72.0491 15.6343C71.7523 15.8057 71.4441 15.8971 71.1302 15.8971C70.4853 15.8971 70.0744 15.6743 69.9031 15.2285C69.7319 14.7828 69.6406 14.1085 69.6406 13.2171C69.6406 9.57139 69.6805 6.63425 69.7662 4.39997C69.3838 4.81139 69.0242 5.28568 68.6761 5.81711C68.3279 6.34854 67.8999 7.04568 67.3862 7.90282C66.7242 9.0114 66.1877 9.85711 65.771 10.4343C65.5541 10.6971 65.3658 10.88 65.2003 10.9828C65.0348 11.08 64.7894 11.1314 64.4583 11.1314C64.0417 11.1314 63.7278 11.0343 63.5052 10.8343C63.2826 10.6343 63.0201 10.3143 62.7233 9.86854C62.2953 9.22282 61.6161 8.10282 60.6915 6.51425L59.3788 4.35425C59.3788 7.06854 59.4302 9.29711 59.5272 11.0343C59.6071 12.1085 59.6528 13.2457 59.6528 14.44C59.6528 14.84 59.55 15.1714 59.3446 15.4457C59.1391 15.72 58.8252 15.8571 58.4143 15.8571C57.9691 15.8571 57.6153 15.7771 57.3584 15.6114C57.1016 15.4457 56.9646 15.2 56.9475 14.8685C56.9646 14.5885 56.9703 14.1257 56.9703 13.48C56.9703 11.3085 56.9361 9.2914 56.8733 7.41711L56.8219 5.67997C56.8048 5.16568 56.7877 4.56568 56.7706 3.87997C56.7534 3.19425 56.7477 2.44568 56.7477 1.63425C56.7477 0.639965 57.2842 0.142822 58.3629 0.142822C58.6939 0.142822 59.0307 0.228537 59.3674 0.388537C59.7041 0.554251 59.961 0.794252 60.1265 1.10854C60.4061 1.70282 61.0682 2.84568 62.1126 4.52568C63.1571 6.20568 63.9333 7.42854 64.4469 8.18854C64.7951 7.74282 65.1147 7.27997 65.4001 6.79997C65.6911 6.31997 65.9308 5.90854 66.1306 5.55997C66.7413 4.56568 67.4033 3.62854 68.1167 2.75425C68.6646 2.0914 69.1098 1.47997 69.458 0.914252C69.6235 0.714252 69.8404 0.548538 70.1143 0.405681C70.3883 0.262824 70.6793 0.194251 70.9932 0.194251C71.2272 0.194251 71.5126 0.348538 71.8493 0.651396L71.8379 0.628538Z" fill="#4A544A"/>
<path d="M86.8937 14.6857C86.7682 14.4286 86.6141 14.0686 86.4371 13.6057C86.1404 12.8629 85.8721 12.3143 85.6438 11.9657C84.6336 12.1143 83.7604 12.1886 83.0128 12.1886C82.6475 12.1886 82.2423 12.1829 81.7857 12.1657C81.3291 12.1486 80.9809 12.1314 80.7298 12.1143C79.868 12.0457 79.1831 12.0171 78.6695 12.0171C78.4526 12.28 78.2871 12.56 78.1615 12.8514C78.036 13.1429 77.899 13.5029 77.7506 13.9314C77.5052 14.6629 77.2655 15.2171 77.0315 15.5943C76.8831 15.84 76.592 15.9657 76.164 15.9657C75.7987 15.9657 75.4677 15.8857 75.1595 15.7314C74.8513 15.5771 74.7029 15.3543 74.7029 15.0743C74.8341 14.4457 75.0453 13.7771 75.3364 13.0743C75.6275 12.3714 76.0441 11.4286 76.592 10.2571L77.5851 7.82286C78.133 6.43429 78.6295 5.24 79.0861 4.24571C79.5427 3.25143 80.142 2.07429 80.8839 0.720001C80.9809 0.520001 81.1465 0.354287 81.3805 0.21143C81.6145 0.068573 81.8656 0 82.1509 0C82.4648 0 82.6931 0.0228575 82.8358 0.0628575C82.9785 0.102857 83.0869 0.17143 83.1726 0.262859C83.2525 0.354287 83.378 0.542859 83.5435 0.822859C84.1028 1.70286 84.588 2.60571 84.9932 3.53143C85.3984 4.45714 85.9178 5.74286 86.5456 7.38286L87.0649 8.69714C87.5272 9.89143 87.9268 10.8857 88.2692 11.6914C88.6059 12.4971 88.9826 13.2286 89.3993 13.8914C89.6618 14.32 89.7988 14.6229 89.7988 14.7829C89.7988 15.1829 89.6789 15.48 89.4392 15.6914C89.1995 15.8971 88.8913 16 88.5089 16C88.0295 16 87.6642 15.8343 87.4188 15.5029C87.2019 15.2229 87.0364 14.9543 86.9109 14.6971L86.8937 14.6857ZM84.0058 7.44572C83.8746 7.01714 83.7718 6.72 83.709 6.55429C83.1954 5.06286 82.6817 3.88 82.1738 3C81.8599 3.79429 81.3976 4.82286 80.7869 6.08C80.4045 6.79429 79.8851 8.06857 79.2231 9.90286C80.2789 10.0343 81.4832 10.1029 82.8187 10.1029C83.7433 10.1029 84.4453 10.0457 84.9247 9.93143C84.6907 9.45143 84.3882 8.62286 84.0058 7.44572Z" fill="#4A544A"/>
<path d="M92.019 0.320068C92.4642 0.320068 93.3146 0.337211 94.5759 0.371497C95.9628 0.440068 97.0129 0.468641 97.7263 0.468641C98.3028 0.468641 99.0105 0.434354 99.8323 0.371497C100.392 0.337211 100.751 0.320068 100.9 0.320068C101.807 0.354354 102.578 0.520068 103.205 0.817211C103.388 0.902925 103.536 1.00007 103.651 1.11435C103.765 1.22864 103.822 1.42293 103.822 1.68578C103.822 2.0515 103.708 2.36007 103.474 2.61721C103.24 2.87435 102.96 3.00007 102.629 3.00007C102.264 3.00007 101.739 2.94864 101.042 2.8515C100.432 2.73721 99.8951 2.68007 99.4271 2.68007C98.9591 2.68007 98.6395 2.6915 98.4112 2.70293C98.3599 3.2515 98.337 4.56007 98.337 6.62864C98.337 9.09721 98.4112 11.5944 98.5596 14.1315L98.611 14.8515C98.611 15.5315 98.2229 15.8686 97.4467 15.8686C96.836 15.8686 96.4194 15.7258 96.2082 15.4344C95.9913 15.1429 95.8886 14.7029 95.8886 14.1029C95.8886 12.9258 95.8543 11.4629 95.7916 9.70864C95.7231 8.2515 95.6945 7.21721 95.6945 6.60578C95.6945 6.19435 95.7459 4.92578 95.8429 2.80578L92.9379 2.82864C92.0133 2.82864 91.3684 2.74293 91.0031 2.56578C90.6378 2.39435 90.4552 2.00007 90.4552 1.38864C90.4552 0.674353 90.9746 0.320068 92.019 0.320068Z" fill="#4A544A"/>
<path d="M116.766 12.8515C116.92 13.0915 117 13.3543 117 13.6343C117 13.9829 116.949 14.2286 116.84 14.3658C116.732 14.5086 116.532 14.6515 116.235 14.8C115.539 15.1315 114.683 15.3943 113.656 15.5943C112.628 15.7943 111.533 15.8915 110.357 15.8915C108.884 15.8915 107.806 15.6458 107.121 15.1486C106.436 14.6515 106.014 14.0515 105.854 13.3486C105.694 12.6458 105.62 11.72 105.62 10.5772C105.62 9.35433 105.671 8.14862 105.768 6.96576C105.865 5.78291 106.042 4.26862 106.288 2.43433C106.402 1.64005 106.716 1.06291 107.229 0.70862C107.743 0.354335 108.302 0.177192 108.919 0.177192C109.432 0.177192 110.266 0.160049 111.424 0.125763L113.582 0.102905C114.472 0.102905 115.123 0.125763 115.516 0.177192C116.013 0.274334 116.378 0.38862 116.618 0.514335C116.858 0.640049 116.977 0.851478 116.977 1.14862C116.977 1.48005 116.863 1.80576 116.641 2.12005C116.418 2.43434 116.081 2.59433 115.636 2.59433C115.123 2.59433 114.386 2.56005 113.427 2.49719C112.469 2.42862 111.749 2.40005 111.27 2.40005C110.859 2.40005 110.454 2.42291 110.054 2.47433C109.592 2.50862 109.261 2.56576 109.061 2.64576C108.862 2.73148 108.747 2.86862 108.713 3.06862C108.479 4.77148 108.365 6.03434 108.365 6.84576C108.747 6.89719 109.118 6.92005 109.484 6.92005C109.946 6.92005 110.442 6.89719 110.973 6.84576C111.504 6.79434 111.841 6.76576 111.989 6.74862C112.868 6.66862 113.616 6.62291 114.249 6.62291C114.615 6.62291 114.889 6.69148 115.083 6.82291C115.271 6.95434 115.368 7.13719 115.368 7.37148C115.368 7.73719 115.271 8.01719 115.083 8.21719C114.894 8.41719 114.557 8.56576 114.078 8.66291C113.502 8.77719 112.783 8.86862 111.932 8.93719C111.082 9.00576 110.248 9.03434 109.438 9.03434C109.158 9.03434 108.77 9.01719 108.274 8.98291C108.222 9.99434 108.2 10.9315 108.2 11.7886C108.2 12.9658 108.976 13.5543 110.534 13.5543C111.361 13.5543 112.046 13.4972 112.594 13.3829C113.142 13.2686 113.77 13.1029 114.478 12.8858C115.14 12.64 115.67 12.5143 116.064 12.5143C116.378 12.5143 116.612 12.6343 116.772 12.8743L116.766 12.8515Z" fill="#4A544A"/>
</svg>
