<svg width="47" height="63" viewBox="0 0 47 63" fill="none" xmlns="http://www.w3.org/2000/svg">
    <ellipse cx="12" cy="44.411" rx="5.9375" ry="5.90865" fill="#A2A2A2" fill-opacity="0.38" />
    <ellipse cx="0.125" cy="50.3197" rx="5.9375" ry="5.90865" fill="#A2A2A2" fill-opacity="0.38" />
    <ellipse cx="12" cy="42.0476" rx="5.9375" ry="5.90865" fill="#B0B4AE" />
    <ellipse cx="0.125" cy="47.9562" rx="5.9375" ry="5.90865" fill="#B0B4AE" />
    <ellipse cx="40.5" cy="25.5034" rx="5.9375" ry="5.90865" fill="#4A544A" />
    <ellipse cx="5.9375" cy="5.90865" rx="5.9375" ry="5.90865"
        transform="matrix(1 0 0 -1 32.1875 26.6851)" fill="#A2A2A2" fill-opacity="0.39" />
    <ellipse cx="5.9375" cy="5.90865" rx="5.9375" ry="5.90865"
        transform="matrix(1 0 0 -1 20.3125 20.7764)" fill="#A2A2A2" fill-opacity="0.39" />
    <ellipse cx="5.9375" cy="5.90865" rx="5.9375" ry="5.90865"
        transform="matrix(1 0 0 -1 7.25 14.8678)" fill="#A2A2A2" fill-opacity="0.39" />
    <ellipse cx="5.9375" cy="5.90865" rx="5.9375" ry="5.90865"
        transform="matrix(1 0 0 -1 -7 14.8678)" fill="#A2A2A2" fill-opacity="0.39" />
    <ellipse cx="5.9375" cy="5.90865" rx="5.9375" ry="5.90865"
        transform="matrix(1 0 0 -1 32.1875 24.3216)" fill="#B0B4AE" />
    <ellipse cx="5.9375" cy="5.90865" rx="5.9375" ry="5.90865"
        transform="matrix(1 0 0 -1 20.3125 18.413)" fill="#B0B4AE" />
    <ellipse cx="5.9375" cy="5.90865" rx="5.9375" ry="5.90865"
        transform="matrix(1 0 0 -1 7.25 12.5043)" fill="#B0B4AE" />
    <ellipse cx="5.9375" cy="5.90865" rx="5.9375" ry="5.90865"
        transform="matrix(1 0 0 -1 -7 12.5043)" fill="#B0B4AE" />
</svg>
    