<svg width="74" height="52" viewBox="0 0 74 52" fill="none" xmlns="http://www.w3.org/2000/svg">
    <circle cx="45" cy="37" r="5" fill="#A2A2A2" fill-opacity="0.38" />
    <circle cx="35" cy="42" r="5" fill="#A2A2A2" fill-opacity="0.38" />
    <circle cx="24" cy="47" r="5" fill="#A2A2A2" fill-opacity="0.38" />
    <circle cx="12" cy="47" r="5" fill="#A2A2A2" fill-opacity="0.38" />
    <circle cx="2" cy="41" r="5" fill="#A2A2A2" fill-opacity="0.38" />
    <circle cx="45" cy="35" r="5" fill="#B0B4AE" />
    <circle cx="35" cy="40" r="5" fill="#B0B4AE" />
    <circle cx="24" cy="45" r="5" fill="#B0B4AE" />
    <circle cx="12" cy="45" r="5" fill="#B0B4AE" />
    <circle cx="2" cy="39" r="5" fill="#B0B4AE" />
    <circle cx="69" cy="21" r="5" fill="#4A544A" />
    <circle cx="12" cy="13" r="5" fill="#A2A2A2" fill-opacity="0.39" />
    <circle cx="2" cy="7" r="5" fill="#A2A2A2" fill-opacity="0.39" />
    <circle cx="5" cy="5" r="5" transform="matrix(1 0 0 -1 62 22)" fill="#A2A2A2"
        fill-opacity="0.39" />
    <circle cx="5" cy="5" r="5" transform="matrix(1 0 0 -1 52 17)" fill="#A2A2A2"
        fill-opacity="0.39" />
    <circle cx="5" cy="5" r="5" transform="matrix(1 0 0 -1 41 12)" fill="#A2A2A2"
        fill-opacity="0.39" />
    <circle cx="5" cy="5" r="5" transform="matrix(1 0 0 -1 29 12)" fill="#A2A2A2"
        fill-opacity="0.39" />
    <circle cx="5" cy="5" r="5" transform="matrix(1 0 0 -1 19 18)" fill="#A2A2A2"
        fill-opacity="0.39" />
    <circle cx="12" cy="11" r="5" fill="#B0B4AE" />
    <circle cx="2" cy="5" r="5" fill="#B0B4AE" />
    <circle cx="5" cy="5" r="5" transform="matrix(1 0 0 -1 62 20)" fill="#B0B4AE" />
    <circle cx="5" cy="5" r="5" transform="matrix(1 0 0 -1 52 15)" fill="#B0B4AE" />
    <circle cx="5" cy="5" r="5" transform="matrix(1 0 0 -1 41 10)" fill="#B0B4AE" />
    <circle cx="5" cy="5" r="5" transform="matrix(1 0 0 -1 29 10)" fill="#B0B4AE" />
    <circle cx="5" cy="5" r="5" transform="matrix(1 0 0 -1 19 16)" fill="#B0B4AE" />
</svg>
    