<svg width="343" height="145" viewBox="0 0 343 145" fill="none" xmlns="http://www.w3.org/2000/svg">
    <path d="M340.852 145H47.7437C14.946 145 0 107.414 0 72.493C0 53.7633 4.1141 36.2606 11.5799 23.2147C20.2828 8.025 32.7833 0 47.7437 0H295.242C328.054 0 343 37.5863 343 72.493C343 107.4 328.054 144.986 295.256 144.986L340.852 145ZM47.7437 5.64147C18.9018 5.64147 5.75399 40.2942 5.75399 72.493C5.75399 104.692 18.9018 139.344 47.7437 139.344H295.242C324.098 139.344 337.232 104.692 337.232 72.493C337.232 40.2942 324.084 5.64147 295.242 5.64147H47.7437Z" fill="#4A544A"/>
    <path d="M324.361 27.0082C319.413 18.3262 310.412 7.98169 295.656 7.98169H47.3437C32.5733 7.98169 23.587 18.3262 18.6395 27.0082C11.9611 38.7311 8.12427 55.3136 8.12427 72.4929C8.12427 89.6722 11.9611 106.255 18.6395 117.978C23.587 126.66 32.5733 137.018 47.3437 137.018H295.656C310.412 137.018 319.413 126.66 324.361 117.978C331.039 106.255 334.876 89.6722 334.876 72.4929C334.876 55.3136 331.039 38.7311 324.361 27.0082ZM322.471 116.94C317.812 125.125 309.374 134.873 295.656 134.873H47.3437C33.6263 134.873 25.1881 125.125 20.5291 116.94C14.0238 105.516 10.2879 89.317 10.2879 72.4929C10.2879 55.6689 14.0238 39.47 20.5291 28.0597C25.1881 19.8751 33.6263 10.1131 47.3437 10.1131H295.656C309.374 10.1131 317.812 19.8751 322.471 28.0597C328.976 39.47 332.712 55.6689 332.712 72.4929C332.712 80.905 331.775 89.1607 330.029 96.7344C328.284 104.322 325.731 111.228 322.471 116.94Z" fill="#4A544A"/>
</svg>

