<svg width="341" height="146" viewBox="0 0 341 146" fill="none" xmlns="http://www.w3.org/2000/svg">
    <path
        d="M338.182 145.723H47.3697C14.8289 145.723 0 107.949 0 72.8544C0 54.0313 4.08187 36.4414 11.4892 23.3304C20.1239 8.065 32.5265 0 47.3697 0H292.929C325.484 0 340.313 37.7737 340.313 72.8544C340.313 107.935 325.484 145.709 292.943 145.709L338.182 145.723ZM47.3697 5.6696C18.7538 5.6696 5.70891 40.4951 5.70891 72.8544C5.70891 105.214 18.7538 140.039 47.3697 140.039H292.929C321.559 140.039 334.59 105.214 334.59 72.8544C334.59 40.4951 321.545 5.6696 292.929 5.6696H47.3697Z"
        fill="#4A544A" />
    <path
        d="M321.82 27.1429C316.911 18.4176 307.981 8.02148 293.34 8.02148H46.9728C32.3181 8.02148 23.4022 18.4176 18.4934 27.1429C11.8673 38.9242 8.06055 55.5894 8.06055 72.8544C8.06055 90.1193 11.8673 106.785 18.4934 118.566C23.4022 127.291 32.3181 137.701 46.9728 137.701H293.34C307.981 137.701 316.911 127.291 321.82 118.566C328.446 106.785 332.252 90.1193 332.252 72.8544C332.252 55.5894 328.446 38.9242 321.82 27.1429ZM319.945 117.523C315.322 125.749 306.95 135.545 293.34 135.545H46.9728C33.3628 135.545 24.9907 125.749 20.3682 117.523C13.9138 106.042 10.2072 89.7623 10.2072 72.8544C10.2072 55.9464 13.9138 39.6668 20.3682 28.1996C24.9907 19.9741 33.3628 10.1635 46.9728 10.1635H293.34C306.95 10.1635 315.322 19.9741 319.945 28.1996C326.399 39.6668 330.106 55.9464 330.106 72.8544C330.106 81.3083 329.176 89.6052 327.444 97.2167C325.712 104.842 323.179 111.783 319.945 117.523Z"
        fill="#4A544A" />
</svg>
    