<svg width="375" height="812" viewBox="0 0 375 812" fill="none" xmlns="http://www.w3.org/2000/svg">
    <g clip-path="url(#clip0_125_1338)">
        <rect width="375" height="812" fill="#F2F1EE" />
        <path
            d="M184.997 734.086H187.033V735.419H184.997V742.318H183.371V729.062H184.997V734.086ZM175.168 730.321H181.364V731.64H176.794V737.719C177.868 737.714 178.835 737.68 179.694 737.616C180.553 737.553 181.422 737.445 182.301 737.294L182.492 738.671C181.53 738.837 180.583 738.947 179.65 739C178.717 739.054 177.589 739.081 176.266 739.081H175.168V730.321ZM193.31 729.325C194.282 729.325 195.126 729.428 195.844 729.633C196.562 729.838 197.114 730.136 197.499 730.526C197.89 730.912 198.085 731.371 198.085 731.903C198.085 732.426 197.89 732.877 197.499 733.258C197.114 733.634 196.562 733.922 195.844 734.123C195.126 734.323 194.282 734.423 193.31 734.423C192.348 734.423 191.506 734.323 190.783 734.123C190.065 733.922 189.511 733.634 189.121 733.258C188.73 732.877 188.535 732.426 188.535 731.903C188.535 731.371 188.73 730.912 189.121 730.526C189.511 730.136 190.065 729.838 190.783 729.633C191.506 729.428 192.348 729.325 193.31 729.325ZM187.289 735.316H199.36V736.635H187.289V735.316ZM188.71 737.689H197.895V742.143H188.71V737.689ZM190.234 731.903C190.229 732.299 190.497 732.606 191.039 732.826C191.581 733.046 192.338 733.158 193.31 733.163C194.282 733.158 195.038 733.046 195.58 732.826C196.127 732.606 196.401 732.299 196.401 731.903C196.401 731.483 196.13 731.161 195.588 730.937C195.046 730.712 194.287 730.6 193.31 730.6C192.333 730.6 191.574 730.712 191.032 730.937C190.495 731.161 190.229 731.483 190.234 731.903ZM196.313 740.824V738.979H190.322V740.824H196.313Z"
            fill="#F2F1EE" />
        <g clip-path="url(#clip1_125_1338)">
            <rect width="375" height="812" fill="#F2F1EE" />
            <g opacity="0.7">
                <path
                    d="M350.34 219.031C343.06 224.731 332.489 224.333 325.982 217.773C320.339 212.044 316.924 204.728 325.805 198.168C343.527 185.077 335.68 177.599 357.913 169.71C380.147 161.82 380.016 168.366 389.229 177.751C398.441 187.136 419.355 192.176 398.414 204.63C377.501 217.124 368.267 205.029 358.653 212.506L350.34 219.031Z"
                    fill="#ABBF90" />
                <path
                    d="M127.113 107.383C119.833 113.083 109.262 112.685 102.755 106.126C97.1124 100.396 93.6974 93.0803 102.578 86.5208C120.3 73.4293 112.454 65.9516 134.687 58.0619C156.92 50.1721 156.789 56.7185 166.002 66.1035C175.215 75.4884 196.128 80.5283 175.187 92.9821C154.247 105.436 145.04 93.3814 135.426 100.858L127.113 107.383Z"
                    fill="#ABBF90" />
                <path
                    d="M436.888 119.385C445.749 123.679 450.552 133.539 447.647 142.342C445.133 149.988 440.028 156.27 429.608 150.911C408.769 140.193 405.724 150.691 387.523 133.545C369.323 116.398 375.437 113.748 379.581 101.312C383.725 88.8758 378.093 67.4412 399.922 81.3317C421.751 95.2221 415.09 108.909 426.759 114.537L436.915 119.425L436.888 119.385Z"
                    fill="#ABBF90" />
                <path
                    d="M235.529 -58.7262C241.597 -75.2646 253.448 -87.7687 263.085 -87.2644C271.395 -86.7979 277.846 -81.4439 270.341 -61.9067C255.319 -22.7644 266.778 -22.7975 244.886 15.1289C222.966 53.0149 220.753 44.343 207.141 43.4812C193.53 42.6194 168.442 62.0621 187.175 19.7845C205.908 -22.4931 220.581 -18.0942 228.531 -39.8321L235.489 -58.6986L235.529 -58.7262Z"
                    fill="#CDE5AA" />
                <path
                    d="M340.15 -3.64903C349.011 0.64538 353.814 10.5049 350.909 19.3077C348.396 26.954 343.29 33.2365 332.871 27.8774C312.032 17.159 308.987 27.6573 290.786 10.5107C272.585 -6.63595 278.7 -9.28599 282.844 -21.722C286.988 -34.1581 281.355 -55.5927 303.184 -41.7023C325.013 -27.8118 318.352 -14.1252 330.022 -8.49689L340.178 -3.60871L340.15 -3.64903Z"
                    fill="#CDE5AA" />
                <path
                    d="M326.853 85.2552C310.661 75.6177 304.119 75.6578 303.31 70.7627C302.244 63.8517 313.632 53.2638 323.082 54.9629C328.649 56.0053 331.587 60.9826 337.006 70.3602C341.525 78.1635 349.071 93.6666 345.65 96.1885C343.543 97.6915 339.592 92.8758 326.853 85.2552Z"
                    fill="#819963" />
                <path
                    d="M299.242 140.489C288.616 144.156 287.793 151.592 282.284 149.858C272.79 146.886 263.621 121.24 269.573 115.502C274.281 110.973 284.649 122.647 297.309 119.184C307.972 116.261 308.564 105.726 314.466 107.428C322.366 109.715 331.034 131.261 325.722 138.278C321.581 143.722 312.497 135.908 299.31 140.501L299.242 140.489Z"
                    fill="#CDE5AA" />
                <path
                    d="M138.774 0.110989C138.205 9.38635 130.923 16.9831 121.691 17.5036C113.705 17.9409 105.913 15.6387 106.906 4.65079C108.893 -17.3251 98.0009 -16.3776 106.856 -38.2621C115.712 -60.1466 120.511 -55.7343 133.628 -56.3705C146.746 -57.0067 164.369 -69.3788 159.834 -45.4203C155.3 -21.4617 140.155 -22.5756 139.407 -10.4524L138.774 0.110989Z"
                    fill="#ABBF90" />
                <path
                    d="M94.101 215.366C83.6349 215.725 69.9243 211.436 63.8163 201.227C56.3502 188.691 65.5275 175.826 56.7061 167.358C51.6987 162.555 46.4549 164.49 45.2336 161.24C42.2145 153.12 68.5634 126.534 89.4547 130.937C116.419 136.688 129.691 193.11 112.713 209.187C106.693 214.912 97.0792 215.22 94.0734 215.325L94.101 215.366Z"
                    fill="#ABBF90" />
                <path
                    d="M63.2965 27.8994C59.0442 38.2772 64.0079 43.8799 59.0622 46.8542C50.5551 51.9728 25.2812 41.8648 24.9283 33.5764C24.6388 27.0217 40.2708 27.0319 46.0488 15.2532C50.9168 5.34211 43.4097 -2.07203 48.5947 -5.3881C55.5265 -9.78265 77.3975 -1.96321 79.0957 6.64731C80.4162 13.3248 68.5853 14.975 63.2965 27.8994Z"
                    fill="#819963" />
                <path
                    d="M244.011 200.845C239.759 211.223 244.722 216.826 239.777 219.8C231.269 224.919 205.995 214.811 205.643 206.522C205.353 199.967 220.985 199.978 226.763 188.199C231.631 178.288 224.124 170.874 229.309 167.558C236.241 163.163 258.112 170.983 259.81 179.593C261.131 186.271 249.3 187.921 244.011 200.845Z"
                    fill="#819963" />
                <path
                    d="M19.003 103.094C9.6524 108.969 -6.66942 102.856 -14.5957 92.4115C-22.3009 82.2898 -24.3716 64.9304 -14.3226 57.5705C-5.2932 50.9685 9.40819 55.4076 17.2674 62.8174C29.1995 74.0116 29.9518 96.184 18.9753 103.054L19.003 103.094Z"
                    fill="#CDE5AA" />
                <path
                    d="M350.34 219.031C343.06 224.731 332.489 224.333 325.982 217.773C320.339 212.044 316.924 204.728 325.805 198.168C343.527 185.077 335.68 177.599 357.913 169.71C380.147 161.82 380.016 168.366 389.229 177.751C398.441 187.136 419.355 192.176 398.414 204.63C377.501 217.124 368.267 205.029 358.653 212.506L350.34 219.031Z"
                    fill="#ABBF90" />
                <path
                    d="M127.113 107.383C119.833 113.083 109.262 112.685 102.755 106.126C97.1124 100.396 93.6974 93.0803 102.578 86.5208C120.3 73.4293 112.454 65.9516 134.687 58.0619C156.92 50.1721 156.789 56.7185 166.002 66.1035C175.215 75.4884 196.128 80.5283 175.187 92.9821C154.247 105.436 145.04 93.3814 135.426 100.858L127.113 107.383Z"
                    fill="#ABBF90" />
                <path
                    d="M436.888 119.385C445.749 123.679 450.552 133.539 447.647 142.342C445.133 149.988 440.028 156.27 429.608 150.911C408.769 140.193 405.724 150.691 387.523 133.545C369.323 116.398 375.437 113.748 379.581 101.312C383.725 88.8758 378.093 67.4412 399.922 81.3317C421.751 95.2221 415.09 108.909 426.759 114.537L436.915 119.425L436.888 119.385Z"
                    fill="#ABBF90" />
                <path
                    d="M235.529 -58.7262C241.597 -75.2646 253.448 -87.7687 263.085 -87.2644C271.395 -86.7979 277.846 -81.4439 270.341 -61.9067C255.319 -22.7644 266.778 -22.7975 244.886 15.1289C222.966 53.0149 220.753 44.343 207.141 43.4812C193.53 42.6194 168.442 62.0621 187.175 19.7845C205.908 -22.4931 220.581 -18.0942 228.531 -39.8321L235.489 -58.6986L235.529 -58.7262Z"
                    fill="#CDE5AA" />
                <path
                    d="M340.15 -3.64903C349.011 0.64538 353.814 10.5049 350.909 19.3077C348.396 26.954 343.29 33.2365 332.871 27.8774C312.032 17.159 308.987 27.6573 290.786 10.5107C272.585 -6.63595 278.7 -9.28599 282.844 -21.722C286.988 -34.1581 281.355 -55.5927 303.184 -41.7023C325.013 -27.8118 318.352 -14.1252 330.022 -8.49689L340.178 -3.60871L340.15 -3.64903Z"
                    fill="#CDE5AA" />
                <path
                    d="M326.853 85.2552C310.661 75.6177 304.119 75.6578 303.31 70.7627C302.244 63.8517 313.632 53.2638 323.082 54.9629C328.649 56.0053 331.587 60.9826 337.006 70.3602C341.525 78.1635 349.071 93.6666 345.65 96.1885C343.543 97.6915 339.592 92.8758 326.853 85.2552Z"
                    fill="#819963" />
                <path
                    d="M299.242 140.489C288.616 144.156 287.793 151.592 282.284 149.858C272.79 146.886 263.621 121.24 269.573 115.502C274.281 110.973 284.649 122.647 297.309 119.184C307.972 116.261 308.564 105.726 314.466 107.428C322.366 109.715 331.034 131.261 325.722 138.278C321.581 143.722 312.497 135.908 299.31 140.501L299.242 140.489Z"
                    fill="#CDE5AA" />
                <path
                    d="M138.774 0.110989C138.205 9.38635 130.923 16.9831 121.691 17.5036C113.705 17.9409 105.913 15.6387 106.906 4.65079C108.893 -17.3251 98.0009 -16.3776 106.856 -38.2621C115.712 -60.1466 120.511 -55.7343 133.628 -56.3705C146.746 -57.0067 164.369 -69.3788 159.834 -45.4203C155.3 -21.4617 140.155 -22.5756 139.407 -10.4524L138.774 0.110989Z"
                    fill="#ABBF90" />
                <path
                    d="M94.101 215.366C83.6349 215.725 69.9243 211.436 63.8163 201.227C56.3502 188.691 65.5275 175.826 56.7061 167.358C51.6987 162.555 46.4549 164.49 45.2336 161.24C42.2145 153.12 68.5634 126.534 89.4547 130.937C116.419 136.688 129.691 193.11 112.713 209.187C106.693 214.912 97.0792 215.22 94.0734 215.325L94.101 215.366Z"
                    fill="#ABBF90" />
                <path
                    d="M63.2965 27.8994C59.0442 38.2772 64.0079 43.8799 59.0622 46.8542C50.5551 51.9728 25.2812 41.8648 24.9283 33.5764C24.6388 27.0217 40.2708 27.0319 46.0488 15.2532C50.9168 5.34211 43.4097 -2.07203 48.5947 -5.3881C55.5265 -9.78265 77.3975 -1.96321 79.0957 6.64731C80.4162 13.3248 68.5853 14.975 63.2965 27.8994Z"
                    fill="#819963" />
                <path
                    d="M244.011 200.845C239.759 211.223 244.722 216.826 239.777 219.8C231.269 224.919 205.995 214.811 205.643 206.522C205.353 199.967 220.985 199.978 226.763 188.199C231.631 178.288 224.124 170.874 229.309 167.558C236.241 163.163 258.112 170.983 259.81 179.593C261.131 186.271 249.3 187.921 244.011 200.845Z"
                    fill="#819963" />
                <path
                    d="M19.003 103.094C9.6524 108.969 -6.66942 102.856 -14.5957 92.4115C-22.3009 82.2898 -24.3716 64.9304 -14.3226 57.5705C-5.2932 50.9685 9.40819 55.4076 17.2674 62.8174C29.1995 74.0116 29.9518 96.184 18.9753 103.054L19.003 103.094Z"
                    fill="#CDE5AA" />
            </g>
            <g opacity="0.7">
                <path
                    d="M74.4337 709.747C68.4723 717.279 58.0294 719.337 50.3005 714.141C43.5895 709.593 38.7353 702.901 46.0885 694.115C60.761 676.581 51.5299 670.758 71.6959 657.496C91.8618 644.234 93.0825 650.965 104.045 658.423C115.008 665.88 136.544 666.16 118.586 683.792C100.627 701.424 89.1194 691.233 81.2368 701.128L74.4337 709.747Z"
                    fill="#ABBF90" />
                <path
                    d="M380.524 649.774C390.094 652.103 396.833 661.074 395.799 670.762C394.91 679.175 391.201 686.796 379.884 683.741C357.251 677.631 356.43 689.087 335.058 675.782C313.686 662.477 319.134 658.338 320.634 644.642C322.133 630.946 312.197 610.32 336.453 619.446C360.71 628.572 357.002 644.135 369.598 647.174L380.559 649.809L380.524 649.774Z"
                    fill="#ABBF90" />
                <path
                    d="M146.475 514.433C149.015 496.089 158.054 480.526 167.604 478.794C175.845 477.333 183.27 481.309 179.939 503.057C173.28 546.626 184.504 543.919 170.86 587.846C157.181 631.738 153.225 623.378 139.707 625.671C126.188 627.964 105.604 653.717 115.255 606.073C124.906 558.429 140.194 559.509 143.508 535.405L146.441 514.47L146.475 514.433Z"
                    fill="#CDE5AA" />
                <path
                    d="M260.363 546.404C269.933 548.733 276.671 557.705 275.638 567.393C274.749 575.805 271.039 583.427 259.723 580.372C237.09 574.262 236.268 585.718 214.897 572.412C193.525 559.107 198.973 554.968 200.472 541.272C201.972 527.577 192.035 506.951 216.292 516.077C240.549 525.203 236.84 540.766 249.437 543.805L260.398 546.439L260.363 546.404Z"
                    fill="#CDE5AA" />
                <path
                    d="M265.646 640.506C247.79 634.418 241.386 635.985 239.584 631.164C237.116 624.338 246.096 610.845 255.709 610.379C261.38 610.148 265.284 614.557 272.528 622.892C278.565 629.825 289.154 643.933 286.321 647.313C284.565 649.342 279.701 645.335 265.646 640.506Z"
                    fill="#819963" />
                <path
                    d="M249.961 703.482C240.302 709.715 241.027 717.518 235.27 717.028C225.353 716.2 211.082 692.089 215.734 684.827C219.416 679.093 231.982 688.624 243.678 682.127C253.526 676.647 251.937 665.725 258.072 666.091C266.286 666.589 279.221 686.621 275.459 695.043C272.522 701.581 262.009 695.701 250.03 703.479L249.961 703.482Z"
                    fill="#CDE5AA" />
                <path
                    d="M63.7631 597.226C65.1165 606.852 59.5437 616.327 50.603 619.013C42.8656 621.323 34.7541 620.785 33.4641 609.306C30.8839 586.349 20.4036 589.859 24.5747 565.393C28.7457 540.927 34.3584 544.324 47.0842 540.613C59.8099 536.902 74.5337 520.128 75.0253 545.709C75.517 571.29 60.4432 573.682 62.2075 586.266L63.7631 597.226Z"
                    fill="#ABBF90" />
                <path
                    d="M19.8265 467.208C27.9333 461.22 38.9175 461.75 45.1307 468.858C50.5271 475.019 53.4685 482.877 43.6517 489.805C24.0164 503.589 31.6013 511.692 7.7228 519.811C-16.1557 527.931 -15.4782 520.941 -24.2835 510.857C-33.0888 500.773 -54.5349 495.122 -31.5959 482.037C-8.65701 468.952 -0.0985682 481.983 10.563 474.114L19.8281 467.281L19.8265 467.208Z"
                    fill="#ABBF90" />
                <path
                    d="M52.1841 822.249C42 825.059 27.6784 823.867 19.5886 814.842C9.68821 803.751 16.033 788.443 5.64242 781.833C-0.254868 778.085 -4.99595 781.289 -6.86257 778.246C-11.4945 770.639 8.85384 737.281 30.2371 736.915C57.8501 736.512 82.4819 791.168 69.1533 811.584C64.432 818.848 55.0732 821.406 52.1487 822.215L52.1841 822.249Z"
                    fill="#ABBF90" />
                <path
                    d="M-4.48961 643.275C-6.51946 654.889 -0.500159 659.466 -4.73483 663.664C-12.0184 670.888 -38.8724 666.437 -40.9258 658.036C-42.5598 651.394 -27.2364 647.758 -23.9997 634.354C-21.2702 623.074 -30.1555 617.236 -25.7567 612.632C-19.868 606.517 3.17922 609.419 6.61747 617.837C9.28738 624.364 -1.96838 628.812 -4.48961 643.275Z"
                    fill="#819963" />
                <path
                    d="M208.262 778.145C206.232 789.759 212.251 794.336 208.017 798.534C200.733 805.757 173.879 801.306 171.826 792.905C170.192 786.263 185.515 782.628 188.752 769.223C191.481 757.943 182.596 752.105 186.995 747.502C192.883 741.387 215.931 744.289 219.369 752.706C222.039 759.233 210.783 763.682 208.262 778.145Z"
                    fill="#819963" />
                <path
                    d="M74.4337 709.747C68.4723 717.279 58.0294 719.337 50.3005 714.141C43.5895 709.593 38.7353 702.901 46.0885 694.115C60.761 676.581 51.5299 670.758 71.6959 657.496C91.8618 644.234 93.0825 650.965 104.045 658.423C115.008 665.88 136.544 666.16 118.586 683.792C100.627 701.424 89.1194 691.233 81.2368 701.128L74.4337 709.747Z"
                    fill="#ABBF90" />
                <path
                    d="M380.524 649.774C390.094 652.103 396.833 661.074 395.799 670.762C394.91 679.175 391.201 686.796 379.884 683.741C357.251 677.631 356.43 689.087 335.058 675.782C313.686 662.477 319.134 658.338 320.634 644.642C322.133 630.946 312.197 610.32 336.453 619.446C360.71 628.572 357.002 644.135 369.598 647.174L380.559 649.809L380.524 649.774Z"
                    fill="#ABBF90" />
                <path
                    d="M146.475 514.433C149.015 496.089 158.054 480.526 167.604 478.794C175.845 477.333 183.27 481.309 179.939 503.057C173.28 546.626 184.504 543.919 170.86 587.846C157.181 631.738 153.225 623.378 139.707 625.671C126.188 627.964 105.604 653.717 115.255 606.073C124.906 558.429 140.194 559.509 143.508 535.405L146.441 514.47L146.475 514.433Z"
                    fill="#CDE5AA" />
                <path
                    d="M260.363 546.404C269.933 548.733 276.671 557.705 275.638 567.393C274.749 575.805 271.039 583.427 259.723 580.372C237.09 574.262 236.268 585.718 214.897 572.412C193.525 559.107 198.973 554.968 200.472 541.272C201.972 527.577 192.035 506.951 216.292 516.077C240.549 525.203 236.84 540.766 249.437 543.805L260.398 546.439L260.363 546.404Z"
                    fill="#CDE5AA" />
                <path
                    d="M265.646 640.506C247.79 634.418 241.386 635.985 239.584 631.164C237.116 624.338 246.096 610.845 255.709 610.379C261.38 610.148 265.284 614.557 272.528 622.892C278.565 629.825 289.154 643.933 286.321 647.313C284.565 649.342 279.701 645.335 265.646 640.506Z"
                    fill="#819963" />
                <path
                    d="M354.11 576.987C341.95 576.505 336.749 579.256 336.468 575.931C336.087 571.16 345.845 558.432 353.194 555.739C357.521 554.184 359.515 556.713 363.15 561.496C366.215 565.505 371.109 574.008 368.205 577.318C366.414 579.313 363.637 577.359 354.074 576.952L354.11 576.987Z"
                    fill="#CDE5AA" />
                <path
                    d="M249.961 703.482C240.302 709.715 241.027 717.518 235.27 717.028C225.353 716.2 211.082 692.089 215.734 684.827C219.416 679.093 231.982 688.624 243.678 682.127C253.526 676.647 251.937 665.725 258.072 666.091C266.286 666.589 279.221 686.621 275.459 695.043C272.522 701.581 262.009 695.701 250.03 703.479L249.961 703.482Z"
                    fill="#CDE5AA" />
                <path
                    d="M63.7631 597.226C65.1165 606.852 59.5437 616.327 50.603 619.013C42.8656 621.323 34.7541 620.785 33.4641 609.306C30.8839 586.349 20.4036 589.859 24.5747 565.393C28.7457 540.927 34.3584 544.324 47.0842 540.613C59.8099 536.902 74.5337 520.128 75.0253 545.709C75.517 571.29 60.4432 573.682 62.2075 586.266L63.7631 597.226Z"
                    fill="#ABBF90" />
                <path
                    d="M19.8265 467.208C27.9333 461.22 38.9175 461.75 45.1307 468.858C50.5271 475.019 53.4685 482.877 43.6517 489.805C24.0164 503.589 31.6013 511.692 7.7228 519.811C-16.1557 527.931 -15.4782 520.941 -24.2835 510.857C-33.0888 500.773 -54.5349 495.122 -31.5959 482.037C-8.65701 468.952 -0.0985682 481.983 10.563 474.114L19.8281 467.281L19.8265 467.208Z"
                    fill="#ABBF90" />
                <path
                    d="M-4.48961 643.275C-6.51946 654.889 -0.500159 659.466 -4.73483 663.664C-12.0184 670.888 -38.8724 666.437 -40.9258 658.036C-42.5598 651.394 -27.2364 647.758 -23.9997 634.354C-21.2702 623.074 -30.1555 617.236 -25.7567 612.632C-19.868 606.517 3.17922 609.419 6.61747 617.837C9.28738 624.364 -1.96838 628.812 -4.48961 643.275Z"
                    fill="#819963" />
                <path
                    d="M208.262 778.145C206.232 789.759 212.251 794.336 208.017 798.534C200.733 805.757 173.879 801.306 171.826 792.905C170.192 786.263 185.515 782.628 188.752 769.223C191.481 757.943 182.596 752.105 186.995 747.502C192.883 741.387 215.931 744.289 219.369 752.706C222.039 759.233 210.783 763.682 208.262 778.145Z"
                    fill="#819963" />
            </g>
        </g>
    </g>
    <defs>
        <clipPath id="clip0_125_1338">
            <rect width="375" height="812" fill="white" />
        </clipPath>
        <clipPath id="clip1_125_1338">
            <rect width="375" height="812" fill="white" />
        </clipPath>
    </defs>
</svg>