<?xml version="1.0" encoding="UTF-8"?>
<svg id="_레이어_2" data-name="레이어 2" xmlns="http://www.w3.org/2000/svg" viewBox="0 0 549.63 971.34">
  <defs>
    <style>
      .cls-1 {
        fill: #f7f8f8;
      }

      .cls-1, .cls-2, .cls-3, .cls-4, .cls-5, .cls-6, .cls-7, .cls-8, .cls-9, .cls-10 {
        stroke-width: 0px;
      }

      .cls-2 {
        fill: #4aa54f;
      }

      .cls-3 {
        fill: #6d6562;
      }

      .cls-4 {
        fill: #9b9a9a;
      }

      .cls-5 {
        fill: #0d5e31;
      }

      .cls-6 {
        fill: #1d4921;
      }

      .cls-7 {
        fill: #fcf8f5;
      }

      .cls-8 {
        fill: #fff;
      }

      .cls-9 {
        fill: #ede8d7;
      }

      .cls-10 {
        fill: #efefef;
      }
    </style>
  </defs>
  <g id="_레이어_1-2" data-name="레이어 1">
    <g>
      <path class="cls-1" d="m521.69,926.2c-4.9-1.39-10.12-2.32-14.97-4.13.73,6.92.82,13.93.86,20.92.03,4.4-.74,8.47-2.55,12.56-1.55,3.5-2.61,7.45-2.85,11.27-.1,1.58-.32,3.08-.64,4.52h48.1v-39.78s0,0-.01,0c-9.8.4-18.9-2.8-27.93-5.35Z"/>
      <path class="cls-10" d="m129.09,153.63c-1.88.87-2.88,4.55-4.25,6.94-4.19,7.35-9.15,13.97-16.13,19.64-1.04.85-2.1,1.67-3.15,2.5,1.73.44,3.41.88,5.01,1.3,3.27.86,5.52.55,7.77-1.08,2.4-1.74,5.26-3.11,8.29-3.96,1.37-.38,2.49-1.01,3.68-1.98,3.71-3.11,7.91-6.63,11.07-10.53.56-.69,1.13-1.37,1.7-2.05,2.06-2.45,3.84-4.57,4.95-7.03,2.14-4.72,3.84-9.69,5.2-15.17.58-2.33.55-3.99-.1-5.76-1.35-3.68-2.72-7.62-3.45-11.78-.31-1.76-.71-2.81-.92-3.23l-.02-.02c-.48-.47-.92-.92-1.34-1.35-1.76,4.95-3.44,9.91-5.14,14.88-2.39,7-4.31,14.58-13.17,18.67Z"/>
      <path class="cls-9" d="m142.25,5.67c-1.38,3.61-2.61,7.22-3.88,10.86-1.23,3.55-2.23,7.39-6.73,9.49-.96.45-1.47,2.31-2.17,3.53-.92,1.6-1.92,3.13-3.03,4.58.62.82,1.23,1.63,1.83,2.46.81,1.13,2.74,2,2.62,3.15-1.05,10.19,6.73,15.54,9.76,23.45.17.44.31,1,.18,1.48-3.18,11.41,3.39,17.89,9.27,23.99.12,1.7.25,2.69.25,3.71,0,3.65.52,7.38.68,11.06,0,0,.01,0,.02.01,2.13,1.42,3.76,3.14,5.48,4.95.69.73,1.46,1.53,2.35,2.41,2.58,2.29,4.35,6.1,5.27,11.34.52,2.97,1.61,6.08,2.78,9.27,1.67,4.57,1.85,9.12.56,14.33-1.57,6.36-3.56,12.15-6.08,17.7-1.94,4.29-4.67,7.54-7.07,10.41-.52.62-1.04,1.23-1.55,1.86-4.05,5-9.04,9.18-13.05,12.54-2.78,2.23-5.76,3.92-9.14,4.86-1.35.38-2.64.98-3.63,1.7-5.83,4.24-12.61,5.38-20.14,3.4-4.46-1.18-9.5-2.51-14.39-3.41-.98-.18-1.85-.46-2.67-.77-5.09,3.37-10.26,6.59-15.49,9.72-8.99,5.38-18.76,7.53-28.43,9.61-5.91,1.27-11.86,2.13-17.71,3.83-9.81,2.86-19.18,4.52-28.14,3.82v208.9c3.04.07,7.27,1.63,11.62,4.11,5.57,3.17,11.72,5.44,17.8,7.59,5.97,2.11,10.23,5.72,14.01,10.84,6.13,8.28,11.45,16.81,16,26.13,3.56,7.3,4.41,14.89,5.92,22.37,1.93,9.59,2.05,19.5,2.11,29.34.03,4.4-.74,8.47-2.55,12.56-1.55,3.5-2.61,7.45-2.85,11.27-.59,9.43-5.2,16.14-12.64,21.47-5.26,3.77-10.52,7.56-15.62,11.53,8.21,5.33,14.71,12.1,16,22.89,1.23,10.29,11.6,13.78,19.08,18.04,9.25,5.27,16.59,10.69,19.58,20.54.83,2.74,2.87,5.21,4.99,7.25,18.28,17.52,27.67,39.82,34.43,63.65,1.6,5.64,4.6,10.77,7.09,16.06.92,1.96,3.63,3.86,3.12,5.58-4.53,15.36,5.91,25.8,8.31,38.83.13.73.19,1.62-.15,2.32-8.15,16.64.11,28.46,7.4,39.51-.29,2.51-.38,4.04-.63,5.52,3.24.42,6.53.51,9.64,1.56.37.12.8.33,1.04.67,5.6,8.05,13.2,7.27,20.19,6.74,1.15.82,1.85,1.26,2.5,1.8,4.53,3.74,10.29,6.41,13.22,11.53,3.13,5.47,6.41,10.75,9.69,16.1,3.2,5.22,7.03,10.44,4.96,18.25-.44,1.66,1.38,4.24,2.19,6.37,2.47,6.55,4.08,13.21,4.02,20.65-.1,11.63-1.42,23.04-3.16,34.38-1.31,8.58-5.09,15.94-8.87,23.2-.49.94-.99,1.86-1.49,2.78h166.71c-3.15-4.33-5.39-9.18-6.66-14.57-1.56-6.63-6.82-11.83-7.13-19-.3-6.87-1.15-13.72-1.43-20.59-.09-2.04.5-4.35,1.49-6.16,2.33-4.29,3.58-8.74,3.83-13.6.41-7.73,6.78-12.73,9.29-19.55.72-1.96,2.45-3.52,3.6-5.35,2.51-3.98,4.09-9.16,7.6-11.73,3.97-2.9,8.63-4.87,13.28-6.83-.9-2-2.24-3.83-2.34-6.15-.12-2.85-.48-5.69-.59-8.54-.04-.85.21-1.8.62-2.55.97-1.78,1.48-3.62,1.59-5.64.17-3.2,2.81-5.28,3.85-8.11.3-.81,1.02-1.46,1.49-2.22,1.04-1.65,1.7-3.8,3.15-4.86,2.24-1.64,5.01-2.56,7.58-3.73.64-.29,1.55-.18,2.04-.6,1.72-1.48,3.91-1.77,5.92-2.37,1.84-.55,3.87-.48,6.99-.8,1.26-.25,3.33.45,5.47,1.66,2.31,1.32,4.86,2.26,7.38,3.15.05.02.09.04.14.06.07-2.44.8-5.06,1.94-7.16,3.05-5.6,4.67-11.41,5.01-17.77.53-10.1,8.85-16.63,12.13-25.54.94-2.56,3.2-4.61,4.7-6.98,3.28-5.19,5.34-11.97,9.94-15.33,7.06-5.16,15.79-8.06,23.9-11.75,2.02-.92,4.88-.56,6.41-1.88,5.41-4.67,12.31-5.58,18.65-7.47,5.81-1.73,12.2-1.5,22.02-2.52,1.18-.23,2.58-.2,4.15.06v-115.99c-2.36-.16-4.77-.49-7.24-1.01-8.32-1.74-17.74-3.71-26.81-4.9-9.6-1.25-15.23-6.74-18.64-10.76-1.32-1.56-2.59-3.16-3.86-4.76-1.99-2.51-3.87-4.89-5.78-6.8-6.33-6.35-9.93-13.63-13.1-20.05l-1.37-2.75c-.59-1.16-1.22-2.3-1.85-3.45-2.72-4.94-6.26-11.35-6.99-19.31-5.34-8.6-3.72-17.73-2.78-23.03.15-.85.3-1.69.43-2.54.19-1.28.17-3.07.15-4.96-.01-1.45-.02-2.9.03-4.34.36-10.83,3.62-20.87,9.69-29.81.76-1.11,1.48-3.11,2.24-5.22,1.6-4.43,3.8-10.5,8.96-15.67,2.4-2.4,4.69-4.9,6.99-7.39,2.43-2.63,4.86-5.26,7.38-7.8-19.01-15.76-33.67-38.1-52.04-54.85-3.81-3.47-6.55-8.95-9.28-13.92-6.84-12.46-13.78-24.89-19.9-37.88-3.2-6.79-4.82-14.73-7.01-22.21-1.9-6.45-3.58-12.99-5.41-19.47-.8-2.84-2.87-6.01-2.37-8.4,2.67-12.8.33-25.17-.4-37.85-.68-11.79,1.7-23.97,3.54-35.79.9-5.75,3.37-11.25,5.62-16.54,6.79-15.99,13.57-32,20.84-47.66,4.85-10.43,10.73-19.41,20.27-25.02,10.9-6.41,20.59-15.87,31.24-23.03,12.9-8.67,26.23-16.23,41.66-9.91,9.79,4.01,18.16-2.65,25.79-7.57V0h-58.44c-.46,1.47-1.02,2.94-1.67,4.42-2.17,4.9-3.65,10.42-3.98,15.76-.83,13.19-7.26,22.56-17.67,30.01-10.24,7.34-20.5,14.72-30.15,22.8-4.73,3.96-9.62,4.62-15.11,4.4-7.2-.29-14.41-1.28-21.58-.98-10.48.43-20.22-2.99-29.88-5.73-9.6-2.72-20.35-3.8-27.75-11.99-10.81.53-15.22-7.81-20.84-14.73-3.02-3.71-6.91-6.7-10.35-10.08-7.88-7.74-13.12-16.99-15.65-27.75-.5-2.13-1.28-4.15-2.18-6.12h-151.49c.11,1.94.07,3.86-.63,5.67Zm283.4,717.91c.23-.43.36-.88.39-1.37.04-.78.68-1.28.93-1.96.07-.2.25-.35.36-.54.25-.4.41-.92.76-1.18.54-.4,1.22-.62,1.84-.9.16-.07.38-.04.49-.14.42-.36.95-.43,1.43-.57.45-.13.94-.12,1.69-.19.31-.06.81.11,1.33.4.56.32,1.18.55,1.79.76.6.21,1.03.58,1.41,1.09.62.83,1.15,1.69,1.61,2.63.36.73.44,1.5.6,2.25.19.96.21,1.96.21,2.95,0,.44-.07.85-.26,1.26-.16.35-.26.75-.29,1.13-.06.95-.52,1.62-1.27,2.16-.74.53-1.47,1.06-2.17,1.64-.34.28-.69.33-1.09.32-.52-.02-1.04-.09-1.55-.07-.75.03-1.45-.22-2.15-.41-.69-.2-1.46-.27-2-.86-.78.04-1.09-.56-1.5-1.06-.22-.27-.5-.48-.74-.72-.57-.56-.94-1.22-1.13-2-.16-.67-.69-1.19-.72-1.91-.03-.69-.12-1.38-.14-2.07,0-.21.05-.44.15-.62Z"/>
      <path class="cls-1" d="m507,433.83c-2.58,2.63-5.08,5.33-7.58,8.05-3.13,3.39-6.26,6.79-9.52,10.05-1.13,1.13-2.18,4.03-3.29,7.1-1.45,4-3.25,8.97-6.52,13.8-3.94,5.8-5.96,12.04-6.19,19.09-.04,1.31-.03,2.61-.01,3.92.03,3.33.07,7.11-.54,11.23-.2,1.37-.44,2.75-.68,4.12-.29,1.64-.71,4-.75,5.26l5.21,5.14-.67,7.92c-.27,2.85,1.56,6.41,4.6,11.92.98,1.77,1.95,3.54,2.84,5.31l1.82,3.65c3.04,6.16,5.92,11.98,9.85,15.92,3.7,3.71,6.72,7.53,9.65,11.23,1.33,1.68,2.66,3.37,4.04,5,1.2,1.42,1.68,1.72,1.73,1.75,12.54,1.62,24.79,4.18,35.6,6.44,1.06.22,2.07.39,3.04.51v-126.31c-.62-.2-1.24-.4-1.87-.59-12.65-12.06-31-12.66-40.76-30.51Z"/>
      <path class="cls-6" d="m28.14,217.18c5.85-1.71,11.8-2.56,17.71-3.83,9.67-2.08,19.43-4.23,28.43-9.61,5.23-3.13,10.4-6.35,15.49-9.72-3.53-1.35-5.72-3.74-7.13-5.59-.67-.88-1.31-1.78-1.96-2.69-1.01-1.42-1.96-2.76-2.94-3.85-3.25-3.62-4.99-7.67-6.53-11.24l-.66-1.53c-.28-.64-.6-1.28-.91-1.92-1.34-2.75-3.07-6.33-3.24-10.66-2.65-4.81-1.51-9.71-.85-12.56.1-.45.21-.91.3-1.37.14-.69.18-1.66.22-2.68.03-.79.07-1.57.14-2.35.5-5.86,2.55-11.2,6.09-15.88.44-.58.89-1.64,1.36-2.76.99-2.35,2.36-5.58,5.3-8.23,1.37-1.23,2.68-2.52,4-3.81,1.48-1.44,2.96-2.89,4.49-4.27.13-.12.27-.24.41-.35,1.78-1.47,4-2.52,6.32-2.97,1.63-.32,3.02-.93,4.37-1.93,3.74-2.77,7.76-3.21,10.7-3.52,1.24-.13,2.4-.26,3.13-.51,1.8-.63,3.44-.67,4.53-.7.21,0,.41,0,.62-.02.62-.08,1.26-.24,1.9-.38,2.27-.51,5.38-1.22,8.71-.37,3.54.9,6.65,2.52,9.4,3.95.85.44,1.69.88,2.54,1.3.89.43,1.59.94,2.11,1.37,3.24.91,5.68,2.67,7.53,4.01.43.31.85.62,1.28.91-.16-3.68-.67-7.41-.68-11.06,0-1.01-.13-2-.25-3.71-5.88-6.1-12.45-12.57-9.27-23.99.13-.48,0-1.04-.18-1.48-3.03-7.91-10.81-13.26-9.76-23.45.12-1.14-1.81-2.02-2.62-3.15-.59-.83-1.21-1.64-1.83-2.46-1.48,1.94-3.17,3.75-5.2,5.4-5.55,4.52-11.48,8.37-17.53,12-4.58,2.75-9.53,3.86-14.44,4.95-3,.66-6.02,1.11-8.99,1.99-8.1,2.4-15.61,3.2-22.57-.16-2.91-1.41-7.12-.87-12.11-1.36-3.67-2.82-8.33-6.57-13.19-10.08-4.73-3.43-7.96-7.93-10.99-12.89-4.31-7.06-5.54-15.49-8.65-23.04.29-3.83-1.47-7.17-1.43-10.94H0v221c8.96.7,18.33-.96,28.14-3.82Z"/>
      <path class="cls-6" d="m94.32,179.54c.49.65.7.8.72.81,3.62.66,7.16,1.5,10.51,2.35,1.05-.82,2.11-1.65,3.15-2.5,6.98-5.68,11.94-12.3,16.13-19.64,1.37-2.4,2.37-6.07,4.25-6.94,8.86-4.09,10.78-11.68,13.17-18.67,1.7-4.98,3.38-9.93,5.14-14.88-.54-.56-1.05-1.08-1.52-1.58-1.25-1.31-2.24-2.35-3.01-2.87-.58-.39-1.16-.8-1.73-1.22-1.21-.87-2.35-1.7-3.07-1.82-2.48-.42-4.11-1.8-4.93-2.53-.79-.4-1.59-.81-2.38-1.22-2.14-1.12-4.17-2.18-6-2.68-.45.03-1.43.25-2.09.4-1.09.25-2.19.48-3.27.62-.7.09-1.42.12-2.15.14-.14,0-.27,0-.41,0-2.19.71-4.3.94-6.02,1.12-1.47.16-3,.32-3.53.72-3.1,2.3-6.43,3.78-10.19,4.53-1.32,1.2-2.6,2.45-3.89,3.71-1.46,1.42-2.91,2.84-4.42,4.21-.52.47-1.05,1.72-1.61,3.05-.73,1.73-1.64,3.88-3.19,5.92-1.87,2.46-2.9,5.16-3.17,8.26-.05.57-.07,1.15-.1,1.73-.06,1.47-.13,3.13-.5,4.93-.12.6-.26,1.2-.4,1.8-.17.72-.4,1.74-.45,2.3l2.17,2.38-.48,3.47c-.18,1.25.54,2.86,1.75,5.35.39.8.78,1.6,1.13,2.4l.72,1.65c1.2,2.78,2.33,5.41,3.97,7.24,1.54,1.72,2.79,3.47,3.99,5.17.55.77,1.09,1.54,1.66,2.3Z"/>
      <path class="cls-2" d="m217.29,945.35c1.74-11.34,3.06-22.75,3.16-34.38.06-7.45-1.54-14.1-4.02-20.65-.81-2.14-2.63-4.71-2.19-6.37,2.06-7.81-1.76-13.04-4.96-18.25-3.28-5.34-6.56-10.63-9.69-16.1-2.93-5.12-8.69-7.8-13.22-11.53-.65-.53-1.35-.97-2.5-1.8-6.99.53-14.59,1.31-20.19-6.74-.24-.34-.67-.54-1.04-.67-3.11-1.05-6.4-1.14-9.64-1.56-.01.08-.03.17-.04.25-2.01,10.9-1.14,22.87-6.9,32.4-1.56,2.58-3.09,5.16-4.6,7.74,2.65,7.28,3.99,14.55,5.29,21.64.39,2.15.79,4.3,1.22,6.44,3.07,15.22,3.16,30.83,3.25,44.6,0,.12,0,.25,0,.37,0,7.41-1.41,14.18-4.3,20.7-1.41,3.19-2.46,6.58-3.1,9.89h63.09c.5-.92,1.01-1.85,1.49-2.78,3.77-7.27,7.55-14.63,8.87-23.2Z"/>
      <path class="cls-2" d="m136.26,898.13c-.45-2.21-.85-4.43-1.26-6.64-.58-3.16-1.15-6.25-1.82-9.29-1.6,2.83-3.19,5.67-4.79,8.51-5.68,10.07-10.79,21.18-25.58,24.94-3.14.8-5.72,6.17-8.51,9.46-8.54,10.09-18.06,18.85-30.4,25.58-14.31,7.8-29.04,14.37-43.98,20.32.08.11.16.22.25.33h111.55c.72-4.93,2.17-9.95,4.29-14.74,2.23-5.03,3.27-10.07,3.27-15.85,0-.1,0-.2,0-.3-.08-13.23-.18-28.23-3.01-42.32Z"/>
      <path class="cls-6" d="m63.89,950.69c12.35-6.73,21.86-15.49,30.4-25.58,2.79-3.29,5.37-8.66,8.51-9.46,14.79-3.76,19.9-14.87,25.58-24.94,1.6-2.84,3.2-5.68,4.79-8.51-1.2-5.42-2.71-10.67-5.2-15.76-7.32-14.99-15.57-27.56-23.13-37.78-5.28-7.14-10.82-11.45-17.95-13.97-9.47-3.35-18.69-6.77-27.33-11.69-7.45-4.24-13.21-5.7-15.41-5.27l-.55.08c-3.83.4-7.22.63-10.21.84-5.54.38-9.92.69-13.67,1.8-1.64.49-3.29.92-4.88,1.33-5.29,1.38-10.29,2.68-14.07,5.93-.26.22-.52.42-.79.6v163.02h19.1c.27-.11.54-.22.81-.33,14.94-5.95,29.67-12.52,43.98-20.32Zm-46.26-78.58c-.6-.21-1.03-.58-1.41-1.09-.62-.83-1.15-1.69-1.61-2.63-.36-.73-.44-1.5-.6-2.25-.19-.96-.21-1.96-.21-2.95,0-.44.07-.85.26-1.26.16-.35.26-.75.29-1.13.06-.95.52-1.62,1.27-2.16.74-.53,1.47-1.06,2.17-1.64.34-.28.69-.33,1.09-.32.52.02,1.04.09,1.55.07.75-.03,1.45.22,2.15.41.69.2,1.46.27,2,.86.78-.04,1.09.56,1.5,1.06.22.27.5.48.74.72.57.56.94,1.22,1.13,2,.16.67.69,1.19.72,1.91.03.69.12,1.38.14,2.07,0,.21-.05.44-.15.62-.23.43-.36.88-.39,1.37-.04.78-.68,1.28-.93,1.96-.07.2-.25.35-.36.54-.25.4-.41.92-.76,1.18-.54.4-1.22.62-1.84.9-.16.07-.38.04-.49.14-.42.36-.95.43-1.43.57-.45.13-.94.12-1.69.19-.31.06-.81-.11-1.33-.4-.56-.32-1.18-.55-1.79-.76Z"/>
      <path class="cls-6" d="m152.97,827.54c.02-.08.03-.17.04-.25.25-1.48.35-3.01.63-5.52-7.29-11.06-15.55-22.88-7.4-39.51.34-.7.28-1.6.15-2.32-2.4-13.03-12.84-23.47-8.31-38.83.51-1.72-2.2-3.62-3.12-5.58-2.49-5.3-5.49-10.43-7.09-16.06-6.76-23.82-16.15-46.12-34.43-63.65-2.13-2.04-4.16-4.5-4.99-7.25-2.99-9.85-10.33-15.26-19.58-20.54-7.47-4.26-17.85-7.75-19.08-18.04-1.29-10.79-7.78-17.56-16-22.89-2.01,1.56-4,3.15-5.95,4.78-3.38,2.83-6.88,3.31-10.81,3.15-5.15-.21-10.31-.91-15.44-.7-.53.02-1.07.03-1.59.02v199.8c3.97-1.88,8.06-2.95,11.85-3.93,1.56-.41,3.04-.79,4.47-1.22,5.01-1.49,10.22-1.85,16.26-2.27,2.83-.2,6.03-.42,9.57-.78,7.74-1.35,17.92,3.57,23.34,6.66,7.78,4.43,16.46,7.64,25.4,10.81,9.38,3.32,16.87,9.08,23.57,18.13,9.7,13.11,17.64,26.08,24.27,39.64,1.06,2.16,1.96,4.33,2.75,6.5,1.51-2.59,3.04-5.17,4.6-7.74,5.77-9.53,4.89-21.51,6.9-32.4Z"/>
      <path class="cls-6" d="m530.33,421.55c-6.75,5.58-14.12,9.33-22.54,11.47-.26.27-.52.54-.78.81,9.76,17.86,28.12,18.45,40.76,30.51.62.19,1.24.39,1.87.59v-47.93c-4.12,1.34-8.08,1.98-11.4,2.52-3.32.53-6.75,1.08-7.91,2.04Z"/>
      <path class="cls-6" d="m523.84,73.83c-15.43-6.32-28.76,1.24-41.66,9.91-10.65,7.16-20.34,16.62-31.24,23.03-9.54,5.61-15.42,14.59-20.27,25.02-7.28,15.66-14.05,31.67-20.84,47.66-2.25,5.3-4.72,10.79-5.62,16.54-1.84,11.82-4.22,24-3.54,35.79.73,12.69,3.07,25.06.4,37.85-.5,2.39,1.57,5.56,2.37,8.4,1.82,6.48,3.51,13.02,5.41,19.47,2.2,7.48,3.82,15.42,7.01,22.21,6.12,13,13.06,25.42,19.9,37.88,2.73,4.97,5.48,10.44,9.28,13.92,18.37,16.76,33.03,39.09,52.04,54.85.16-.16.31-.33.48-.49.23-.23.47-.46.71-.68,3.13-2.88,7.13-5.03,11.35-6.08,2.98-.74,5.47-2.01,7.86-3.98,6.61-5.47,13.98-6.65,19.36-7.51,2.26-.36,4.4-.71,5.72-1.25,2.66-1.09,5.15-1.44,7.07-1.62V66.26c-7.63,4.92-16,11.58-25.79,7.57Zm-25.98,120.74c-.79,1.78-1.33,3.8-1.45,5.74-.3,4.81-2.65,8.22-6.44,10.94-3.73,2.67-7.47,5.36-10.99,8.31-1.72,1.44-3.51,1.69-5.51,1.6-2.62-.11-5.25-.47-7.86-.36-3.82.16-7.37-1.09-10.89-2.09-3.5-.99-7.42-1.38-10.11-4.37-3.94.19-5.54-2.85-7.59-5.37-1.1-1.35-2.52-2.44-3.77-3.67-2.87-2.82-4.78-6.19-5.7-10.11-.8-3.38-3.47-6.03-3.63-9.68-.15-3.5-.58-6.99-.73-10.49-.04-1.04.26-2.22.76-3.14,1.19-2.18,1.82-4.45,1.95-6.93.21-3.94,3.45-6.48,4.73-9.96.37-1,1.25-1.8,1.83-2.72,1.28-2.03,2.08-4.67,3.87-5.98,2.75-2.01,6.16-3.14,9.32-4.58.79-.36,1.9-.22,2.5-.73,2.11-1.82,4.8-2.17,7.27-2.91,2.26-.67,4.76-.59,8.58-.98,1.55-.31,4.1.55,6.72,2.04,2.84,1.62,5.97,2.77,9.06,3.87,3.04,1.08,5.21,2.91,7.14,5.52,3.12,4.22,5.83,8.56,8.15,13.31,1.82,3.72,2.25,7.58,3.02,11.39.98,4.88,1.05,9.93,1.08,14.94.01,2.24-.38,4.31-1.3,6.4Zm29.9-64.25c-.23.43-.36.88-.39,1.37-.04.78-.68,1.28-.93,1.96-.07.2-.25.35-.36.54-.25.4-.41.92-.76,1.18-.54.4-1.22.62-1.84.9-.16.07-.38.04-.49.14-.42.36-.95.43-1.43.57-.45.13-.94.12-1.69.19-.31.06-.81-.11-1.33-.4-.56-.32-1.18-.55-1.79-.76-.6-.21-1.03-.58-1.41-1.09-.62-.83-1.15-1.69-1.61-2.63-.36-.73-.44-1.5-.6-2.25-.19-.96-.21-1.96-.21-2.95,0-.44.07-.85.26-1.26.16-.35.26-.75.29-1.13.06-.95.52-1.62,1.27-2.16.74-.53,1.47-1.06,2.17-1.64.34-.28.69-.33,1.09-.32.52.02,1.04.09,1.55.07.75-.03,1.45.22,2.15.41.69.2,1.46.27,2,.86.78-.04,1.09.56,1.5,1.06.22.27.5.48.74.72.57.56.94,1.22,1.13,2,.16.67.69,1.19.72,1.91.03.69.12,1.38.14,2.07,0,.21-.05.44-.15.62Z"/>
      <path class="cls-4" d="m312.2,33.87c3.44,3.38,7.33,6.37,10.35,10.08,5.62,6.92,10.03,15.26,20.84,14.73,7.4,8.19,18.14,9.28,27.75,11.99,9.66,2.73,19.4,6.15,29.88,5.73,7.17-.29,14.38.69,21.58.98,5.49.22,10.39-.44,15.11-4.4,9.65-8.08,19.91-15.46,30.15-22.8,10.41-7.45,16.84-16.82,17.67-30.01.33-5.34,1.81-10.86,3.98-15.76.65-1.47,1.21-2.94,1.67-4.42h-196.81c.9,1.97,1.68,3.99,2.18,6.12,2.53,10.76,7.77,20.01,15.65,27.75Zm131.09-14.32c.16-.35.26-.75.29-1.13.06-.95.52-1.62,1.27-2.16.74-.53,1.47-1.06,2.17-1.64.34-.28.69-.33,1.09-.32.52.02,1.04.09,1.55.07.75-.03,1.45.22,2.15.41.69.2,1.46.27,2,.86.78-.04,1.09.56,1.5,1.06.22.27.5.48.74.72.57.56.94,1.22,1.13,2,.16.67.69,1.19.72,1.91.03.69.12,1.38.14,2.07,0,.21-.05.44-.15.62-.23.43-.36.88-.39,1.37-.04.78-.68,1.28-.93,1.96-.07.2-.25.35-.36.54-.25.4-.41.92-.76,1.18-.54.4-1.22.62-1.84.9-.16.07-.38.04-.49.14-.42.36-.95.43-1.43.57-.45.13-.94.12-1.69.19-.31.06-.81-.11-1.33-.4-.56-.32-1.18-.55-1.79-.76-.6-.21-1.03-.58-1.41-1.09-.62-.83-1.15-1.69-1.61-2.63-.36-.73-.44-1.5-.6-2.25-.19-.96-.21-1.96-.21-2.95,0-.44.07-.85.26-1.26Z"/>
      <path class="cls-8" d="m426.36,728.19c.18.77.56,1.44,1.13,2,.25.24.53.46.74.72.4.5.72,1.1,1.5,1.06.53.59,1.3.67,2,.86.7.2,1.4.44,2.15.41.52-.02,1.03.05,1.55.07.4.02.75-.03,1.09-.32.69-.58,1.43-1.11,2.17-1.64.75-.54,1.21-1.21,1.27-2.16.02-.38.13-.78.29-1.13.18-.41.26-.82.26-1.26,0-.99-.02-1.99-.21-2.95-.15-.75-.24-1.51-.6-2.25-.46-.94-.99-1.79-1.61-2.63-.38-.51-.81-.88-1.41-1.09-.61-.22-1.23-.44-1.79-.76-.52-.29-1.02-.46-1.33-.4-.76.08-1.25.06-1.69.19-.49.15-1.02.21-1.43.57-.12.1-.34.07-.49.14-.62.28-1.3.51-1.84.9-.35.26-.51.78-.76,1.18-.12.18-.29.34-.36.54-.25.69-.89,1.19-.93,1.96-.03.49-.15.94-.39,1.37-.1.18-.16.41-.15.62.03.69.11,1.38.14,2.07.03.72.56,1.24.72,1.91Z"/>
      <path class="cls-8" d="m443.84,26.01c.46.94.99,1.79,1.61,2.63.38.51.81.88,1.41,1.09.61.22,1.23.44,1.79.76.52.29,1.02.46,1.33.4.76-.08,1.25-.06,1.69-.19.49-.15,1.02-.21,1.43-.57.12-.1.34-.07.49-.14.62-.28,1.3-.51,1.84-.9.35-.26.51-.78.76-1.18.12-.18.29-.34.36-.54.25-.69.89-1.19.93-1.96.03-.49.15-.94.39-1.37.1-.18.16-.41.15-.62-.03-.69-.11-1.38-.14-2.07-.03-.72-.56-1.24-.72-1.91-.18-.77-.56-1.44-1.13-2-.25-.24-.53-.46-.74-.72-.4-.5-.72-1.1-1.5-1.06-.53-.59-1.3-.67-2-.86-.69-.2-1.4-.44-2.15-.41-.52.02-1.03-.05-1.55-.07-.4-.02-.75.03-1.09.32-.69.58-1.43,1.11-2.17,1.64-.75.54-1.21,1.21-1.27,2.16-.02.38-.13.78-.29,1.13-.18.41-.26.82-.26,1.26,0,.99.02,1.99.21,2.95.15.75.24,1.51.6,2.25Z"/>
      <path class="cls-8" d="m20.75,873.28c.76-.08,1.25-.06,1.69-.19.49-.15,1.02-.21,1.43-.57.12-.1.34-.07.49-.14.62-.28,1.3-.51,1.84-.9.35-.26.51-.78.76-1.18.12-.18.29-.34.36-.54.25-.68.89-1.19.93-1.96.03-.49.15-.94.39-1.37.1-.18.16-.41.15-.62-.03-.69-.11-1.38-.14-2.07-.03-.72-.56-1.24-.72-1.91-.18-.77-.56-1.44-1.13-2-.25-.24-.53-.46-.74-.72-.4-.5-.72-1.1-1.5-1.06-.53-.59-1.3-.67-2-.86-.7-.2-1.39-.44-2.15-.41-.52.02-1.03-.05-1.55-.07-.39-.02-.75.03-1.09.32-.69.58-1.43,1.11-2.17,1.64-.75.54-1.21,1.21-1.27,2.16-.02.38-.13.78-.29,1.13-.18.41-.26.82-.26,1.26,0,.99.02,1.99.21,2.95.15.75.24,1.51.6,2.25.46.94.99,1.79,1.61,2.63.38.51.81.88,1.41,1.09.61.22,1.23.44,1.79.76.52.29,1.02.46,1.33.4Z"/>
      <path class="cls-10" d="m505.02,955.55c1.82-4.1,2.58-8.16,2.55-12.56-.04-6.98-.13-14-.86-20.92-4.04-1.5-7.82-3.6-10.96-7.08-10.1.49-14.22-7.3-19.48-13.76-2.82-3.47-6.46-6.26-9.67-9.42-7.36-7.23-12.25-15.86-14.62-25.92-.82,1.07-1.83,2.02-3.03,2.88-3.04,2.18-6.08,4.37-8.94,6.76-1.4,1.17-2.85,1.37-4.48,1.31-2.14-.09-4.28-.38-6.4-.29-3.11.13-6-.89-8.87-1.7-2.85-.81-6.04-1.13-8.23-3.56-3.21.16-4.51-2.32-6.18-4.37-.89-1.1-2.05-1.99-3.07-2.99-2.34-2.3-3.89-5.04-4.64-8.23-.14-.6-.36-1.17-.61-1.73-4.65,1.96-9.31,3.93-13.28,6.83-3.51,2.57-5.1,7.76-7.6,11.73-1.15,1.82-2.88,3.39-3.6,5.35-2.51,6.81-8.88,11.82-9.29,19.55-.26,4.86-1.5,9.31-3.83,13.6-.98,1.8-1.57,4.11-1.49,6.16.29,6.87,1.14,13.72,1.43,20.59.31,7.17,5.56,12.37,7.13,19,1.27,5.39,3.51,10.24,6.66,14.57h127.9c.32-1.43.54-2.93.64-4.52.24-3.82,1.29-7.77,2.85-11.27Z"/>
      <path class="cls-1" d="m17.03,595.03c3.93.16,7.43-.32,10.81-3.15,1.95-1.63,3.94-3.22,5.95-4.78,5.1-3.97,10.36-7.76,15.62-11.53,7.44-5.33,12.05-12.03,12.64-21.47.24-3.82,1.29-7.77,2.85-11.27,1.82-4.1,2.58-8.16,2.55-12.56-.06-9.84-.18-19.75-2.11-29.34-1.51-7.48-2.36-15.07-5.92-22.37-4.55-9.32-9.87-17.85-16-26.13-3.79-5.11-8.05-8.72-14.01-10.84-6.08-2.15-12.22-4.42-17.8-7.59-4.34-2.47-8.57-4.04-11.62-4.11v164.44c.53,0,1.06,0,1.59-.02,5.13-.21,10.29.49,15.44.7Z"/>
      <path class="cls-5" d="m545.48,716.87c-9.81,1.02-16.21.79-22.02,2.52-6.34,1.89-13.23,2.79-18.65,7.47-1.53,1.32-4.39.96-6.41,1.88-8.1,3.69-16.83,6.59-23.9,11.75-4.59,3.35-6.66,10.13-9.94,15.33-1.5,2.38-3.76,4.43-4.7,6.98-3.28,8.9-11.6,15.44-12.13,25.54-.34,6.35-1.96,12.17-5.01,17.77-1.14,2.1-1.88,4.73-1.94,7.16,2.4.88,4.13,2.36,5.67,4.44,2.54,3.43,4.75,6.97,6.63,10.84,1.48,3.03,1.83,6.17,2.46,9.28.8,3.98.85,8.09.88,12.17.01,1.83-.31,3.51-1.06,5.21-.64,1.45-1.08,3.09-1.18,4.67-.15,2.39-.93,4.35-2.21,6.03,2.37,10.05,7.26,18.69,14.62,25.92,3.21,3.16,6.85,5.95,9.67,9.42,5.26,6.47,9.37,14.26,19.48,13.76,3.14,3.48,6.93,5.58,10.96,7.08,4.85,1.81,10.07,2.74,14.97,4.13,9.03,2.55,18.13,5.75,27.93,5.35,0,0,0,0,.01,0v-214.63c-1.57-.26-2.97-.29-4.15-.06Z"/>
      <path class="cls-7" d="m402.77,863.93c1.02,1,2.18,1.89,3.07,2.99,1.67,2.05,2.98,4.53,6.18,4.37,2.2,2.43,5.38,2.75,8.23,3.56,2.87.81,5.76,1.83,8.87,1.7,2.13-.09,4.27.2,6.4.29,1.63.07,3.08-.13,4.48-1.31,2.86-2.4,5.91-4.59,8.94-6.76,1.2-.86,2.22-1.81,3.03-2.88,1.28-1.67,2.06-3.64,2.21-6.03.1-1.58.54-3.22,1.18-4.67.75-1.7,1.07-3.38,1.06-5.21-.03-4.08-.08-8.19-.88-12.17-.62-3.1-.98-6.25-2.46-9.28-1.89-3.86-4.09-7.4-6.63-10.84-1.54-2.08-3.27-3.56-5.67-4.44-.05-.02-.09-.04-.14-.06-2.52-.89-5.07-1.83-7.38-3.15-2.13-1.21-4.21-1.91-5.47-1.66-3.12.32-5.14.25-6.99.8-2.01.6-4.2.89-5.92,2.37-.49.42-1.39.3-2.04.6-2.57,1.17-5.34,2.09-7.58,3.73-1.46,1.06-2.11,3.22-3.15,4.86-.48.76-1.19,1.41-1.49,2.22-1.04,2.83-3.68,4.9-3.85,8.11-.11,2.02-.62,3.86-1.59,5.64-.41.75-.65,1.71-.62,2.55.12,2.85.47,5.69.59,8.54.1,2.33,1.45,4.15,2.34,6.15.25.56.47,1.13.61,1.73.75,3.19,2.3,5.94,4.64,8.23Z"/>
      <path class="cls-3" d="m495.07,161.84c-2.32-4.75-5.03-9.09-8.15-13.31-1.93-2.61-4.1-4.44-7.14-5.52-3.1-1.1-6.23-2.25-9.06-3.87-2.62-1.49-5.17-2.35-6.72-2.04-3.83.4-6.32.31-8.58.98-2.47.74-5.16,1.09-7.27,2.91-.6.52-1.71.37-2.5.73-3.16,1.44-6.56,2.57-9.32,4.58-1.79,1.31-2.6,3.95-3.87,5.98-.59.93-1.47,1.73-1.83,2.72-1.28,3.47-4.52,6.02-4.73,9.96-.13,2.48-.76,4.74-1.95,6.93-.5.92-.8,2.09-.76,3.14.15,3.5.58,6.99.73,10.49.16,3.65,2.83,6.3,3.63,9.68.92,3.92,2.83,7.29,5.7,10.11,1.25,1.23,2.67,2.32,3.77,3.67,2.05,2.52,3.65,5.56,7.59,5.37,2.7,2.99,6.61,3.38,10.11,4.37,3.52,1,7.07,2.24,10.89,2.09,2.61-.11,5.24.25,7.86.36,2,.08,3.78-.16,5.51-1.6,3.52-2.94,7.25-5.63,10.99-8.31,3.79-2.72,6.14-6.13,6.44-10.94.12-1.94.66-3.96,1.45-5.74.93-2.09,1.32-4.16,1.3-6.4-.03-5.01-.09-10.06-1.08-14.94-.77-3.81-1.2-7.68-3.02-11.39Z"/>
      <path class="cls-8" d="m12.76,10.94c3.11,7.55,4.35,15.98,8.65,23.04,3.03,4.96,6.25,9.46,10.99,12.89,4.86,3.52,9.52,7.26,13.19,10.08,4.99.48,9.2-.05,12.11,1.36,6.96,3.37,14.47,2.56,22.57.16,2.97-.88,5.99-1.33,8.99-1.99,4.91-1.08,9.87-2.2,14.44-4.95,6.05-3.63,11.98-7.49,17.53-12,2.03-1.65,3.72-3.46,5.2-5.4,1.11-1.46,2.11-2.98,3.03-4.58.7-1.22,1.22-3.08,2.17-3.53,4.51-2.1,5.5-5.94,6.73-9.49,1.26-3.63,2.49-7.25,3.88-10.86.69-1.81.73-3.73.63-5.67H11.33c-.04,3.77,1.73,7.11,1.43,10.94Z"/>
      <path class="cls-7" d="m106.82,198.2c7.53,1.99,14.31.84,20.14-3.4.99-.72,2.28-1.32,3.63-1.7,3.38-.95,6.36-2.63,9.14-4.86,4.01-3.36,9-7.54,13.05-12.54.51-.63,1.03-1.24,1.55-1.86,2.41-2.87,5.13-6.12,7.07-10.41,2.51-5.55,4.5-11.34,6.08-17.7,1.29-5.21,1.11-9.76-.56-14.33-1.17-3.19-2.26-6.3-2.78-9.27-.92-5.24-2.69-9.05-5.27-11.34-.89-.88-1.65-1.68-2.35-2.41-1.73-1.82-3.36-3.53-5.48-4.95,0,0-.01,0-.02-.01-.43-.29-.86-.6-1.28-.91-1.85-1.34-4.29-3.1-7.53-4.01-.52-.43-1.22-.94-2.11-1.37-.85-.41-1.7-.86-2.54-1.3-2.75-1.43-5.86-3.06-9.4-3.95-3.33-.84-6.44-.14-8.71.37-.64.14-1.28.3-1.9.38-.2.02-.41.02-.62.02-1.09.03-2.73.06-4.53.7-.73.26-1.9.38-3.13.51-2.94.32-6.97.75-10.7,3.52-1.35,1-2.73,1.61-4.37,1.93-2.32.45-4.54,1.5-6.32,2.97-.14.11-.27.23-.41.35-1.53,1.38-3.02,2.83-4.49,4.27-1.32,1.29-2.63,2.57-4,3.81-2.94,2.65-4.3,5.88-5.3,8.23-.47,1.12-.92,2.18-1.36,2.76-3.54,4.68-5.59,10.02-6.09,15.88-.07.78-.1,1.56-.14,2.35-.04,1.03-.08,2-.22,2.68-.09.46-.2.91-.3,1.37-.66,2.85-1.79,7.75.85,12.56.17,4.33,1.9,7.91,3.24,10.66.31.64.62,1.28.91,1.92l.66,1.53c1.54,3.57,3.28,7.62,6.53,11.24.98,1.09,1.93,2.43,2.94,3.85.64.91,1.28,1.81,1.96,2.69,1.4,1.85,3.6,4.24,7.13,5.59.82.31,1.69.59,2.67.77,4.88.9,9.93,2.23,14.39,3.41Zm-18.15-26.12c-1.64-1.83-2.77-4.45-3.97-7.24l-.72-1.65c-.35-.8-.74-1.6-1.13-2.4-1.21-2.5-1.93-4.11-1.75-5.35l.48-3.47-2.17-2.38c.05-.55.28-1.58.45-2.3.14-.6.28-1.2.4-1.8.36-1.8.43-3.46.5-4.93.02-.57.05-1.15.1-1.73.26-3.1,1.3-5.8,3.17-8.26,1.55-2.05,2.46-4.2,3.19-5.92.56-1.32,1.09-2.58,1.61-3.05,1.51-1.36,2.97-2.78,4.42-4.21,1.28-1.25,2.56-2.51,3.89-3.71,3.76-.75,7.09-2.23,10.19-4.53.53-.39,2.06-.56,3.53-.72,1.72-.19,3.83-.41,6.02-1.12.14,0,.27,0,.41,0,.72-.02,1.45-.05,2.15-.14,1.07-.14,2.17-.37,3.27-.62.66-.15,1.64-.37,2.09-.4,1.83.51,3.85,1.56,6,2.68.79.41,1.58.83,2.38,1.22.82.73,2.45,2.11,4.93,2.53.72.12,1.86.95,3.07,1.82.57.42,1.15.83,1.73,1.22.78.52,1.76,1.56,3.01,2.87.47.5.98,1.03,1.52,1.58.42.43.87.88,1.34,1.35l.02.02c.21.42.61,1.47.92,3.23.73,4.15,2.11,8.1,3.45,11.78.65,1.76.67,3.43.1,5.76-1.36,5.48-3.06,10.45-5.2,15.17-1.11,2.46-2.89,4.58-4.95,7.03-.57.68-1.14,1.36-1.7,2.05-3.16,3.9-7.36,7.42-11.07,10.53-1.19.97-2.31,1.6-3.68,1.98-3.02.85-5.89,2.22-8.29,3.96-2.24,1.63-4.49,1.94-7.77,1.08-1.6-.42-3.28-.86-5.01-1.3-3.35-.85-6.9-1.69-10.51-2.35-.02-.01-.23-.16-.72-.81-.57-.75-1.12-1.52-1.66-2.3-1.2-1.7-2.45-3.45-3.99-5.17Z"/>
      <path class="cls-8" d="m527.06,125.73c-.18-.77-.56-1.44-1.13-2-.25-.24-.53-.46-.74-.72-.4-.5-.72-1.1-1.5-1.06-.53-.59-1.3-.67-2-.86-.7-.2-1.39-.44-2.15-.41-.52.02-1.03-.05-1.55-.07-.39-.02-.75.03-1.09.32-.69.58-1.43,1.11-2.17,1.64-.75.54-1.21,1.21-1.27,2.16-.02.38-.13.78-.29,1.13-.18.41-.26.82-.26,1.26,0,.99.02,1.99.21,2.95.15.75.24,1.51.6,2.25.46.94.99,1.79,1.61,2.63.38.51.81.88,1.41,1.09.61.22,1.23.44,1.79.76.52.29,1.02.46,1.33.4.76-.08,1.25-.06,1.69-.19.49-.15,1.02-.21,1.43-.57.12-.1.34-.07.49-.14.62-.28,1.3-.51,1.84-.9.35-.26.51-.78.76-1.18.12-.18.29-.34.36-.54.25-.69.89-1.19.93-1.96.03-.49.15-.94.39-1.37.1-.18.16-.41.15-.62-.03-.69-.11-1.38-.14-2.07-.03-.72-.56-1.24-.72-1.91Z"/>
    </g>
  </g>
</svg>