<svg width="582" height="291" viewBox="0 0 582 291" fill="none" xmlns="http://www.w3.org/2000/svg">
    <g opacity="0.7">
        <path
            d="M170.94 262.421C166.33 270.848 156.382 274.632 147.889 270.809C140.509 267.453 134.599 261.673 140.371 251.776C151.888 232.026 141.809 227.836 159.459 211.374C177.109 194.911 179.444 201.341 191.504 206.85C203.565 212.358 224.842 209.015 210.102 229.415C195.362 249.814 182.306 241.702 176.198 252.782L170.94 262.421Z"
            fill="#ABBF90" />
        <path
            d="M462.596 151.854C472.421 152.541 480.572 160.252 481.181 169.976C481.719 178.419 479.344 186.555 467.675 185.446C444.337 183.227 445.452 194.658 422.148 185.134C398.845 175.61 403.519 170.615 402.695 156.862C401.871 143.108 388.61 124.446 414.055 129.365C439.501 134.284 438.461 150.249 451.389 151.128L462.637 151.883L462.596 151.854Z"
            fill="#ABBF90" />
        <path
            d="M209.129 57.7769C208.549 39.2673 214.844 22.4063 223.967 19.094C231.845 16.2689 239.833 18.9398 240.205 40.9386C240.963 85.0071 251.573 80.4521 245.506 126.047C239.399 171.614 234.094 164.038 221.153 168.57C208.213 173.103 192.25 201.949 193.756 153.361C195.261 104.773 210.514 103.268 209.729 78.9491L209.102 57.8197L209.129 57.7769Z"
            fill="#CDE5AA" />
        <path
            d="M326.77 70.1518C336.595 70.8389 344.746 78.5502 345.355 88.274C345.893 96.7165 343.517 104.853 331.849 103.744C308.511 101.524 309.626 112.956 286.322 103.432C263.018 93.9078 267.693 88.9122 266.869 75.1592C266.045 61.4062 252.783 42.7436 278.229 47.6629C303.674 52.5822 302.634 68.547 315.563 69.4255L326.811 70.1802L326.77 70.1518Z"
            fill="#CDE5AA" />
        <path
            d="M509.781 134.662C500.23 130.101 489.89 119.633 488.935 107.204C487.849 91.9142 501.784 84.1327 497.645 72.0113C495.295 65.1397 489.752 64.5415 490.094 60.8384C490.991 51.7942 526.495 39.0883 543.227 53.0858C564.819 71.0865 551.569 130.398 529.205 137.603C521.245 140.186 512.494 135.936 509.74 134.633L509.781 134.662Z"
            fill="#CDE5AA" />
        <path
            d="M347.794 162.027C329.169 159.027 323.12 161.648 320.533 157.197C316.953 150.884 323.537 136.073 332.935 133.999C338.487 132.817 343.077 136.508 351.618 143.506C358.734 149.326 371.544 161.454 369.319 165.261C367.93 167.557 362.461 164.424 347.794 162.027Z"
            fill="#819963" />
        <path
            d="M552.976 178.922C572.046 176.196 582.626 170.573 580.404 175.492C577.225 182.391 551.378 204.044 537.521 210.031C529.292 213.597 528.213 210.382 526.096 204.35C524.389 199.342 523.315 188.124 530.602 182.424C535.01 178.967 537.956 181.081 552.976 178.922Z"
            fill="#819963" />
        <path
            d="M342.918 226.743C334.444 234.511 336.47 242.081 330.713 242.565C320.797 243.416 302.677 222.046 306.042 214.107C308.708 207.835 322.697 215.118 333.134 206.747C341.922 199.691 338.519 189.191 344.628 188.521C352.809 187.631 368.927 205.204 366.635 214.138C364.838 221.077 353.486 217.048 342.985 226.729L342.918 226.743Z"
            fill="#CDE5AA" />
        <path
            d="M141.509 153.294C144.462 162.556 140.56 172.833 132.198 176.983C124.959 180.562 116.873 181.394 113.672 170.295C107.27 148.098 97.5286 153.32 97.5281 128.501C97.5276 103.682 103.631 106.087 115.552 100.29C127.473 94.4932 139.168 75.4826 143.952 100.617C148.737 125.751 134.28 130.644 138.134 142.751L141.509 153.294Z"
            fill="#ABBF90" />
        <path
            d="M76.3446 32.5111C83.3296 25.2457 94.2466 23.9222 101.566 29.8842C107.921 35.0512 112.142 42.3025 103.629 50.7822C86.5897 67.6704 95.4287 74.3832 73.2545 86.4003C51.0803 98.4175 50.5733 91.413 40.1984 82.9527C29.8235 74.4924 7.73279 72.5264 28.1461 55.7721C48.5594 39.0177 59.1863 50.4249 68.3735 40.8756L76.3583 32.5823L76.3446 32.5111Z"
            fill="#ABBF90" />
        <path
            d="M81.9673 210.16C81.9185 221.95 88.6214 225.451 85.1526 230.301C79.1868 238.646 51.9667 238.772 48.5305 230.835C45.8034 224.562 60.2976 218.403 61.2353 204.645C62.03 193.067 52.2899 188.805 55.8524 183.528C60.6295 176.51 83.8366 175.497 88.6408 183.217C92.3697 189.202 82.0218 195.479 81.9673 210.16Z"
            fill="#819963" />
        <path
            d="M170.94 262.421C166.33 270.848 156.382 274.632 147.889 270.809C140.509 267.453 134.599 261.673 140.371 251.776C151.888 232.026 141.809 227.836 159.459 211.374C177.109 194.911 179.444 201.341 191.504 206.85C203.565 212.358 224.842 209.015 210.102 229.415C195.362 249.814 182.306 241.702 176.198 252.782L170.94 262.421Z"
            fill="#ABBF90" />
        <path
            d="M462.596 151.854C472.421 152.541 480.572 160.252 481.181 169.976C481.719 178.419 479.344 186.555 467.675 185.446C444.337 183.227 445.452 194.658 422.148 185.134C398.845 175.61 403.519 170.615 402.695 156.862C401.871 143.108 388.61 124.446 414.055 129.365C439.501 134.284 438.461 150.249 451.389 151.128L462.637 151.883L462.596 151.854Z"
            fill="#ABBF90" />
        <path
            d="M209.129 57.7769C208.549 39.2673 214.844 22.4063 223.967 19.094C231.845 16.2689 239.833 18.9398 240.205 40.9386C240.963 85.0071 251.573 80.4521 245.506 126.047C239.399 171.614 234.094 164.038 221.153 168.57C208.213 173.103 192.25 201.949 193.756 153.361C195.261 104.773 210.514 103.268 209.729 78.9491L209.102 57.8197L209.129 57.7769Z"
            fill="#CDE5AA" />
        <path
            d="M326.77 70.1518C336.595 70.8389 344.746 78.5502 345.355 88.274C345.893 96.7165 343.517 104.853 331.849 103.744C308.511 101.524 309.626 112.956 286.322 103.432C263.018 93.9078 267.693 88.9122 266.869 75.1592C266.045 61.4062 252.783 42.7436 278.229 47.6629C303.674 52.5822 302.634 68.547 315.563 69.4255L326.811 70.1802L326.77 70.1518Z"
            fill="#CDE5AA" />
        <path
            d="M509.781 134.662C500.23 130.101 489.89 119.633 488.935 107.204C487.849 91.9142 501.784 84.1327 497.645 72.0113C495.295 65.1397 489.752 64.5415 490.094 60.8384C490.991 51.7942 526.495 39.0883 543.227 53.0858C564.819 71.0865 551.569 130.398 529.205 137.603C521.245 140.186 512.494 135.936 509.74 134.633L509.781 134.662Z"
            fill="#CDE5AA" />
        <path
            d="M347.794 162.027C329.169 159.027 323.12 161.648 320.533 157.197C316.953 150.884 323.537 136.073 332.935 133.999C338.487 132.817 343.077 136.508 351.618 143.506C358.734 149.326 371.544 161.454 369.319 165.261C367.93 167.557 362.461 164.424 347.794 162.027Z"
            fill="#819963" />
        <path
            d="M424.324 84.5426C412.255 86.111 407.591 89.6969 406.755 86.4667C405.577 81.8277 413.058 67.6407 419.849 63.7504C423.854 61.4904 426.244 63.6487 430.632 67.7528C434.327 71.1893 440.58 78.7488 438.274 82.4995C436.844 84.7672 433.778 83.3083 424.283 84.5142L424.324 84.5426Z"
            fill="#CDE5AA" />
        <path
            d="M552.976 178.922C572.046 176.196 582.626 170.573 580.404 175.492C577.225 182.391 551.378 204.044 537.521 210.031C529.292 213.597 528.213 210.382 526.096 204.35C524.389 199.342 523.315 188.124 530.602 182.424C535.01 178.967 537.956 181.081 552.976 178.922Z"
            fill="#819963" />
        <path
            d="M342.918 226.743C334.444 234.511 336.47 242.081 330.713 242.565C320.797 243.416 302.677 222.046 306.042 214.107C308.708 207.835 322.697 215.118 333.134 206.747C341.922 199.691 338.519 189.191 344.628 188.521C352.809 187.631 368.927 205.204 366.635 214.138C364.838 221.077 353.486 217.048 342.985 226.729L342.918 226.743Z"
            fill="#CDE5AA" />
        <path
            d="M141.509 153.294C144.462 162.556 140.56 172.833 132.198 176.983C124.959 180.562 116.873 181.394 113.672 170.295C107.27 148.098 97.5286 153.32 97.5281 128.501C97.5276 103.682 103.631 106.087 115.552 100.29C127.473 94.4932 139.168 75.4826 143.952 100.617C148.737 125.751 134.28 130.644 138.134 142.751L141.509 153.294Z"
            fill="#ABBF90" />
        <path
            d="M76.3446 32.5111C83.3296 25.2457 94.2466 23.9222 101.566 29.8842C107.921 35.0512 112.142 42.3025 103.629 50.7822C86.5897 67.6704 95.4287 74.3832 73.2545 86.4003C51.0803 98.4175 50.5733 91.413 40.1984 82.9527C29.8235 74.4924 7.73279 72.5264 28.1461 55.7721C48.5594 39.0177 59.1863 50.4249 68.3735 40.8756L76.3583 32.5823L76.3446 32.5111Z"
            fill="#ABBF90" />
        <path
            d="M39.1326 163.378C24.6561 176.017 22.5332 182.544 17.6258 181.588C10.7391 180.238 4.55996 165.217 9.31877 156.462C12.1227 151.272 17.7969 150.176 28.4543 148.055C37.3106 146.281 54.445 144.302 55.6896 148.556C56.4013 151.146 50.5272 153.396 39.1326 163.378Z"
            fill="#CDE5AA" />
        <path
            d="M81.9673 210.16C81.9185 221.95 88.6214 225.451 85.1526 230.301C79.1868 238.646 51.9667 238.772 48.5305 230.835C45.8034 224.562 60.2976 218.403 61.2353 204.645C62.03 193.067 52.2899 188.805 55.8524 183.528C60.6295 176.51 83.8366 175.497 88.6408 183.217C92.3697 189.202 82.0218 195.479 81.9673 210.16Z"
            fill="#819963" />
    </g>
</svg>
    