<svg width="576" height="372" viewBox="0 0 576 372" fill="none" xmlns="http://www.w3.org/2000/svg">
    <g opacity="0.7">
        <path
            d="M415.932 261.932C411.416 269.805 401.591 273.385 393.165 269.872C385.842 266.788 379.96 261.438 385.617 252.19C396.904 233.735 386.906 229.89 404.282 214.461C421.657 199.033 424.004 205.008 435.972 210.07C447.939 215.132 468.978 211.9 454.505 230.979C440.072 250.083 427.063 242.576 421.081 252.927L415.932 261.932Z"
            fill="#ABBF90" />
        <path
            d="M169.567 244.058C165.051 251.931 155.226 255.511 146.8 251.998C139.477 248.914 133.595 243.565 139.252 234.317C150.539 215.861 140.541 212.016 157.917 196.588C175.292 181.159 177.639 187.134 189.607 192.196C201.574 197.258 222.613 194.027 208.14 213.105C193.666 232.183 180.698 224.702 174.716 235.053L169.567 244.058Z"
            fill="#ABBF90" />
        <path
            d="M457.601 139.472C467.329 140.057 475.439 147.192 476.097 156.243C476.677 164.102 474.371 171.692 462.816 170.724C439.706 168.788 440.874 179.426 417.756 170.688C394.639 161.949 399.237 157.271 398.344 144.469C397.452 131.667 384.221 114.362 409.433 118.801C434.644 123.24 433.705 138.112 446.505 138.858L457.642 139.498L457.601 139.472Z"
            fill="#ABBF90" />
        <path
            d="M206.211 53.2813C205.534 36.0485 211.669 20.3125 220.679 17.1771C228.46 14.5024 236.381 16.9451 236.873 37.4281C237.871 78.4604 248.347 74.1596 242.599 116.652C236.811 159.117 231.518 152.092 218.735 156.385C205.953 160.678 190.317 187.629 191.534 142.375C192.751 97.1214 207.838 95.6346 206.924 72.9935L206.185 53.3213L206.211 53.2813Z"
            fill="#CDE5AA" />
        <path
            d="M322.712 64.1484C332.44 64.7334 340.551 71.8686 341.209 80.9201C341.789 88.7787 339.483 96.3688 327.928 95.4007C304.817 93.4644 305.986 104.103 282.868 95.3643C259.75 86.6256 264.348 81.9477 263.456 69.1455C262.563 56.3433 249.333 39.0388 274.544 43.4776C299.756 47.9165 298.816 62.7887 311.616 63.5346L322.753 64.1746L322.712 64.1484Z"
            fill="#CDE5AA" />
        <path
            d="M504.205 123.199C494.726 119.005 484.434 109.315 483.418 97.7468C482.258 83.5147 496.005 76.1909 491.841 64.9266C489.477 58.5409 483.987 58.0147 484.305 54.5645C485.141 46.1376 520.209 34.1078 536.847 47.0489C558.319 63.6905 545.539 118.995 523.445 125.829C515.582 128.279 506.897 124.371 504.164 123.173L504.205 123.199Z"
            fill="#CDE5AA" />
        <path
            d="M344.037 149.585C325.587 146.895 319.614 149.37 317.029 145.24C313.45 139.381 319.884 125.552 329.173 123.568C334.661 122.437 339.224 125.848 347.718 132.317C354.793 137.697 367.54 148.919 365.359 152.477C363.997 154.623 358.567 151.736 344.037 149.585Z"
            fill="#819963" />
        <path
            d="M547.204 164.172C566.063 161.528 576.502 156.233 574.331 160.825C571.223 167.268 545.764 187.575 532.083 193.227C523.959 196.594 522.873 193.606 520.744 188.001C519.026 183.347 517.9 172.907 525.08 167.559C529.423 164.315 532.351 166.267 547.204 164.172Z"
            fill="#819963" />
        <path
            d="M339.575 209.876C331.232 217.156 333.28 224.194 327.584 224.677C317.775 225.525 299.722 205.727 303.008 198.314C305.611 192.459 319.497 199.163 329.78 191.31C338.437 184.69 335.011 174.932 341.053 174.273C349.145 173.4 365.196 189.674 362.977 198.006C361.238 204.477 349.981 200.789 339.642 209.862L339.575 209.876Z"
            fill="#CDE5AA" />
        <path
            d="M139.825 142.604C142.798 151.213 138.995 160.804 130.743 164.715C123.598 168.088 115.599 168.908 112.369 158.591C105.908 137.957 96.2962 142.874 96.1561 119.762C96.016 96.651 102.071 98.8567 113.836 93.3919C125.602 87.9271 137.07 70.1593 141.946 93.5377C146.823 116.916 132.542 121.552 136.424 132.806L139.825 142.604Z"
            fill="#ABBF90" />
        <path
            d="M74.6505 30.4949C81.5228 23.6903 92.3201 22.397 99.5979 27.9079C105.917 32.684 110.134 39.4129 101.757 47.3566C84.988 63.1779 93.7739 69.3795 71.8953 80.6936C50.0168 92.0077 49.4756 85.488 39.1598 77.6676C28.844 69.8473 6.9694 68.1398 27.0785 52.4243C47.1877 36.7088 57.7695 47.2719 66.8085 38.3283L74.6645 30.5611L74.6505 30.4949Z"
            fill="#ABBF90" />
        <path
            d="M81.215 195.89C81.2329 206.869 87.8866 210.091 84.4807 214.627C78.6232 222.431 51.6838 222.7 48.2382 215.328C45.5039 209.503 59.8145 203.686 60.6652 190.87C61.3865 180.083 51.7226 176.17 55.2188 171.235C59.9073 164.674 82.8701 163.601 87.6682 170.763C91.3925 176.316 81.1863 182.219 81.215 195.89Z"
            fill="#819963" />
        <path
            d="M415.932 261.932C411.416 269.805 401.591 273.385 393.165 269.872C385.842 266.788 379.96 261.438 385.617 252.19C396.904 233.735 386.906 229.89 404.282 214.461C421.657 199.033 424.004 205.008 435.972 210.07C447.939 215.132 468.978 211.9 454.505 230.979C440.072 250.083 427.063 242.576 421.081 252.927L415.932 261.932Z"
            fill="#ABBF90" />
        <path
            d="M169.567 244.058C165.051 251.931 155.226 255.511 146.8 251.998C139.477 248.914 133.595 243.565 139.252 234.317C150.539 215.861 140.541 212.016 157.917 196.588C175.292 181.159 177.639 187.134 189.607 192.196C201.574 197.258 222.613 194.027 208.14 213.105C193.666 232.183 180.698 224.702 174.716 235.053L169.567 244.058Z"
            fill="#ABBF90" />
        <path
            d="M457.601 139.472C467.329 140.057 475.439 147.192 476.097 156.243C476.677 164.102 474.371 171.692 462.816 170.724C439.706 168.788 440.874 179.426 417.756 170.688C394.639 161.949 399.237 157.271 398.344 144.469C397.452 131.667 384.221 114.362 409.433 118.801C434.644 123.24 433.705 138.112 446.505 138.858L457.642 139.498L457.601 139.472Z"
            fill="#ABBF90" />
        <path
            d="M206.211 53.2813C205.534 36.0485 211.669 20.3125 220.679 17.1771C228.46 14.5024 236.381 16.9451 236.873 37.4281C237.871 78.4604 248.347 74.1596 242.599 116.652C236.811 159.117 231.518 152.092 218.735 156.385C205.953 160.678 190.317 187.629 191.534 142.375C192.751 97.1214 207.838 95.6346 206.924 72.9935L206.185 53.3213L206.211 53.2813Z"
            fill="#CDE5AA" />
        <path
            d="M322.712 64.1484C332.44 64.7334 340.551 71.8686 341.209 80.9201C341.789 88.7787 339.483 96.3688 327.928 95.4007C304.817 93.4644 305.986 104.103 282.868 95.3643C259.75 86.6256 264.348 81.9477 263.456 69.1455C262.563 56.3433 249.333 39.0388 274.544 43.4776C299.756 47.9165 298.816 62.7887 311.616 63.5346L322.753 64.1746L322.712 64.1484Z"
            fill="#CDE5AA" />
        <path
            d="M504.205 123.199C494.726 119.005 484.434 109.315 483.418 97.7468C482.258 83.5147 496.005 76.1909 491.841 64.9266C489.477 58.5409 483.987 58.0147 484.305 54.5645C485.141 46.1376 520.209 34.1078 536.847 47.0489C558.319 63.6905 545.539 118.995 523.445 125.829C515.582 128.279 506.897 124.371 504.164 123.173L504.205 123.199Z"
            fill="#CDE5AA" />
        <path
            d="M344.037 149.585C325.587 146.895 319.614 149.37 317.029 145.24C313.45 139.381 319.884 125.552 329.173 123.568C334.661 122.437 339.224 125.848 347.718 132.317C354.793 137.697 367.54 148.919 365.359 152.477C363.997 154.623 358.567 151.736 344.037 149.585Z"
            fill="#819963" />
        <path
            d="M419.344 77.0049C407.408 78.5327 402.812 81.8979 401.967 78.8946C400.775 74.5813 408.099 61.3287 414.798 57.6682C418.749 55.5414 421.127 57.5378 425.493 61.335C429.169 64.5145 435.4 71.5189 433.139 75.0245C431.736 77.1441 428.693 75.8027 419.303 76.9786L419.344 77.0049Z"
            fill="#CDE5AA" />
        <path
            d="M547.204 164.172C566.063 161.528 576.502 156.233 574.331 160.825C571.223 167.268 545.764 187.575 532.083 193.227C523.959 196.594 522.873 193.606 520.744 188.001C519.026 183.347 517.9 172.907 525.08 167.559C529.423 164.315 532.351 166.267 547.204 164.172Z"
            fill="#819963" />
        <path
            d="M339.575 209.876C331.232 217.156 333.28 224.194 327.584 224.677C317.775 225.525 299.722 205.727 303.008 198.314C305.611 192.459 319.497 199.163 329.78 191.31C338.437 184.69 335.011 174.932 341.053 174.273C349.145 173.4 365.196 189.674 362.977 198.006C361.238 204.477 349.981 200.789 339.642 209.862L339.575 209.876Z"
            fill="#CDE5AA" />
        <path
            d="M139.825 142.604C142.798 151.213 138.995 160.804 130.743 164.715C123.598 168.088 115.599 168.908 112.369 158.591C105.908 137.957 96.2962 142.874 96.1561 119.762C96.016 96.651 102.071 98.8567 113.836 93.3919C125.602 87.9271 137.07 70.1593 141.946 93.5377C146.823 116.916 132.542 121.552 136.424 132.806L139.825 142.604Z"
            fill="#ABBF90" />
        <path
            d="M74.6505 30.4949C81.5228 23.6903 92.3201 22.397 99.5979 27.9079C105.917 32.684 110.134 39.4129 101.757 47.3566C84.988 63.1779 93.7739 69.3795 71.8953 80.6936C50.0168 92.0077 49.4756 85.488 39.1598 77.6676C28.844 69.8473 6.9694 68.1398 27.0785 52.4243C47.1877 36.7088 57.7695 47.2719 66.8085 38.3283L74.6645 30.5611L74.6505 30.4949Z"
            fill="#ABBF90" />
        <path
            d="M38.5572 152.566C24.3006 164.415 22.2363 170.505 17.374 169.642C10.5505 168.424 4.35042 154.471 9.01105 146.292C11.757 141.443 17.3666 140.39 27.9025 138.357C36.6578 136.655 53.6048 134.716 54.8606 138.671C55.5795 141.078 49.7784 143.207 38.5572 152.566Z"
            fill="#CDE5AA" />
        <path
            d="M81.215 195.89C81.2329 206.869 87.8866 210.091 84.4807 214.627C78.6232 222.431 51.6838 222.7 48.2382 215.328C45.5039 209.503 59.8145 203.686 60.6652 190.87C61.3865 180.083 51.7226 176.17 55.2188 171.235C59.9073 164.674 82.8701 163.601 87.6682 170.763C91.3925 176.316 81.1863 182.219 81.215 195.89Z"
            fill="#819963" />
    </g>
</svg>
    