<svg width="219" height="15" viewBox="0 0 219 15" fill="none" xmlns="http://www.w3.org/2000/svg">
    <path
        d="M12.5098 8.53223V9.82129H7.41211V11.5791H5.80078V9.82129H0.439453V8.53223H12.5098ZM1.04004 3.44922V2.21875H5.6543V0.973633H7.28027V2.21875H11.8506V3.44922H1.04004ZM1.88965 14.04V10.7295H3.51562V12.751H11.1914V14.04H1.88965ZM2.06543 5.89551C2.06543 4.58447 3.66943 3.88867 6.45996 3.88867C9.25049 3.88867 10.8618 4.58447 10.8691 5.89551C10.8618 7.21387 9.25049 7.93164 6.45996 7.93164C3.66943 7.93164 2.06543 7.21387 2.06543 5.89551ZM3.73535 5.89551C3.7207 6.48145 4.62158 6.75977 6.45996 6.75977C8.29834 6.75977 9.20654 6.48145 9.19922 5.89551C9.20654 5.31689 8.29834 5.03125 6.45996 5.03125C4.62158 5.03125 3.7207 5.31689 3.73535 5.89551ZM19.4314 1.98438V6.10059H15.2566V7.84375C17.2635 7.82178 18.5379 7.74854 20.0174 7.49219L20.1932 8.8252C18.4866 9.11084 17.0437 9.15479 14.6121 9.14746H13.616V4.87012H17.7908V3.28809H13.6014V1.98438H19.4314ZM15.4031 14.0107V10.0996H17.0291V12.6777H24.5437V14.0107H15.4031ZM20.2518 7.44824V6.12988H22.5662V4.45996H20.2518V3.15625H22.5662V1.07617H24.1922V10.832H22.5662V7.44824H20.2518ZM27.9937 1.86719V3.77148H30.9527V1.86719H32.5641V3.09766H35.2301V1.06152H36.8561V9.01562H35.2301V7.11133H32.5641V8.16602H26.3678V1.86719H27.9937ZM27.8766 11.7842C27.8619 10.1729 29.5831 9.25 32.3736 9.25C35.1788 9.25 36.8927 10.1729 36.9 11.7842C36.8927 13.3662 35.1788 14.2891 32.3736 14.2891C29.5831 14.2891 27.8619 13.3662 27.8766 11.7842ZM27.9937 6.8916H30.9527V5.0459H27.9937V6.8916ZM29.4879 11.7842C29.4806 12.5898 30.5353 13.0293 32.3736 13.0293C34.2267 13.0293 35.274 12.5898 35.274 11.7842C35.274 10.9346 34.2267 10.5024 32.3736 10.4951C30.5353 10.5024 29.4806 10.9346 29.4879 11.7842ZM32.5641 5.79297H35.2301V4.38672H32.5641V5.79297ZM42.723 1.98438C44.8251 1.97705 46.3559 3.30273 46.3705 5.17773C46.3559 7.06006 44.8251 8.37842 42.723 8.38574C40.643 8.37842 39.0829 7.06006 39.0902 5.17773C39.0829 3.30273 40.643 1.97705 42.723 1.98438ZM38.4896 10.2168C40.8773 10.2168 44.1806 10.1875 47.0443 9.77734L47.1762 10.9639C44.2099 11.5278 41.0312 11.5498 38.6947 11.5498L38.4896 10.2168ZM40.7016 5.17773C40.6942 6.28369 41.5658 6.96484 42.723 6.96484C43.8949 6.96484 44.7665 6.28369 44.7738 5.17773C44.7665 4.0791 43.9022 3.39062 42.723 3.39062C41.5658 3.39062 40.6942 4.0791 40.7016 5.17773ZM47.8354 14.3184V1.06152H49.4613V14.3184H47.8354ZM66.4541 11.3447V12.6631H54.3545V11.3447H59.54V8.2832H61.1514V11.3447H66.4541ZM54.7061 7.25781C57.4746 6.81104 59.4595 4.82617 59.4668 2.83398V1.86719H61.1953V2.83398C61.1953 4.8335 63.1948 6.81104 65.9854 7.25781L65.2822 8.60547C63.0483 8.18066 61.21 6.89893 60.3311 5.16309C59.4595 6.8916 57.6431 8.18799 55.4092 8.60547L54.7061 7.25781ZM79.0887 7.14062V8.45898H73.8445V9.57227C76.2103 9.72607 77.6165 10.5464 77.6238 11.916C77.6165 13.4395 75.888 14.2891 73.0389 14.2891C70.1458 14.2891 68.4246 13.4395 68.4246 11.916C68.4246 10.5464 69.8309 9.71875 72.2332 9.56494V8.45898H67.0184V7.14062H79.0887ZM67.6043 5.25098C70.0359 5.02393 71.6253 4.03516 71.8963 2.95117H68.117V1.64746H78.0047V2.95117H74.1888C74.4524 4.04248 76.0271 5.02393 78.5174 5.25098L77.9461 6.54004C75.5364 6.29102 73.7566 5.33154 73.0389 3.99121C72.3211 5.33154 70.5633 6.29102 68.1609 6.54004L67.6043 5.25098ZM70.0799 11.916C70.0726 12.6484 71.1126 13.0513 73.0389 13.0439C74.9358 13.0513 75.9832 12.6484 75.9978 11.916C75.9832 11.1836 74.9358 10.7954 73.0389 10.7881C71.1126 10.7954 70.0726 11.1836 70.0799 11.916ZM90.1266 1.07617V5.23633H91.9723V6.58398H90.1266V10.9639H88.5006V1.07617H90.1266ZM79.6969 3.84473V2.54102H82.817V1.06152H84.443V2.54102H87.5484V3.84473H79.6969ZM80.3707 6.9209C80.3707 5.39746 81.6964 4.38672 83.6227 4.38672C85.5343 4.38672 86.8526 5.39746 86.86 6.9209C86.8526 8.43701 85.5343 9.42578 83.6227 9.42578C81.6964 9.42578 80.3707 8.43701 80.3707 6.9209ZM81.6451 14.04V10.1875H83.2711V12.7217H90.6539V14.04H81.6451ZM81.9527 6.9209C81.9454 7.71924 82.6192 8.17334 83.6227 8.16602C84.6261 8.17334 85.3072 7.71924 85.3072 6.9209C85.3072 6.11523 84.6261 5.64648 83.6227 5.64648C82.6192 5.64648 81.9454 6.11523 81.9527 6.9209ZM101.216 2.49707V5.93945H102.754V1.2959H104.307V13.6592H102.754V7.25781H101.216V10.8906H96.0158V2.49707H101.216ZM97.5393 9.60156H99.6926V3.78613H97.5393V9.60156ZM105.464 14.3037V1.06152H107.031V14.3037H105.464ZM119.285 1.06152V14.3184H117.645V1.06152H119.285ZM108.694 6.70117C108.687 3.84473 110.145 2.02832 112.151 2.02832C114.136 2.02832 115.601 3.84473 115.608 6.70117C115.601 9.57959 114.136 11.3887 112.151 11.3887C110.145 11.3887 108.687 9.57959 108.694 6.70117ZM110.262 6.70117C110.262 8.7373 111.031 9.9165 112.151 9.92383C113.265 9.9165 114.026 8.7373 114.026 6.70117C114.026 4.67969 113.265 3.49316 112.151 3.49316C111.031 3.49316 110.262 4.67969 110.262 6.70117ZM131.7 8.00488V9.29395H122.413V2.10156H131.583V3.41992H124.068V5.0166H131.275V6.29102H124.068V8.00488H131.7ZM120.933 12.6924V11.3594H133.033V12.6924H120.933ZM143.968 1.06152V6.23242H145.931V7.59473H143.968V14.2744H142.342V1.06152H143.968ZM133.524 10.6562C136.747 9.04492 138.49 6.80371 138.812 3.78613H134.242V2.43848H140.467C140.46 6.32764 138.849 9.74805 134.447 11.916L133.524 10.6562ZM157.402 6.55469V7.87305H154.721V10.1802C155.878 10.1362 157.035 10.0557 158.134 9.93848L158.266 11.1396C155.351 11.5718 152.282 11.6011 149.784 11.6084L149.579 10.2607C150.671 10.2681 151.864 10.2607 153.095 10.2388V7.87305H150.502V2.27734H157.343V3.56641H152.113V6.55469H157.402ZM158.925 14.3184V1.06152H160.551V14.3184H158.925ZM165.803 2.02832C167.59 2.02832 168.916 3.52246 169.15 5.93945H171.677V1.06152H173.288V14.3184H171.677V7.25781H169.165C168.989 9.81396 167.641 11.3887 165.803 11.3887C163.811 11.3887 162.397 9.57959 162.404 6.70117C162.397 3.84473 163.811 2.02832 165.803 2.02832ZM163.972 6.70117C163.964 8.7373 164.711 9.9165 165.803 9.92383C166.901 9.9165 167.641 8.7373 167.648 6.70117C167.641 4.67969 166.901 3.49316 165.803 3.49316C164.711 3.49316 163.964 4.67969 163.972 6.70117ZM190.178 8.44434V9.7627H184.92V14.2891H183.308V9.7627H178.108V8.44434H190.178ZM178.738 6.27637C181.338 5.94678 183.081 4.54785 183.198 3.09766H179.221V1.80859H189.065V3.09766H185.088C185.198 4.54785 186.926 5.94678 189.548 6.27637L188.962 7.55078C186.707 7.22852 184.949 6.1958 184.143 4.76758C183.33 6.1958 181.587 7.22852 179.353 7.55078L178.738 6.27637ZM194.903 4.5332C194.91 6.67188 195.642 8.89844 197.437 10.0264L196.543 11.2715C195.35 10.5537 194.573 9.32324 194.134 7.88037C193.658 9.46973 192.808 10.8174 191.563 11.5791L190.552 10.3633C192.478 9.19873 193.328 6.8623 193.335 4.60645V2.2334H194.903V4.5332ZM196.016 6.96484V5.61719H197.906V1.2959H199.444V13.6592H197.906V6.96484H196.016ZM200.63 14.3037V1.06152H202.198V14.3037H200.63ZM215.535 11.3594V12.6924H203.436V11.3594H206.234V8.01221C205.179 7.4043 204.542 6.45215 204.549 5.28027C204.542 3.1709 206.607 1.7793 209.456 1.7793C212.32 1.7793 214.4 3.1709 214.393 5.28027C214.4 6.4375 213.778 7.36768 212.752 7.97559V11.3594H215.535ZM206.146 5.28027C206.138 6.63525 207.479 7.49951 209.456 7.49219C211.426 7.49951 212.796 6.63525 212.796 5.28027C212.796 3.90332 211.426 3.06104 209.456 3.06836C207.479 3.06104 206.138 3.90332 206.146 5.28027ZM207.845 11.3594H211.097V8.59814C210.592 8.70801 210.042 8.7666 209.456 8.7666C208.885 8.7666 208.343 8.70801 207.845 8.60547V11.3594ZM217.711 13.1172C217.081 13.1172 216.561 12.6045 216.568 11.9746C216.561 11.3594 217.081 10.854 217.711 10.8467C218.319 10.854 218.839 11.3594 218.839 11.9746C218.839 12.6045 218.319 13.1172 217.711 13.1172Z"
        fill="#4A544A" />
</svg>
    