<svg width="343" height="201" viewBox="0 0 343 201" fill="none" xmlns="http://www.w3.org/2000/svg">
    <path
        d="M75.9413 90.293V93.4785H77.5819V89.1445H78.826V100.561H77.5819V94.5449H75.9413V97.9355H71.1834V90.293H75.9413ZM72.4139 96.8965H74.7245V91.3184H72.4139V96.8965ZM80.0702 101.162V88.9121H81.3143V101.162H80.0702ZM92.7374 88.9121V101.189H91.4386V88.9121H92.7374ZM83.0167 94.1211C83.0167 91.5029 84.3361 89.835 86.1886 89.8281C88.007 89.835 89.3468 91.5029 89.3468 94.1211C89.3468 96.7666 88.007 98.4346 86.1886 98.4277C84.3361 98.4346 83.0167 96.7666 83.0167 94.1211ZM84.2745 94.1211C84.2677 96.0693 85.047 97.2656 86.1886 97.2656C87.3097 97.2656 88.089 96.0693 88.089 94.1211C88.089 92.2002 87.3097 90.9971 86.1886 90.9902C85.047 90.9971 84.2677 92.2002 84.2745 94.1211ZM104.352 95.4336V96.4727H95.8207V89.9238H104.229V90.9766H97.1332V92.6309H103.969V93.6562H97.1332V95.4336H104.352ZM94.4125 99.6172V98.5508H105.623V99.6172H94.4125ZM115.775 88.9121V93.793H117.675V94.873H115.775V101.148H114.476V88.9121H115.775ZM106.246 97.8809C109.315 96.3496 110.983 94.1348 111.25 91.2773H106.861V90.1973H112.576C112.562 93.7383 111.004 96.9033 106.97 98.8926L106.246 97.8809ZM132.401 98.5645V99.6445H121.19V98.5645H126.125V96.0488H122.475V89.7461H123.774V91.8516H129.789V89.7461H131.074V96.0488H127.41V98.5645H132.401ZM123.774 94.9961H129.789V92.9043H123.774V94.9961ZM143.496 88.9121V101.162H142.251V94.8867H140.679V100.533H139.462V89.1582H140.679V93.8203H142.251V88.9121H143.496ZM133.584 98.0449V90.3613H134.882V96.9033C136.01 96.8896 137.248 96.8008 138.642 96.5273L138.779 97.6621C137.097 97.9629 135.696 98.0518 134.376 98.0449H133.584ZM155.001 89.5V90.5391H151.268C151.344 91.8721 153.107 93.0479 155.384 93.3281L154.891 94.3535C152.793 94.0801 151.07 93.1025 150.414 91.7285C149.744 93.1025 148.028 94.0801 145.936 94.3535L145.444 93.3281C147.734 93.0479 149.484 91.8652 149.546 90.5391H145.854V89.5H155.001ZM144.815 96.1992V95.1465H156.026V96.1992H151.159V98.5781H149.874V96.1992H144.815ZM146.21 100.902V97.4023H147.509V99.8496H154.782V100.902H146.21ZM169.411 88.9121V91.7148H171.189V92.7949H169.411V95.4473H168.113V88.9121H169.411ZM160.333 95.0781V89.6914H165.775V90.7578H161.619V94.0117C164.004 93.998 165.344 93.9297 166.882 93.6016L167.033 94.6543C165.378 95.0029 163.929 95.0713 161.304 95.0781H160.333ZM161.564 100.971V96.0898H162.849V97.4844H168.113V96.0898H169.411V100.971H161.564ZM162.849 99.918H168.113V98.5098H162.849V99.918ZM181.819 88.9258V97.9766H180.52V94.791H177.84V95.9395H172.194V89.7324H173.493V91.8105H176.555V89.7324H177.84V91.0996H180.52V88.9258H181.819ZM173.493 94.8867H176.555V92.8086H173.493V94.8867ZM173.821 100.902V97.0879H175.133V99.8496H182.092V100.902H173.821ZM177.84 93.7383H180.52V92.166H177.84V93.7383ZM189.004 89.1172C191.766 89.1104 193.372 89.8555 193.379 91.2227C193.372 92.5967 191.766 93.3418 189.004 93.3418C186.242 93.3418 184.622 92.5967 184.629 91.2227C184.622 89.8555 186.242 89.1104 189.004 89.1172ZM183.426 95.1328V94.0938H194.596V95.1328H183.426ZM184.766 97.0469V96.0762H193.187V98.9473H186.051V100.041H193.529V101.039H184.779V98.0039H191.902V97.0469H184.766ZM185.982 91.2227C185.976 91.9814 187.056 92.3711 189.004 92.3711C190.966 92.3711 192.046 91.9814 192.039 91.2227C192.046 90.498 190.966 90.0742 189.004 90.0742C187.056 90.0742 185.976 90.498 185.982 91.2227ZM208.022 88.9258V92.5625H209.772V93.6289H208.022V97.1699H206.723V88.9258H208.022ZM198.301 95.8027C199.251 95.8027 200.352 95.8027 201.5 95.7754V94.9482C200.106 94.791 199.217 94.1348 199.231 93.1504C199.217 92.0293 200.386 91.332 202.143 91.3457C203.9 91.332 205.048 92.0293 205.055 93.1504C205.048 94.1279 204.18 94.7842 202.799 94.9482V95.7275C203.893 95.6729 205 95.584 206.026 95.4336L206.135 96.3633C203.503 96.8213 200.598 96.8418 198.438 96.8418L198.301 95.8027ZM198.616 90.9355V89.9648H201.5V88.8164H202.799V89.9648H205.684V90.9355H198.616ZM199.833 98.7559V97.7441H208.022V101.162H206.723V98.7559H199.833ZM200.461 93.1504C200.461 93.7246 201.097 94.1006 202.143 94.0938C203.175 94.1006 203.818 93.7246 203.811 93.1504C203.818 92.5625 203.175 92.2207 202.143 92.2344C201.097 92.2207 200.461 92.5625 200.461 93.1504ZM220.361 88.9258V97.8262H219.062V88.9258H220.361ZM210.449 92.7812C210.456 91.0107 211.864 89.7529 213.717 89.7461C215.562 89.7529 216.97 91.0107 216.97 92.7812C216.97 94.5791 215.562 95.8301 213.717 95.8301C211.864 95.8301 210.456 94.5791 210.449 92.7812ZM211.72 92.7812C211.714 93.9365 212.575 94.6953 213.717 94.6953C214.838 94.6953 215.699 93.9365 215.699 92.7812C215.699 91.6533 214.838 90.8809 213.717 90.8809C212.575 90.8809 211.714 91.6533 211.72 92.7812ZM212.349 100.902V96.9238H213.662V99.8496H220.73V100.902H212.349ZM228.079 90.9355V91.9883H221.995V90.9355H224.401V89.2676H225.687V90.9355H228.079ZM222.392 95.543C222.385 93.8955 223.506 92.7266 225.044 92.7266C226.596 92.7266 227.703 93.8955 227.71 95.543C227.703 97.2178 226.596 98.3936 225.044 98.3867C223.506 98.3936 222.385 97.2178 222.392 95.543ZM223.54 95.543C223.533 96.582 224.162 97.2793 225.044 97.2793C225.926 97.2793 226.562 96.582 226.562 95.543C226.562 94.5244 225.926 93.8135 225.044 93.8066C224.162 93.8135 223.533 94.5244 223.54 95.543ZM228.64 100.588V89.1855H229.87V94.0117H231.278V88.9121H232.509V101.162H231.278V95.0781H229.87V100.588H228.64ZM245.053 98.5645V99.6445H233.842V98.5645H238.778V96.0488H235.127V89.7461H236.426V91.8516H242.442V89.7461H243.727V96.0488H240.063V98.5645H245.053ZM236.426 94.9961H242.442V92.9043H236.426V94.9961ZM249.394 92.2617C249.394 94.2168 250.214 96.3018 251.855 97.3066L251.13 98.3047C249.982 97.6143 249.21 96.3906 248.786 94.9756C248.341 96.5273 247.494 97.8535 246.304 98.5781L245.498 97.6074C247.227 96.5684 248.143 94.4014 248.136 92.3164V90.0332H249.394V92.2617ZM250.529 94.2988V93.2188H252.429V89.1445H253.66V100.561H252.429V94.2988H250.529ZM254.959 101.162V88.9121H256.203V101.162H254.959ZM268.692 98.5508V99.6309H257.481V98.5508H260.161V95.3516C259.156 94.7979 258.541 93.9229 258.548 92.8223C258.541 90.8945 260.434 89.6299 263.059 89.623C265.691 89.6299 267.585 90.8945 267.585 92.8223C267.585 93.9023 266.997 94.7705 266.013 95.3242V98.5508H268.692ZM259.806 92.8223C259.806 94.1348 261.139 94.9893 263.059 94.9961C264.967 94.9893 266.32 94.1348 266.327 92.8223C266.32 91.5029 264.967 90.6621 263.059 90.6621C261.139 90.6621 259.806 91.5029 259.806 92.8223ZM261.446 98.5508H264.7V95.8301C264.201 95.9463 263.647 96.0078 263.059 96.0078C262.485 96.0078 261.938 95.9463 261.446 95.8301V98.5508ZM271.557 90.1016L271.434 97.1426H270.08L269.957 90.1016H271.557ZM269.793 99.125C269.786 98.5918 270.231 98.1543 270.764 98.1543C271.29 98.1543 271.728 98.5918 271.735 99.125C271.728 99.6582 271.29 100.089 270.764 100.096C270.231 100.089 269.786 99.6582 269.793 99.125Z"
        fill="black" />
    <path
        d="M159.942 66.132C159.942 65.8613 160.003 65.628 160.124 65.432C160.255 65.2267 160.446 65.124 160.698 65.124C160.913 65.124 161.104 65.166 161.272 65.25C161.44 65.334 161.524 65.474 161.524 65.67C161.524 66.0527 161.505 66.5893 161.468 67.28C161.431 67.952 161.412 68.4513 161.412 68.778C161.412 69.2913 161.431 69.9773 161.468 70.836C161.505 71.6573 161.524 72.2593 161.524 72.642C161.524 72.95 161.519 73.1787 161.51 73.328C161.51 73.4773 161.426 73.6267 161.258 73.776C161.099 73.916 160.852 73.986 160.516 73.986C160.339 73.986 160.185 73.958 160.054 73.902C159.933 73.8367 159.849 73.7667 159.802 73.692C159.363 73.16 158.724 72.2547 157.884 70.976C156.941 69.548 156.171 68.456 155.574 67.7C155.649 68.372 155.686 69.1933 155.686 70.164C155.686 70.5933 155.677 71.1533 155.658 71.844C155.649 72.5253 155.63 72.9733 155.602 73.188C155.565 73.4587 155.481 73.6687 155.35 73.818C155.229 73.958 155.033 74.028 154.762 74.028C154.557 74.028 154.403 73.972 154.3 73.86C154.207 73.7387 154.151 73.5333 154.132 73.244C154.123 72.8613 154.146 72.2873 154.202 71.522C154.211 71.4007 154.225 71.1907 154.244 70.892C154.263 70.5933 154.272 70.3273 154.272 70.094C154.272 69.45 154.239 68.7127 154.174 67.882C154.118 66.9673 154.09 66.2907 154.09 65.852C154.09 65.628 154.169 65.4553 154.328 65.334C154.496 65.2127 154.687 65.152 154.902 65.152C155.089 65.152 155.285 65.1987 155.49 65.292C156.293 66.3 157.38 67.8027 158.752 69.8L160.068 71.816C160.077 71.6667 160.082 71.4567 160.082 71.186C160.082 70.71 160.073 70.1967 160.054 69.646C160.035 69.0953 160.021 68.722 160.012 68.526C159.965 67.6207 159.942 66.8227 159.942 66.132ZM168.997 72.096C169.175 72.096 169.305 72.166 169.389 72.306C169.483 72.4367 169.529 72.5813 169.529 72.74C169.529 72.936 169.497 73.076 169.431 73.16C169.375 73.2347 169.263 73.314 169.095 73.398C168.703 73.5847 168.218 73.734 167.639 73.846C167.061 73.958 166.44 74.014 165.777 74.014C164.947 74.014 164.335 73.874 163.943 73.594C163.561 73.314 163.323 72.978 163.229 72.586C163.145 72.1847 163.103 71.662 163.103 71.018C163.103 70.3273 163.131 69.6507 163.187 68.988C163.243 68.316 163.341 67.462 163.481 66.426C163.547 65.978 163.724 65.656 164.013 65.46C164.303 65.2547 164.62 65.152 164.965 65.152C165.255 65.152 165.726 65.1427 166.379 65.124L167.597 65.11C168.101 65.11 168.465 65.124 168.689 65.152C168.969 65.208 169.175 65.2733 169.305 65.348C169.445 65.4133 169.515 65.53 169.515 65.698C169.515 65.8847 169.45 66.0667 169.319 66.244C169.198 66.4213 169.011 66.51 168.759 66.51C168.47 66.51 168.055 66.4913 167.513 66.454C166.972 66.4167 166.566 66.398 166.295 66.398C166.062 66.398 165.833 66.412 165.609 66.44C165.348 66.4587 165.161 66.4913 165.049 66.538C164.937 66.5847 164.872 66.664 164.853 66.776C164.723 67.7373 164.657 68.4467 164.657 68.904C164.872 68.932 165.082 68.946 165.287 68.946C165.549 68.946 165.829 68.932 166.127 68.904C166.426 68.876 166.617 68.8573 166.701 68.848C167.196 68.8013 167.621 68.778 167.975 68.778C168.181 68.778 168.335 68.8153 168.437 68.89C168.549 68.9647 168.605 69.0673 168.605 69.198C168.605 69.4033 168.549 69.562 168.437 69.674C168.335 69.786 168.148 69.87 167.877 69.926C167.551 69.9913 167.145 70.0427 166.659 70.08C166.183 70.1173 165.717 70.136 165.259 70.136C165.101 70.136 164.881 70.1267 164.601 70.108C164.573 70.6773 164.559 71.2047 164.559 71.69C164.559 72.3527 164.998 72.684 165.875 72.684C166.342 72.684 166.729 72.6513 167.037 72.586C167.345 72.5207 167.7 72.4273 168.101 72.306C168.475 72.166 168.773 72.096 168.997 72.096ZM179.83 65.908C179.886 65.712 179.97 65.5533 180.082 65.432C180.194 65.3013 180.315 65.236 180.446 65.236C180.763 65.236 180.992 65.2967 181.132 65.418C181.272 65.5393 181.342 65.7493 181.342 66.048C181.342 66.132 181.277 66.37 181.146 66.762C180.857 67.6487 180.539 68.7453 180.194 70.052C180.11 70.3507 180.04 70.612 179.984 70.836C179.937 71.06 179.895 71.2467 179.858 71.396C179.634 72.3573 179.438 73.0807 179.27 73.566C179.214 73.706 179.116 73.818 178.976 73.902C178.836 73.9767 178.687 74.014 178.528 74.014C178.369 74.014 178.211 73.9813 178.052 73.916C177.903 73.8413 177.795 73.7573 177.73 73.664C177.45 73.1133 177.095 72.25 176.666 71.074C176.237 69.8887 175.905 68.7687 175.672 67.714C175.457 68.722 175.224 69.6273 174.972 70.43C174.729 71.2327 174.449 72.0773 174.132 72.964C174.095 73.076 174.057 73.1833 174.02 73.286C173.983 73.3793 173.95 73.4727 173.922 73.566C173.857 73.706 173.763 73.818 173.642 73.902C173.521 73.9767 173.385 74.014 173.236 74.014C173.068 74.014 172.905 73.9813 172.746 73.916C172.587 73.8413 172.48 73.7573 172.424 73.664C172.303 73.4587 172.172 73.1413 172.032 72.712C171.901 72.2827 171.724 71.6807 171.5 70.906L171.15 69.716C170.907 68.9413 170.697 68.148 170.52 67.336C170.343 66.524 170.254 66.0387 170.254 65.88C170.254 65.684 170.352 65.53 170.548 65.418C170.744 65.2967 170.94 65.236 171.136 65.236C171.248 65.236 171.365 65.2733 171.486 65.348C171.607 65.4133 171.687 65.53 171.724 65.698C172.051 67.4433 172.531 69.4687 173.166 71.774C173.325 71.41 173.474 70.9807 173.614 70.486C173.763 69.982 173.964 69.2773 174.216 68.372C174.543 67.1867 174.79 66.342 174.958 65.838C174.995 65.698 175.089 65.586 175.238 65.502C175.397 65.418 175.555 65.376 175.714 65.376C175.919 65.376 176.087 65.432 176.218 65.544C176.349 65.6467 176.433 65.7587 176.47 65.88L176.582 66.314C176.871 67.406 177.161 68.428 177.45 69.38C177.739 70.332 178.033 71.13 178.332 71.774C178.519 71.2233 178.743 70.3413 179.004 69.128L179.214 68.204C179.466 67.2147 179.671 66.4493 179.83 65.908ZM183.883 65.88C183.883 66.384 183.855 67.1213 183.799 68.092C183.743 69.0253 183.715 69.7393 183.715 70.234C183.715 70.3647 183.724 70.6353 183.743 71.046C183.733 71.2047 183.677 71.326 183.575 71.41C183.472 71.4847 183.351 71.522 183.211 71.522C183.061 71.522 182.926 71.4847 182.805 71.41C182.683 71.3353 182.609 71.2373 182.581 71.116C182.469 70.3507 182.413 69.436 182.413 68.372L182.427 66.188C182.427 65.8427 182.469 65.5627 182.553 65.348C182.646 65.124 182.842 65.012 183.141 65.012C183.393 65.012 183.579 65.096 183.701 65.264C183.822 65.4227 183.883 65.628 183.883 65.88ZM183.141 72.25C183.775 72.25 184.093 72.488 184.093 72.964C184.093 73.2067 184.013 73.4307 183.855 73.636C183.705 73.832 183.514 73.93 183.281 73.93C183.001 73.93 182.772 73.846 182.595 73.678C182.417 73.5007 182.329 73.2953 182.329 73.062C182.329 72.8567 182.403 72.67 182.553 72.502C182.711 72.334 182.907 72.25 183.141 72.25Z"
        fill="#FF7D34" />
</svg>
    