<?xml version="1.0" encoding="UTF-8"?>
<svg id="_레이어_2" data-name="레이어 2" xmlns="http://www.w3.org/2000/svg" viewBox="0 0 480.08 86.05">
  <defs>
    <style>
      .cls-1 {
        fill: #fff;
        stroke-width: 0px;
      }
    </style>
  </defs>
  <g id="_레이어_1-2" data-name="레이어 1">
    <g>
      <rect class="cls-1" x="7.61" y="8.13" width="467.36" height="69.84" rx="34.09" ry="34.09"/>
      <g>
        <path class="cls-1" d="m14.98,17.09c-.5.84-.94,1.67-1.48,2.48-.55.85-1.21,2.18-1.73,2.98-.5.8-1.05,1.04-1.58-.53-.29-.91-1.01.26-1.57,1.29l-.14.88-.07.9-.11,1.76,2.25,1.11c.41-.03,1.24-.95.71.8-.33,1.11-.45,2.23-.58,3.23-.12,1,0,1.96.14,2.77.08.41.18.78.31,1.12.16.34.35.66.57.93.44.54.99.93,1.68,1.15.62.2.45.44.14.77-.16.16-.35.34-.51.54-.13.2-.21.41-.17.64.5-.11,1.12.63,1.42-.8.26-.9.08-1.61-.27-2.11-.48-.64-.81-1.44-1.38-1.65-.55-.2-.9-.55-1.04-1.13-.14-.58-.1-1.42.35-2.49.63-.09.45,1.89,1.52.72.35-.38.57-.76.72-1.16.07-.2.13-.4.17-.61.06-.2.11-.4.15-.61.18-.81.22-1.71.59-2.55.23.34.33.64.53.72.76.32,1.86.11,2.86-.46.97-.61,2.11-1.42,2.97-2.56,1.7-2.04,3.73-3.79,5.93-5.28l1.69-1.05,1.79-.87c.58-.33,1.23-.5,1.84-.74.62-.23,1.24-.48,1.89-.61.64-.14,1.25-.62,1.93-.85.68-.19,1.39-.23,2.06.34.23.15,1.48.09,1.6-.64.09-.57-.36-1.56,1.38-1.32.98.15.75.47.34.79-.38.33-.71.73-.23,1,3.31.17,7.08-.1,8.7-1.32,1.45-1.08,3.26-1.49,5.2-1.73,1.06-.14,1.76-.24,2.08-.66.99-1.27.94-1.28,3.15-.52,1.99.69,2.55.61,4.07-.58.74-.59,1.29.09,1.96.07,1.2-.04,1.55,1.12,1.8.83,1.58-1.83,7.07-.24,8.48-2.42.4-.61.62-1.98,3.3-2.09.91.32-.52,1.34,1.17,1.33,1.27,0,2.52-.52,3.78-.8.47.73,1.09,1.44,1.38,2.18.38.99,2.44-.29,2.91.64-1.31.24-2.61.49-3.9.73l-4.07,1.06c.01.08.04.16.04.24-.03.94,3.9.79,2.53,1.84-.52.4-3,.22-4.59.31l.15-.08c.05.23,0,.66.16.68,4.81.59,9.68.42,14.51.1.93-.06,1.34-.66,1.09-1.19-3.89-.71-3.36-1.96-1.9-3.39,1.35-1.32,2.68-.58,4.05-.05,3.45-.44-.72-1.99,1.59-2.61,1.44.34,2.17.94,3.25,1.61-.36-1.5,4.46-2.31,1.84-4.12-2.2-1.53-6.17-1-9.93-1.98,6.23,0,3.18-1.98,3.99-3.05.26-.34-1.35-.47-1.97-.26-3.8,1.28-8.57,2.13-9.44,4.86-.43-.92-.17-1.74-.55-2.49-.17-.33-1.64-.5-2.52-.75.22.84-2.45.06-2.26.95.22,1.02,1.34.18,2,.24.9.09,1.8.44,1.6.71-.29.41-1.27.71-1.96,1.05-1.31-1.17-6.01-.32-5.9-1.79.17-2.47-3.08-1.11-5.22-1.52.83.77,3.42.53,2.86,1.28-.39.52-2.23.77-3.81.73-1.44-.04-2.66-.04-2.56-.99.27-2.48-4.11-2.42-7.03-2.45-1.78-.02-4.83-1.01-5.75.26-1.25,1.74-3.35,2.55-6.88,2.99-.76.09-1.3.56-1.92.03-.79-.68.33-.72,1.37-.84,2.07-.24,4.23-.5,4.4-1.75-3.06-.84-7.01,2.87-9.59-.51-.05-.06-.73-.1-.92-.03-.54.21-1.42.4-2.28.57-.86.17-1.75.32-2.58.51-1.67.5-3.13,1.09-3.71,2.03-.5.87-1.7,1.82-2.91,2.61-1.19.86-2.38,1.65-3.05,1.93-1.11.53-2.2,1.13-3.34,1.66-1.1.61-2.19,1.25-3.3,1.89-1.03.75-2.11,1.46-3.08,2.29-.47.44-.94.88-1.39,1.33-.45.45-.91.91-1.27,1.44-.07.09-.41.1-.63.15l.15-.09Zm.92,4.67c-.78,1.22-1.21.56-1.79.75-.53.18-.3-.82-.02-1.07.66-.59,1.17-1.27,1.72-1.93.53-.67.97-1.43,1.5-2.11.54-.67,1.1-1.33,1.74-1.91.63-.58,1.42-.97,2.27-1.24.02.77-.2,1.44-.57,2.04-.38.61-.84,1.24-1.42,1.8-.29.29-.59.57-.91.85-.29.31-.59.62-.88.93-.58.63-1.23,1.2-1.63,1.9Z"/>
        <path class="cls-1" d="m265.31,4.57c1.55.09,3.27-.52,4.19.88.87,1.33,2.96-.8,5.03.15-2.39.23-3.38,2.25-6.64.63-.59-.3-1.35.27-1.49.78-.11.4-1.05.74-1.62,1.1-1.11-1.41-4.23.4-5.48-.79-1.3.22-4.29-.05-3.08.99.7.6-1.4,2.48,2.13,1.88,4.67-.8,2.97.63,2.46,1.44-.4.64-.99,1.37-.09,1.79,1.13.51,2.32-.27,3.44-.49.98-.19,2.29-.3,2.83-1-1.07-.26-2.19-.54-3.32-.81-2.15-.52-.48-1.68-.24-1.75,1.46-.41,1.85-.22,1.89.73.02.44,4.18-.31,4.36,1.42.06.59.21,1.64,3.06,1.71,2.89.06,2.09-1.19,3.46-1.57.3-1.32,3.77-1.12,4.15-1.06,2.68.45,3.67-.67,5.26-1.12,2.33,1.08-1.63,1.77-.53,2.77.18.17-.56.37-.89.12-2.47-1.95-3.95,0-5.83.33-2.05,1.79,2.64.38,2.49,1.33,0,.67-3.23.31-2.24,1.39.32.34,1.02.66,2,.54,3.91-.47,7.78.22,11.69.07,2.68-.1,7.19.41,7.78-.13,2.52-2.32,4.46-.61,6.88-.05.49-.74-.14-2.63,3.17-1.21,4.25,1.83,4.56.8,4.52-1.14-.01-.59.37-1.56,2.53-1.21.93.15-1.93,1,.42,1.12,1.41.07,2.9-.24,4.33-.2,1.61.05.41.57.23.82-.16.22.33,1.11-.8.6-1.42-.65-1.94.27-2.88.1-.27,1.13-2.28-1.34-2.25.25.01.64.98,1.11,2.23,1.03,6.72-.42,13.42.27,20.11.01,1.26-.05,3.01-.19,1.55-1.12-.81-.51-.86-.96.37-.99.89-.02,2.97-.03,2.38.99-.24.41-1.47.88.25,1.05,1.05.1,1.69-.4,1.94-.89.73-1.44,1.62-2.78,5.55-2.66-.45-.87-2.19-.52-3.23-.83-1.57-.47-1.24-1.23-1.26-1.94-.02-.95,1.25-.36,1.99-.39l.04-.45c1.48-.64-1.49-1.16-.15-1.9.6-.33-.05-1.04-1.07-1.16-1.31-.16-2.3.51-2.42.92-.37,1.19-1.41,2.34-.56,3.82-2.85-1.04-5.01-3.22-7.39-.29,0,0-.16.05-.39.1-.23.05-.55.1-.87.12-.64.03-1.3-.09-1.42-.67-.37-1.92-4.82-3.15-8.91-2.51-.72.11-1.74.18-2.3.02-.72-.21-.79-.8-.14-1.05,2.81-1.07,1.95-2.96,4.18-4.16.58-.31.87-1.13-.21-1.06-1.67.11-1.42-1.06-3.08-.76-2.1.38.67.91-.29,1.27-1.08.41.61,1.56-1.56,1.55-2.25-.01-1.32-.8-.98-1.39.37-.63-.51-.88-1.52-.89-.79,0-1.46.29-1.42.74.12,1.23-2.07,2.83-4.13,2.95-.37.02-.96-.12-1.16-.27-1.09-.83-1.01-.81-2.17-.4-1.13.4-1.9,1.62-3.71.67-.5-.26.58-1.18.75-1.8.14-.53,1.42-.43,1.66-.76.55-.73.74-1.19-1.6-1.56-2.59-.41-3.27.32-4.57.89-.55.24-2.08,1.27-1.81.29.45-1.69-1.66-.59-2.39-.85-2.75-1-6.25,1.86-8.68-.42-.05-.04-1.26.08-1.29.18-.7,2.01-2.07.43-3.13.13-3.04-.85-6.62-.35-7.07,1-4.44-2.4-9.61-1.97-12.1,1.02-.65.78-1.87.42-2.91.46l2,1.55Zm17.18,3.59c-2.66.04-4.82-.04-7.08.63.42-1.28.43-2.42-.15-3.49,4.46-.22,3.92,2.09,7.23,2.86Zm15.74,5.48c-.12.03-.91-.79-1.45-.81-2.19-.07-2.99-.86-4.07-1.54,1.96-.57,3.59.2,5.14.46,2.01.33,3.66,1.17,5.58,1.84-1.97,1.17-3.53-.39-5.2.05Z"/>
        <path class="cls-1" d="m138.98,82.46c-.45-.26-1.59-.41-.81-.92.7-.45,1.39-.46,2.51-.18,1.55.38,3.32.71,2.73,1.67-.62,1-.78,2.42-4.29,2.22.48.2.9.45,1.46.59,3.88.92,7.69-1.55,11.79-.03.88.32,1.27-.6.95-1.01-.4-.51-.59-.88.46-1.13,3.01.05.93,2.63,3.96,2.07,2.65-.49,4.94.9,7.2-.08-.22-.32-.23-.73-.65-.9-2.31-.95-6.14-1.63-2.11-3.46-1.91-.28,1.16-1.46-1.18-1.59-1.92-.11-1.52.6-1.36,1.14.07.25.94.62-.29.64-.47,0-1.43-.4-1.36-.53.37-.77,1.01-1.51-.66-2.11.83-.4-.52-1.51,2.38-1.33,2.32.15,3.71,1.07,5.91,1.17l-.19.06c-1.51-1.92-4.59-2.47-9.63-2.23,3.38-.82,3.48-2.87,7.55-2.63.9-1.07-1.24-1.61-1.83-2.42-2.29-.17-6.12.66-6.54-.48-.44-1.19-1.39-.86-2.54-.91-2.11-.09-4,.97-6.34.31-.2-.06-1.65.6-.62,1.06.55.25,2.29-.11,1.69.69-.08.1-1.66.23-2.24.63.08-.81-2.23-.28-2.58-1.23-.58-1.6-1.03-1.57-2.77-.96-.33.11-.07.8-.89.37-3.71-1.96-7.1-.74-10.53.17-.99.26-2.1.6-1.14,1.3,1.05.77,2.11.33,3.37.1,1.31-.24.92-.75,1.3-1.14.4-.43,1.07-.96,2.14-.67.51.14.58.78.58,1.19.01,2.19-3.48,1.33-5.82,1.57-3.07.32-2.97-.73-3.48-1.61-.28-.48-.17-1.19-1.62-1.23-1.09-.03-1.69.45-1.93.93-.75,1.52-3.76,1.7-5.93,1.87-2.09.17-7.59,1.6-5.17-1.81.6-.84-.24-1.47-3.05-1.36-2.74.11-5.63.22-8.36.12-5.15-.19-10.23-.47-15.32.15-1.21.73.84,1.82-1.14,2.47-.04.81,1.65,1.46.94,2.33l1.93.02c1.27-.89,1.37-.98,3.21-.5,1.14.3.78-.19,1.15-.28,1.95-.51,1.66-1.54,2.46-2.38.74,2.35,1.65,4.65.46,6.97,1.04-.52,3.98-.1,3.02-1.67-.65-1.08,2.15-.65,3.24-1,1.3-.42,2.3.15,2.43.93-1.3-.03-2.52-.06-3.74-.08,1.2.85.5,2.03,2.09,2.81l.93-.02c.61-.31,1.76-.63,1.74-.94-.06-1.48,2.1-1.95,4.35-2.13,1.98-.16-1.33,1.37,1.44,1.36.36,0,.2.87-.88.72-2.63-.37-4.01-.34-2.8,1.24.14.18-.59.51-.91.78l-.12-.08c1.87-.04,4.88,1.57,5.13-.83.03-.32.65-.3.84-.07.37.46,1.9.48,1.36,1.41-.44.75-3.99,1.31-1.15,2.39,1.78-.46,2.78-.26,2.73.77-.02.4-2.59.65-.56,1.1,1.57.35,1.29-.6,1.88-.98.95-.6,2.62-1.21,4.21-.75,2.68.78,2.66-.07,2.69-.88.02-.57-.38-1.19,1.47-1.14,1.54.04,2.24.47,2.43,1.23.42,1.65,5.2,3.11,8.23,2.52.86-.17,2.38-.53,1.11-1.07-.53-.22-2.4.03-1.49-.69.61-.49,2.04-.52,3.21.13.91.5,2.4.76,3.64,1.12,2-.99,1.31-1.92-.27-2.84Zm3.06-7.1c1.71.68,2.92.83,4.42-.19,1.14-.78,3.06-.99,4.98-.55,1.27.29,2.88.42,3.04,1.35.16.94-1.76,1.12-2.55,1.14-1.4.05-1.17,1.31-2.99.78-.07-.02-1.05.43-1.01.64.05.23.63.47,1.47.41,5.16-.33,3.76,1.71,4.7,3.03-3.26-3.14-9.53-1.47-14.22-2.06-2.38-.3-3.88-.8-5.29-1.49-1.56-.77-.02-1.45,1.1-1.93,2.1-.91,2.04-1.59-.3-2.37-1.25-.42-.82-1.24-.09-1.09,2.5.52,3.24-.41,4.45-1.25-.95,1.64.05,2.67,2.3,3.56Zm-38.59-3c.31.25.45.36.59.48-2.34.2,1.67,2.77-2.61,1.81-1.05-.23-3.45-.77-4.47-1.58,1.99-1.18,4.51-.28,6.49-.71Z"/>
        <path class="cls-1" d="m10.48,63.59c-.58-.73-1.14-1.52-1.55-2.37-.39-.87-.75-1.76-1.1-2.65-.34-.89-.58-1.82-.94-2.69-.38-.87-.69-1.74-1.14-2.59-.34-.74-.75-1.47-1.03-2.25l.88-.1.57-.11c.53,0,.88-.27.66-1.68-.22-1.43-.64-1.53-1.13-1.35l-.1-.17c-.01-.36,0-.72,0-1.07.48-.67,1.13-.8,1.4-2.03,2.83-.35.65-4.9,1.71-6.98.28.29.48.74.68,1.18.21.44.5.88.84,1.14,1.77,1.31-1.04,1.11-.34,2.13.47.66,1.08,1.07,1.64,1.46.19.13.55-.32.31-.73-.85-1.45.11-1.96.39-2.8.06.55.05,1.5.2,1.56.63.29,1,.72,1.26,1.43.13.33.2.73.26,1.06.07.31.1.63.12.95.03.64-.06,1.29-.16,1.85-.04.55-.12,1.02-.19,1.28-.19.74-.24,1.24-.2,1.56.06.31.22.45.39.51.35.12.82-.08,1.08.17-.07,1.11-1.64.71-1.08,1.49.42.65.74,1.16.91,1.69.18.53.24,1.09.39,1.71.09.27.78.82.64,1.22-.35,1.04-.37,1.88-.11,2.5.24.64.66,1.1,1.15,1.47,1.06.68,2.37.94,3.22,1.58.85.56,1.44,1.61,1.71,1.64,1.88.05,2.79.71,3.84,2.65.65,1.26,1.57-1.46,2.6.84.29.05.56.1.81.15.26.03.5.07.72.11.44.08.8.19,1.09.32.58.28.97.56,1.2.94.46.75.33,1.79.28,2.85.48-.1.91-.09,1.01-.26.36-.61.43-1.53.92-1.94.24-.21.58-.29,1.11-.13.26.08.57.21.95.43.38.18.84.39,1.38.71.21.11,1.18.4,2.37.36.29,0,.6,0,.91,0l.46-.02c.14,0,.31-.02.52-.04.77-.08,1.51-.2,2.12-.37.66-.18,1.62-.08,2.43-.15,2.75-.22,5.19.08,6.77,1.21,1.2.86.13,1.76-.99,2.39-1.87,1.06-4.12,1.71-7.42,1.22-.79-.12-1.5-.21-2.14-.29-.65-.07-1.22-.12-1.65-.18-.9-.1-1.58-.08-2.1.06-1.04.27-1.45.93-1.71,2.28,1.19.09,1.44-.55,1.73-1.06.29-.52.61-.96,1.92-.7.83.17.94.59.91,1.09-.03.5-.16,1.08.33,1.5.2.17-.34.63.4.78,4.97,1.03,4,3.16,4.15,5.09l-1.08,1.54c-.87.04-1.75.05-2.62.05l-1.31-.02-1.56-.12c-1.04-.11-2.08-.16-3.11-.35l-3.06-.64c-4.05-1.05-7.87-2.58-11.79-4.24.08.85,2.83,1.35,2.39,1.86-.4.48-1.63-.11-3.09-1.06-1.18-.89-2.53-1.54-3.8-2.4-1.25-.88-2.6-1.71-3.65-2.92-.79-.88-1.52-1.63-1.99-2.49-.48-.85-.83-1.68-1-2.55-.18-.63-1.27-2.15-1.66-2.94-.64-1.2-1.25-2.93-1.34-3.86-.07-.96.49-1.15,2.36.25,1.14.41,1.71,1.11,2.12,1.97.41.85.63,1.9,1.25,2.64.73-.35,1.49-.63,1.62-1.65-.32-.01-.62-.09-.9-.23-.26-.15-.5-.36-.72-.61-.44-.49-.82-1.12-1.19-1.75-.67-1.31-1.22-2.66-2.42-3.09.05.8.16,1.77.27,2.79Z"/>
        <path class="cls-1" d="m181.33,72.43c.8,2.27-2.36,2.03-5.29,1.95-.5-.01-1,0-1.49,0-1,.01-2.15-.01-2.01.69.11.59.06,1.41,2.18.65.24-.09,2.05.43,2.19.76.38.87-2.14.64-2.76,1.37-.29.34-1-.49-1.26-.55-2.22-.6-1.5-2.74-5.38-2.38-2.04,1.11-1.27,2.57-2.09,3.83l.19-.06c-3.28.94-2.03,2.47-2.03,3.81,0,.67,1.74.58,2.55.93,1.78-1.23,7.38.77,7.35-2.01-.01-.95,1.15-.43,1.88-.31,3.49.6,1.28,2.56,3.56,3.49.94.38-1.57.91-.15,1.24.85.2,1.85.04,2.88-.48,1.27-.65,3.37-2.02,5.17-1.18,2.22,1.02,3.2,0,4.18-.26,2.7-.69,2.61-.82,4.98.55.75.43,1.62.55,2.63.4.3-.04.43-.35.64-.54-3.81-.83-.5-1.77-.11-2.64.55-1.2,2.74.54,3.83-.45.4-.36,1.71.18,1.32.54-.6.55.52,1.77-1.24,1.63-3.5-.27-2.62.75-2.61,1.58,0,1.41,2.21.78,3.61.88.49.03.63-.08.39-.31-.74-.09-1.51-.18-2.63-.31,1.43-.35,2.62-.89,3.74-.85,1.53.04,1.36,1.39,3.33,1.47.82-1.33,2.48-2.45,2.25-3.91-.15-.95.81-1.69,3.21-.91.41-2.87,2.74-3.78,8.35-3.25.3.03.54.19.84.22,1.28.12,3.64-.46,3.58-.1-.17.98-1.08,2.06-3.82,2.19.19.44.79,1.18.52,1.26-1.84.56-.66,1.22.04,1.48,1.4.5,2.04-.59,2.3-.6,2.32-.13,4.79-.56,7.05.19.62.21-1.38,1.81,1.94.69,3.19-1.08-1.68-1.03-.58-1.64,3.57.67,4.52,1.64,4.08,4.39,1.13-.5,2.59-.85,2.95-1.37,1.21-1.78,2.77-1.91,5.22-.52,1.2.68,1.35-.27,1.95-.32,2.64-.19.6-1.65,1.4-1.82,3.95-.46.54,1.77,2.56.99,2.69-1.04,6.26-.67,8.58-1.8,1.11-.64,3.03-1.28-.12-1.86-4.5,1.09-8.64-.27-12.96-.43l.18-.06c-.27.76-2.01.3-2.82.83,1.38.78,5.02-.4,4.93,1.51-1.81.16-4.2-.62-6.38.46-1.05.52-.39-.86-1.46-1.07,2.53-1.39.52-3.87,5.39-4.8,2.47-.47-1.15-.72-.84-1.25l.13.07c-2.23-.55-4.03,1.17-6.27.27,2.41-.42,1.31-.38,1.21-1.01-.29-1.83-4.49-1.36-5.25-2.23-1.73-1.98-3.6-.81-5.71-.46.66.91,2.81.15,3.63.81-.83.52-1.57.98-2.64,1.66-.51-.96-2.36-1.3-2.82-1.95-1.36-1.91-3.86-.93-5.25-.38-3.36,1.33-4.1,4.19-10.49,3.75-2.21-.15.51.98-.74,1.42-.9.32,2.33.78.08,1.31-1.4.33-2.24-.24-3.09-.46-2.21-.58-3.14-.62-4.78-.17-1,.27-.74,1.28-3.18.86-3.1-.54-.3.78-.55.77-2.55-.13-4.77,1.41-6.01,1.07-1.69-.47-2.84-1.83-1.39-3.09.36-.32.2-.77.3-1.16.29-1.14-1.39-1.03-2.87-1.05-4.17.31-6.34-1.84-10.19-1.92Zm2.81,6.66c1.44-1.32,2.86-2.68,5.23-3.7.3-.13,1.83-.27,1.5.42-.3.63,2.34,1.1,1.23,1.13-5.63.13-4.3,2.35-5.71,3.94-.68-.68-3.26-.86-2.24-1.79Z"/>
        <path class="cls-1" d="m469.95,36.7c.66,0,.62,1.29.61,2.04.01.63-.15,1.12.34,1.09.22-.02.67.37.58-.75-.35-1.84.7-.7.97-1.26-.29-.9.93-1.35.27-1.59-.76-.29-1.04-.87-1.08-1.43-.04-.56.14-1.1.23-1.2.32-.38.5-.83.54-1.31.01-.48-.09-1-.25-1.54-.16-.54-.35-1.1-.58-1.64-.26-.53-.51-1.06-.71-1.58-.54-.49-.79-1.11-.94-1.81-1.91-3.12-1.27.47-2.46-.3-.29-.91-.7-1.64-.91-2.39-.23-.74-.26-1.51-.11-2.3.15-.89.8-.51,1.3.04.52.53,1.03,1.12,1.17.39-1-1.52-2.34-2.5-3.53-3.3-1.3-.69-2.55-1.12-3.77-1.29-.86-.1-1.68,1.06-2.33-.41-.3-.74-1.11-1.03-1.71-1.27-.6-.23-1.02-.38-.72-.74.44-.48-.13-2.14,2.73-.93.69.27,1.32.28,2,.18.67-.1,1.37-.28,2.07-.29-.4-.38-.79-.75-1.19-1.14-.4-.39-.81-.78-1.28-1.12.9-.13,2,1.3,2.64.97.57-.35,1.54-.34,2.77.32l.69.57c.67-.05.78-.45.59-1.02-.19-.56-.65-1.32-1.19-1.89-1.09-1.24-1.77-.71-2.28-.64-1.18.11-2.67-1.46-3.66-1.63-.97-.2-2.43-1.59-3.25-.81-.68.67-1.33.4-2.03-.04-.7-.43-1.41-1.13-2.04-1.47-.25-.13-.16-.31-.21-.55-.05-.23-.23-.57-1.09-.87-3.99-1.42-4.04-1.51-.89-2.09-1.91-.51-3.88-.68-5.82-.92-.98-.08-1.96-.07-2.94-.1l-1.47-.03-1.23.03c-3.22.11-6.45.21-9.69.32.3.52.6,1.04.9,1.55.95.09,1.98.1,2.82.29,1.58.37,1.66,1.37,1.53,1.86-.16.61-2.16.22-3.36.25-1.02.65-1.8,1.54-4.08.96l-1.91.95c1.22.11,2.89.52,3.6.28,5.76-1.96,3.47.76,4.3,1.65l1.14.55c1.19.57,1.32,1,.65,1.91-1.35,1.85-4.83,2.88-7.68,5.01,3.82-.85,6.84-.02,9.43-1.34.25-.13,1.72-.58,3.43-.69,1.4-.01,3.04.21,3.79,1.63.39.69,1.5.93,2.6,1.07.56.05,1.13-.01,1.63-.13.48-.08.9-.26,1.14-.56.28-.35.49-.35.91-.2,1.01.35.63.55.26.88-.44.39-.45.77-.2,1.05.25.3.75.57,1.44.67,1.05.12,1.85.64,2.61,1.16.79.49,1.37,1.25,2.12,1.82.39.29.71.7,1.06,1.08.35.39.7.77,1.09,1.11.67.78,1.52,1.32,2.58,1.53.23.05.88.86.89,1.08,0,.33.01.64.05.93.02.3.06.59.15.86.18.55.62,1.02,1.4,1.59.39.31.46.82.51,1.37.03.28.06.57.12.86.03.3.1.61.26.9.42.81,1.03,1.32,1.37,2.1.16-.33.36-.65.53-.98.15-.33.26-.68.29-1.09.07-.89.06-1.68.77-1.78.25-.03.52-.12.57.3.06.57.22,1.27.26,1.84,0,.58-.15,1.03-.58,1.07-.61.06-.54,1.17-.58,2.04-.08.89-.35,1.51-1.3.69.16.9-.08,2.2.99,2.21.56,0,1.11-.14,1.66-.23-.18-1.22-.08-2.39.69-2.4Zm-19.86-29.01c.03.26-.6.27-.94-.07-.19-.18-.57-.28-.9-.42-.33-.13-.61-.25-.57-.59.1-1.04-.41-2.16-.86-3.67,2.63.78,3.32,1.79,3.46,2.53.13.78-.3,1.48-.19,2.21Z"/>
        <path class="cls-1" d="m205.34,9.77c.79,1.03,3.12.11,4.2.77-3.68.58-4.54,1.44-2.7,2.72.5.34.89.47-.49.66-1.53.21-1.41.41-.94,1.71.04.11.03.23.05.35-1.3-.04-3.32.16-3.75-.15-1.31-.96-2.45-.72-3.81-.2-1.39.53-1.96.57-2.63-.41-.49-.71-1.17-1.83-3.78-1.61l1.52-.78c-5.43-1.74,1.34-2.81,1.68-2.85,5.44-.64-2.25-1.01-.11-1.7.86-.27-1.23-.64-1.57-.62-1.68.14-1.33.8-1.49,1.43-.43,1.71-1.26,3.39-6.18,3.08l.18.07c-1.69-.6,2.29-1.1-.21-2.05-6.05-2.29-3.97.89-5.5,1.78-.2-.39-.22-.74-.54-.99-.65-.5-1.61-.82-2.93-.63-1.08.15-.82.62-.85,1-.04.76.46.9,2.12.69,1.05-.13,1.34.71,1.79,1.17l.14-.07c-2.51.02-4.78.71-7.49-.5-1.78-.8-2.29.95-3.33,1.59-2.37,1.45,1.19,1.1,2.02,1.58-1.45.69-3.01.03-4.47,0-1.9-.02-2.12-.58-1.07-1.47.22-.19.23-.46.17-.69-.06-.22-.31-.46-.91-.21-3.57,1.53-8.93.91-12.49,2.37.26-.91-5.15-1.94.17-2.83-.45-.31-1.29-.64-1.27-.94.04-.46-3.89-1.64,1.11-1.47,1.48.05.71-1.43.59-2.23l-.15.05c1.72.1,3.86-.07,5.07.36,1.89.67,2.99-.28,3.47-.24,5.74.47-.97-1.51,1.41-1.56,1.1-.65.71-1.32.14-1.99,4.26.53,7.49-.3,10.34-1.75,1.25-.64,2.84-.97,4.72-1.1,2.88-.21,5.89-.29,8.23-1.33.31-.14.98-.69,1.41-.19,2.32,2.7,2.66-.33,4.02-.32,1.04.98,1.66,2.26,4.29.47,1.44-.98,3.89-.77,5.93-.11-.98.76-2.55,1.14-4.14,1.51-2.17,1.21-2.72,2.31-1.13,2.58,4.02.69,4.57,2.7,6.98,3.98.74.39.49,1.22,2.32,1.12l-.15-.06Z"/>
        <path class="cls-1" d="m263.3,82.04c-1.11,1.04-1.96,2.13-3,3.3,2.18.04,3.3-.55,3.58-1.05,1.29-2.35,7.77-3.41,6.77-6.31-.05-.15.49-.42.88-.53,1-.29,10.14,1.54,10.57,2.08q1.8,2.28,7.14,2.71c-.44-.87-2.28-1.76-.1-2.53.48-.17,1.58-.66,2.1-.18.83.76,1.61,1.63-.19,2.41-.24.1-.88.39-.03.51.99.15,1.82.13,2.27-.51.74-1.06,2.01-1.5,3.87-.41l.87.52c.53-.35.27-1.42.92-1.09,2.21,1.12,4.16-.15,6.12.13l.18-1.44c-1.85-1.48-1.55-1.76,2.02-1.88.18-.52.88-.84,1.86-.97,3.66-.48,2.6-1.33-.17-2.72,4.39,1.18,5.14-.05,6.08-1.14-1.53-.56-3.5-1.25-5.12-.87-3.78.89-6.3-.09-8.73-1.08-1.11-.45-2.2-.6-3.45-.73.92,1.11-2.26,1.14-2.28,2,0,.28,1.55.16.74.58-.4.21-1.27.21-1.74-.1-.57-.37-1.04-.77-1.64-1.22-1.78.85-2.97,2.36-5.6,1.88-1.88-.34-2.46-1.48-1.27-2.71.74-.77-1.44-.6-2.42-.59-4.5.03-8.98,1.37-13.53.02-.28-.08-1.28-.15-1.25.38.13,2.08-3.61,1.02-4.08.75-3.66-2.06-3.42.26-3.89.86-.72.94-3.91,1.75-5.7,1.33-.99-.23.68-1.15-1.1-.85-1.18.2-.74.79-.33,1.21.3.31.98.58-.01.89-2.63-2.02-4.26-2.08-6.29-.27l-.13-.07c3.02.08,5.7.35,5.62,2.24,1.82-.89,3.62-1.93,6.23-2.15,2.45-.21,5.05.01,7.31-1.72-.52,2.35-2.81,3.22-5.82,3.55-2.49.27-5.13.21-7.71.3-1.63.43-3.72.24-5.15,1.02-1.25.68-2.39,1.14.7,1.09l-.18.06c2.11-.58,4.56-.78,6.7-1.22,4.08-.85,5.74-.28,6.26,1.65,3.15.57,1.23,1.22.12,1.86.87.25,3.5-.35,2.02,1.03Zm32.1-8.03c.17-.2,2.47-.28,3.23-.03,2.56.85-.75,1.96.7,2.92-2.51-.72-5.27-1.31-3.92-2.9Z"/>
        <path class="cls-1" d="m162.53,4.95c.57.67.95,1.35-.14,1.99-.85-.33-3.1.93-2.89-.6.08-.57-.36-.9-1.67-.84-1.45.06-1.32.58-1.29,1.03.03.42.2.84.27,1.12-1.27.83-4.11-1.39-4.36.73l.15-.05c-1.65-.31-1.39-1.31-2.71-1.74-3.68.73,4.7,3.44-2.82,3.56,1.3-1.66-.03-2.77-3.45-3.24-1.97-.27-2.46-1.12-2.85-1.77-.41-.69-.85-1.12-2.24-1.31-.61-.08-1.12.2-.82.3,1.82.58-.84,2.15,1.29,2.1,2.18-.06,1.83.7,2.52,1.02,1.21.57,2.46,1.29,1.82,2.27-1.57-.25-3.13-.49-4.7-.74,1.34-1.41,0-2.18-2.73-2.61-.74.89-2.02,1.61-4.24,2.64,3.16-.6,5.02.96,7.13-.11-.06,1.16-3.85,1.27-3.24,2.62-1.29-.04-2.13-.26-2-1,.14-.79-.28-.99-1.79-.43-.89.33-3.32.25-2.03,1.07.95.61,1.95,1.92,4.72,1.27,1.53.69,1.51.68-.34,1.23-.28.08-.57.36-.49.49.92,1.47.13,2.28-3.37,2.09-3.1-.17-6.21-.45-5.59-2.45.36-1.18-1.59-1.4-2.73-1.99,1.89-.3,3.46-2.7,5.5.18,1.43-1.45,1.3-2.35-1.39-2.97-3.11-.72-1.95,1.37-3.98,1.3-.23-1.52-1.15-3.15,1.66-4.46.56-.26.64-.51.01-.78-1.02-.45-1.34.09-1.88.3-1.36.54-2.35.73-4.42.69-1.3-.03-.97.62-1.74.83-.76.21-1.16.75-.1.9,5.49.81.51,1.55-.05,2.29-.21.28-.76.5-1.35.87-.22-.84-.48-1.53-.57-2.23-.11-.78-1.74-.91-2.44-.88-1.87.09-.96.77-.59,1.24,1,1.26.34,2.02-3.16,2.11,3.06-1.59-.26-3.2.62-4.79.34-.63.18-.65-6.54-2.88,5.07.38,9.45.18,13.61,1.09-.21-.45-.41-.88-.61-1.31.46-.52-.23-.77-1-1,.55-.6-.81-1.54,1.24-1.84,1.66-.24,1.71.42,2.02.98.27.48,1.45.51,2.08.33,4.95-1.36,8.76-.26,12.81,1.79-.33-.78-.33-1.02-.52-1.21-.65-.67-1.24-1.46.34-1.86,1.72-.44,3.08.07,3.73.94,1.44,1.92,3.36,1.16,4.13-.03.63-.97,1.68-1.24,3.06-.94,1.78.38,3.13.66,5.23.28,1.57-.28.24.98,1.42,1.24,1-1.57.83-1.44,3.73-.56,1.24.37,3.5-.53,5.05.32,2.07-1.35,4.35-1.01,7.36-.66,1.61.19,3.13.07,4.18.83-2.21.43.63,2.94-4.22,2.34-1.22-.15-2.81-.14-2.59.88Z"/>
        <path class="cls-1" d="m372.14,79.63c1.16-.66,2.28-1.35,3.53-1.98.39-.19,1.26-.37,1.7-.29.93.18.69.65.52,1.03-.46,1.01-.61,1.94,2.09,2.28l3.15-1.51c.85-1.95.1-4.2,4.71-5.43.32,2.37,4.23,1.5,7.11,1.66-1.59-1.55,2.4-3.62-2-4.9-6.9-.89-13.86-.16-20.79-.25-1.74-.02-.33,1.28-2.08.69-2.8-.95-3.08-.97-3.97.47-.76,1.23-1.8.75-3.63.73-1.99-.02,1.77,1.46-.77,1.95-.78.15-.48-.34-.8-.37-2.94-.33-4.29-1.03-2.99-2.55.48-.56.17-1.15-1.58-1.07-.74.03-2.35.14-1.97.32,2.1,1.01.03,1.86-.11,2.76-.04.3,2.56.19.38.81-1.57.44-1.39-.15-1.94-.45-1.98-1.09-1.18-2.19.8-3.83-3.29,1.19-5.36.24-7.56.37-5.09.29,1.34,1.67-.96,2.23-.57.14-1.11.59-1.53.55-1.36-.12-2.43-.52-3.59-.92-1.92-.67-.5-1.18.22-2.27-2.68,1.11-5.05,1.32-7.04.94-3.69-.71-8.59.6-10.12.1-5.85-1.94-5.43.39-6.73,1.72,2.14.59,4.93.2,6.89,1.06,2.76-.53,4.41-.07,5.03,1.31,3.07.38,6.04.78,7.94,2.19,1.88,1.4,5.34.32,7.74,1.01,2.03-3.12,2.95-.05,4.47.2.98-.58,1.98-1.18,2.98-1.77-.9-.26-1.85-.63-.38-.98,1.15-.27,1.74.04,2.35.71,1.4,1.52,4.26,1.79,7.6,1.64,3.04-.14,6.45-.25,7.12,1.86,1.4.32,2.8.32,4.2,0Zm-2.72-2.25c-2.87-.32-4.31-1.78-5-2.97-.37-.64,2.74-.94,4.18-.92,3.24.04,2.23,1.4,2.46,2.36-.69.49,1.33,1.86-1.64,1.53Z"/>
        <path class="cls-1" d="m348.11,9.24l.04-.45c1.91-.26,2.45,1.21,3.92.91,3.92-.79,6.43-2.37,7.92-4.22.48-.59.7-1,2.08-1.03.97.25,1.79.71,3.08.53-.56,1.66,2.89.86,4.06,1.51.86.48.81-.16.79-.35-.04-.3-.5-.86-.45-.86,2.81-.48.27-2.25,3.16-2.67,1.3.6-.92,1.09-.66,1.72.3.72,1,1.19,2.59,1.14,1.59-.05,2.04-.37,1.75-1.24-.43-1.28.1-2.7-3.8-2.7-.04-1.06,2-.3,2.36-.78.49-.64,1.56-.64,2.38-.44,1.06.25.87.81.32,1.23-.95.73-.85,1.36.66,1.85.91.3,1.86.22,2.75-.09,1.9-.66.11-1.27-.18-1.87-.16-.35-1.27-.73-.41-1.01.7-.23,2.33-.32,2.76-.11,1.52.75,2.52,1.47,4.31.07.67-.53,2.13.2,3.03.37,2.57.51,4.64.78,6.39.46.11.88,1.1,1.54,2.33,2.15-5.53,1.08,1.35,1.36.59,2.14.08.35,1.25.55.57,1.03-.63.44,1.52.3.68.9-5.05-1.2-7.76.99-11.38,1.94-.99.26-2.27.31-3.35.05-1.19-.28-2.3-.06-2.98.48-.51.41-.18.6.77.86,4.95,1.33,8.91,1.28,10.45-.9,1.91-2.71,2.83,1.14,3.94-.06.98.59,1.9,1.15.42,1.92-2.1,1.09-2.07,1.12-.32,3.11.34.38.05.58-.4.82-.83.44-1.74.49-2.48,0-.47-.31-2.44-.5-.45-1.14,1.06-.34,1.25-1.05-.22-1.29-2.52-.41-.59.59-1.02.83-.4.22-1.45.51-1.63.43-3-1.23-7.83.21-8.73-.24-4.05-1.98-6.54-.17-9.58.36-2.12-.98-1.07-3.1-5.2-3.36-1.42-.22-1.69-.89-2.33-1.41-1.3-1.05-3.21-.17-4.81-.32-.89-.09-.5.35-.47.63.09.93,1.11,1.13,2.9,1.11,3.08-.03,1.27.8.88,1.36l-1.14.55c-2.17-2.04-5.25-2.42-9.02-.99,1.27.46,2.71.25,4.3.2-.81.96-1.71,1.73-3.5,1.63-1.77-.1-1.7-1.06-1.91-1.73-.28-.85-.04-1.52-2.91-1.13-3.21.44-.66-1.66-2.83-1.92Z"/>
        <path class="cls-1" d="m474.42,48.59l-.1.48c1-.04,1.48,1.07,1.67,2.46.13,1.37.18,3.05.47,4.05.16.46-.49,4.06,1.27.22.43-.97.66-.09.53.47-.21.94-.41,1.9-.74,2.79-.36.88-.91,1.65-1.65,2.22-.37.28-.72.24-1.09.38-.35.15-.74.46-1.25,1.42-.13-.49-.45-1.28-.38-1.36,1.73-2.58.76-3.77.11-3.3-.77.52-.82,1.1-.78,1.73.05.64.14,1.3-.33,1.91-1.26,1.17-1.32-1.33-2.8,1.07-1.07,1.43-.63,2.43-.27,2.53.32.08.72.37,1.23.26.25-.06.53-.22.84-.55.31-.33.65-.84.92-1.64.05-.13.96-.47,1.48-.73.45.7,2.07.13.99,2.47-.41.98-1.13,2.02-1.84,2.88-.37.42-.73.81-1.14,1.05-.41.24-.82.37-1.21.35-1.43-.09-1.78,2-2.75,2.27-.38.13-2.07,1.49-1.08.24,1.22-1.53,1.3-2.01.34-2.11-.91,1.16-1.84,1.46-2.72,1.72-.93.22-1.84.38-2.8,1.4-.3.33-.54.61-.54.75,0,.13.27.17.9-.17,1.38-.71,1.09-.03.77.67-.31.7-.65,1.41.83.62-.39.33-.76.7-1.19.98-.93-.67-3.85,1.78-4.57.73-.17-.24-.3-.46.87-.65,1.51-.38,1.75-1.01.74-1.16-.28-.05-.84.12-1.26.31-1.16.41-.5-.4-.18-1.07.17-.34.27-.62.1-.64-.18-.02-.61.24-1.64.81-2.2,1.26-.56,2.22-1.3,3.44-.65-.87-1.78-1.56-.86-2.96.4-.7-.34-1.61,2.11-1.67.18,0,.38-.11.57-.28.18-.18.35-.42.49-.65.29-.47.46-.92.41-.92-.49-.08-1.01-.17-1.58-.1-.57.07-1.25.2-2.03.69-1.14.16-2.32.1-3.02-.45.31-.37,1.11-.43,1.68-.7.58-.27.98-.6.55-1.27-1.07.58-2.25.96-3.41,1.39l.14.02c.19-.91-.2-1.05-.7-.91-.5.12-1.18.44-1.54.64-1.23.64-1.26.27-1.28-.25,0-.13.99-.65,1.99-1.07.99-.46,1.93-1,2.04-.9.91.79,2.12.58,3.51.22.7-.18,1.36-.54,2.09-.79.74-.24,1.44-.57,2.17-.78-1.41-.06-1.49-.6-1.23-1.23.26-.65.96-1.32,1.09-1.94.33-1.22,1.29-1.7,2.45-1.57.24.04.5-.25.7-.67.2-.42.36-.96.33-1.5-.04-.79.98-1.87,1.28-2.01,2.01-.62,3.03-2.66,3.46-4.9.21-1,1.81-.9,1.24-2.52.5-.06,1.43-.72,1.18.63-.18,1.23-.13,1.76.18,2.1.29.34.74.44,1.06.77-.49,1.48-.96,3.18-2.14,4.11-1.11.72-1.15,1.09-.56,1.64.47.41.9,2.17,1.33,1.12.28-.68.65-1.26,1.05-1.81.34-.58.73-1.11,1.11-1.65.81-1.05,1.32-2.25,1.45-3.62.8-.59,1.46-1.27,2.28-2.03-.48-.93-1.75-.88-.62-3.57l.58.08Z"/>
        <path class="cls-1" d="m45.67,84.98l1.08-1.54c2.28-.96,1.64-2.49,2.99-3.65.49-.42.76-.89,1.7-1,1.18-.14.94.44,1.33.74.78.61,5.79.07,6.95-.65,1.24-.76,2.64-1.46,3.97-2.18,3.23.74,6.37,1.57,9.7,2.17,2.03.37,2.58,3.7,6.43.83.12-.09,1.27-.03,1.36.08.72.81,3.31,1.15,2.51,2.32-2.29-.03-4.35,1.4-6.76,0-1.15,2.71,4.59.73,5.05,2.26-4.73,2.37-11.09,1.46-16.92,1.46-3.13,0,.15-1.47-1.47-2.09-.24-.13-.68-.12-1.02.09-4.36,2.62-10.41,2.05-16.18,1.95-.26,0-.48-.51-.73-.78Z"/>
        <path class="cls-1" d="m394.95,75.38c-1.59-1.55,2.4-3.62-2-4.9,2.16-.4,3.76-1.12,5.46.73.81.87,2.27,3.5,7.47,2.42-.19-.77-3.28-1.74-1.74-1.97,2.27-.34,3.12-2.04,6.77-1.3,2.23.45,5.46-.66,8.4-.14-.3.9-1.28.41-2.12.36-2.2-.14-4.32-.29-2.86,1.43,1.18,1.39-2.01,1.33-3.31,1.65.27,1.47,3.94-.72,3.55,1.09,3.33.13,2.48.8.89,1.58-.09.04-.13.17-.06.21.37.27.74.14,1.09-.03v-.02c-.86,1.85-4.06,3.12-5.16,4.97-.48.81-2.94,1.65-5.5,1.35-2.83-.33-3.11.72-3.8,1.52-.56.64-.98,1.19-2.74.61-1.88-.61-.34-1.22.32-1.43,2.02-.66,3.31-1.27,1.32-2.38-.19-1.2-2.26-1.27-3.99-1.54q1.18-2.19-.91-3.36l-1.09-.85Z"/>
        <path class="cls-1" d="m323.1,73.46c2.76-.53,4.41-.07,5.03,1.31-2.1,1.42-1.67,3.57.78,4.58,3.38,1.4-.89,1.23-1.65,1.78,2.22,1.94,5.36-.44,7.82.38-.08.93-1.61,1.2-2.99,1.54-3.43-1.1-6.09.75-9.27.56,2.84-1.48-1.47-1.35-2.36-1.9.85-.43,1.28-.41,2.01-.28.97.17,2.44.43,2.62-.47.25-1.23-1.65-.15-2.15-.42-3.36-1.8-4.51,1.13-7.43.72,3.86.66,3.59,2.01,2.42,3.7,2.25-.5,2.52-1.98,5.05-1.42,2.59.64.26.92-.41,1.32-2.51,1.49-5.97,1.42-7.29-.29-.66-.85-2.47-.32-2.95-.97-.38-.52,1.77-.92-.52-1.73-.65,2.72-6.55,2.06-9.32,3.6-1.25-2.19,1.03-3.47,4.83-4.37l.84-.45,2.02-1.41c4.1-.63,1.5,1.39,3.35,1.86,1.82-1.88.88-4.07,3-5.87,1.03-.87,2.68-1.45,4.52-1.43,1.11.02,1.09.35,2.08-.36Z"/>
        <path class="cls-1" d="m263.32,3.02l2,1.55c-1.62,1.01-4.95.97-6.07,2.29-2.31-.01-4.55.16-6.74.54-1.34.23-2.98.98-3.39-.55-.19-.7-2.4-.58-2.91-.33-3.89,1.9-6.55,1.96-7.76-1.35.1,1.64-1.08,2.08-3.61,1.61.22-.72.91-1.32,1.95-1.83-4.88-.94,1.83-1.97-.1-2.93-.11-.05-.21-.15-.18-.22.45-1.07,2.66-2.08,3.91-1.52,2.79,1.25,7.62-1.33,9.06,1.34.67,1.18.98,2.85,3.06,3.22,2.57.46-1.03-1.86,2.22-1.87.2,0,.39-.21.59-.33.9.49,1.69,1.73,2.89.1.55-.74,1.52-1.01,3.08-.69l1.08.52.92.44Z"/>
        <path class="cls-1" d="m5.6,46.57c0,.36,0,.72,0,1.07l-.94.25c-.34.08-.83-.21-.7,1.11l-.58.07c-.04-.36-.1-.86-.18-1.23-.06-.38-.14-.65-.27-.55-.92.68-1.08-.64-1.26-2.29-.15-1.31-.02-1.6.18-1.71.21-.11.51.04.81-.04.36-.1.43-.55.44-1.16.03-.66-.02-1.44.04-2.02.21-1.99-.35-1.48-.79-1.05-.34.33-.41-.34-.48-.95-.03-.61-.1-1.17-.6-.6-.78.89-.95-.65-.93-2.01,0-1.78.68-2.25,1.37-2.86.33-.29.69-.3.97-.66.14-.18.26-.45.33-.89.04-.22.07-.48.09-.8.04-.31.08-.68.11-1.11.32-3.6,2.05-1.65,3.33-2.92-.44,2.46,1.31.15,1.77.64l2.25,1.11c-.25.77-.46,1.56-.69,2.36-.13.4-.25.79-.38,1.19l-.2.6-.14.61c-.18.82-.35,1.63-.47,2.43-.09.81-.05,1.62.03,2.39-1.05,2.09,1.12,6.64-1.71,6.98-.08-.95-.15-1.81-.16-2.75,0-.93.05-1.9.24-2.92.65-2.37.12-3.91-1.17-4.05-.25-.02-.43-.85-.69.28-.12.59-.55,1.7.24,1.62.55-.04,1.39,1.51.99,1.86-.99.99-1.18,2.43-1.15,3.85.05,1.33.42,2.84.29,4.15Z"/>
        <path class="cls-1" d="m431.98,4.95c-1.02.65-1.8,1.54-4.08.96-1.85-.61.97-1.22.38-1.89-2.2.26-2.69,1.44-4.73,1.42-.41,0-2.29.38-1.23-.46.74-.59.69-.81-.64-.92-.9-.07-1.44.08-1.74.57-.19.32.95,1.37-1.27.87-3.46-.79-6.54-.42-9.63.39-1.57-.32-1.47-1.71-3.98-1.43,1.15-1.19,4.83-1.23,5.56-3.05-2.61,1.01-5.44.52-7.7.85-3.01.44-2.69-.24-2.78-1.08.31-.17.79-.51.89-.48,3.35.8,7.02-.09,10.27.39,3.56.52,3.45.69,6.59-.35,2.46-.12-.58,1.8,2.6,1.56,1.86-.14,2.17-.73,3.07-1.27.41-.24,2.54-1.51,3.44.1.42.75,2.73.57,2.92,1.42-1.37.06-2.05.17-.83.89.91.54,3.24.45,2.91,1.51Z"/>
        <path class="cls-1" d="m83.56,82.02c2.11-1.2,4.82-2.35,1.24-3.97-.82-.37-1.86-.49-2.66-.15-2.36.99-2.31,1.01-4.84.09.46-.56,4.18.23,2.57-1.31-.14-.13,2.38-.9,3.66-1.37l1.93.02c2.62.4,3.12,1.22,3.26,2.53.12,1.1-.48,2.69,2.84,3.28l.22,1.38c-.24.75-1.79,1.61.88,2.09.57.1,1.02.36,1.53.54-.68.21-1.35.57-2.05.59-2.56.07-5.14.03-8.28.03,2.45-1.33,3.01-2.64-.29-3.75Z"/>
        <path class="cls-1" d="m332.08,83.06c1.39-.34,2.92-.61,2.99-1.54-1.49-2.08,2.6-.96,3.85-1.48,1.35-.56,1.83-.02,1.48.66-.16.3-.49.69.43.76.5.04,1.24-.16,1.63-.36.54-.28.78-.68,1.26-.99.96-.62,2.34-.51,3.63-.37.26.03.63.47.52.52-.78.39-.87,1.15-2.96.8-1.02-.17-1.07.71-.28,1.19v-.02c1.25.91-1.54,2.18,1.19,3.02.48.15-.14.58-.91.6-5.45.16-10.77-.53-16.26-.29,1.67-.91,3.64-.46,5.67-.73-.65-.64-2.69-.9-2.25-1.77Z"/>
        <path class="cls-1" d="m368.95,11.26c4.13.26,3.08,2.38,5.2,3.36.05.75,2.53.15,2.29.87-.18.51-1.43.54-2.47.55-4.19.03-8.36-.47-12.56-.03-.92.1-1.8-.27-1.87-.61-.05-.28.92-.57,1.25-.9.68-.67,3.85.06,3.18-1.32l1.14-.55c2.18.12,3.03-.61,3.84-1.37Z"/>
        <path class="cls-1" d="m212.12,7.54c4.49.55,7.82.43,6.9-2.52-.13-.41.49-1.22,1.88-1.23,1.02,0,1.37.53,1.49,1.05.38,1.7,2.22,3.15,4.58,4.74-5.57-.52-9.76.62-14.6.86.93-1,2.53-2.06-.11-2.97,0,0-.14.08-.14.08Z"/>
        <path class="cls-1" d="m435.79,79.63c-4.6-1.77-6.75-4.74-12.56-5.93-.23-.05-.38-.51-.18-.66.96-.77.81.3,1.35.21,2.89-.46,4.38-.16,4.84,1.47.1.34,3.5-.07,5.23-.38,2.36-.41,3.94.01,5.53.78,1.61.77.74,1.42-.2,2.1-2.19-.19-4.08-.94-6.49-.79.1,1.21,5.69,1.41,2.5,3.19Z"/>
        <path class="cls-1" d="m197.32,2.14c1.59-.37,3.16-.75,4.14-1.51.78-.14.96.97,2.59.04,1.5-.86,4.38-.44,5.44.94-1.37.68-2.56,1.41-3.09,2.34-.99.77-2.7,2-4.05,1.35-1.86-.89-6.37-1.07-5.03-3.17Z"/>
        <path class="cls-1" d="m367.94,79.63c1.4.32,2.8.32,4.2,0,1.82.07,4.52,0,1.62,1.3-2.06.92-1.82,1.93-1.57,3.03-.06.8-.99,1.01-2.54.97-1.73-.04-1.75-.61-1.57-1.13.37-1.11-.75-1.91-2.12-2.68h.02c-1.45-.02-3.01.01-3.73-.77-.27-.3-.03-.58.79-.67,1.63-.19,3.21-1.14,4.89-.05Z"/>
        <path class="cls-1" d="m354.18,82.99c1.54-.5.9-1.06.16-1.61.96-.29-.12-1.19,1.64-1.24-1.88,1.37,5.12-.35,2.26,1.49-.21.13.23,1.42,2.72,1.27,1.44-.08,2.54.78,2.55,1.44,0,.38-1.36,1-2.51.16-.28-.21-.67-.3-.89.09-1.3,2.36-3.58,1.21-6.29.56-2.19-.53.99-1.28-.79-1.6l1.15-.55Z"/>
        <path class="cls-1" d="m8.2,23.13c-.56.5-.96.8-1.32.96-.36.15-.69.16-1.02.1-.66-.11-1.32-.47-2.41-.24.6-.44,1.13-.91,1.6-1.41.49-.49.97-.98,1.38-1.52.42-.53.8-1.08,1.15-1.65.38-.55.77-1.09,1.14-1.64.37-.55.73-1.1,1.09-1.64.39-.52.8-1,1.22-1.47.83-.93,1.7-1.74,2.76-2.17-.31.73.44,1.65,1.12,1.88.89.32.57,1.38-.07,2.84l.15-.09c-.6.15-1.21.31-1.83.53-.63.21-1.23.52-1.81.97-.58.44-1.17.99-1.73,1.72-.53.74-.98,1.69-1.41,2.83Z"/>
        <path class="cls-1" d="m85.69,11.67l-4.07,1.06c-2.93.35-3.72,1.12-2.01,2.38l.15-.08c-1.36-.12-2.65,1.54-3.15.49-.33-.71-1.21-1.06-1.58-1.6-.15-.22-2.23-1.6,1.25-.97-.53-.95,1.86-1.47,1.56-2.41-.06-.18.11-.46.38-.55,1.45-.48,6.99.78,7.47,1.68Z"/>
        <path class="cls-1" d="m379.98,80.66l3.15-1.51q1.11,1.98,4.78,1.43l1.14.55c.25.39,1.19.86-.12,1.15-2.77.62-1.02,1.16.02,1.73-.71.41-1.42.82-2.34,1.35.39-2.44-1.22-2.89-9.46-2.87-.71-1.2,2.79-.91,2.83-1.85Z"/>
        <path class="cls-1" d="m191.52,74.35c-4.17.31-6.34-1.84-10.19-1.92-.68-.37-.08-1.32-2.15-1.08-.69.08-1.7.5-1.93-.27,1.25-.08.24-1.27,2.19-1.03,3.31.41,8.92-1.33,8.94,2.31,0,.33.8,1.8,3.14,1.99Z"/>
        <path class="cls-1" d="m474.68,25.67c-.52-1.68-1.61-2.84-2.59-3.98-.49-.57-1.1-1.04-1.62-1.59-.56-.52-1.02-1.13-1.58-1.72-1.67-1.88.12-.7.28-.95.97.61,1.66,1.02,2.27,1.15.61.13,1.12.01,1.57-.33.29-.21.77-1.41,2.35.82,1.58,2.66-.61.51-.54,1.32.07.93.26,1.78.65,2.54.4.76.89,1.5,1.73,2.16.85.72,1.83.22,2.67,3.39-.93-.86-1.74-1.13-2.54-1.43-.81-.29-1.67-.57-2.63-1.39Z"/>
        <path class="cls-1" d="m425.01,10.32c-2.2-.84-3.27-2.06-4.62-3.19,2.19-.86,3.06,2.83,5.59.32,3.16-.27,4.61,1.8,7.9,1.33l1.14.55c-.05,1.07-2.47,2.18-3.04,2.32-2.99.72-2.68-1.2-4.35-1.71-.92-.28.89-1.23-1.32-1.09-2.23.14-1.06.94-1.31,1.47Z"/>
        <path class="cls-1" d="m96.65,83.06c2.55-.61,5.55-1.1,3.12-2.94l.93-.02c1.89-.26,1.65.89,2.94,1.02l-.12-.08c-1.71,1.6-.49,2.51,2.94,2.9-1.96-.45-3.92.56-4.16.79-1.14,1.06-2.24,1.53-4.63.93-2.67-.67-.81-1.72-1.03-2.6Z"/>
        <path class="cls-1" d="m469.92,25.71c.13-.21.43-.09.8.15.36.24.73.63,1.09.9.69.53,1.23.63.69-1.8-.1-.52,1.74,1.53,2.17.56.38,1.04.86,1.7,1.28,2.27.43.57.91.99,1.42,1.47,1.05.93,2.08,2.16,2.71,5.15-1.33-3.12-2.38-3.73-3.41-3.83-1-.1-1.89.24-3-.57.09,1.61,1.99,4.97.06,5.01-.1-.64-.15-1.32-.21-2.01-.03-.34-.05-.7-.11-1.04-.07-.34-.15-.68-.24-1.02-.19-.67-.43-1.33-.77-1.93-.38-.58-.9-1.09-1.54-1.5-.54-.49-.79-1.11-.94-1.81Z"/>
        <path class="cls-1" d="m3.38,49.09l.58-.07c.52.28.59,1.24.76,2.04.28.77.69,1.51,1.03,2.25.2.71.27,1.37.36,1.94.09.56.11,1.06.08,1.49-.08.85-.39,1.42-.84,1.61-.57.24-1.2-.78-1.85-1.88-.66-1.09-1.15-2.31-1.84-2.33-.22-2.33,1.12.53.95-.96-.21-1.62-.88-2.33-1.42-2.89-.5-.56-1.39.25-1.16-2.14.14-.69,1.19-1.47,1.69.43.83,2.73,1.19,1.61,1.65.53Z"/>
        <path class="cls-1" d="m82.59,72.98c-5.32.85-5.84.69-5.15-1.7-2.58-.05-1.02,1.5-2.84,1.69-.69-.45.12-1.14-1.09-1.51-1.75-.54.11-1.24.32-1.19,3.27.77,6.77-1.01,9.91.24-1.21.73.84,1.82-1.14,2.47Z"/>
        <path class="cls-1" d="m443.1,76.39c.42-.04.89-.01,1.36-.04.47-.03.97-.03,1.47-.02s1.02.05,1.53.1c.51.02,1,.03,1.49.07.96.06,1.88.24,2.57.37.69.14,1.2.36,1.36.67.04.07.21.52,0,.88-.21.34-.79.69-2.23.23-.31-.1-1.37.24-2.65.55-1.31.2-2.83.48-3.97.27.57-.84,2.46-.55,3.44-1.11-.43-.67-2.44-.72-2.1-1.72-.96,1.1-3.02,1.54-2.66,2.78-2.9-1.21-2.06-2.16.43-3.03h-.04Z"/>
        <path class="cls-1" d="m246.28,14.07c-1.29-.42-2.58-.84-3.85-1.25,1.78-2.05,6.76-.95,9.27-2.25.5.86,2.77.39,3.45,1.07.19.19.21.53-.03.69-.96.63-2.47.41-3.63.29-1.16-.11-2.19-.57-3.27-.87-1.35,1.11,4.21,2.54-.86,3.38l-1.09-1.06Z"/>
        <path class="cls-1" d="m396.95,79.6c1.73.27,3.8.35,3.99,1.54-1.65-.16-1.9.29-1.99.94-.11.78-.42,1.72-2.32,1.83-5.55.32-1.32,1.1-.32,1.82-2.52.39-4.83.02-7.41-.35,3.84-.11,5.13-1.39,6.15-2.8,1.4-.05,3.01-.31,2.7-1.02-.27-.62-1.73-.99-3.39-.54-.59.16-1.23-.08-1.42-.44,1.56-.12,2.19-1.12,4.02-.98Z"/>
        <path class="cls-1" d="m473.84,48.51c.05-.41.11-.82.17-1.24.03-.42.06-.84.09-1.26.06-.85.16-1.69.16-2.54,0-.43-.02-.85-.05-1.27-.05-.41-.12-.81-.21-1.2-.18-.78-.43-1.52-.83-2.17.37-.35.81-.12,1.19.19.38.3.77.65,1.17.45l1.03-.02c.38.64,1.26,1.61,1.1,1.81-.21.25-.34.61-.44,1.01-.11.38-.19.81-.26,1.23-.15.84-.37,1.71-.8,1.98-.77.49-.22-1.67-.74-2.01-.31.75-.31,1.72-.31,2.67-.01.47,0,.95-.11,1.37-.12.42-.3.8-.58,1.09l-.58-.08Z"/>
        <path class="cls-1" d="m351.01,1.77c.35,1.04-3.36,1.64-2.09,3.01-.46.06-.92.19-1.37.18-.58,0-1.35-.02-.78-.51,1.22-1.04-1.35-1.52-1.47-2.26-.11-.62-2.62-.34-1.42-1.13.92-.61,2.21-1.15,3.7-.82,1.28.29,3.96-.06,3.43,1.52Z"/>
        <path class="cls-1" d="m74.73,72.9c-1.87,1.06.95,1.4,1.45,2.16-2.14.82-5.03.51-7.47,1.09-1.61.38-1.02-1.49-2.92-1.8.44-.81.84-.92,2.24-.63,2.68.56,4.36-.74,6.7-.82Z"/>
        <path class="cls-1" d="m354.18,82.99l-1.15.55c.17.88-4.05-.76-2.48,1.01.49.55-1.09.48-1.59.58-1.38.26-2.03-.45-2.52-.84-.78-.62.09-1.61-1.8-2.05h0c3.67-1.22,6.99-1.37,9.54.75Z"/>
        <path class="cls-1" d="m468.41,41.76c.04.46.09,1.07.23,1.52.07.23.15.46.24.64.08.17.18.32.29.47.22.3.88-.33.65.75-.06.3-.69.27-1.15.42.27.54.7.56,1.07.71.36.15.74.44.64,1.53-.66-.07-1.3-.01-1.78.42-.24.22-.45.53-.59.97-.14.45-.34,1-.43,1.74-1.14-1.7-.96-3.22-.59-4.99.07-.44.17-.9.26-1.36l.14-.7.08-.91c.02-.29.05-.65.04-.88,0-.24-.02-.48-.04-.73-.04-.48-.12-.97-.25-1.44.64,1.01.91,1.43,1.17,1.85Z"/>
        <path class="cls-1" d="m213.37.45h18.4c0,.42-.67.69-1.42.66-4.89-.19-9.63.53-14.6.42-2.68-.06-.47-1.62-2.38-1.08Z"/>
        <path class="cls-1" d="m256.95,16.06c-1.26-.23-3.64.51-3.6-.91.03-1.21,1.5-2.14,3.9-1.89,1.4.15,3.17,1.17,3.38,1.89.35,1.22-2.19.76-3.68.9Z"/>
        <path class="cls-1" d="m210.31,5.45c1.56.5,3.26.97,1.81,2.08,0,0,.13-.07.14-.07-2.97.31-4.7,1.47-6.92,2.3l.15.06c-2.55-1.32.33-2.18,1.2-3.21,2.56.64,2.2-1,3.78-1.12l-.15-.05Z"/>
        <path class="cls-1" d="m206.4,3.96c.54-.93,1.72-1.66,3.09-2.34,1.25.07,3.57-.02,3.2.62-.63,1.07,1.13,2.65-2.38,3.22l.15.05c-.13-1.26-2.36-1.24-4.07-1.55Z"/>
        <path class="cls-1" d="m185.34,12.15c.48.68,2.11.59,2.97,1.02.33.75-.29,1.55.9,2.26-3.73.12-6.03-1.61-9.54-1.16l-.13-1.16-.14.07c2-.37,5.25,1.07,6.12-.97l-.18-.07Z"/>
        <path class="cls-1" d="m424.69,84.32c-2.14-.19-2.92.82-4.53,1.06-1.23.19-2.52.98-3.91.22-.54-.3-.46-.97.27-1.01,2.02-.13.86-2.23,3.84-1.45,1.38.36,3.41.09,4.33,1.17Z"/>
        <path class="cls-1" d="m419.08,10.3c1.92-.47,3.98,2.28,5.81-.06,3.8.42-.53,2.07,1.78,2.71-2.44.62-2.67-.21-3.01-1.03-.03-.06-.96-.14-1.25-.05-2.47.79-2.79.64-3.34-1.58Z"/>
        <path class="cls-1" d="m297.15,81.52l.87.52c.43,1.97-.64,3.39-5.44,3.5-.55.01-1.18.4-1.28-.16-.05-.3-.53-.75,1.05-.68,1.94.08,2.63-.4,1.93-1.41-.77-1.12,2.35-1,2.87-1.76Z"/>
        <path class="cls-1" d="m447.46,73.92c-.57-.65-.83-1.27-.51-1.77.16-.25.46-.48.94-.66.24-.09.53-.18.87-.25.34-.06.74-.13,1.17-.25l-.14-.02c-.49.75-.67,1.13-.54,1.46.11.3.52.52,1.02.57,1,.12,2.51-.02,3.24.26-.63.56-1.28,1-1.86,1.36-.59.36-1.12.61-1.6.64-.95.1-1.51-.38-1.56-1.72,0-.02-.26-.03-.35.01-.24.1-.45.23-.68.35v.02Z"/>
        <path class="cls-1" d="m365,5.03c0-1.29.16-2.58-.09-3.86-.14-.73-1.2.09-1.8-.07.03-.39-.05-.96,1.08-.84,3.1.33,3.21,1.74,3.78,2.85.52,1.03.38,2.13-2.97,1.92Z"/>
        <path class="cls-1" d="m476.57,39.44l-1.03.02c-.23-.95-.44-1.66-.42-2.29,0-.63.13-1.15.3-1.65.33-1,.7-1.89.52-3.24l.65.23c-.37,1.37.06,1.48.57,1.65.51.15,1.1.34.82,1.78-.15.81-.39,1.36-.64,1.88-.23.51-.51.99-.75,1.64Z"/>
        <path class="cls-1" d="m113.49,2.1c.77.23,1.47.48,1,1-1.89-.08-3.8-.09-5.67-.25-1.15-.1-3.43.34-3.02-.82.32-.9,2.23-1.32,3.96-1.59,1.12-.18.75.36.75.58.01,1.22-.02,1.22,2.96,1.08Z"/>
        <path class="cls-1" d="m447.46,73.9c-.96.36-1.69.71-2.35,1.19-.33.24-.65.47-.97.71-.33.2-.67.41-1.04.59h.03c-.28-.43-1.15-.77-1.6-1.17-.46-.4-.49-.85.73-1.48.61-.32,1.13-.48,1.6-.53.46-.1.88-.1,1.28-.04.79.12,1.52.57,2.31.75v-.02Z"/>
        <path class="cls-1" d="m110.64,13.7c1.3-.18,2.39.14,2.7.64.74,1.2,1.97.53,3.13.29-.39.37,1.6,1.23-1.51,1.1-2.47-.11-5.69.19-7.06-.61-1.67-.98,2.94-.38,2.73-1.42Z"/>
        <path class="cls-1" d="m226.96,15.77c-2.69.64-5-.59-7.42.17-.77.24-1.52-.37-.79-.71,1.26-.58,1.49-1.76,3.64-1.75,1.86.01.34,1.05,1.29,1.39.91.32,1.96.54,3.28.9Z"/>
        <path class="cls-1" d="m404.89,11.61c-1.42-.56-2.56,1.49-3.76.03-.33-.4-.72-1.24,1.06-1.3,1.57-.06,3.35-.46,4.05.96.52,1.05-1.32,1.33-1.45,2.05-.79-.08-2.47.17-1.37-.68.47-.36,1.53-.55,1.47-1.05Z"/>
        <path class="cls-1" d="m374.66,84.16c1.31-.11,2.24-.06,2.78-.26,3.15-1.14,4.3.32,6.01,1.03.53.22.26.81.16.77-1.68-.59-4.52.14-5.41-.76-.92-.92-2.35.09-3.54-.79Z"/>
        <path class="cls-1" d="m246.28,14.07l1.09,1.06c1.19,1.7-1.75.75-2.68.86-1.31.16-3.26.29-3.82-.55-.43-.64,1.34-.68,2.16-.99,1.02-.39,2.16-.27,3.25-.38Z"/>
        <path class="cls-1" d="m416.5,76.52c2.38-.87,4.58,1.36,6.98.09.09.06.23.11.26.17.17.3.4.76-.31.83-1.87.19-1.37,1.88-3.8,1.44-1.2-.22.49-1.4-1.59-1.72-.64-.1-1.04-.55-1.55-.84v.02Z"/>
        <path class="cls-1" d="m415.69,15.99c.4-.95-3.13-1.56-.93-2.58,1.95,1.07,1.93-1.25,3.2-.5,2.24,1.33-.58,2.13-2.27,3.08Z"/>
        <path class="cls-1" d="m217.47,81.07c.04-1.44.06-1.48,2.99-1.17,1.24.13.66-.37,1.05-.52.7-.27,1.23-.95,2.28-.47.37.17-.22.82-.37,1.25-1.5,1.03-3.76.92-5.95.91Z"/>
        <path class="cls-1" d="m251.85,84.64c2.75-.05,2.76-1.7,4.98-1.91.78-.07,1.78.92,1.37.99-2.29.36-1.2,2.01-3.48,2.09-1.1.04-1.2-1.11-2.86-1.17Z"/>
        <path class="cls-1" d="m168.57,70.99c-.4-.44-1.85-.56-1.93-.42-.86,1.56-3.41.78-5.24.95,1.56-1.21,7.81-2.1,9.6-1.32.36.16.21.59.3.89l-2.73-.11Z"/>
        <path class="cls-1" d="m197.59,75.53c-.4-1.1-.45-2.46-4-1.93-1.77.27-1.58-.61-1.58-.75.02-.7.96-.12,1.46-.18,2-.25,3.55-.05,4.93.73,1.55.87,1.68,1.54-.81,2.14Z"/>
        <path class="cls-1" d="m262.4,2.58l-1.08-.52,1.08.52Z"/>
        <path class="cls-1" d="m5.61,50.96c.01-1.36-.59-2.06-.95-3.06l.94-.25.1.17c.44.97.55,1.97.48,3.03l-.57.11Z"/>
        <path class="cls-1" d="m466.59,12.13c-.24.25-.6.33-1.05.26-.47-.06-1.05-.25-1.72-.57.57-.35,1.54-.34,2.77.32Z"/>
        <path class="cls-1" d="m305.09,79.67c1.13-.56,2.81-.98,2.02-1.99,1.47.32,1.33,1.36,3.04,1.56l-2.02,1.41-3.04-.99Z"/>
        <path class="cls-1" d="m365.99,81.13h-.02s.02,0,.02,0Z"/>
        <path class="cls-1" d="m393.95,77.79c.48,1-3.59,1.69-.87,2.85l-4.03.51-1.14-.55c-.16-.51,3.92-1.11-.18-1.65-.38-.05.64-1.7,3.11-1.64,1.05.03,2.08.32,3.12.49Z"/>
        <path class="cls-1" d="m305.35,78.44c.11-.05.23-.14.34-.13.11,0,.2.1.3.15l-.34.14-.3-.16Z"/>
      </g>
    </g>
  </g>
</svg>