<?xml version="1.0" encoding="UTF-8"?>
<svg id="_레이어_2" data-name="레이어 2" xmlns="http://www.w3.org/2000/svg" viewBox="0 0 382.77 635.38">
  <defs>
    <style>
      .cls-1 {
        fill: #55504c;
      }

      .cls-1, .cls-2, .cls-3, .cls-4, .cls-5, .cls-6 {
        stroke-width: 0px;
      }

      .cls-2 {
        fill: #846c67;
      }

      .cls-3 {
        fill: #b0a99f;
      }

      .cls-4 {
        fill: #b19b8f;
      }

      .cls-5 {
        fill: #917970;
      }

      .cls-6 {
        fill: #fffeff;
      }
    </style>
  </defs>
  <g id="_레이어_1-2" data-name="레이어 1">
    <g>
      <rect class="cls-4" width="382.77" height="635.38" rx="13.84" ry="13.84"/>
      <rect class="cls-5" x="18.38" y="16.29" width="347.08" height="602.24" rx="16.98" ry="16.98"/>
      <path class="cls-2" d="m55.73,139.78c9.07,0,16.42,7.35,16.42,16.42v389.36c0,36.54,97.51,40.16,136.56,40.14,8.86,0,16.12,7.05,16.39,15.91h0c.29,9.26-7.14,16.92-16.41,16.92H34.79c-9.07,0-16.42-7.35-16.42-16.42V156.19c0-9.07,7.35-16.42,16.42-16.42h20.93Z"/>
      <path class="cls-2" d="m269.69,276.43v142.19c0,32.28,95.76,23.86,95.76,23.86v33.43h-140.87v-198.77l45.11-.7Z"/>
      <path class="cls-2" d="m269.69,149.46s0-10.7,0,33.41c0,63.41,95.76,46.87,95.76,46.87v43.14h-140.87v-122.04l45.11-1.38Z"/>
      <rect class="cls-4" x="215.65" y="139.78" width="8.94" height="478.75"/>
      <rect class="cls-4" x="14.73" y="139.78" width="350.73" height="8.54"/>
      <rect class="cls-4" x="224.59" y="139.78" width="140.87" height="8.54"/>
      <rect class="cls-4" x="224.59" y="272.51" width="140.87" height="8.54"/>
      <rect class="cls-4" x="224.59" y="475.9" width="140.87" height="8.54"/>
      <g>
        <path class="cls-1" d="m287.04,553.73c0-4.41,3.58-7.99,7.99-7.99s7.99,3.58,7.99,7.99-3.58,7.99-7.99,7.99-7.99-3.58-7.99-7.99Z"/>
        <path class="cls-3" d="m290.25,551.63c0-2.64,2.14-4.78,4.78-4.78s4.78,2.14,4.78,4.78-2.14,4.78-4.78,4.78-4.78-2.14-4.78-4.78Z"/>
        <path class="cls-6" d="m289.23,550.61c.66.61,1.53,1,2.51,1,2.03,0,3.68-1.65,3.68-3.68,0-.81-.27-1.55-.71-2.16-.1,0-.2-.03-.31-.03-2.76,0-5,2.15-5.17,4.87Z"/>
        <path class="cls-6" d="m300.53,549.55c.5,1.22.31,2.45-.43,2.76s-1.74-.44-2.24-1.66c-.5-1.22-.31-2.45.43-2.76.74-.3,1.74.44,2.24,1.66Z"/>
      </g>
      <rect class="cls-4" x="14.73" y="234.49" width="200.93" height="8.54"/>
    </g>
  </g>
</svg>